<?xml version="1.0" encoding="utf-8"?>
<!-- Generator: Adobe Illustrator 16.0.0, SVG Export Plug-In . SVG Version: 6.00 Build 0)  -->
<!DOCTYPE svg PUBLIC "-//W3C//DTD SVG 1.1//EN" "http://www.w3.org/Graphics/SVG/1.1/DTD/svg11.dtd">
<svg version="1.1" xmlns="http://www.w3.org/2000/svg" xmlns:xlink="http://www.w3.org/1999/xlink" x="0px" y="0px" width="200px"
	 height="200px" viewBox="0 0 200 200" enable-background="new 0 0 200 200" xml:space="preserve">
<g id="_x33_">
	<g>
		<path fill-rule="evenodd" clip-rule="evenodd" fill="#CEAA46" d="M54.136,18.012h91.73c19.815,0,36.082,16.268,36.082,36.084
			v91.729c0,19.898-16.266,36.164-36.082,36.164h-91.73c-19.898,0-36.083-16.266-36.083-36.164V54.096
			C18.053,34.279,34.237,18.012,54.136,18.012L54.136,18.012z"/>
		<path fill-rule="evenodd" clip-rule="evenodd" fill="#FEFEFE" d="M107.885,81.424v-7.928c0-3.797,2.559-4.705,4.377-4.705
			c1.733,0,11.063,0,11.063,0V51.865h-15.274c-16.927,0-20.726,12.549-20.726,20.641v8.918h-9.824v11.889v7.844h9.908
			c0,22.377,0,49.291,0,49.291h19.732c0,0,0-27.246,0-49.291h14.616l0.659-7.762l1.156-11.971H107.885z"/>
	</g>
</g>
<g id="Layer_1">
</g>
</svg>
