<?xml version="1.0" encoding="UTF-8" standalone="yes"?>
<!-- Created with sK1/UniConvertor (http://sk1project.org/) -->
<svg xmlns="http://www.w3.org/2000/svg" xmlns:xlink="http://www.w3.org/1999/xlink"
  width="595.276pt" height="841.89pt" viewBox="0 0 595.276 841.89"
  fill-rule="evenodd">
<g>
<path style="stroke:none; fill:#8ac53c" d="M 116.56 433.39C 134.5 427.88 153.46 427.63 172.05 428.5C 178.66 429.28 185.21 430.51 191.8 431.49C 191.28 431.76 190.76 432.04 190.24 432.31C 195.58 432.22 200.53 434.41 205.42 436.28C 225.21 443.56 243.26 455.52 257.81 470.77C 246.27 469.1 234.65 467.89 223 467.47C 210.04 467.99 197.04 469.16 184.36 472.03C 172.84 474.47 161.69 478.36 150.55 482.11C 150.62 482.45 150.76 483.12 150.83 483.45C 142.65 484.65 136.11 489.98 129.07 493.84C 115.71 502.14 103 511.61 91.98 522.86C 88.64 526.11 85.65 529.79 81.69 532.33C 81.18 512.99 86.13 494.11 89.59 475.22C 89.86 475.69 90.13 476.16 90.4 476.63C 90.99 468.05 94.73 460.17 97.01 451.98C 98.64 447.58 99.51 442.83 101.86 438.74C 106.34 436.02 111.63 435.02 116.56 433.39z"/>
<path style="stroke:none; fill:#faa927" d="M 77.5 451.39C 81.24 449.07 84.75 446.06 89.2 445.23C 88.14 450.97 85.33 456.16 83.82 461.77C 79.9 473.05 76.64 484.55 73.58 496.1C 71.71 505.65 69.65 515.15 68.12 524.76C 66.17 539.04 66.26 553.5 66.55 567.9C 67.11 582.59 71.08 596.88 76.14 610.6C 73.45 608.72 70.73 606.82 68.54 604.34C 59.54 594.29 49.93 584.62 42.76 573.1C 37.25 564.65 32.13 555.92 28.31 546.56C 25.75 539.96 21.72 533.77 20.98 526.6C 26.59 510.27 34.59 494.71 45.09 480.99C 54.87 470.1 65.04 459.26 77.5 451.39z"/>
<path style="stroke:none; fill:#0d9444" d="M 184.36 472.03C 197.04 469.16 210.04 467.99 223 467.47C 234.65 467.89 246.27 469.1 257.81 470.77C 267.65 481.76 276.87 493.53 283.12 506.99C 291.15 521.74 295.21 538.3 297.27 554.87C 297.61 559.86 297.64 564.87 298.17 569.84C 297.92 570.14 297.4 570.73 297.15 571.02C 286.88 560.55 276.7 549.96 265.88 540.04C 257.27 532.99 248.91 525.6 239.79 519.2C 219.76 504.72 197.54 492.74 173.48 486.65C 166.07 484.63 158.39 484.47 150.83 483.45C 150.76 483.12 150.62 482.45 150.55 482.11C 161.69 478.36 172.84 474.47 184.36 472.03z"/>
<g>
<path style="stroke:none; fill:#0a4ea0" d="M 401.5 477.87C 401.01 474.33 404.7 471.61 407.94 471.54C 411.42 471.55 415.15 470.94 418.4 472.47C 420.25 473.55 421.6 475.66 421.49 477.84C 421.65 492.68 421.38 507.53 421.61 522.37C 432.91 523.11 444.38 521.35 455.54 523.74C 470.75 527.15 482.61 541.33 483.43 556.88C 483.63 566.54 483.53 576.22 483.5 585.88C 483.64 597.57 477.97 609.41 468.09 615.88C 461.56 620.06 453.84 622.74 446.03 622.51C 433.03 622.51 420.03 622.63 407.04 622.48C 403.6 622.74 401.15 619.07 401.49 615.9C 401.53 569.89 401.52 523.88 401.5 477.87zM 421.62 542.29C 421.51 562.17 421.45 582.06 421.65 601.93C 421.96 602.31 422.59 603.05 422.91 603.43C 429.94 603.71 436.98 603.44 444.01 603.54C 452.49 604.02 461.08 597.97 462.91 589.58C 463.69 586.75 463.47 583.78 463.51 580.88C 463.42 573.54 463.58 566.19 463.46 558.85C 463.26 550.23 455.86 541.94 446.99 542.1C 438.53 542.1 430.06 541.8 421.62 542.29z"/>
<path style="stroke:none; fill:#0a4ea0" d="M 782.51 532.37C 790.32 525.61 800.77 522.52 811 522.51C 821.68 522.55 832.37 522.44 843.05 522.55C 846.44 522.44 850.14 525.17 849.71 528.84C 849.8 557.87 849.72 586.9 849.73 615.93C 850.22 619.27 847.44 622.75 843.97 622.5C 840.55 622.55 837.04 622.89 833.69 622.12C 830.64 620.79 830 617.23 828.87 614.48C 825.27 617.24 822.14 620.79 817.78 622.37C 812.18 624.79 805.99 624.7 800.02 624.54C 791.33 624.42 783.05 619.97 777.5 613.4C 771.61 606.31 768.11 597.13 768.25 587.87C 768.21 579.88 768.26 571.89 768.23 563.89C 767.62 551.9 773.46 540.07 782.51 532.37zM 805.35 542.23C 795.36 544.01 787.83 553.85 788.27 563.9C 788.25 572.23 788.19 580.57 788.3 588.9C 788.22 594.97 791.94 600.86 797.27 603.69C 801.91 606.38 807.55 605.58 812.66 605.24C 822.45 602.75 829.93 593.02 829.61 582.88C 829.59 569.86 829.65 556.83 829.6 543.82C 829.76 541.46 826.68 541.42 825.02 541.48C 818.47 541.77 811.8 540.82 805.35 542.23z"/>
<path style="stroke:none; fill:#0a4ea0" d="M 229.12 618.98C 230 618.22 230.9 617.51 231.81 616.79C 225.86 644.57 214.49 671.41 197.08 693.97C 193.59 698.39 190.3 703.04 185.98 706.71C 171.61 710.19 156.69 709.84 142.01 709.44C 121.07 707.76 100.74 700.71 82.66 690.13C 81.57 689.45 80.64 688.55 79.7 687.68C 93.48 685.99 107.11 683.22 120.53 679.69C 148.21 672.56 175.39 662.24 199.24 646.26C 210.5 638.72 220.54 629.44 229.12 618.98z"/>
</g>
<path style="stroke:none; fill:#094d9f" d="M 356.38 483.32C 360.78 482.15 365.94 481.86 370.15 483.85C 374 486.18 372.29 491.2 372.67 494.89C 372.25 498.62 374.07 503.7 370.26 506.15C 367.25 508.21 363.35 507.18 359.94 507.39C 356.25 507.86 352.46 504.76 352.61 500.97C 352.52 497.26 352.53 493.55 352.59 489.84C 352.54 487.25 353.69 484.16 356.38 483.32z"/>
<g>
<path style="stroke:none; fill:#0a4e9f" d="M 522.88 525.98C 538.69 516.81 560.76 518.89 573.77 532.06C 579.32 538.38 583.58 546.33 583.75 554.92C 583.84 561.77 583.99 568.63 583.7 575.48C 583.91 578.45 580.51 579.71 578.05 579.55C 560.89 579.57 543.72 579.57 526.56 579.54C 522.85 589.51 528.63 602.51 539.24 605.22C 546.27 605.65 554.21 606.68 560.23 602.11C 564.01 600.07 566.24 594.9 571 595.1C 574.93 594.87 577.39 598.55 580 600.91C 582.66 603.37 581.97 607.99 579.51 610.39C 572.91 617.67 563.84 623.03 554.01 624.27C 550.36 624.65 546.68 624.6 543.02 624.55C 530.81 624.58 518.9 618.06 511.97 608.08C 507.86 601.47 505.34 593.72 505.52 585.9C 505.55 576.89 505.54 567.88 505.51 558.88C 505.54 545.96 511.62 532.8 522.88 525.98zM 531.56 543.44C 526.84 548.53 524.78 555.88 525.8 562.71C 531.16 563.57 536.6 563.1 542 563.2C 549.37 562.97 556.8 563.77 564.12 562.63C 564.82 556.59 563.3 550.18 559.49 545.38C 556.5 541.64 551.62 540.07 547.03 539.51C 541.69 539.1 535.75 539.83 531.56 543.44z"/>
<path style="stroke:none; fill:#0a4e9f" d="M 618.58 531.44C 626.74 523.32 638.6 519.55 650 520.49C 659.46 520.89 667.53 526.4 675.02 531.65C 681.19 526.07 688.77 521.79 697.15 520.8C 707.94 519.38 719.65 521.62 728.16 528.7C 736.87 535.62 741.66 546.86 741.45 557.89C 741.42 577.25 741.46 596.6 741.44 615.96C 741.62 618.77 739.95 622.21 736.82 622.39C 733.28 622.69 729.71 622.66 726.17 622.41C 723.43 622.29 721.29 619.49 721.48 616.83C 721.38 600.19 721.47 583.54 721.44 566.89C 721.54 559.71 722.08 551.63 717.14 545.75C 710.07 536.73 694.23 537.32 688.08 547.08C 684.56 551.97 685.35 558.22 685.27 563.89C 685.3 581.23 685.25 598.57 685.3 615.91C 685.51 617.87 684.52 619.67 683.11 620.96C 681.08 623.25 677.69 622.32 675 622.59C 672.3 622.32 668.92 623.28 666.89 620.98C 665.47 619.67 664.48 617.87 664.69 615.9C 664.69 596.23 664.76 576.55 664.66 556.88C 664.79 550.23 660.71 543.74 654.57 541.11C 645.76 536.73 633.82 540.94 630.16 550.19C 627.94 555.12 628.56 560.64 628.48 565.89C 628.46 582.87 628.54 599.85 628.47 616.82C 628.62 619.49 626.53 622.17 623.83 622.38C 620.29 622.67 616.71 622.69 613.17 622.39C 610.05 622.17 608.25 618.82 608.51 615.95C 608.55 595.92 608.51 575.89 608.54 555.86C 608.98 546.94 612.43 538 618.58 531.44z"/>
<path style="stroke:none; fill:#0a4e9f" d="M 354.46 524.41C 357.62 521.61 362.17 522.59 366.03 522.53C 368.72 522.46 370.71 524.48 372.6 526.12C 372.7 556.36 372.64 586.6 372.63 616.84C 372.92 620.37 369.38 623.04 366.04 622.54C 361.99 622.2 356.66 623.93 353.87 620.04C 352.78 618.94 352.47 617.42 352.55 615.92C 352.6 588.23 352.63 560.55 352.54 532.86C 352.62 529.99 351.98 526.51 354.46 524.41z"/>
</g>
<path style="stroke:none; fill:#ffdf14" d="M 20.87 525.76L 20.98 526.6C 21.72 533.77 25.75 539.96 28.31 546.56C 32.13 555.92 37.25 564.65 42.76 573.1C 49.93 584.62 59.54 594.29 68.54 604.34C 70.73 606.82 73.45 608.72 76.14 610.6C 80.91 615.35 86.03 619.76 91.89 623.14C 98.74 628.23 106.17 632.47 113.86 636.15C 119.77 639.34 125.9 642.18 132.32 644.21C 132.41 644.47 132.6 644.99 132.69 645.25C 137.11 645.46 141.02 647.68 145.26 648.68C 150.26 649.93 155.21 651.34 160.15 652.77C 155.13 656.63 148.83 658.14 143.26 661.01C 135.4 663.65 127.78 667.04 119.78 669.28C 109.13 671.12 99.24 676.62 88.22 676.39C 88.74 676.71 89.26 677.03 89.78 677.36C 82.09 677.31 74.73 681.36 67.04 680.03C 60.41 676.16 55.74 669.85 50.5 664.38C 42.42 655.88 36.21 645.87 30.25 635.84C 24.75 623.72 18.19 611.51 17.43 597.97C 17.12 598.91 16.81 599.87 16.5 600.82C 16.69 594.09 14.46 587.6 14.45 580.89C 14.33 573.89 14.37 566.89 14.49 559.89C 14.58 553.73 16.4 547.74 16.57 541.59C 16.82 541.5 17.32 541.32 17.58 541.24C 18.04 538.22 18.47 535.19 18.51 532.13C 18.85 532.64 19.19 533.15 19.53 533.67C 19.98 531.03 20.46 528.4 20.87 525.76z"/>
<path style="stroke:none; fill:#23aae1" d="M 227.43 527.11C 236.29 531.6 244.29 537.66 251.99 543.91C 265.88 554.9 278.08 567.78 290.36 580.51C 292.43 582.86 294.96 584.97 296.26 587.88C 295.96 593.9 294.02 599.65 292.47 605.42C 288.93 618.63 283.66 631.48 276.09 642.91C 273.45 647 271.11 651.28 268.22 655.2C 262.38 662.89 255.47 669.69 248.41 676.26C 241.97 681.18 235.44 686.03 228.61 690.41C 215.29 697.81 201.02 703.9 185.98 706.71C 190.3 703.04 193.59 698.39 197.08 693.97C 214.49 671.41 225.86 644.57 231.81 616.79C 230.9 617.51 230 618.22 229.12 618.98C 233.9 612.61 233.15 604.37 234.28 596.91C 235.15 579.97 234.7 562.9 231.54 546.19C 230.73 539.7 228.03 533.62 227.43 527.11z"/>
<path style="stroke:none; fill:#d4e7fc" d="M 483.84 564.89C 483.72 562.4 483.92 559.91 484.65 557.52C 485.57 567.57 485 577.71 484.96 587.79L 483.96 587.79C 483.8 580.15 484.09 572.52 483.84 564.89z"/>
<path style="stroke:none; fill:#14417c" d="M 691.51 638.37C 694.17 637.78 696.43 639.65 698.77 640.6C 699.97 639.52 701.27 638.55 702.74 637.84C 702.71 639.92 702.53 642.28 700.51 643.43C 697.83 644.1 695.46 642.43 693.19 641.33C 691.87 642.3 690.54 643.24 689.13 644.06C 689.14 641.9 689.52 639.6 691.51 638.37z"/>
<path style="stroke:none; fill:#7b9dc7" d="M 502.33 645.1C 503.73 645.11 505.14 645.13 506.56 645.15C 506.54 652.18 506.38 659.21 506.63 666.24C 510.68 666.41 514.74 666.42 518.8 666.3C 518.69 666.7 518.47 667.5 518.36 667.9C 514.09 667.37 509.78 667.52 505.49 667.39C 505.12 659.98 506 652.5 504.74 645.16C 504.03 646.98 503.38 648.87 503.41 650.87C 503.36 656.97 503.48 663.08 503.63 669.19C 508.59 669.3 513.55 669.41 518.51 669.53C 513.4 671.52 507.76 670.23 502.42 670.43C 502.15 661.99 502.23 653.54 502.33 645.1z"/>
<path style="stroke:none; fill:#143b82" d="M 537.77 653.87C 538.38 649.69 541.18 644.85 546.02 645.2C 549.02 644.64 551.5 646.42 553.63 648.28C 553.61 649.33 553.61 650.38 553.61 651.44C 553.07 651.43 551.98 651.41 551.44 651.4C 550.47 650.32 549.51 649.26 548.54 648.2C 544.86 647.47 541.49 650.03 541.36 653.83C 541.26 658.09 540.14 664.01 544.41 666.67C 548.25 669.25 550.95 663.52 554.88 664.04C 554.26 669.82 546.33 672.33 541.97 668.88C 537.39 665.51 537.05 659.03 537.77 653.87z"/>
<path style="stroke:none; fill:#103d8e" d="M 581.67 645.32C 583.13 645.4 584.59 645.49 586.06 645.6C 587.38 650.94 589.17 656.15 590.84 661.4C 591.74 664.4 593.51 667.51 592.19 670.67C 591.6 670.53 590.42 670.25 589.83 670.12C 589.34 667.87 588.74 665.65 588.23 663.42C 585.27 663.31 582.31 663.3 579.36 663.33C 578.35 665.72 578.53 669.12 575.99 670.48C 573.46 670.1 574.5 667.55 574.97 665.91C 577.3 659.08 579.4 652.17 581.67 645.32zM 583.55 649.82C 582.27 653.29 581.22 656.83 580.19 660.38C 582.41 660.4 584.63 660.4 586.86 660.41C 586.13 656.77 585.19 653.16 583.55 649.82z"/>
<path style="stroke:none; fill:#1f4285" d="M 649.64 645.48C 655.3 645.28 660.97 645.43 666.64 645.36C 666.63 646.36 666.63 647.37 666.65 648.38C 664.52 648.42 662.39 648.46 660.27 648.57C 660.21 655.31 660.66 662.08 660.11 668.8C 659.7 671.59 656.64 669.96 656.87 667.86C 656.53 661.44 656.8 655 656.8 648.58C 654.41 648.44 652.02 648.36 649.64 648.22C 649.64 647.3 649.64 646.39 649.64 645.48z"/>
<path style="stroke:none; fill:#124085" d="M 730.48 645.48C 733.26 644.87 736.65 644.88 738.6 647.32C 742.49 651.06 741.81 656.92 741.58 661.82C 741.31 665.87 738.37 670.16 734.04 670.4C 728.44 670.95 724.52 665.03 724.58 659.95C 724.17 654.74 724.89 647.69 730.48 645.48zM 730.33 649.3C 727.62 652.43 727.24 657.01 728.06 660.93C 728.47 663.12 728.98 665.82 731.3 666.79C 734.27 668.76 737.44 665.6 738.09 662.76C 739.04 657.85 738.98 652.31 735.69 648.24C 733.91 648.49 731.63 647.72 730.33 649.3z"/>
<path style="stroke:none; fill:#114186" d="M 352.64 645.52C 357.52 645.72 364.03 643.86 367.39 648.52C 369.95 652.23 367.58 656.66 364.59 659.24C 361.81 659.35 359.03 659.44 356.25 659.58C 355.77 663.05 357.96 668.56 353.94 670.37C 353.64 669.99 353.04 669.22 352.74 668.83C 352.41 661.08 352.67 653.29 352.64 645.52zM 356.31 648.27C 356.29 651.02 356.28 653.77 356.28 656.53C 358.85 656.12 362.34 657.4 364.17 655.05C 365.11 653.09 365.24 650.07 363.15 648.79C 360.94 648.12 358.58 648.41 356.31 648.27z"/>
<path style="stroke:none; fill:#114686" d="M 394.8 645.25C 396.34 645.47 398.54 644.89 399.1 646.9C 401.56 653.58 403.53 660.44 405.66 667.23C 406.46 668.84 404.99 669.97 403.92 670.93C 402.78 668.53 401.98 665.99 400.88 663.57C 397.87 663.05 394.77 663.22 391.79 663.85C 391.26 666.11 391.6 669.53 388.99 670.53C 386.41 670.11 387.47 667.46 387.99 665.78C 390.42 658.99 392.41 652.05 394.8 645.25zM 396.22 650.24C 395.06 650.73 394.61 652.4 395.23 653.45C 394.62 655.64 393.98 657.84 393.66 660.11C 395.67 660.42 397.71 660.38 399.75 660.4C 399.2 657.7 398.52 655.05 397.92 652.38C 398.46 651.37 397.36 649.87 396.22 650.24z"/>
<path style="stroke:none; fill:#134181" d="M 427.62 645.5C 431.79 645.6 436.34 644.56 440.19 646.63C 443.95 649.04 444.17 654.82 440.84 657.69C 438.19 660.31 434.18 659.17 430.87 659.37C 430.6 662.78 430.81 666.22 430.53 669.63C 429.14 671.31 427.52 669.59 427.62 667.93C 427.5 660.45 427.57 652.97 427.62 645.5zM 430.65 648.43C 430.67 651.08 430.69 653.72 430.7 656.37C 433.04 656.27 435.6 656.92 437.81 655.93C 440.34 655.04 439.74 651.72 439.24 649.68C 436.78 647.75 433.52 648.48 430.65 648.43z"/>
<path style="stroke:none; fill:#124188" d="M 464.6 645.5C 469.71 645.34 474.83 645.28 479.94 645.52C 479.88 646.26 479.75 647.75 479.68 648.49C 475.86 648.35 472.04 648.34 468.23 648.55C 468.26 650.84 468.28 653.14 468.3 655.44C 471.47 655.36 474.65 655.36 477.82 655.58C 477.78 656.3 477.71 657.76 477.67 658.49C 474.52 658.36 471.37 658.36 468.24 658.55C 468.25 661.38 468.26 664.21 468.3 667.05C 472.14 667.24 475.98 667.26 479.82 667.16C 479.8 667.89 479.76 669.35 479.74 670.08C 475.19 670.16 470.61 670.47 466.07 670.01C 465.71 669.73 465 669.16 464.64 668.88C 464.39 661.09 464.59 653.29 464.6 645.5z"/>
<path style="stroke:none; fill:#134383" d="M 503.41 650.87C 503.38 648.87 504.03 646.98 504.74 645.16C 506 652.5 505.12 659.98 505.49 667.39C 509.78 667.52 514.09 667.37 518.36 667.9C 518.64 668.31 519.18 669.13 519.45 669.53L 518.51 669.53C 513.55 669.41 508.59 669.3 503.63 669.19C 503.48 663.08 503.36 656.97 503.41 650.87z"/>
<path style="stroke:none; fill:#134488" d="M 614.23 646.05C 616.81 644.65 620.17 645.58 623.06 645.43C 626.51 645.26 629.97 648.3 629.57 651.88C 630.11 655.14 627.14 657.05 625.35 659.26C 626.35 662.82 628.98 665.68 630.71 668.92C 630 669.32 628.59 670.11 627.89 670.51C 625.59 666.83 623.92 662.69 621.01 659.43C 619.77 659.42 618.54 659.45 617.32 659.54C 616.91 663.09 618.7 667.52 616.03 670.38C 612.6 669.58 613.94 665.42 613.67 662.89C 614.03 657.3 613.01 651.52 614.23 646.05zM 617.45 648.33C 617.38 651.04 617.37 653.75 617.42 656.46C 620.18 656.28 623.92 657.26 625.63 654.39C 627.06 652.87 625.93 650.87 625.7 649.14C 623.01 648.39 620.21 648.31 617.45 648.33z"/>
<path style="stroke:none; fill:#094091" d="M 693.29 647.16C 693.51 644.48 697.95 644.73 698.51 647.14C 700.9 654.41 702.86 661.83 705.59 669C 704.88 669.42 703.47 670.24 702.77 670.66C 701.79 668.28 700.92 665.87 700.21 663.4C 697.34 663.33 694.46 663.32 691.6 663.33C 690.55 665.8 690.54 669.14 687.95 670.59C 687.56 670.21 686.77 669.45 686.37 669.07C 688.41 661.69 690.99 654.46 693.29 647.16zM 693.02 660.44C 694.98 660.42 696.96 660.41 698.94 660.38C 698.37 656.76 697.17 653.28 696.02 649.81C 694.18 653.06 693.33 656.74 693.02 660.44z"/>
<path style="stroke:none; fill:#6c9dd4" d="M 396.22 650.24C 397.36 649.87 398.46 651.37 397.92 652.38C 397.04 652.79 396.15 653.15 395.23 653.45C 394.61 652.4 395.06 650.73 396.22 650.24z"/>
</g>
</svg>