<?xml version="1.0" encoding="utf-8"?>
<!-- Generator: Adobe Illustrator 16.0.0, SVG Export Plug-In . SVG Version: 6.00 Build 0)  -->
<!DOCTYPE svg PUBLIC "-//W3C//DTD SVG 1.1//EN" "http://www.w3.org/Graphics/SVG/1.1/DTD/svg11.dtd">
<svg version="1.1" id="Layer_1" xmlns="http://www.w3.org/2000/svg" xmlns:xlink="http://www.w3.org/1999/xlink" x="0px" y="0px"
	 width="100px" height="100px" viewBox="0 0 100 100" enable-background="new 0 0 100 100" xml:space="preserve">
<g>
	<g>
		<path fill="#FFFFFF" d="M13.677,34.4c2.065-0.635,4.248-0.663,6.388-0.563c0.762,0.09,1.516,0.231,2.274,0.344
			c-0.061,0.031-0.12,0.063-0.18,0.094c0.614-0.01,1.185,0.242,1.747,0.458c2.278,0.838,4.356,2.215,6.031,3.97
			c-1.328-0.192-2.666-0.332-4.008-0.38c-1.491,0.06-2.988,0.195-4.447,0.525c-1.327,0.28-2.61,0.728-3.893,1.16
			c0.008,0.04,0.024,0.117,0.032,0.154c-0.942,0.139-1.694,0.752-2.506,1.196c-1.537,0.956-3,2.045-4.269,3.341
			c-0.385,0.374-0.729,0.798-1.186,1.09c-0.059-2.226,0.512-4.4,0.91-6.574c0.03,0.053,0.062,0.107,0.093,0.162
			c0.068-0.988,0.499-1.895,0.761-2.838c0.188-0.507,0.288-1.053,0.559-1.524C12.5,34.702,13.109,34.588,13.677,34.4z"/>
	</g>
	<g>
		<path fill="#FFFFFF" d="M9.18,36.472c0.431-0.267,0.835-0.613,1.348-0.709c-0.122,0.661-0.446,1.258-0.62,1.904
			c-0.451,1.299-0.826,2.623-1.179,3.953c-0.215,1.099-0.452,2.193-0.628,3.299c-0.225,1.644-0.214,3.309-0.181,4.966
			c0.064,1.692,0.521,3.336,1.104,4.916c-0.31-0.216-0.623-0.435-0.875-0.72c-1.036-1.158-2.143-2.271-2.968-3.596
			c-0.634-0.974-1.224-1.979-1.663-3.056c-0.295-0.76-0.759-1.473-0.844-2.298c0.646-1.88,1.566-3.67,2.775-5.25
			C6.575,38.626,7.746,37.378,9.18,36.472z"/>
	</g>
	<g>
		<path fill="#FFFFFF" d="M21.482,38.849c1.459-0.331,2.956-0.465,4.447-0.525c1.342,0.048,2.68,0.188,4.008,0.38
			c1.133,1.265,2.194,2.621,2.913,4.17c0.925,1.698,1.393,3.604,1.63,5.511c0.039,0.575,0.042,1.151,0.104,1.724
			c-0.029,0.034-0.089,0.102-0.118,0.136c-1.182-1.206-2.354-2.425-3.6-3.566c-0.991-0.812-1.953-1.663-3.003-2.399
			c-2.307-1.667-4.864-3.046-7.634-3.747c-0.853-0.233-1.737-0.251-2.607-0.369c-0.008-0.038-0.024-0.115-0.032-0.154
			C18.872,39.577,20.155,39.129,21.482,38.849z"/>
	</g>
	<g>
		<g>
			<path fill="#FFFFFF" d="M46.479,39.521c-0.056-0.407,0.369-0.721,0.742-0.729c0.4,0.001,0.83-0.069,1.204,0.107
				c0.213,0.124,0.368,0.367,0.355,0.618c0.019,1.708-0.013,3.418,0.014,5.126c1.301,0.085,2.622-0.117,3.906,0.157
				c1.751,0.393,3.116,2.025,3.211,3.816c0.022,1.112,0.012,2.226,0.008,3.338c0.017,1.346-0.637,2.708-1.773,3.454
				c-0.752,0.481-1.641,0.79-2.54,0.763c-1.497,0-2.993,0.014-4.488-0.003c-0.396,0.03-0.679-0.392-0.639-0.758
				C46.482,50.114,46.481,44.817,46.479,39.521z M48.795,46.937c-0.013,2.289-0.02,4.579,0.004,6.866
				c0.035,0.043,0.108,0.129,0.145,0.172c0.81,0.032,1.62,0.001,2.429,0.013c0.977,0.056,1.966-0.641,2.177-1.607
				c0.09-0.326,0.064-0.667,0.069-1.001c-0.011-0.845,0.008-1.691-0.006-2.536c-0.023-0.993-0.875-1.947-1.896-1.929
				C50.742,46.915,49.767,46.88,48.795,46.937z"/>
		</g>
		<g>
			<path fill="#FFFFFF" d="M90.341,45.794c0.899-0.778,2.103-1.134,3.28-1.135c1.229,0.004,2.46-0.008,3.689,0.004
				c0.391-0.013,0.816,0.302,0.767,0.724c0.01,3.342,0.001,6.684,0.003,10.025c0.056,0.385-0.265,0.786-0.664,0.757
				c-0.393,0.006-0.797,0.045-1.184-0.044c-0.351-0.153-0.424-0.563-0.555-0.88c-0.414,0.318-0.774,0.727-1.276,0.909
				c-0.645,0.278-1.357,0.268-2.044,0.249c-1.001-0.013-1.954-0.526-2.593-1.282c-0.679-0.816-1.081-1.874-1.065-2.939
				c-0.004-0.92,0.001-1.84-0.002-2.761C88.627,48.042,89.3,46.681,90.341,45.794z M92.971,46.93
				c-1.15,0.205-2.018,1.338-1.967,2.495c-0.002,0.958-0.009,1.919,0.004,2.877c-0.01,0.699,0.419,1.377,1.032,1.703
				c0.534,0.31,1.184,0.218,1.772,0.178c1.127-0.287,1.987-1.407,1.951-2.574c-0.003-1.499,0.004-2.999-0.001-4.497
				c0.018-0.271-0.337-0.276-0.528-0.269C94.48,46.876,93.713,46.768,92.971,46.93z"/>
		</g>
		<path fill="#FFFFFF" d="M26.635,55.765c0.102-0.087,0.205-0.169,0.31-0.252c-0.686,3.198-1.994,6.288-3.998,8.885
			c-0.402,0.508-0.78,1.044-1.277,1.467c-1.654,0.4-3.372,0.36-5.063,0.313c-2.41-0.193-4.751-1.004-6.832-2.222
			c-0.126-0.079-0.232-0.182-0.341-0.282c1.586-0.194,3.155-0.513,4.7-0.92c3.187-0.82,6.315-2.008,9.061-3.848
			C24.491,58.038,25.646,56.969,26.635,55.765z"/>
	</g>
	<g>
		<path fill="#FFFFFF" d="M41.285,40.148c0.506-0.135,1.1-0.168,1.585,0.061c0.443,0.268,0.246,0.846,0.29,1.271
			c-0.049,0.43,0.161,1.015-0.277,1.296c-0.347,0.237-0.795,0.118-1.188,0.144c-0.425,0.053-0.86-0.304-0.843-0.74
			c-0.011-0.427-0.01-0.854-0.003-1.281C40.843,40.6,40.976,40.245,41.285,40.148z"/>
	</g>
	<g>
		<g>
			<path fill="#FFFFFF" d="M60.452,45.059c1.82-1.055,4.36-0.816,5.858,0.7c0.639,0.728,1.13,1.643,1.148,2.632
				c0.012,0.789,0.028,1.578-0.005,2.366c0.024,0.342-0.367,0.488-0.65,0.469c-1.976,0.002-3.952,0.002-5.928,0
				c-0.427,1.147,0.238,2.644,1.46,2.956c0.809,0.05,1.724,0.168,2.416-0.358c0.436-0.235,0.692-0.831,1.24-0.807
				c0.452-0.026,0.735,0.397,1.036,0.668c0.306,0.283,0.227,0.815-0.057,1.092c-0.76,0.838-1.804,1.455-2.936,1.598
				c-0.42,0.043-0.844,0.038-1.266,0.032c-1.405,0.003-2.776-0.747-3.574-1.896c-0.473-0.761-0.763-1.653-0.742-2.553
				c0.003-1.037,0.002-2.074-0.001-3.111C58.456,47.359,59.156,45.844,60.452,45.059z M61.451,47.069
				c-0.543,0.586-0.78,1.433-0.663,2.219c0.617,0.099,1.244,0.045,1.865,0.056c0.849-0.027,1.704,0.065,2.547-0.066
				c0.081-0.695-0.095-1.433-0.533-1.985c-0.344-0.431-0.906-0.612-1.435-0.676C62.618,46.569,61.935,46.654,61.451,47.069z"/>
		</g>
		<path fill="#FFFFFF" d="M71.47,45.688c0.939-0.935,2.305-1.369,3.617-1.261c1.089,0.046,2.018,0.681,2.88,1.285
			c0.71-0.642,1.583-1.135,2.548-1.249c1.242-0.164,2.59,0.094,3.569,0.909c1.003,0.796,1.555,2.09,1.53,3.36
			c-0.004,2.229,0.001,4.456-0.001,6.685c0.021,0.323-0.172,0.72-0.532,0.74c-0.407,0.035-0.818,0.031-1.226,0.002
			c-0.315-0.014-0.562-0.336-0.54-0.643c-0.012-1.915-0.002-3.832-0.005-5.749c0.012-0.827,0.074-1.757-0.494-2.434
			c-0.814-1.039-2.639-0.971-3.347,0.153c-0.405,0.563-0.313,1.283-0.323,1.936c0.004,1.996-0.002,3.992,0.004,5.988
			c0.024,0.226-0.09,0.433-0.252,0.581c-0.234,0.264-0.624,0.157-0.935,0.188c-0.31-0.031-0.699,0.08-0.933-0.185
			c-0.164-0.151-0.278-0.358-0.254-0.585c0-2.264,0.008-4.53-0.003-6.793c0.015-0.766-0.455-1.513-1.162-1.816
			c-1.014-0.504-2.389-0.02-2.81,1.045c-0.256,0.568-0.185,1.203-0.193,1.808c-0.003,1.955,0.007,3.909-0.001,5.863
			c0.017,0.307-0.224,0.615-0.534,0.64c-0.408,0.033-0.82,0.035-1.228,0c-0.359-0.025-0.566-0.411-0.537-0.741
			c0.005-2.306,0-4.612,0.005-6.918C70.364,47.472,70.762,46.442,71.47,45.688z"/>
		<path fill="#FFFFFF" d="M41.063,44.878c0.364-0.322,0.889-0.209,1.332-0.216c0.311-0.008,0.539,0.225,0.757,0.414
			c0.012,3.481,0.004,6.962,0.003,10.443c0.033,0.406-0.374,0.714-0.758,0.657c-0.467-0.04-1.08,0.16-1.401-0.289
			c-0.126-0.126-0.161-0.301-0.152-0.474c0.006-3.188,0.01-6.375-0.001-9.562C40.852,45.521,40.778,45.12,41.063,44.878z"/>
	</g>
	<g>
		<path fill="#FFFFFF" d="M2.661,45.033l0.013,0.097c0.085,0.826,0.549,1.538,0.844,2.298c0.439,1.077,1.029,2.082,1.663,3.056
			c0.825,1.325,1.932,2.438,2.968,3.596c0.252,0.285,0.565,0.504,0.875,0.72c0.549,0.547,1.139,1.054,1.813,1.444
			c0.788,0.585,1.644,1.074,2.529,1.497c0.68,0.368,1.386,0.694,2.125,0.929c0.011,0.03,0.032,0.089,0.043,0.12
			c0.509,0.024,0.958,0.28,1.446,0.395c0.576,0.145,1.146,0.307,1.714,0.471c-0.577,0.444-1.303,0.618-1.944,0.949
			c-0.904,0.304-1.781,0.694-2.702,0.952c-1.227,0.211-2.364,0.845-3.634,0.818c0.061,0.037,0.119,0.074,0.18,0.112
			c-0.885-0.005-1.732,0.46-2.618,0.307c-0.763-0.445-1.3-1.172-1.903-1.801c-0.931-0.979-1.646-2.131-2.332-3.286
			c-0.633-1.396-1.388-2.801-1.476-4.36c-0.035,0.108-0.071,0.219-0.107,0.329C2.18,52.9,1.923,52.152,1.922,51.38
			c-0.014-0.806-0.009-1.612,0.005-2.418c0.01-0.709,0.22-1.398,0.239-2.106c0.028-0.01,0.086-0.031,0.116-0.041
			c0.053-0.348,0.103-0.696,0.107-1.048c0.039,0.059,0.077,0.117,0.117,0.177C2.559,45.64,2.613,45.337,2.661,45.033z"/>
	</g>
	<g>
		<path fill="#FFFFFF" d="M26.44,45.189c1.021,0.517,1.94,1.214,2.827,1.934c1.599,1.265,3.004,2.748,4.417,4.213
			c0.238,0.271,0.529,0.513,0.68,0.848c-0.035,0.693-0.258,1.355-0.437,2.02c-0.407,1.521-1.015,3-1.886,4.316
			c-0.305,0.471-0.573,0.963-0.906,1.415c-0.672,0.885-1.468,1.668-2.28,2.424c-0.742,0.566-1.493,1.125-2.28,1.629
			c-1.532,0.852-3.176,1.553-4.906,1.876c0.497-0.423,0.875-0.958,1.277-1.467c2.004-2.597,3.313-5.687,3.998-8.885
			c-0.104,0.083-0.208,0.165-0.31,0.252c0.55-0.733,0.464-1.681,0.594-2.541c0.101-1.95,0.049-3.915-0.315-5.839
			C26.82,46.638,26.51,45.938,26.44,45.189z"/>
	</g>
	<g>
		<path fill="#FFFFFF" d="M55.958,49.538c-0.014-0.287,0.01-0.573,0.093-0.849c0.106,1.157,0.041,2.325,0.036,3.485h-0.115
			C55.953,51.294,55.987,50.417,55.958,49.538z"/>
	</g>
	<g>
		<path fill="#FFFFFF" d="M79.865,57.998c0.307-0.068,0.566,0.147,0.836,0.256c0.138-0.125,0.287-0.236,0.457-0.318
			c-0.004,0.24-0.024,0.512-0.257,0.644c-0.309,0.078-0.581-0.115-0.843-0.242c-0.152,0.112-0.305,0.22-0.468,0.314
			C79.592,58.404,79.636,58.139,79.865,57.998z"/>
	</g>
	<g>
		<path fill="#FFFFFF" d="M58.087,58.772c0.161,0.001,0.323,0.003,0.487,0.006c-0.003,0.81-0.021,1.619,0.008,2.428
			c0.466,0.02,0.934,0.021,1.4,0.007c-0.013,0.046-0.038,0.138-0.051,0.185c-0.491-0.062-0.987-0.044-1.48-0.059
			c-0.044-0.853,0.058-1.714-0.087-2.56c-0.082,0.209-0.157,0.427-0.153,0.657c-0.006,0.703,0.009,1.405,0.025,2.109
			c0.571,0.013,1.142,0.025,1.713,0.039c-0.588,0.229-1.237,0.081-1.853,0.104C58.065,60.716,58.075,59.744,58.087,58.772z"/>
	</g>
	<g>
		<path fill="#FFFFFF" d="M62.167,59.782c0.069-0.481,0.393-1.039,0.949-0.998c0.346-0.064,0.631,0.14,0.876,0.354
			c-0.002,0.121-0.002,0.242-0.002,0.364c-0.063-0.001-0.188-0.003-0.25-0.004c-0.111-0.124-0.223-0.246-0.334-0.369
			c-0.424-0.084-0.812,0.211-0.826,0.648c-0.012,0.49-0.141,1.172,0.351,1.478c0.442,0.297,0.753-0.362,1.205-0.303
			c-0.07,0.666-0.983,0.955-1.485,0.558C62.122,61.122,62.084,60.375,62.167,59.782z"/>
	</g>
	<g>
		<g>
			<path fill="#FFFFFF" d="M67.22,58.797c0.169,0.009,0.337,0.02,0.506,0.032c0.152,0.615,0.358,1.215,0.55,1.819
				c0.104,0.346,0.308,0.704,0.156,1.067c-0.068-0.016-0.204-0.048-0.271-0.063c-0.057-0.259-0.126-0.514-0.185-0.771
				c-0.341-0.013-0.682-0.014-1.021-0.01c-0.115,0.275-0.096,0.667-0.387,0.823c-0.292-0.044-0.173-0.337-0.118-0.526
				C66.717,60.381,66.959,59.586,67.22,58.797z M67.437,59.316c-0.147,0.399-0.269,0.807-0.387,1.215
				c0.256,0.002,0.512,0.002,0.769,0.004C67.733,60.115,67.626,59.7,67.437,59.316z"/>
		</g>
	</g>
	<g>
		<path fill="#FFFFFF" d="M75.045,58.816c0.651-0.023,1.304-0.006,1.957-0.014c-0.001,0.114-0.001,0.231,0.001,0.347
			c-0.245,0.005-0.49,0.009-0.734,0.022c-0.007,0.776,0.045,1.556-0.018,2.329c-0.048,0.321-0.399,0.133-0.374-0.108
			c-0.038-0.739-0.008-1.481-0.008-2.219c-0.274-0.016-0.55-0.025-0.824-0.042C75.045,59.025,75.045,58.921,75.045,58.816z"/>
	</g>
	<g>
		<g>
			<path fill="#FFFFFF" d="M84.352,58.816c0.319-0.07,0.71-0.069,0.935,0.211c0.448,0.431,0.369,1.105,0.343,1.669
				c-0.031,0.467-0.369,0.96-0.868,0.988c-0.645,0.063-1.096-0.618-1.088-1.203C83.625,59.882,83.708,59.07,84.352,58.816z
				 M84.334,59.255c-0.312,0.36-0.355,0.888-0.262,1.339c0.048,0.252,0.106,0.563,0.373,0.674c0.342,0.227,0.708-0.137,0.782-0.464
				c0.109-0.565,0.103-1.203-0.276-1.671C84.746,59.162,84.483,59.074,84.334,59.255z"/>
		</g>
	</g>
	<g>
		<g>
			<path fill="#FFFFFF" d="M40.854,58.82c0.562,0.023,1.311-0.191,1.698,0.345c0.294,0.428,0.021,0.938-0.323,1.234
				c-0.319,0.013-0.64,0.023-0.96,0.039c-0.055,0.399,0.197,1.034-0.266,1.242c-0.034-0.044-0.104-0.132-0.138-0.177
				C40.828,60.612,40.857,59.715,40.854,58.82z M41.276,59.137c-0.002,0.317-0.003,0.633-0.003,0.951
				c0.296-0.047,0.698,0.101,0.908-0.17c0.108-0.226,0.123-0.573-0.117-0.721C41.81,59.12,41.538,59.153,41.276,59.137z"/>
		</g>
	</g>
	<g>
		<g>
			<path fill="#FFFFFF" d="M45.708,58.79c0.177,0.025,0.431-0.042,0.495,0.19c0.283,0.769,0.51,1.559,0.755,2.34
				c0.092,0.186-0.077,0.316-0.2,0.426c-0.132-0.277-0.224-0.568-0.35-0.847c-0.347-0.06-0.703-0.041-1.047,0.032
				c-0.061,0.26-0.022,0.654-0.322,0.769c-0.297-0.048-0.175-0.354-0.115-0.547C45.203,60.371,45.433,59.572,45.708,58.79z
				 M45.871,59.364c-0.133,0.056-0.185,0.249-0.114,0.37c-0.069,0.252-0.144,0.505-0.181,0.767c0.231,0.036,0.466,0.031,0.701,0.033
				c-0.063-0.311-0.141-0.616-0.21-0.923C46.129,59.494,46.003,59.321,45.871,59.364z"/>
		</g>
	</g>
	<g>
		<g>
			<path fill="#FFFFFF" d="M49.485,58.818c0.48,0.011,1.005-0.109,1.447,0.13c0.434,0.278,0.459,0.943,0.075,1.273
				c-0.305,0.302-0.767,0.171-1.147,0.193c-0.031,0.393-0.007,0.789-0.039,1.181c-0.16,0.194-0.347-0.004-0.336-0.196
				C49.473,60.539,49.48,59.678,49.485,58.818z M49.835,59.155c0.002,0.305,0.005,0.609,0.006,0.915
				c0.27-0.012,0.563,0.063,0.818-0.051c0.291-0.103,0.222-0.485,0.164-0.72C50.54,59.077,50.165,59.161,49.835,59.155z"/>
		</g>
	</g>
	<g>
		<path fill="#FFFFFF" d="M53.743,58.818c0.588-0.019,1.178-0.025,1.766,0.002c-0.007,0.085-0.021,0.257-0.029,0.342
			c-0.44-0.016-0.88-0.017-1.318,0.007c0.003,0.264,0.006,0.528,0.008,0.793c0.365-0.009,0.73-0.009,1.097,0.016
			c-0.005,0.083-0.013,0.251-0.018,0.335c-0.362-0.015-0.726-0.015-1.086,0.007c0.001,0.326,0.002,0.651,0.007,0.979
			c0.442,0.022,0.885,0.024,1.326,0.013c-0.002,0.084-0.007,0.252-0.009,0.336c-0.523,0.009-1.052,0.045-1.574-0.008
			c-0.041-0.032-0.123-0.098-0.164-0.13C53.719,60.613,53.742,59.715,53.743,58.818z"/>
	</g>
	<g>
		<path fill="#FFFFFF" d="M58.211,59.436c-0.004-0.23,0.071-0.448,0.153-0.657c0.145,0.845,0.043,1.707,0.087,2.56
			c0.493,0.015,0.989-0.003,1.48,0.059c0.033,0.047,0.095,0.142,0.126,0.188h-0.108c-0.571-0.014-1.142-0.026-1.713-0.039
			C58.22,60.841,58.205,60.139,58.211,59.436z"/>
	</g>
	<g>
		<g>
			<path fill="#FFFFFF" d="M70.969,58.881c0.297-0.161,0.684-0.054,1.017-0.071c0.396-0.02,0.796,0.331,0.749,0.743
				c0.063,0.375-0.28,0.595-0.485,0.849c0.115,0.41,0.417,0.739,0.617,1.112c-0.082,0.046-0.245,0.138-0.325,0.184
				c-0.265-0.424-0.457-0.9-0.792-1.276c-0.143,0-0.284,0.002-0.425,0.013c-0.047,0.409,0.159,0.919-0.148,1.248
				c-0.395-0.092-0.241-0.571-0.271-0.862C70.946,60.176,70.828,59.511,70.969,58.881z M71.34,59.144
				c-0.009,0.312-0.01,0.624-0.004,0.936c0.317-0.021,0.748,0.092,0.945-0.238c0.165-0.175,0.034-0.406,0.008-0.604
				C71.979,59.151,71.657,59.142,71.34,59.144z"/>
		</g>
	</g>
	<g>
		<g>
			<path fill="#FFFFFF" d="M80.07,59.009c0.025-0.309,0.536-0.28,0.601-0.003c0.275,0.837,0.501,1.692,0.815,2.517
				c-0.082,0.048-0.245,0.143-0.325,0.191c-0.112-0.273-0.212-0.551-0.294-0.835c-0.331-0.008-0.662-0.009-0.991-0.008
				c-0.122,0.285-0.122,0.668-0.42,0.836c-0.045-0.044-0.137-0.131-0.183-0.175C79.508,60.682,79.806,59.85,80.07,59.009z
				 M80.039,60.538c0.226-0.002,0.453-0.003,0.682-0.007c-0.065-0.417-0.204-0.817-0.336-1.216
				C80.173,59.688,80.075,60.112,80.039,60.538z"/>
		</g>
	</g>
	<g>
		<path fill="#FFFFFF" d="M45.871,59.364c0.132-0.042,0.258,0.13,0.196,0.246c-0.102,0.048-0.204,0.089-0.311,0.124
			C45.687,59.613,45.738,59.42,45.871,59.364z"/>
	</g>
</g>
</svg>
