<?xml version="1.0" encoding="utf-8"?>
<!-- Generator: Adobe Illustrator 23.0.1, SVG Export Plug-In . SVG Version: 6.00 Build 0)  -->
<svg version="1.1" id="Camada_1" xmlns="http://www.w3.org/2000/svg" xmlns:xlink="http://www.w3.org/1999/xlink" x="0px" y="0px"
	 viewBox="0 0 367.1 266.2" style="enable-background:new 0 0 367.1 266.2;" xml:space="preserve">
<style type="text/css">
	.st0{clip-path:url(#SVGID_2_);}
	.st1{fill:#041E2D;}
	.st2{fill:#C0D0D8;}
	.st3{fill:#EFF4F4;}
	.st4{fill:#808791;}
	.st5{fill:#C7D8E2;}
	.st6{fill:#DCE8EF;}
	.st7{fill:#F0F7F7;}
	.st8{fill:#CEE8EF;}
	.st9{fill:#B2CAD3;}
	.st10{fill:#799DD3;}
	.st11{opacity:0.3;fill:#FFFFFF;enable-background:new    ;}
	.st12{fill:#CAD3DB;}
	.st13{fill:#D8E1EA;}
	.st14{fill:#ED9558;}
	.st15{fill:#FFFFFF;}
	.st16{fill:#C97841;}
	.st17{fill:#5C81B7;}
	.st18{fill:#A5BDD6;}
	.st19{fill:#C4CBD6;}
	.st20{fill:#6F7475;}
	.st21{fill:#8A9596;}
	.st22{fill:#FFC197;}
	.st23{fill:#B5B5B5;}
	.st24{fill:#F0F6F7;}
	.st25{fill:#C8CDCE;}
	.st26{fill:#E2E2E2;}
	.st27{fill:#D6DDEA;}
	.st28{fill:#ED8C62;}
	.st29{fill:#FFAF84;}
	.st30{fill:#E8E8E8;}
	.st31{fill:#3962A8;}
	.st32{fill:#2D548C;}
	.st33{fill:#658BC1;}
	.st34{fill:#C8D6DB;}
	.st35{fill:#82AACE;}
	.st36{fill:#4E7CAF;}
	.st37{fill:#424344;}
</style>
<g id="Background">
</g>
<g id="Designed_by_Freepik">
</g>
<g>
	<g>
		<defs>
			<rect id="SVGID_1_" width="367.1" height="266.2"/>
		</defs>
		<clipPath id="SVGID_2_">
			<use xlink:href="#SVGID_1_"  style="overflow:visible;"/>
		</clipPath>
		<g id="Objects" class="st0">
			<g>
				<g>
					<g>
						<path class="st1" d="M133.1,171.7c-3.6-28.6,4.7-66.1-6.3-79.7c-14.5-17.9-33.3-6.3-71.2-24.7c-14.3-6.9-34.6-16.7-44.7-34.9
							C-11.1-7,18.1-80.3,65.4-100.7c33.7-14.5,47.5,10.4,120.1,16.5c79.7,6.7,97-20.2,151.7-2.5c15.2,4.9,69.2,22.3,85.3,71.4
							c15.7,47.9-10.2,109-44.2,118.6c-31.9,9-59.3-30.6-93.2-15.1c-2.4,1.1-18.6,8.9-25.7,25.6c-4.2,9.7-4.8,17-2.8,26.9
							c13.5,66.1-15.9,94.4-46.4,102C179.6,250.4,140.9,234.4,133.1,171.7z"/>
						<path class="st1" d="M269.2,133.8c-7.5,26.2,8,44.6,33,51.9c25.1,7.2,53.1-4.7,60.6-30.9s-13.6-58.5-39.6-58.5
							C294.5,96.3,276.8,107.5,269.2,133.8z"/>
						<path class="st1" d="M286.9,260.2c-6.3-0.1-12.2-1.2-17.3-3.4c-9.8-4.2-12.9-10.6-17.6-20.2c-4-8.1-8.9-18.1-19.4-31.3
							c-12.1-15.1-22-22.4-30.7-28.8c-10-7.4-17.8-13.1-24.8-27.7c-11-22.9-12.2-42.4-3.7-58.3c6.9-12.8,20.6-23.3,35.8-27.6
							c10.1-2.8,19.3-2.3,25.6,1.4c7.1,4.2,9.7,12,12.4,19.5c2.9,8.5,5.9,17.3,15.4,21.1c1.6,0.6,10.1,3.7,18.6,0.6
							c5-1.8,8-4.2,10.9-8.4c9.3-13.3,19.4-21.2,30.3-23.8c11.1-2.6,20,1.1,25.6,4.6c7.4,4.7,12.1,11.8,13.4,20.1
							c1.7,10.9-2.5,23.1-12.5,35.3l0,0c-3.7,4.5-8.4,8.7-13.1,12.9c-7.2,6.5-13.9,12.5-14.7,17.9c-0.8,6.1,1.9,9.8,5.5,15
							c3.4,4.7,7.6,10.7,10.7,20.7c2.6,8.1,6.2,19.3,2.9,29.8c-3,9.8-12.2,18.8-25,24.7C305.9,258.2,296.1,260.3,286.9,260.2z
							 M221.7,62.1c-3.9-0.1-8.1,0.5-12.4,1.7c-14.9,4.2-28.4,14.5-35.1,27.1c-8.3,15.6-7.1,34.9,3.7,57.4
							c6.9,14.3,14.7,20.1,24.6,27.4c8.8,6.4,18.7,13.7,30.8,29c10.8,13.4,15.7,23.4,19.6,31.5c4.8,9.7,7.7,15.7,17.1,19.7
							c12.4,5.3,29.6,4.3,44.7-2.7c12.6-5.8,21.5-14.6,24.5-24.1c3.2-10.2-0.3-21.2-2.9-29.2c-3.2-9.9-7.3-15.7-10.7-20.4
							c-3.7-5.3-6.5-9.2-5.7-15.6c0.8-5.7,7.6-11.9,15-18.5c4.5-4.1,9.4-8.3,13-12.8l0,0c9.7-12,14-23.9,12.3-34.5
							c-1.3-8-5.9-15-13-19.6c-6.7-4.3-30.5-15.6-54.5,19c-3.1,4.4-6.2,6.9-11.4,8.8c-8.7,3.3-17.5,0.1-19.2-0.5
							c-9.9-3.9-13-13-16-21.7c-2.6-7.7-5.1-14.9-11.9-19C230.8,63.2,226.5,62.1,221.7,62.1z M347.2,148.8L347.2,148.8L347.2,148.8z
							"/>
					</g>
					<g>
						<g>
							<g>
								<g>
									<g>
										<circle class="st2" cx="170.9" cy="40.8" r="15.9"/>
										<path class="st3" d="M185.6,40.8c0,4.8-2.3,9.1-6,11.8c-1.1,0.8-2.3,1.4-3.5,1.9c-0.6,0.2-1.2,0.4-1.8,0.5
											c-0.4,0.1-0.7,0.2-1.1,0.2c-0.7,0.1-1.5,0.2-2.3,0.2c-1.5,0-3-0.2-4.4-0.7c-6-1.9-10.3-7.4-10.3-14c0-2.3,0.5-4.4,1.5-6.4
											c1.1-2.4,2.9-4.4,5.1-5.8c0.5-0.3,1-0.6,1.6-0.9c1.2-0.6,2.5-1,3.8-1.3c0.9-0.2,1.8-0.3,2.7-0.3c6.2,0,11.5,3.9,13.6,9.3
											C185.2,37.2,185.6,39,185.6,40.8z"/>
										<path class="st4" d="M170.9,41.6c-0.2,0-0.4-0.1-0.6-0.3l-4.8-6c-0.3-0.3-0.2-0.8,0.1-1c0.3-0.3,0.8-0.2,1,0.1l4.8,6
											c0.3,0.3,0.2,0.8-0.1,1C171.3,41.5,171.1,41.6,170.9,41.6z"/>
										<circle class="st2" cx="170.9" cy="40.8" r="2.9"/>
										<path class="st2" d="M163.5,50.1c-0.2,0-0.3-0.1-0.5-0.2c-0.3-0.3-0.3-0.7-0.1-1l7.4-8.5c0.3-0.3,0.7-0.3,1-0.1
											c0.3,0.3,0.3,0.7,0.1,1l-7.4,8.5C163.9,50,163.7,50.1,163.5,50.1z"/>
									</g>
									<g>
										<path class="st5" d="M288.9,62.9l-26.3,76.5c-0.4,1.3-1.8,2-3.1,1.5l-42.8-14.7c-1.3-0.4-2-1.8-1.5-3.1l26.3-76.5
											c0.4-1.3,1.9-2,3.1-1.5l42.8,14.7C288.6,60.2,289.3,61.6,288.9,62.9z"/>
										<path class="st6" d="M290.8,63.5L264.5,140c-0.4,1.3-1.8,2-3.1,1.5l-42.8-14.7c-1.3-0.4-2-1.8-1.5-3.1l26.3-76.5
											c0.4-1.3,1.9-2,3.1-1.5l42.8,14.7C290.6,60.8,291.2,62.2,290.8,63.5z"/>
										<path class="st7" d="M285.4,65.3l-10,29.1l0,0l-8.1,23.7l0,0l-3.7,10.8l-0.9,2.5c-0.2,0.7-1,1.1-1.7,0.8l-20.4-7
											l-15.8-5.4c-0.7-0.2-1.1-1-0.8-1.7l9.7-28.2l13-37.9c0.2-0.7,0.9-1,1.6-0.9h0.1l6.2,2.1l13.8,4.7l16.3,5.6
											C285.2,63.8,285.6,64.6,285.4,65.3z"/>
										<g>
											<path class="st5" d="M240.7,132.2L240.7,132.2c-1.2-0.4-1.9-1.7-1.4-3l0,0c0.4-1.2,1.7-1.9,3-1.4l0,0
												c1.2,0.4,1.9,1.7,1.4,3l0,0C243.2,132,241.9,132.6,240.7,132.2z"/>
										</g>
										<g>
											<path class="st5" d="M251.1,50.7L251.1,50.7c-0.5-0.2-0.8-0.7-0.6-1.2l0,0c0.2-0.5,0.7-0.8,1.2-0.6l0,0
												c0.5,0.2,0.8,0.7,0.6,1.2l0,0C252.2,50.6,251.6,50.9,251.1,50.7z"/>
										</g>
										<path class="st8" d="M259.7,114.4l-1.1-0.4l1.6-4.6c0.7-2.2,0.6-4.5-0.4-6.5l-2.9-5.9c-0.9-1.9-0.1-4.2,1.7-5.1l5.9-2.9
											c2-1,3.6-2.7,4.3-4.9l1.6-4.6l1.1,0.4l-1.6,4.6c-0.8,2.4-2.6,4.4-4.9,5.5l-5.9,2.9c-1.3,0.6-1.9,2.3-1.2,3.6l2.9,5.9
											c1.1,2.3,1.3,4.9,0.5,7.4L259.7,114.4z"/>
										<path class="st8" d="M237.6,106.8l-1.1-0.4l1.6-4.6c0.8-2.4,2.6-4.4,4.9-5.5l5.9-2.9c1.3-0.6,1.9-2.3,1.2-3.6l-2.9-5.9
											c-1.1-2.3-1.3-4.9-0.5-7.4l1.6-4.6l1.1,0.4l-1.6,4.6c-0.7,2.2-0.6,4.5,0.4,6.5l2.9,5.9c0.9,1.9,0.1,4.2-1.7,5.1l-5.9,2.9
											c-2,1-3.6,2.7-4.3,4.9L237.6,106.8z"/>
										<path class="st9" d="M271.7,81.1c-0.1,0-0.2,0-0.4-0.1l-23.4-8.1c-0.6-0.2-0.9-0.8-0.7-1.4s0.8-0.9,1.4-0.7l23.4,8.1
											c0.6,0.2,0.9,0.8,0.7,1.4C272.6,80.8,272.2,81.1,271.7,81.1z"/>
										<path class="st9" d="M259.9,115.6c-0.1,0-0.2,0-0.4-0.1l-23.4-8.1c-0.6-0.2-0.9-0.8-0.7-1.4s0.8-0.9,1.4-0.7l23.4,8.1
											c0.6,0.2,0.9,0.8,0.7,1.4C260.8,115.3,260.3,115.6,259.9,115.6z"/>
										<path class="st10" d="M250.1,81.2l4.4,8.9c0.2,0.4,0.7,0.6,1.1,0.4l8.9-4.4c0.7-0.3,0.6-1.3-0.1-1.5L251.1,80
											C250.5,79.8,249.8,80.5,250.1,81.2z"/>
										<path class="st10" d="M246.2,105.2l3.8-1.9c0.4-0.2,0.9,0,1.1,0.4l1.9,3.8c0.3,0.7-0.3,1.4-1,1.2l-5.7-2
											C245.6,106.5,245.5,105.5,246.2,105.2z"/>
										<circle class="st10" cx="251.5" cy="100.6" r="0.9"/>
										<circle class="st10" cx="252.8" cy="96.9" r="0.9"/>
										<circle class="st10" cx="254.1" cy="93.2" r="0.9"/>
										<path class="st11" d="M263.5,128.9l-0.9,2.5c-0.2,0.7-1,1.1-1.7,0.8l-20.4-7l-7-35.4l13-37.9c0.2-0.7,0.9-1,1.6-0.9
											L263.5,128.9z"/>
										<polygon class="st11" points="275.4,94.4 275.4,94.4 267.2,118.1 254.4,53.3 268.2,58 										"/>
									</g>
									<g>
										<path class="st12" d="M284.8,130.8l2.2,22.3c0.1,1.2-0.8,2.3-2,2.4l-30.6,3c-1.2,0.1-2.3-0.8-2.4-2l-2.2-22.3
											c-0.1-1.2,0.8-2.3,2-2.4l30.6-3C283.6,128.7,284.6,129.6,284.8,130.8z"/>
										<path class="st13" d="M285.2,127l3.6,22.1c0.2,1.2-0.6,2.3-1.8,2.5l-30.3,4.9c-1.2,0.2-2.3-0.6-2.5-1.8l-3.6-22.1
											c-0.2-1.2,0.6-2.3,1.8-2.5l30.3-4.9C283.9,125,285,125.8,285.2,127z"/>
										<path class="st14" d="M285.2,127l0.8,4.9l-34.7,5.6l-0.8-4.9c-0.2-1.2,0.6-2.3,1.8-2.5l30.3-4.9
											C283.9,125,285,125.8,285.2,127z"/>
										
											<rect x="251.3" y="134.7" transform="matrix(0.9872 -0.1597 0.1597 0.9872 -18.1959 44.675)" class="st15" width="35.1" height="1.6"/>
										
											<ellipse transform="matrix(0.3714 -0.9285 0.9285 0.3714 40.286 323.1674)" class="st16" cx="258.8" cy="131.8" rx="2.6" ry="2.6"/>
										<circle class="st16" cx="277.2" cy="128.8" r="2.6"/>
										<g>
											<path class="st17" d="M258.8,133.6c-0.9,0-1.6-0.6-1.8-1.5l-0.6-3.8c-0.2-1,0.5-1.9,1.5-2.1s1.9,0.5,2.1,1.5l0.6,3.8
												c0.2,1-0.5,1.9-1.5,2.1C259,133.6,258.9,133.6,258.8,133.6z"/>
											<path class="st17" d="M277.2,130.6c-0.9,0-1.6-0.6-1.8-1.5l-0.6-3.8c-0.2-1,0.5-1.9,1.5-2.1s1.9,0.5,2.1,1.5l0.6,3.8
												c0.2,1-0.5,1.9-1.5,2.1C277.4,130.6,277.3,130.6,277.2,130.6z"/>
										</g>
										
											<rect x="256.3" y="140.9" transform="matrix(0.9871 -0.1598 0.1598 0.9871 -19.4389 43.0584)" class="st18" width="3.4" height="2.9"/>
										
											<rect x="279.6" y="137.3" transform="matrix(0.9872 -0.1598 0.1598 0.9872 -18.5488 46.734)" class="st18" width="3.4" height="2.9"/>
										
											<rect x="273.8" y="138.2" transform="matrix(0.9872 -0.1598 0.1598 0.9872 -18.767 45.8188)" class="st18" width="3.4" height="2.9"/>
										
											<rect x="267.9" y="139.1" transform="matrix(0.9872 -0.1598 0.1598 0.9872 -18.9865 44.8872)" class="st18" width="3.4" height="2.9"/>
										
											<rect x="262.1" y="140.1" transform="matrix(0.9872 -0.1598 0.1598 0.9872 -19.2211 43.9734)" class="st18" width="3.4" height="2.9"/>
										
											<rect x="257.1" y="145.7" transform="matrix(0.9872 -0.1598 0.1598 0.9872 -20.1801 43.2466)" class="st18" width="3.4" height="2.9"/>
										
											<rect x="280.3" y="141.9" transform="matrix(0.9872 -0.1598 0.1598 0.9872 -19.2748 46.9047)" class="st18" width="3.4" height="2.9"/>
										
											<rect x="274.5" y="142.7" transform="matrix(0.9871 -0.1598 0.1598 0.9871 -19.4926 45.9898)" class="st18" width="3.4" height="2.9"/>
										
											<rect x="268.7" y="143.8" transform="matrix(0.9872 -0.1598 0.1598 0.9872 -19.7275 45.0756)" class="st18" width="3.4" height="2.9"/>
										
											<rect x="262.9" y="144.7" transform="matrix(0.9872 -0.1598 0.1598 0.9872 -19.9456 44.1604)" class="st18" width="3.4" height="2.9"/>
										
											<rect x="257.8" y="150.3" transform="matrix(0.9872 -0.1598 0.1598 0.9872 -20.9061 43.4173)" class="st18" width="3.4" height="2.9"/>
										
											<rect x="281.1" y="146.6" transform="matrix(0.9872 -0.1598 0.1598 0.9872 -20.0157 47.0932)" class="st18" width="3.4" height="2.9"/>
										
											<rect x="275.3" y="147.5" transform="matrix(0.9872 -0.1598 0.1598 0.9872 -20.2338 46.1779)" class="st18" width="3.4" height="2.9"/>
										
											<rect x="269.5" y="148.5" transform="matrix(0.9872 -0.1598 0.1598 0.9872 -20.4684 45.2641)" class="st18" width="3.4" height="2.9"/>
										
											<rect x="263.6" y="149.4" transform="matrix(0.9872 -0.1598 0.1598 0.9872 -20.6879 44.3325)" class="st18" width="3.4" height="2.9"/>
									</g>
									<circle class="st19" cx="113.8" cy="115" r="7"/>
									<path class="st19" d="M145.4,75.7c-2.1,0-3.8-1.7-3.8-3.8c0-2.1,1.7-3.8,3.8-3.8s3.8,1.7,3.8,3.8
										C149.2,74,147.5,75.7,145.4,75.7z M145.4,70.1c-1,0-1.8,0.8-1.8,1.8s0.8,1.8,1.8,1.8s1.8-0.8,1.8-1.8
										S146.4,70.1,145.4,70.1z"/>
									<g>
										<path class="st20" d="M119.5,76.3l-9.2,18c-0.5,1-0.1,2.2,0.9,2.7l34.7,17.7c1,0.5,2.2,0.1,2.7-0.9l9.2-18
											c0.3-0.5,0.3-1.1,0.1-1.6s-0.5-0.9-1-1.1l-34.7-17.7c-0.5-0.2-1-0.3-1.5-0.1C120.3,75.4,119.8,75.8,119.5,76.3z"/>
										<path class="st21" d="M120.8,75.3l8.7,19.2c1.4,3,4.6,4.7,7.8,4l20.6-4.2c-0.2-0.5-0.5-0.9-1-1.1l-34.7-17.7
											C121.8,75.2,121.3,75.1,120.8,75.3z"/>
									</g>
									<g>
										<path class="st14" d="M143.2,63.8l5.5,13c0.3,0.7,1.1,1.1,1.9,0.7l25-10.6c0.7-0.3,1.1-1.1,0.7-1.9l-5.5-13
											c-0.2-0.4-0.5-0.7-0.8-0.8s-0.7-0.1-1,0l-25,10.6c-0.3,0.1-0.6,0.4-0.7,0.7C143.1,63,143.1,63.4,143.2,63.8z"/>
										<path class="st22" d="M143.2,62.7l14.1,3.9c2.2,0.6,4.6-0.4,5.6-2.4l7-12.9c-0.3-0.1-0.7-0.1-1,0l-25,10.6
											C143.6,62.1,143.4,62.4,143.2,62.7z"/>
									</g>
									<path class="st23" d="M164.9,85.9h-1.3v1.3c0,0.6-0.5,1.1-1.1,1.1s-1.1-0.5-1.1-1.1v-1.3h-1.3c-0.6,0-1.1-0.5-1.1-1.1
										s0.5-1.1,1.1-1.1h1.3v-1.3c0-0.6,0.5-1.1,1.1-1.1s1.1,0.5,1.1,1.1v1.3h1.3c0.6,0,1.1,0.5,1.1,1.1
										C165.9,85.4,165.5,85.9,164.9,85.9z"/>
								</g>
								<path class="st24" d="M118.1,216.8c-9.6,0-17.4-7.8-17.4-17.5s7.8-17.5,17.4-17.5s17.5,7.8,17.5,17.5
									S127.7,216.8,118.1,216.8z M118.1,188.8c-5.8,0-10.4,4.7-10.4,10.5s4.7,10.5,10.4,10.5c5.8,0,10.5-4.7,10.5-10.5
									S123.9,188.8,118.1,188.8z"/>
							</g>
							<path class="st25" d="M104.9,163.8c-0.3,0-0.5-0.2-0.5-0.5c0-5.1,0.6-10.2,1.7-15.2c1.5-6.7,4-13.1,7.3-19.1
								c0.1-0.2,0.4-0.3,0.7-0.2c0.2,0.1,0.3,0.4,0.2,0.7c-3.3,5.9-5.8,12.2-7.2,18.9c-1.1,4.9-1.6,9.9-1.6,15
								C105.4,163.6,105.2,163.8,104.9,163.8z"/>
							<path class="st25" d="M107.2,181.5c-0.2,0-0.4-0.1-0.5-0.4c-0.5-2-1-4-1.3-6.1c0-0.3,0.1-0.5,0.4-0.6c0.3,0,0.5,0.1,0.6,0.4
								c0.3,2,0.8,4,1.3,6c0.1,0.3-0.1,0.5-0.4,0.6C107.3,181.5,107.2,181.5,107.2,181.5z"/>
							<g>
								<circle class="st25" cx="174.2" cy="163.3" r="64.7"/>
								<path class="st23" d="M232.6,163.3c0,19.3-9.4,36.5-23.8,47.1c-4.3,3.2-9.1,5.8-14.1,7.7c-2.3,0.9-4.6,1.6-7,2.1
									c-4.3,1-8.8,1.6-13.4,1.6c-6,0-11.9-0.9-17.4-2.6c-23.8-7.4-41.1-29.6-41.1-55.8c0-9.1,2.1-17.8,5.8-25.4
									c4.6-9.4,11.6-17.5,20.3-23.2c2-1.4,4.1-2.6,6.4-3.7c4.7-2.4,9.9-4.1,15.2-5.1c3.5-0.6,7.1-1,10.8-1
									C206.5,104.8,232.6,131,232.6,163.3z"/>
								<path class="st3" d="M231.1,163.3c0,18.8-9.1,35.5-23.2,45.9c-4.2,3.1-8.8,5.6-13.8,7.5c-2.2,0.8-4.5,1.5-6.8,2.1
									c-4.2,1-8.6,1.5-13.1,1.5c-5.9,0-11.6-0.9-16.9-2.6c-23.2-7.2-40-28.8-40-54.4c0-8.9,2-17.3,5.7-24.8
									c4.4-9.2,11.3-17,19.7-22.6c2-1.3,4-2.5,6.2-3.6c4.6-2.3,9.6-4,14.9-5c3.4-0.6,6.9-1,10.5-1
									C205.6,106.4,231.1,131.9,231.1,163.3z"/>
								<path class="st15" d="M187.3,218.7c-4.2,1-8.6,1.5-13.1,1.5c-5.9,0-11.6-0.9-16.9-2.6L123,138.5c4.4-9.2,11.3-17,19.7-22.6
									L187.3,218.7z"/>
								<path class="st15" d="M207.9,209.1c-4.2,3.1-8.8,5.6-13.8,7.5l-45.2-104.3c4.6-2.3,9.6-4,14.9-5L207.9,209.1z"/>
								<path class="st14" d="M174.2,166.3c-1.1,0-2.1-0.6-2.7-1.6c-0.8-1.5-0.2-3.3,1.3-4l30.6-16c1.5-0.8,3.3-0.2,4,1.3
									s0.2,3.3-1.3,4l-30.6,16C175.2,166.2,174.7,166.3,174.2,166.3z"/>
								<circle class="st20" cx="174.2" cy="163.3" r="11.7"/>
								<path class="st20" d="M174.2,166.3c-1,0-2-0.5-2.6-1.4l-24.1-39c-0.9-1.4-0.4-3.3,1-4.1c1.4-0.9,3.3-0.4,4.1,1l24.1,39
									c0.9,1.4,0.4,3.3-1,4.1C175.3,166.1,174.8,166.3,174.2,166.3z"/>
							</g>
							<path class="st25" d="M238.9,163.3c0,21.4-10.4,40.3-26.3,52.1L183.8,102c-0.2-0.9-0.4-1.9-0.4-2.8l0,0
								C214.8,103.7,238.9,130.7,238.9,163.3z"/>
							<path class="st26" d="M147.2,231.2h54c0.9,0,1.6-0.7,1.6-1.6l0,0c0-0.9-0.7-1.6-1.6-1.6h-54c-0.9,0-1.6,0.7-1.6,1.6l0,0
								C145.7,230.4,146.4,231.2,147.2,231.2z"/>
						</g>
						<g>
							<path class="st26" d="M223.1,233.5h28.6c0.9,0,1.6-0.7,1.6-1.6l0,0c0-0.9-0.7-1.6-1.6-1.6h-28.6c-0.9,0-1.6,0.7-1.6,1.6l0,0
								C221.6,232.8,222.3,233.5,223.1,233.5z"/>
							<g>
								<g>
									<polygon class="st27" points="232.6,226.8 231.2,218.5 235,217.4 235.6,226.2 									"/>
									<path class="st14" d="M235.7,225.3c0.2,0,0.5,0.1,0.7,0.3c1.3,1.1,5.3,3.1,7.4,3.4c2.2,0.3,2.3,1.4-0.8,1.4
										s-5.4-0.3-6.8-0.2c-1.4,0-1,0.2-4.4,0.2c-2.6,0-1.8-3.3-0.9-4.9c0.3-0.5,0.7-0.7,1.2-0.7L235.7,225.3z"/>
								</g>
								<g>
									<polygon class="st27" points="220.6,219.1 225.8,212.5 229.1,214.5 223.1,220.9 									"/>
									<path class="st14" d="M223.8,220.4c0.1,0.2,0.2,0.4,0.2,0.7c0.1,1.7,1.4,6.1,2.9,7.5c1.6,1.4,0.6,1.8-2,0.6
										c-2.8-1.3-3.4-4.2-4.4-5.1s-0.9-0.6-3.2-3.1c-1.8-1.9,1.2-3.6,3-3.9c0.5-0.1,1,0,1.3,0.5L223.8,220.4z"/>
								</g>
								<g>
									<g>
										<path class="st28" d="M218.3,79.2c0,0-1,6.8,1,9.9s2.3,3.6,2.3,3.6"/>
										<path class="st29" d="M223.3,95.8c-0.6,0.3-1.2,0.5-1.8,0.5c-1.2,0-2.4-0.6-3-1.7c0-0.1-0.4-0.6-2.2-3.5
											c-1.3-2-1.7-4.8-1.8-7.2c-0.1-2.4,0.2-4.4,0.3-5.1c0.3-1.9,2.1-3.3,4-3s3.3,2.1,3,4c-0.1,1-0.2,2.2-0.2,3.3
											c0,1.1,0.1,2.2,0.3,3.1c0.1,0.5,0.2,0.9,0.4,1.1c2,3.2,2.3,3.7,2.3,3.7C225.5,92.6,224.9,94.8,223.3,95.8z"/>
									</g>
									<path class="st30" d="M210.2,134.7c0.7-10.1-2.7-35.3-4.4-45.3c-0.3-1.5,0.9-2.9,2.4-2.9H229c1.1,0,2.1,0.8,2.4,1.8
										c2.4,9.1,3.9,46.4,3.9,46.4H210.2z"/>
									<path class="st29" d="M244.6,113.6c-0.4-1.9-2.7-6.8-5.3-11.9c-2.8-5.4-5.9-11.1-7.3-13.6c-0.8-1.4-2.6-2-4.1-1.2
										c-1.4,0.8-2,2.6-1.2,4.1c2.2,4,4.5,8.2,6.4,12c2.2,4.3,4.4,7,5.3,9.1c-1.6,1.4-5.6,1.5-8.8,1.3c-0.9-0.1-4.3-0.3-6.5,1.7
										c-0.9,0.8-1.9,2.3-1.8,4.6c0.1,1.6,0.3,2.3,1.7,3c0.6,0.3,1.4,0.4,2,0.3c1.6-0.2,1.8-1.1,1.8-3c0-1.3,0.7-2.7,0.7-2.7
										s4.8,1.2,8.9,1.7s5.7-0.3,7.1-2C244.5,116,244.8,114.8,244.6,113.6z"/>
									<path class="st31" d="M211.3,151c0,0-3.1-5.6-1.1-16.4h25.1c0,0,0.4,8.2-0.2,16.4H211.3z"/>
									<path class="st28" d="M239.3,101.7l-2.9,0.6l-3.2,0.6c-2-3.8-4.2-8-6.4-12c-0.8-1.4-0.3-3.3,1.2-4.1
										c1.4-0.8,3.3-0.3,4.1,1.2C233.5,90.6,236.6,96.3,239.3,101.7z"/>
									<path class="st29" d="M211,88.8c-0.4-1.6-2-2.6-3.6-2.2c-7.2,1.8-12.2,3.4-15.7,4.9c-8,3.4-7.9,5.9-7.9,7.2
										c0,1.5,0.3,4.3,17.6,10.6c0,0.5-0.5,2.5-0.9,3.1c-0.8,1.5,0,2.8,0.9,4.2c0.3,0.5,1,1.1,1.8,1.1c1.1,0,2.4-1.3,2.6-2.5
										c0.7-4,0.5-6.4,0.3-6.9l0,0l0,0c0,0,0-0.1-0.1-0.1c-0.1-0.1-0.1-0.3-0.2-0.4c-0.1-0.1-0.1-0.1-0.2-0.2
										c-0.1-0.1-0.1-0.2-0.2-0.2c-0.1-0.1-0.2-0.2-0.4-0.3c0,0,0,0-0.1-0.1c-0.2-0.1-0.4-0.2-0.7-0.3c-5.9-2.4-11.3-6.3-13.7-8
										c0.8-0.5,2-1,3.5-1.6c3.7-1.5,9.1-3.2,14.7-4.6C210.4,92,211.4,90.4,211,88.8z"/>
									<path class="st30" d="M239.8,100.4l-4,0.8l-3.1,0.6l0,0l-2.7,0.5c-3.4-6.7-4.3-8.3-4.4-10.6c-0.1-2.6,0.6-3.9,2.3-4.8
										s3.8-0.3,4.8,1.4C232.7,88.3,236.3,93.5,239.8,100.4z"/>
									<path class="st31" d="M250.8,184.3c-0.4,2.5-1.7,5.1-3.6,8.4c-3.1,5.5-7.9,11.5-12.3,16.6c-3,3.5-5.8,6.6-7.5,8.7
										c-0.8,0.9-1.4,1.6-1.7,2.1l-3.6-4.6c1.3-1.9,2.6-4.4,4.1-6.7c0-0.1,0.1-0.1,0.1-0.2c2.9-4.4,6-9.3,8.5-13.8
										c0.1-0.1,0.2-0.3,0.3-0.4c2.6-4.7,4.6-8.9,5-11.4c0.7-4.4-5.9-18.1-12.4-30.1c-0.7-1.4-1.5-2.7-2.2-4.1
										c-0.3-0.4-0.4-0.9-0.4-1.5c-0.2-2.2,1.4-4.8,3.4-5.9c2.4-1.3,5.6-2,6.9,0.4C238.1,146.8,252.4,173.6,250.8,184.3z"/>
									<path class="st32" d="M234.9,209.2c-3,3.5-5.8,6.6-7.5,8.7c-0.3-2.5-0.6-5.1-0.9-7.8c-0.1-0.5-0.1-1-0.2-1.6
										c2.9-4.4,6-9.3,8.5-13.8C234.9,199.2,235,204.3,234.9,209.2z"/>
									<path class="st31" d="M234.3,185.7c-1.2-10.1-9.7-37.1-11-40.1c-1.1-2.5-7.2-3.1-9.8-2c-2.5,1.1-3.7,4.1-2.6,6.6
										c3.4,7.7,13,28.4,14,35.7c0.6,4.4,1.3,13.2,2.7,20.6c1,5.2,1.9,10.3,2.7,14c0.6,3.2,0.6,2.6,0.7,2.9l6-0.9
										C237,222.6,235.7,197.5,234.3,185.7z"/>
									<path class="st28" d="M208.8,92.4c-5.6,1.4-11,3.1-14.7,4.6l-2.4-5.5c3.5-1.5,8.5-3.1,15.7-4.9c1.6-0.4,3.2,0.6,3.6,2.2
										C211.4,90.4,210.4,92,208.8,92.4z"/>
									<path class="st30" d="M207.5,86.5c1.9-0.3,3.3,0.6,3.8,2.5s-0.8,3.3-2.4,4.3c-2.1,1.2-2.7,1.4-11.4,4.4l-4.8-6.7
										C203.7,86.8,204.3,87,207.5,86.5z"/>
									<path class="st28" d="M221.8,86.1c-0.2,0-0.3,0-0.5,0c-2.6,0-4.9-0.9-6.8-2.3c-0.1-2.4,0.2-4.4,0.3-5.1
										c0.3-1.9,2.1-3.3,4-3s3.3,2.1,3,4c-0.1,1-0.2,2.2-0.2,3.3C221.5,84.2,221.6,85.3,221.8,86.1z"/>
									<path class="st29" d="M231.8,73.6c-1.4,6.5-5,11.2-11.2,11.2s-10.1-4.7-11.2-11.2c-1-6.1,5.1-12.1,11.3-12.1
										C226.8,61.5,233.1,67.5,231.8,73.6z"/>
									<path class="st33" d="M232.6,223.6v-0.2c-1.7-10.5-4.3-26.4-5.6-36.4c-0.9-7.3-10-28.9-13.3-36.6c0-0.1,0-0.1-0.1-0.2v-0.1
										c-0.6-1.5-2.2-7-0.6-15.7l0.5,0.1c-1.6,8.6,0.1,14,0.6,15.4v0.1v0.1c3.4,7.7,12.4,29.4,13.4,36.8c1.3,10,3.9,25.9,5.6,36.4
										v0.2L232.6,223.6z"/>
								</g>
								<path class="st34" d="M224.6,86.4c0,1.5-0.6,4.1-4.6,4.1c-2.9,0-6.5-1.2-7.9-3.6l-0.3-0.5H224.6z"/>
								<path class="st29" d="M213,86.4c1.1,1.9,4.3,3.1,7,3.1c2.8,0,3.6-1.4,3.6-3.1H213z"/>
								<g>
									<path class="st35" d="M228.1,117.8c0,0,0.1-1.7-1.6-4.2l1.6-1c2.1,3.1,1.9,5.3,1.9,5.5L228.1,117.8z"/>
									<path class="st36" d="M226.8,112.6c0.9-0.4,2.2-0.2,2.8,0.5s0.3,1.6-0.6,2c-0.9,0.4-2.2,0.2-2.8-0.5
										C225.6,114,225.9,113.1,226.8,112.6z"/>
								</g>
								<path class="st37" d="M231.5,65.3c-3.4-5.5-11.7-5.9-13.4-5.8c-0.9,0-2.7,0.5-3.5,1.8c-0.1-0.9,0-1.7,0-1.7
									c-0.7,0.9-0.9,1.7-0.7,2.2c-0.5-0.7-0.9-1.4-0.9-1.4c-0.1,1,0.1,1.5,0.5,1.8c-2.3,0.5-5.2,3.8-4.2,10.4
									c0.4,2.9,6.9,0.7,8.8-2.2c1.2,2,3.7,2.4,3.7,2.4c-0.9-0.9-1.6-2.1-2.2-3.4c3.5,2.1,8.1,4.4,8.6,5.8c0,0,1-2.3,0.3-3.7
									c0,0,2.8,0.7,3.1,3.4C231.6,74.9,235.1,71.1,231.5,65.3z"/>
								
									<rect x="224.3" y="134.3" transform="matrix(0.9872 -0.1595 0.1595 0.9872 -19.9248 37.6458)" class="st33" width="0.5" height="17.2"/>
								<path class="st33" d="M225.4,148.2l-0.1-0.5c0,0,1.1-0.2,1.6-1c0.3-0.5,0.4-1,0.3-1.7l-1.7-10.8l0.5-0.1l1.7,10.8
									c0.1,0.8,0,1.6-0.4,2.1C226.6,148,225.4,148.2,225.4,148.2z"/>
								<path class="st29" d="M208.9,72.9c-0.5,1.1-0.4,2.3,0,3.3c0.6,1.2,2.3,1.1,2.8-0.1l1.5-3.2c0.5-1.2-0.6-2.5-1.8-2.2
									C210.4,71.1,209.4,71.8,208.9,72.9z"/>
							</g>
						</g>
					</g>
				</g>
			</g>
		</g>
	</g>
</g>
</svg>
