<?xml version="1.0" encoding="utf-8"?>
<!-- Generator: Adobe Illustrator 16.0.0, SVG Export Plug-In . SVG Version: 6.00 Build 0)  -->
<!DOCTYPE svg PUBLIC "-//W3C//DTD SVG 1.1//EN" "http://www.w3.org/Graphics/SVG/1.1/DTD/svg11.dtd">
<svg version="1.1" xmlns="http://www.w3.org/2000/svg" xmlns:xlink="http://www.w3.org/1999/xlink" x="0px" y="0px"
	 width="392.403px" height="341.586px" viewBox="0 0 392.403 341.586" enable-background="new 0 0 392.403 341.586"
	 xml:space="preserve">
<g id="Background">
</g>
<g id="Objects">
	<g>
		<g>
			<g>
				<path fill="#041E2D" d="M168.115,219.926c-4.229-29.912,3.858-69.397-7.911-83.49c-15.472-18.526-35.025-6.116-75.118-24.751
					C69.988,104.667,48.44,94.65,37.544,75.761C13.927,34.814,43.423-42.533,92.712-64.593
					c35.073-15.697,49.978,10.111,126.299,15.419c83.685,5.82,101.359-22.732,159.142-5.025c15.993,4.901,72.9,22.339,90.556,73.515
					c17.234,49.956-8.986,114.515-44.509,125.132c-33.345,9.966-62.741-31.233-97.978-14.281
					c-2.484,1.195-19.416,9.63-26.597,27.257c-4.17,10.235-4.762,17.873-2.476,28.26c15.206,69.082-15.229,99.345-47.049,107.698
					C218.281,301.733,177.397,285.589,168.115,219.926z"/>
				<path fill="#041E2D" d="M310.366,177.965c-7.506,27.622,9.091,46.738,35.479,53.909c26.389,7.17,55.587-5.762,63.093-33.384
					s-15.199-61.129-42.541-60.703C336.243,138.256,317.872,150.343,310.366,177.965z"/>
				<path fill="#041E2D" d="M330.17,327.072c-6.57,0-12.806-1.096-18.233-3.322c-10.375-4.257-13.735-10.859-18.821-20.853
					c-4.255-8.36-9.551-18.765-20.948-32.541c-12.947-15.65-23.417-23.124-32.655-29.719c-10.576-7.55-18.931-13.514-26.508-28.682
					c-11.863-23.751-13.471-44.302-4.778-61.084c7.012-13.534,21.208-24.841,37.05-29.508c10.608-3.127,20.165-2.722,26.907,1.137
					c7.493,4.288,10.421,12.404,13.253,20.252c3.208,8.89,6.524,18.082,16.499,21.857c1.712,0.647,10.694,3.705,19.497,0.251
					c5.189-2.036,8.261-4.485,11.333-9.038c9.484-14.059,20.032-22.646,31.35-25.522c11.561-2.937,21.02,0.791,26.919,4.437
					c7.768,4.8,12.886,12.233,14.413,20.929c2.003,11.415-2.34,24.271-12.561,37.179l0,0c-3.785,4.78-8.722,9.337-13.495,13.744
					c-7.427,6.856-14.441,13.332-15.093,19c-0.733,6.377,2.091,10.229,6,15.562c3.611,4.926,8.106,11.057,11.628,21.493
					c2.865,8.489,6.789,20.114,3.525,31.172c-3.049,10.329-12.464,19.931-25.83,26.341
					C350.091,324.729,339.775,327.072,330.17,327.072z M258.596,120.316c-4.067,0-8.485,0.666-13.038,2.007
					c-15.589,4.593-29.554,15.708-36.443,29.009c-8.538,16.482-6.929,36.729,4.784,60.177c7.466,14.946,15.73,20.846,26.194,28.315
					c9.288,6.63,19.814,14.144,32.845,29.896c11.468,13.861,16.791,24.32,21.068,32.724c5.163,10.144,8.279,16.266,18.31,20.381
					c13.109,5.38,31.069,4.013,46.873-3.567c13.112-6.288,22.335-15.664,25.304-25.723c3.174-10.754-0.691-22.206-3.514-30.568
					c-3.473-10.29-7.917-16.353-11.487-21.223c-4.043-5.516-6.965-9.5-6.188-16.266c0.694-6.038,7.842-12.636,15.408-19.622
					c4.746-4.381,9.653-8.912,13.391-13.63l0,0c10.038-12.677,14.312-25.259,12.358-36.384c-1.477-8.412-6.432-15.604-13.953-20.252
					c-7.101-4.386-32.187-15.856-56.915,20.794c-3.198,4.74-6.395,7.291-11.796,9.409c-9.145,3.586-18.443,0.423-20.216-0.247
					c-10.405-3.938-13.802-13.351-17.086-22.453c-2.898-8.032-5.636-15.618-12.809-19.723
					C268.139,121.339,263.637,120.316,258.596,120.316z M392.495,192.536h0.01H392.495z"/>
			</g>
			<g>
				<g>
					<g>
						<g>
							<g>
								<circle fill="#C0D0D8" cx="196.185" cy="123.528" r="15.927"/>
								<path fill="#EFF4F4" d="M210.832,123.525c0,4.849-2.346,9.135-5.968,11.802c-1.077,0.798-2.275,1.448-3.545,1.925
									c-0.57,0.214-1.162,0.392-1.761,0.535c-0.364,0.085-0.728,0.157-1.099,0.214c-0.741,0.122-1.497,0.178-2.274,0.178
									c-1.512,0-2.974-0.235-4.35-0.656c-5.969-1.854-10.297-7.423-10.297-13.998c0-2.289,0.527-4.45,1.462-6.375
									c1.141-2.367,2.902-4.378,5.077-5.819c0.506-0.342,1.041-0.648,1.59-0.927c1.191-0.592,2.475-1.027,3.822-1.276
									c0.877-0.164,1.775-0.25,2.695-0.25c6.218,0,11.538,3.879,13.648,9.349C210.483,119.867,210.832,121.657,210.832,123.525z"
									/>
								<path fill="#808791" d="M196.185,124.267c-0.214,0-0.428-0.093-0.573-0.273l-4.844-5.971
									c-0.257-0.316-0.208-0.781,0.108-1.038c0.315-0.255,0.782-0.209,1.038,0.108l4.844,5.971
									c0.257,0.316,0.208,0.781-0.108,1.038C196.513,124.212,196.349,124.267,196.185,124.267z"/>
								<circle fill="#C0D0D8" cx="196.186" cy="123.528" r="2.875"/>
								<path fill="#C0D0D8" d="M188.786,132.801c-0.172,0-0.344-0.06-0.483-0.181c-0.309-0.267-0.342-0.733-0.074-1.041
									l7.399-8.535c0.267-0.31,0.733-0.341,1.041-0.074c0.309,0.267,0.342,0.733,0.074,1.041l-7.399,8.535
									C189.198,132.715,188.992,132.801,188.786,132.801z"/>
							</g>
							<g>
								<path fill="#C7D8E2" d="M314.134,145.569l-26.308,76.524c-0.442,1.289-1.848,1.976-3.138,1.532l-42.791-14.711
									c-1.289-0.443-1.976-1.849-1.532-3.138l26.308-76.524c0.443-1.29,1.851-1.983,3.14-1.54l42.792,14.711
									C313.894,142.868,314.578,144.28,314.134,145.569z"/>
								<path fill="#DCE8EF" d="M316.06,146.231l-26.308,76.524c-0.443,1.289-1.849,1.976-3.138,1.532l-42.791-14.711
									c-1.29-0.443-1.976-1.849-1.532-3.138l26.307-76.524c0.443-1.29,1.852-1.983,3.141-1.54l42.792,14.711
									C315.82,143.53,316.503,144.942,316.06,146.231z"/>
								<path fill="#F0F7F7" d="M310.615,147.999l-9.999,29.066l-0.002,0.009l-8.148,23.729l-0.002,0.01l-3.714,10.776l-0.872,2.542
									c-0.233,0.696-1.001,1.071-1.695,0.828l-20.44-7.031l-15.834-5.442c-0.706-0.236-1.071-1.001-0.837-1.698l9.703-28.23
									l13.033-37.902c0.228-0.667,0.935-1.045,1.619-0.854c0.029,0.006,0.059,0.013,0.086,0.029l6.179,2.126l13.757,4.733
									l16.329,5.611C310.483,146.537,310.858,147.305,310.615,147.999z"/>
								<g>
									<path fill="#C7D8E2" d="M265.91,214.924L265.91,214.924c-1.213-0.417-1.858-1.739-1.441-2.952l0,0
										c0.417-1.213,1.738-1.859,2.952-1.442l0,0c1.213,0.417,1.858,1.739,1.441,2.953l0,0
										C268.445,214.695,267.124,215.341,265.91,214.924z"/>
								</g>
								<g>
									<path fill="#C7D8E2" d="M276.401,133.404L276.401,133.404c-0.492-0.169-0.755-0.707-0.586-1.2l0,0
										c0.17-0.493,0.707-0.755,1.2-0.586l0,0c0.493,0.17,0.755,0.707,0.586,1.2l0,0
										C277.431,133.311,276.894,133.573,276.401,133.404z"/>
								</g>
								<path fill="#CEE8EF" d="M284.966,197.12l-1.053-0.362l1.575-4.584c0.74-2.153,0.598-4.464-0.4-6.51l-2.9-5.938
									c-0.919-1.882-0.136-4.16,1.746-5.079l5.938-2.9c2.045-0.999,3.579-2.734,4.319-4.887l1.575-4.584l1.053,0.362l-1.575,4.584
									c-0.837,2.434-2.571,4.396-4.884,5.525l-5.938,2.9c-1.329,0.649-1.883,2.26-1.234,3.589l2.9,5.938
									c1.13,2.313,1.291,4.926,0.453,7.36L284.966,197.12z"/>
								<path fill="#CEE8EF" d="M262.881,189.528l-1.053-0.362l1.576-4.584c0.837-2.434,2.571-4.396,4.884-5.525l5.938-2.9
									c1.329-0.649,1.883-2.26,1.234-3.589l-2.9-5.938c-1.13-2.312-1.291-4.926-0.454-7.361l1.576-4.584l1.053,0.362l-1.576,4.584
									c-0.739,2.153-0.597,4.465,0.401,6.51l2.9,5.938c0.919,1.882,0.136,4.16-1.746,5.079l-5.938,2.9
									c-2.045,0.999-3.579,2.734-4.319,4.887L262.881,189.528z"/>
								<path fill="#B2CAD3" d="M296.969,163.804c-0.12,0-0.242-0.02-0.362-0.061l-23.435-8.056c-0.581-0.2-0.891-0.833-0.691-1.416
									c0.2-0.582,0.831-0.89,1.416-0.691l23.435,8.056c0.581,0.2,0.891,0.833,0.691,1.416
									C297.864,163.513,297.432,163.804,296.969,163.804z"/>
								<path fill="#B2CAD3" d="M285.115,198.285c-0.12,0-0.242-0.02-0.362-0.061l-23.435-8.056c-0.581-0.2-0.891-0.833-0.691-1.416
									c0.2-0.582,0.831-0.891,1.416-0.691l23.435,8.056c0.581,0.2,0.891,0.833,0.691,1.416
									C286.009,197.995,285.578,198.285,285.115,198.285z"/>
								<path fill="#799DD3" d="M275.395,163.872l4.367,8.945c0.202,0.414,0.701,0.585,1.114,0.383l8.944-4.368
									c0.667-0.326,0.607-1.294-0.095-1.536l-13.313-4.577C275.711,162.479,275.069,163.206,275.395,163.872z"/>
								<path fill="#799DD3" d="M271.417,187.861l3.814-1.862c0.413-0.202,0.912-0.031,1.113,0.383l1.863,3.814
									c0.325,0.667-0.317,1.394-1.02,1.153l-5.677-1.952C270.81,189.156,270.75,188.187,271.417,187.861z"/>
								<circle fill="#799DD3" cx="276.766" cy="183.344" r="0.905"/>
								<circle fill="#799DD3" cx="278.054" cy="179.599" r="0.905"/>
								<circle fill="#799DD3" cx="279.341" cy="175.855" r="0.905"/>
								<path opacity="0.3" fill="#FFFFFF" d="M288.75,211.589l-0.872,2.542c-0.233,0.696-1.001,1.071-1.695,0.828l-20.44-7.031
									l-6.968-35.37l13.033-37.902c0.228-0.667,0.935-1.045,1.619-0.854L288.75,211.589z"/>
								<polygon opacity="0.3" fill="#FFFFFF" points="300.616,177.065 300.614,177.075 292.465,200.803 279.691,135.957 
									293.448,140.69 								"/>
							</g>
							<g>
								<path fill="#CAD3DB" d="M310.012,213.516l2.164,22.316c0.117,1.21-0.766,2.283-1.976,2.4l-30.58,2.966
									c-1.209,0.117-2.282-0.767-2.399-1.976l-2.165-22.317c-0.117-1.209,0.767-2.282,1.976-2.399l30.58-2.966
									C308.822,211.423,309.895,212.306,310.012,213.516z"/>
								<path fill="#D8E1EA" d="M310.496,209.703l3.582,22.134c0.193,1.199-0.619,2.327-1.819,2.521l-30.328,4.908
									c-1.2,0.193-2.327-0.619-2.521-1.819l-3.581-22.134c-0.194-1.199,0.619-2.327,1.818-2.521l30.329-4.908
									C309.174,207.69,310.302,208.503,310.496,209.703z"/>
								<path fill="#ED9558" d="M310.496,209.703l0.795,4.91l-34.669,5.61l-0.794-4.911c-0.194-1.199,0.619-2.327,1.818-2.521
									l30.329-4.908C309.174,207.69,310.302,208.503,310.496,209.703z"/>
								
									<rect x="276.526" y="217.409" transform="matrix(0.9872 -0.1597 0.1597 0.9872 -31.0784 49.7731)" fill="#FFFFFF" width="35.12" height="1.617"/>
								<circle fill="#C97841" cx="284.037" cy="214.459" r="2.629"/>
								<circle fill="#C97841" cx="302.436" cy="211.482" r="2.629"/>
								<g>
									<path fill="#5C81B7" d="M284.035,216.257c-0.867,0-1.63-0.628-1.772-1.511l-0.622-3.845
										c-0.159-0.98,0.507-1.903,1.487-2.062c0.996-0.157,1.903,0.509,2.062,1.488l0.622,3.845
										c0.159,0.98-0.507,1.903-1.487,2.062C284.226,216.25,284.129,216.257,284.035,216.257z"/>
									<path fill="#5C81B7" d="M302.434,213.28c-0.867,0-1.63-0.628-1.772-1.511l-0.622-3.846
										c-0.159-0.98,0.507-1.903,1.487-2.062c0.992-0.155,1.903,0.509,2.062,1.488l0.622,3.846
										c0.159,0.98-0.507,1.903-1.487,2.062C302.625,213.273,302.529,213.28,302.434,213.28z"/>
								</g>
								
									<rect x="281.536" y="223.629" transform="matrix(0.9871 -0.1598 0.1598 0.9871 -32.3293 48.1572)" fill="#A5BDD6" width="3.416" height="2.902"/>
								
									<rect x="304.83" y="219.86" transform="matrix(0.9872 -0.1598 0.1598 0.9872 -31.4198 51.8159)" fill="#A5BDD6" width="3.417" height="2.902"/>
								
									<rect x="299.006" y="220.802" transform="matrix(0.9872 -0.1598 0.1598 0.9872 -31.6452 50.8976)" fill="#A5BDD6" width="3.417" height="2.901"/>
								
									<rect x="293.183" y="221.745" transform="matrix(0.9872 -0.1598 0.1598 0.9872 -31.8705 49.9794)" fill="#A5BDD6" width="3.417" height="2.901"/>
								
									<rect x="287.359" y="222.687" transform="matrix(0.9872 -0.1598 0.1598 0.9872 -32.0959 49.0611)" fill="#A5BDD6" width="3.417" height="2.902"/>
								
									<rect x="282.289" y="228.284" transform="matrix(0.9872 -0.1598 0.1598 0.9872 -33.0552 48.3229)" fill="#A5BDD6" width="3.417" height="2.902"/>
								
									<rect x="305.583" y="224.514" transform="matrix(0.9872 -0.1598 0.1598 0.9872 -32.1537 51.996)" fill="#A5BDD6" width="3.417" height="2.902"/>
								
									<rect x="299.759" y="225.456" transform="matrix(0.9871 -0.1598 0.1598 0.9871 -32.3871 51.093)" fill="#A5BDD6" width="3.416" height="2.902"/>
								
									<rect x="293.936" y="226.399" transform="matrix(0.9872 -0.1598 0.1598 0.9872 -32.6044 50.1595)" fill="#A5BDD6" width="3.417" height="2.901"/>
								
									<rect x="288.112" y="227.341" transform="matrix(0.9872 -0.1598 0.1598 0.9872 -32.8298 49.2412)" fill="#A5BDD6" width="3.417" height="2.901"/>
								
									<rect x="283.042" y="232.938" transform="matrix(0.9872 -0.1598 0.1598 0.9872 -33.7891 48.503)" fill="#A5BDD6" width="3.417" height="2.902"/>
								
									<rect x="306.336" y="229.168" transform="matrix(0.9872 -0.1598 0.1598 0.9872 -32.8876 52.1762)" fill="#A5BDD6" width="3.417" height="2.901"/>
								
									<rect x="300.512" y="230.111" transform="matrix(0.9872 -0.1598 0.1598 0.9872 -33.113 51.2578)" fill="#A5BDD6" width="3.417" height="2.902"/>
								
									<rect x="294.689" y="231.053" transform="matrix(0.9872 -0.1598 0.1598 0.9872 -33.3383 50.3396)" fill="#A5BDD6" width="3.417" height="2.901"/>
								
									<rect x="288.865" y="231.996" transform="matrix(0.9872 -0.1598 0.1598 0.9872 -33.5637 49.4213)" fill="#A5BDD6" width="3.417" height="2.901"/>
							</g>
							<circle fill="#C4CBD6" cx="139.068" cy="197.687" r="6.976"/>
							<path fill="#C4CBD6" d="M170.631,158.448c-2.113,0-3.833-1.719-3.833-3.833c0-2.113,1.72-3.832,3.833-3.832
								s3.832,1.719,3.832,3.832C174.463,156.729,172.745,158.448,170.631,158.448z M170.631,152.784
								c-1.011,0-1.833,0.822-1.833,1.832s0.822,1.833,1.833,1.833c1.01,0,1.832-0.822,1.832-1.833S171.641,152.784,170.631,152.784
								z"/>
							<g>
								<path fill="#6F7475" d="M144.767,158.987l-9.202,18.022c-0.51,0.998-0.113,2.221,0.885,2.731l34.713,17.725
									c0.998,0.509,2.222,0.113,2.73-0.885l9.203-18.022c0.27-0.528,0.281-1.124,0.09-1.641c-0.178-0.456-0.505-0.851-0.976-1.09
									l-34.713-17.725c-0.47-0.24-0.981-0.273-1.454-0.15C145.511,158.1,145.037,158.459,144.767,158.987z"/>
								<path fill="#8A9596" d="M146.043,157.952l8.688,19.161c1.362,2.993,4.616,4.655,7.84,4.002l20.615-4.198
									c-0.178-0.456-0.505-0.851-0.976-1.09l-34.713-17.725C147.028,157.862,146.516,157.829,146.043,157.952z"/>
							</g>
							<g>
								<path fill="#ED9558" d="M168.491,146.508l5.526,12.986c0.306,0.719,1.138,1.055,1.857,0.749l25.014-10.645
									c0.719-0.306,1.055-1.138,0.748-1.857l-5.526-12.986c-0.162-0.38-0.475-0.653-0.838-0.782
									c-0.323-0.108-0.681-0.11-1.02,0.034l-25.014,10.646c-0.339,0.144-0.586,0.403-0.731,0.711
									C168.349,145.712,168.329,146.127,168.491,146.508z"/>
								<path fill="#FFC197" d="M168.507,145.362l14.14,3.923c2.211,0.61,4.556-0.388,5.649-2.404l6.976-12.909
									c-0.323-0.108-0.681-0.11-1.02,0.034l-25.014,10.646C168.9,144.795,168.653,145.054,168.507,145.362z"/>
							</g>
							<path fill="#B5B5B5" d="M190.128,168.558h-1.287v1.288c0,0.583-0.472,1.054-1.055,1.054s-1.054-0.471-1.054-1.054v-1.288
								h-1.289c-0.582,0-1.054-0.472-1.054-1.055c0-0.583,0.472-1.054,1.054-1.054h1.289v-1.287c0-0.583,0.471-1.055,1.054-1.055
								s1.055,0.472,1.055,1.055v1.287h1.287c0.583,0,1.055,0.472,1.055,1.054C191.183,168.086,190.711,168.558,190.128,168.558z"/>
						</g>
						<path fill="#F0F6F7" d="M143.37,299.45c-9.622,0-17.446-7.828-17.446-17.45s7.824-17.45,17.446-17.45
							s17.453,7.828,17.453,17.45S152.992,299.45,143.37,299.45z M143.37,271.548c-5.761,0-10.449,4.688-10.449,10.452
							s4.688,10.452,10.449,10.452c5.768,0,10.456-4.688,10.456-10.452S149.137,271.548,143.37,271.548z"/>
					</g>
					<path fill="#C8CDCE" d="M130.137,246.483c-0.276,0-0.5-0.224-0.5-0.5c0-5.12,0.556-10.226,1.653-15.177
						c1.485-6.702,3.955-13.138,7.338-19.128c0.136-0.24,0.441-0.326,0.682-0.189c0.24,0.136,0.325,0.441,0.189,0.682
						c-3.336,5.903-5.769,12.246-7.233,18.853c-1.082,4.88-1.63,9.913-1.63,14.96C130.637,246.26,130.413,246.483,130.137,246.483z"
						/>
					<path fill="#C8CDCE" d="M132.422,264.208c-0.221,0-0.424-0.148-0.483-0.372c-0.526-1.994-0.969-4.042-1.316-6.085
						c-0.046-0.272,0.137-0.53,0.41-0.577c0.27-0.049,0.53,0.138,0.577,0.409c0.342,2.015,0.778,4.032,1.296,5.997
						c0.07,0.268-0.089,0.541-0.356,0.611C132.508,264.203,132.465,264.208,132.422,264.208z"/>
					<g>
						<circle fill="#C8CDCE" cx="199.47" cy="245.983" r="64.733"/>
						<path fill="#B5B5B5" d="M257.907,245.979c0,19.324-9.374,36.451-23.821,47.089c-4.302,3.172-9.056,5.76-14.139,7.659
							c-2.279,0.862-4.62,1.571-7.023,2.136c-4.322,1.027-8.819,1.561-13.45,1.561c-6.048,0-11.88-0.913-17.363-2.618
							c-23.801-7.393-41.081-29.592-41.081-55.826c0-9.128,2.095-17.753,5.821-25.443c4.569-9.436,11.604-17.455,20.269-23.226
							c2.033-1.355,4.148-2.587,6.356-3.676c4.743-2.362,9.867-4.107,15.247-5.104c3.481-0.646,7.075-0.985,10.751-0.985
							C231.745,187.546,257.907,213.708,257.907,245.979z"/>
						<path fill="#EFF4F4" d="M256.383,245.98c0,18.819-9.131,35.5-23.2,45.859c-4.19,3.09-8.82,5.61-13.771,7.46
							c-2.22,0.84-4.5,1.53-6.84,2.08c-4.21,1-8.59,1.521-13.1,1.521c-5.891,0-11.57-0.891-16.91-2.551
							c-23.18-7.199-40.01-28.819-40.01-54.369c0-8.891,2.04-17.29,5.67-24.78c4.449-9.19,11.3-17,19.739-22.62
							c1.98-1.32,4.04-2.52,6.19-3.58c4.62-2.3,9.61-4,14.85-4.97c3.391-0.63,6.891-0.96,10.471-0.96
							C230.903,189.07,256.383,214.55,256.383,245.98z"/>
						<path fill="#FFFFFF" d="M212.573,301.38c-4.21,1-8.59,1.521-13.1,1.521c-5.891,0-11.57-0.891-16.91-2.551l-34.34-79.149
							c4.449-9.19,11.3-17,19.739-22.62L212.573,301.38z"/>
						<path fill="#FFFFFF" d="M233.183,291.84c-4.19,3.09-8.82,5.61-13.771,7.46L174.153,195c4.62-2.3,9.61-4,14.85-4.97
							L233.183,291.84z"/>
						<path fill="#ED9558" d="M199.472,248.984c-1.081,0-2.126-0.586-2.661-1.61c-0.768-1.469-0.2-3.281,1.268-4.049l30.559-15.983
							c1.471-0.771,3.281-0.201,4.049,1.268s0.2,3.281-1.268,4.049l-30.559,15.983C200.416,248.874,199.94,248.984,199.472,248.984z
							"/>
						<circle fill="#6F7475" cx="199.47" cy="245.983" r="11.683"/>
						<path fill="#6F7475" d="M199.472,248.983c-1.006,0-1.988-0.505-2.556-1.424l-24.066-38.984
							c-0.87-1.41-0.433-3.258,0.977-4.128c1.412-0.872,3.259-0.433,4.129,0.977l24.066,38.983c0.87,1.41,0.433,3.259-0.977,4.129
							C200.554,248.839,200.009,248.983,199.472,248.983z"/>
					</g>
					<path fill="#C8CDCE" d="M264.203,245.98c0,21.359-10.35,40.31-26.3,52.1l-28.801-113.364c-0.231-0.914-0.35-1.854-0.35-2.796
						l0,0C240.103,186.41,264.203,213.38,264.203,245.98z"/>
					<path fill="#E2E2E2" d="M172.49,313.851h53.956c0.866,0,1.567-0.701,1.567-1.567l0,0c0-0.865-0.701-1.567-1.567-1.567H172.49
						c-0.866,0-1.567,0.702-1.567,1.567l0,0C170.922,313.149,171.624,313.851,172.49,313.851z"/>
				</g>
				<g>
					<path fill="#E2E2E2" d="M248.381,316.185h28.645c0.865,0,1.567-0.702,1.567-1.567l0,0c0-0.866-0.702-1.567-1.567-1.567h-28.645
						c-0.866,0-1.567,0.701-1.567,1.567l0,0C246.814,315.482,247.515,316.185,248.381,316.185z"/>
					<g>
						<g>
							<polygon fill="#D6DDEA" points="257.833,309.523 256.499,301.229 260.229,300.102 260.823,308.891 							"/>
							<path fill="#ED9558" d="M260.964,308.003c0.249,0.035,0.485,0.127,0.674,0.283c1.32,1.096,5.332,3.055,7.392,3.353
								c2.207,0.318,2.32,1.411-0.786,1.411c-3.105,0-5.383-0.277-6.767-0.242c-1.385,0.035-1.025,0.242-4.43,0.242
								c-2.614,0-1.796-3.333-0.861-4.883c0.285-0.472,0.668-0.739,1.236-0.658L260.964,308.003z"/>
						</g>
						<g>
							<polygon fill="#D6DDEA" points="245.822,301.791 251.029,295.198 254.382,297.185 248.31,303.565 							"/>
							<path fill="#ED9558" d="M249.06,303.069c0.142,0.207,0.234,0.443,0.246,0.688c0.086,1.713,1.412,6.09,2.949,7.492
								c1.585,1.447,0.563,1.8-1.99,0.595c-2.809-1.325-3.437-4.152-4.398-5.148s-0.871-0.591-3.174-3.1
								c-1.768-1.925,1.24-3.576,3.015-3.936c0.54-0.109,0.996-0.008,1.32,0.465L249.06,303.069z"/>
						</g>
						<g>
							<g>
								<path fill="#ED8C62" d="M243.521,161.938c0,0-1.019,6.792,0.951,9.916c1.97,3.125,2.253,3.6,2.253,3.6"/>
								<path fill="#FFAF84" d="M248.526,178.49c-0.56,0.33-1.189,0.49-1.8,0.49c-1.2,0-2.37-0.61-3.03-1.72
									c-0.04-0.05-0.39-0.64-2.21-3.52c-1.28-2.03-1.689-4.8-1.75-7.23c-0.08-2.38,0.19-4.43,0.29-5.1
									c0.29-1.93,2.1-3.26,4.021-2.96c1.93,0.28,3.26,2.08,2.97,4.01c-0.15,1.02-0.23,2.19-0.23,3.31c0,1.14,0.08,2.23,0.271,3.06
									c0.1,0.48,0.229,0.87,0.399,1.14c2.011,3.19,2.301,3.68,2.301,3.68C250.756,175.32,250.206,177.49,248.526,178.49z"/>
							</g>
							<path fill="#E8E8E8" d="M235.486,217.36c0.74-10.13-2.67-35.3-4.42-45.32c-0.26-1.52,0.91-2.91,2.45-2.91h20.82
								c1.119,0,2.109,0.75,2.399,1.84c2.38,9.09,3.9,46.39,3.9,46.39H235.486z"/>
							<path fill="#FFAF84" d="M269.886,196.25c-0.351-1.89-2.67-6.77-5.28-11.87c-2.77-5.41-5.86-11.07-7.29-13.64
								c-0.8-1.44-2.61-1.97-4.06-1.17c-1.44,0.8-1.971,2.62-1.17,4.06c2.199,3.97,4.47,8.2,6.43,11.98
								c2.24,4.31,4.422,6.979,5.302,9.099c-1.625,1.417-5.625,1.508-8.824,1.317c-0.875-0.103-4.265-0.342-6.521,1.729
								c-0.883,0.81-1.912,2.271-1.807,4.629c0.072,1.604,0.307,2.265,1.735,2.96c0.578,0.281,1.359,0.359,2,0.281
								c1.639-0.2,1.781-1.094,1.797-3.016c0.011-1.348,0.703-2.73,0.703-2.734c0,0,4.831,1.183,8.875,1.688s5.67-0.283,7.15-1.953
								C269.756,198.68,270.106,197.46,269.886,196.25z"/>
							<path fill="#3962A8" d="M236.582,233.729c0,0-3.063-5.616-1.093-16.368h25.146c0,0,0.356,8.184-0.22,16.368H236.582z"/>
							<path fill="#ED8C62" d="M264.606,184.38l-2.93,0.59l-3.16,0.64c-1.96-3.78-4.23-8.01-6.43-11.98
								c-0.801-1.44-0.271-3.26,1.17-4.06c1.449-0.8,3.26-0.27,4.06,1.17C258.746,173.31,261.836,178.97,264.606,184.38z"/>
							<path fill="#FFAF84" d="M236.286,171.47c-0.39-1.6-2.02-2.58-3.619-2.18c-7.211,1.77-12.221,3.41-15.711,4.87
								c-8.02,3.38-7.949,5.88-7.92,7.17c0.039,1.459,0.323,4.28,17.628,10.586c0.012,0.497-0.548,2.479-0.893,3.116
								c-0.786,1.451,0.031,2.842,0.893,4.249c0.294,0.479,0.956,1.063,1.8,1.063c1.062,0,2.382-1.344,2.563-2.466
								c0.655-4.034,0.542-6.405,0.343-6.878c-0.001-0.003-0.002-0.006-0.004-0.008c-0.001-0.003-0.004-0.011-0.005-0.014
								c-0.018-0.041-0.045-0.076-0.063-0.116c-0.065-0.135-0.133-0.27-0.218-0.394c-0.052-0.076-0.115-0.141-0.174-0.212
								c-0.064-0.078-0.123-0.16-0.196-0.232c-0.115-0.114-0.242-0.213-0.373-0.307c-0.022-0.016-0.041-0.036-0.064-0.051
								c-0.204-0.138-0.424-0.247-0.654-0.332c-5.855-2.41-11.329-6.307-13.731-8.035c0.84-0.48,2.04-1.04,3.51-1.63
								c3.71-1.49,9.14-3.21,14.7-4.58C235.696,174.69,236.676,173.08,236.286,171.47z"/>
							<path fill="#E8E8E8" d="M265.076,183.08l-4.01,0.77l-3.149,0.6h-0.011l-2.66,0.51c-3.43-6.73-4.25-8.27-4.38-10.57
								c-0.14-2.6,0.561-3.89,2.25-4.82c1.69-0.94,3.82-0.33,4.76,1.36C257.917,171.01,261.596,176.24,265.076,183.08z"/>
							<path fill="#3962A8" d="M276.026,267c-0.37,2.47-1.71,5.12-3.58,8.39c-3.14,5.45-7.939,11.48-12.25,16.551
								c-3,3.529-5.75,6.59-7.52,8.67c-0.771,0.89-1.351,1.6-1.7,2.09l-3.55-4.601c1.319-1.859,2.55-4.369,4.09-6.71
								c0.04-0.06,0.08-0.12,0.12-0.18c2.899-4.37,5.97-9.3,8.46-13.78c0.1-0.149,0.18-0.3,0.26-0.449
								c2.63-4.74,4.58-8.94,4.95-11.4c0.66-4.39-5.89-18.05-12.37-30.1c-0.74-1.381-1.48-2.74-2.21-4.061
								c-0.25-0.45-0.39-0.95-0.42-1.46c-0.19-2.22,1.439-4.77,3.42-5.86c2.43-1.34,5.57-2.029,6.91,0.4
								C263.375,229.47,277.646,256.26,276.026,267z"/>
							<path fill="#2D548C" d="M260.196,291.94c-3,3.529-5.75,6.59-7.52,8.67c-0.28-2.46-0.58-5.13-0.88-7.83
								c-0.061-0.521-0.11-1.04-0.16-1.57c2.899-4.37,5.97-9.3,8.46-13.78C260.206,281.86,260.216,287.04,260.196,291.94z"/>
							<path fill="#3962A8" d="M259.546,268.35c-1.231-10.06-9.679-37.088-10.989-40.068c-1.11-2.54-7.211-3.081-9.761-1.961
								c-2.54,1.109-3.7,4.08-2.58,6.62c3.39,7.729,13.037,28.375,13.997,35.685c0.561,4.37,1.313,13.155,2.692,20.645
								c0.97,5.23,1.94,10.32,2.66,14.021c0.62,3.21,0.623,2.622,0.683,2.942l6.027-0.92
								C262.276,305.313,260.998,280.214,259.546,268.35z"/>
							<path fill="#ED8C62" d="M234.096,175.09c-5.561,1.37-10.99,3.09-14.7,4.58l-2.44-5.51c3.49-1.46,8.5-3.1,15.711-4.87
								c1.6-0.4,3.229,0.58,3.619,2.18C236.676,173.08,235.696,174.69,234.096,175.09z"/>
							<path fill="#E8E8E8" d="M232.711,169.205c1.914-0.276,3.293,0.629,3.807,2.493c0.515,1.862-0.774,3.327-2.441,4.306
								c-2.051,1.205-2.74,1.432-11.372,4.403l-4.798-6.656C228.94,169.485,229.508,169.668,232.711,169.205z"/>
							<path fill="#ED8C62" d="M247.056,168.83c-0.16,0.01-0.32,0.01-0.48,0.01c-2.569,0-4.95-0.87-6.84-2.33
								c-0.08-2.38,0.19-4.43,0.29-5.1c0.29-1.93,2.1-3.26,4.021-2.96c1.93,0.28,3.26,2.08,2.97,4.01
								c-0.15,1.02-0.23,2.19-0.23,3.31C246.786,166.91,246.866,168,247.056,168.83z"/>
							<path fill="#FFAF84" d="M257.061,156.274c-1.41,6.476-5.027,11.229-11.229,11.229c-6.201,0-10.118-4.691-11.229-11.229
								c-1.039-6.114,5.057-12.108,11.259-12.108C252.063,144.167,258.38,150.215,257.061,156.274z"/>
							<path fill="#658BC1" d="M257.904,306.268l-0.028-0.179c-1.701-10.518-4.271-26.412-5.572-36.407
								c-0.949-7.278-9.956-28.919-13.347-36.644c-0.025-0.057-0.043-0.115-0.059-0.173c-0.009-0.03-0.017-0.061-0.028-0.09
								c-0.55-1.489-2.221-7.018-0.632-15.695l0.492,0.09c-1.566,8.553,0.069,13.974,0.608,15.431
								c0.016,0.042,0.028,0.086,0.041,0.129c0.01,0.036,0.019,0.072,0.034,0.107c3.399,7.742,12.429,29.443,13.386,36.78
								c1.301,9.987,3.869,25.877,5.569,36.393l0.029,0.178L257.904,306.268z"/>
						</g>
						<path fill="#C8D6DB" d="M249.826,169.13c0,1.51-0.6,4.06-4.58,4.06c-2.899,0-6.54-1.23-7.88-3.56l-0.29-0.5H249.826z"/>
						<path fill="#FFAF84" d="M238.234,169.128c1.063,1.851,4.25,3.059,7.011,3.059c2.762,0,3.578-1.37,3.578-3.059H238.234z"/>
						<g>
							<path fill="#82AACE" d="M253.355,200.5c-0.001-0.031,0.15-1.729-1.602-4.21l1.635-0.971c2.075,3.077,1.867,5.307,1.867,5.452
								L253.355,200.5z"/>
							<path fill="#4E7CAF" d="M252.06,195.348c0.939-0.436,2.184-0.232,2.779,0.454c0.597,0.686,0.318,1.596-0.62,2.031
								c-0.939,0.436-2.184,0.233-2.779-0.454C250.843,196.693,251.122,195.784,252.06,195.348z"/>
						</g>
						<path fill="#424344" d="M256.776,147.958c-3.375-5.458-11.74-5.917-13.371-5.833c-0.861,0.044-2.709,0.537-3.531,1.828
							c-0.056-0.903,0.007-1.682,0.007-1.682c-0.737,0.905-0.856,1.652-0.72,2.233c-0.502-0.663-0.86-1.405-0.86-1.405
							c-0.147,0.955,0.127,1.484,0.488,1.794c-2.282,0.533-5.2,3.763-4.2,10.388c0.437,2.889,6.944,0.679,8.791-2.215
							c1.238,1.983,3.694,2.401,3.694,2.401c-0.864-0.856-1.598-2.133-2.186-3.413c3.468,2.124,8.107,4.408,8.637,5.821
							c0,0,1-2.267,0.25-3.708c0,0,2.752,0.685,3.1,3.435C256.875,157.601,260.39,153.803,256.776,147.958z"/>
						
							<rect x="241.177" y="225.379" transform="matrix(0.1595 0.9872 -0.9872 0.1595 432.6882 -56.9538)" fill="#658BC1" width="17.228" height="0.501"/>
						<path fill="#658BC1" d="M250.648,230.942l-0.077-0.494c0.011-0.002,1.055-0.175,1.625-0.963
							c0.334-0.46,0.445-1.049,0.332-1.749l-1.741-10.776l0.494-0.08l1.741,10.776c0.135,0.839-0.008,1.554-0.424,2.127
							C251.902,230.739,250.699,230.935,250.648,230.942z"/>
						<path fill="#FFAF84" d="M234.204,155.627c-0.493,1.097-0.44,2.301,0.042,3.307c0.565,1.178,2.277,1.113,2.813-0.08
							l1.454-3.239c0.535-1.192-0.555-2.515-1.811-2.154C235.63,153.77,234.696,154.53,234.204,155.627z"/>
					</g>
				</g>
			</g>
		</g>
	</g>
</g>
<g id="Designed_by_Freepik">
</g>
</svg>
