<?xml version="1.0" encoding="utf-8"?>
<!-- Generator: Adobe Illustrator 16.0.0, SVG Export Plug-In . SVG Version: 6.00 Build 0)  -->
<!DOCTYPE svg PUBLIC "-//W3C//DTD SVG 1.1//EN" "http://www.w3.org/Graphics/SVG/1.1/DTD/svg11.dtd">
<svg version="1.1" xmlns="http://www.w3.org/2000/svg" xmlns:xlink="http://www.w3.org/1999/xlink" x="0px" y="0px" width="200px"
	 height="200px" viewBox="0 0 200 200" enable-background="new 0 0 200 200" xml:space="preserve">
<g id="_x33_">
	<g>
		<path fill-rule="evenodd" clip-rule="evenodd" fill="#CEAA46" d="M53.485,16.928h93.029c20.078,0,36.559,16.479,36.559,36.559
			v92.943c0,20.162-16.48,36.643-36.559,36.643H53.485c-20.078,0-36.558-16.48-36.558-36.643V53.486
			C16.927,33.406,33.408,16.928,53.485,16.928L53.485,16.928z"/>
		<g>
			<g>
				<path fill="#FFFFFF" d="M124.358,156.547H75.642c-17.748,0-32.188-14.439-32.188-32.188V75.641
					c0-17.746,14.44-32.186,32.188-32.186h48.716c17.748,0,32.188,14.439,32.188,32.186v48.719
					C156.546,142.107,142.105,156.547,124.358,156.547z M75.642,53.148c-12.403,0-22.495,10.09-22.495,22.492v48.719
					c0,12.402,10.091,22.494,22.495,22.494h48.716c12.403,0,22.495-10.092,22.495-22.494V75.641
					c0-12.402-10.091-22.492-22.495-22.492H75.642z"/>
			</g>
			<g>
				<path fill="#FFFFFF" d="M100,128.957c-15.967,0-28.958-12.988-28.958-28.957c0-15.967,12.99-28.957,28.958-28.957
					c15.966,0,28.957,12.99,28.957,28.957C128.957,115.969,115.966,128.957,100,128.957z M100,80.738
					c-10.623,0-19.264,8.641-19.264,19.262s8.641,19.264,19.264,19.264c10.622,0,19.263-8.643,19.263-19.264
					S110.622,80.738,100,80.738z"/>
			</g>
			<g>
				<circle fill="#FFFFFF" cx="130.198" cy="69.389" r="6.96"/>
			</g>
		</g>
	</g>
</g>
<g id="Layer_1">
</g>
</svg>
