<?xml version="1.0" encoding="utf-8"?>
<!-- Generator: Adobe Illustrator 16.0.0, SVG Export Plug-In . SVG Version: 6.00 Build 0)  -->
<!DOCTYPE svg PUBLIC "-//W3C//DTD SVG 1.1//EN" "http://www.w3.org/Graphics/SVG/1.1/DTD/svg11.dtd">
<svg version="1.1" xmlns="http://www.w3.org/2000/svg" xmlns:xlink="http://www.w3.org/1999/xlink" x="0px" y="0px" width="24px"
	 height="24px" viewBox="0 0 24 24" enable-background="new 0 0 24 24" xml:space="preserve">
<g id="_x33_">
	<rect x="248.5" y="-511.633" fill="#FEFEFE" width="800" height="800"/>
	<g>
		<g>
			<g>
				<path fill="#FEFEFE" d="M456.86-261.633H341.435c-24.911,0-44.935,20.221-44.935,45.133v115.322
					c0,25.014,20.023,45.545,44.935,45.545H456.86c24.912,0,45.64-20.531,45.64-45.545V-216.5
					C502.5-241.412,481.772-261.633,456.86-261.633z"/>
				<path fill="#FEFEFE" d="M706.188-261.633h-115.32c-25.016,0-45.367,20.222-45.367,45.133v115.32
					c0,25.016,20.352,45.547,45.367,45.547h115.32c24.911,0,45.313-20.531,45.313-45.547V-216.5
					C751.5-241.411,731.099-261.633,706.188-261.633z"/>
				<path fill="#FEFEFE" d="M955.565-261.633H840.246c-25.019,0-45.746,20.222-45.746,45.133v115.32
					c0,25.016,20.728,45.547,45.746,45.547h115.319c25.017,0,44.935-20.531,44.935-45.547V-216.5
					C1000.5-241.411,980.582-261.633,955.565-261.633z"/>
				<path fill="#FEFEFE" d="M456.86-9.633H341.435c-24.911,0-44.935,20.532-44.935,45.445v115.32
					c0,25.015,20.023,45.234,44.935,45.234H456.86c24.912,0,45.64-20.22,45.64-45.234V35.813
					C502.5,10.899,481.772-9.633,456.86-9.633z"/>
				<path fill="#FEFEFE" d="M706.188-9.633h-115.32c-25.016,0-45.367,20.534-45.367,45.445v115.319
					c0,25.016,20.352,45.235,45.367,45.235h115.32c24.911,0,45.313-20.22,45.313-45.235V35.813
					C751.5,10.901,731.099-9.633,706.188-9.633z"/>
				<path fill="#FEFEFE" d="M955.565-9.633H840.246c-25.019,0-45.746,20.534-45.746,45.445v115.319
					c0,25.016,20.728,45.235,45.746,45.235h115.319c25.017,0,44.935-20.22,44.935-45.235V35.813
					C1000.5,10.901,980.582-9.633,955.565-9.633z"/>
			</g>
		</g>
	</g>
	<g>
		<linearGradient id="SVGID_1_" gradientUnits="userSpaceOnUse" x1="399.1479" y1="-259.3779" x2="399.1479" y2="-62.5734">
			<stop  offset="0" style="stop-color:#FEC053"/>
			<stop  offset="0.3273" style="stop-color:#F2203E"/>
			<stop  offset="0.6485" style="stop-color:#B729A8"/>
			<stop  offset="1" style="stop-color:#5342D6"/>
		</linearGradient>
		<path fill-rule="evenodd" clip-rule="evenodd" fill="url(#SVGID_1_)" d="M341.435-262.859H456.86
			c24.912,0,45.36,20.447,45.36,45.359v115.322c0,25.014-20.448,45.463-45.36,45.463H341.435c-24.911,0-45.359-20.449-45.359-45.463
			V-217.5C296.075-242.412,316.523-262.859,341.435-262.859L341.435-262.859z"/>
		<g>
			<g>
				<path fill="#FFFFFF" d="M429.37-89.627h-60.444c-22.021,0-39.937-17.915-39.937-39.937v-60.446
					c0-22.02,17.916-39.936,39.937-39.936h60.444c22.021,0,39.938,17.916,39.938,39.936v60.446
					C469.308-107.542,451.391-89.627,429.37-89.627z M368.926-217.918c-15.39,0-27.91,12.52-27.91,27.908v60.446
					c0,15.39,12.521,27.91,27.91,27.91h60.444c15.39,0,27.91-12.521,27.91-27.91v-60.446c0-15.389-12.521-27.908-27.91-27.908
					H368.926z"/>
			</g>
			<g>
				<path fill="#FFFFFF" d="M399.148-123.858c-19.812,0-35.929-16.116-35.929-35.928c0-19.811,16.117-35.929,35.929-35.929
					c19.81,0,35.928,16.118,35.928,35.929C435.076-139.975,418.958-123.858,399.148-123.858z M399.148-183.687
					c-13.18,0-23.901,10.722-23.901,23.901c0,13.179,10.722,23.9,23.901,23.9c13.179,0,23.9-10.722,23.9-23.9
					C423.049-172.965,412.327-183.687,399.148-183.687z"/>
			</g>
			<g>
				<circle fill="#FFFFFF" cx="436.617" cy="-197.77" r="8.635"/>
			</g>
		</g>
	</g>
	<linearGradient id="SVGID_2_" gradientUnits="userSpaceOnUse" x1="648.5259" y1="-249.6328" x2="648.5259" y2="-74.9259">
		<stop  offset="0" style="stop-color:#4E6ABD"/>
		<stop  offset="1" style="stop-color:#3E51A0"/>
	</linearGradient>
	<path fill-rule="evenodd" clip-rule="evenodd" fill="url(#SVGID_2_)" d="M590.867-262.861h115.32
		c24.911,0,45.36,20.45,45.36,45.362v115.32c0,25.016-20.449,45.465-45.36,45.465h-115.32c-25.016,0-45.362-20.449-45.362-45.465
		V-217.5C545.505-242.411,565.852-262.861,590.867-262.861L590.867-262.861z"/>
	<path fill-rule="evenodd" clip-rule="evenodd" fill="#FEFEFE" d="M658.439-183.143v-9.965c0-4.774,3.217-5.917,5.503-5.917
		c2.179,0,13.908,0,13.908,0v-21.279h-19.202c-21.28,0-26.056,15.777-26.056,25.95v11.21h-12.351v14.946v9.861h12.456
		c0,28.13,0,61.968,0,61.968h24.807c0,0,0-34.254,0-61.968h18.374l0.829-9.757l1.453-15.05H658.439z"/>
	<linearGradient id="SVGID_3_" gradientUnits="userSpaceOnUse" x1="897.9043" y1="-265.1328" x2="897.9043" y2="-68.0922">
		<stop  offset="0" style="stop-color:#49BD60"/>
		<stop  offset="1" style="stop-color:#44A05E"/>
	</linearGradient>
	<path fill-rule="evenodd" clip-rule="evenodd" fill="url(#SVGID_3_)" d="M840.246-262.861h115.319
		c25.017,0,45.359,20.45,45.359,45.362v115.32c0,25.016-20.343,45.465-45.359,45.465H840.246c-25.019,0-45.362-20.449-45.362-45.465
		V-217.5C794.884-242.411,815.228-262.861,840.246-262.861L840.246-262.861z"/>
	<path fill-rule="evenodd" clip-rule="evenodd" fill="#FEFEFE" d="M898.996-113.598c-10.382,0-20.034-3.113-28.131-8.408
		l-19.617,6.229l6.329-18.892c-6.12-8.303-9.754-18.683-9.754-29.79c0-1.66,0.103-3.218,0.311-4.879
		c2.492-25.742,24.391-45.877,50.862-45.877c26.883,0,48.994,20.656,51.067,46.812c0.104,1.35,0.104,2.698,0.104,3.944
		C950.168-136.432,927.228-113.598,898.996-113.598L898.996-113.598z M926.916-152.211c-1.556-0.727-8.821-4.359-10.17-4.877
		c-1.456-0.416-2.389-0.728-3.425,0.83c-0.938,1.453-3.841,4.775-4.674,5.708c-0.936,1.04-1.764,1.144-3.217,0.416
		c-1.56-0.727-6.333-2.284-12.039-7.369c-4.466-3.944-7.474-8.719-8.307-10.173c-0.831-1.557-0.104-2.284,0.624-3.113
		c0.727-0.623,1.558-1.661,2.281-2.596c0.209-0.207,0.417-0.416,0.52-0.623c0.416-0.623,0.622-1.141,0.937-1.764
		c0.519-1.037,0.313-1.868-0.102-2.594c-0.317-0.727-3.322-8.096-4.572-11.003c-1.242-3.009-2.488-2.491-3.321-2.491
		c-0.934,0-1.866-0.104-2.903-0.104c-1.041,0-2.596,0.312-3.945,1.869c-1.455,1.452-5.297,4.982-5.297,12.352
		c0,1.662,0.313,3.425,0.836,4.983c1.45,5.294,4.773,9.549,5.292,10.276c0.725,1.039,10.275,16.399,25.428,22.317
		c15.26,5.916,15.26,3.944,17.958,3.737c2.7-0.209,8.823-3.53,10.071-7.059c1.243-3.426,1.243-6.437,0.829-7.06
		C929.408-151.068,928.371-151.483,926.916-152.211L926.916-152.211z M959.823-165.912c-0.835-32.696-27.716-58.854-60.827-58.854
		c-32.695,0-59.372,25.536-60.724,57.713c-0.104,0.83-0.104,1.764-0.104,2.594c0,11.417,3.219,22.109,8.722,31.243l-11.003,32.386
		l33.732-10.691c8.721,4.775,18.788,7.473,29.377,7.473c33.63,0,60.929-26.987,60.929-60.41
		C959.925-164.978,959.823-165.394,959.823-165.912L959.823-165.912z"/>
	<g>
		<path fill-rule="evenodd" clip-rule="evenodd" fill="#CEAA46" d="M5.52,0.428h12.96c2.797,0,5.093,2.295,5.093,5.094v12.945
			c0,2.811-2.296,5.105-5.093,5.105H5.52c-2.797,0-5.093-2.295-5.093-5.105V5.521C0.427,2.723,2.723,0.428,5.52,0.428L5.52,0.428z"
			/>
		<g>
			<g>
				<path fill="#FFFFFF" d="M15.393,19.877H8.607c-2.473,0-4.484-2.012-4.484-4.484V8.607c0-2.473,2.012-4.484,4.484-4.484h6.786
					c2.473,0,4.484,2.012,4.484,4.484v6.785C19.877,17.865,17.866,19.877,15.393,19.877z M8.607,5.473
					c-1.728,0-3.134,1.406-3.134,3.135v6.785c0,1.729,1.406,3.135,3.134,3.135h6.786c1.728,0,3.134-1.406,3.134-3.135V8.607
					c0-1.729-1.406-3.135-3.134-3.135H8.607z"/>
			</g>
			<g>
				<path fill="#FFFFFF" d="M12,16.035c-2.225,0-4.034-1.811-4.034-4.035S9.775,7.965,12,7.965S16.034,9.775,16.034,12
					S14.225,16.035,12,16.035z M12,9.316c-1.479,0-2.683,1.203-2.683,2.684s1.204,2.684,2.683,2.684S14.683,13.48,14.683,12
					S13.479,9.316,12,9.316z"/>
			</g>
			<g>
				<circle fill="#FFFFFF" cx="16.207" cy="7.736" r="0.97"/>
			</g>
		</g>
	</g>
	<g>
		<path fill-rule="evenodd" clip-rule="evenodd" fill="#323232" d="M840.246-10.55h115.319c25.017,0,45.359,20.451,45.359,45.362
			v115.319c0,25.016-20.343,45.464-45.359,45.464H840.246c-25.019,0-45.362-20.448-45.362-45.464V34.813
			C794.884,9.901,815.228-10.55,840.246-10.55L840.246-10.55z"/>
		<path fill-rule="evenodd" clip-rule="evenodd" fill="#FEFEFE" d="M898.996,138.714c-10.382,0-20.034-3.112-28.131-8.408
			l-19.617,6.229l6.329-18.893c-6.12-8.304-9.754-18.682-9.754-29.791c0-1.66,0.103-3.217,0.311-4.878
			c2.492-25.742,24.391-45.878,50.862-45.878c26.883,0,48.994,20.656,51.067,46.813c0.104,1.35,0.104,2.698,0.104,3.943
			C950.168,115.879,927.228,138.714,898.996,138.714L898.996,138.714z M926.916,100.101c-1.556-0.727-8.821-4.358-10.17-4.878
			c-1.456-0.415-2.389-0.727-3.425,0.83c-0.938,1.452-3.841,4.775-4.674,5.708c-0.936,1.04-1.764,1.144-3.217,0.416
			c-1.56-0.727-6.333-2.284-12.039-7.369c-4.466-3.944-7.474-8.72-8.307-10.173c-0.831-1.557-0.104-2.283,0.624-3.113
			c0.727-0.622,1.558-1.661,2.281-2.597c0.209-0.207,0.417-0.415,0.52-0.622c0.416-0.622,0.622-1.141,0.937-1.765
			c0.519-1.036,0.313-1.868-0.102-2.594c-0.317-0.727-3.322-8.096-4.572-11.003c-1.242-3.011-2.488-2.491-3.321-2.491
			c-0.934,0-1.866-0.104-2.903-0.104c-1.041,0-2.596,0.313-3.945,1.869c-1.455,1.452-5.297,4.981-5.297,12.352
			c0,1.66,0.313,3.425,0.836,4.982c1.45,5.294,4.773,9.55,5.292,10.276c0.725,1.038,10.275,16.4,25.428,22.317
			c15.26,5.916,15.26,3.944,17.958,3.736c2.7-0.209,8.823-3.529,10.071-7.059c1.243-3.425,1.243-6.438,0.829-7.06
			C929.408,101.243,928.371,100.828,926.916,100.101L926.916,100.101z M959.823,86.399c-0.835-32.695-27.716-58.854-60.827-58.854
			c-32.695,0-59.372,25.535-60.724,57.713c-0.104,0.83-0.104,1.765-0.104,2.594c0,11.418,3.219,22.109,8.722,31.244l-11.003,32.386
			l33.732-10.692c8.721,4.777,18.788,7.475,29.377,7.475c33.63,0,60.929-26.988,60.929-60.412
			C959.925,87.334,959.823,86.917,959.823,86.399L959.823,86.399z"/>
	</g>
	<g>
		<path fill="#1C1C1C" d="M345.902-355.271l-0.628-0.817l-0.565-0.879l-0.377-0.691l-0.251-0.565l-0.188-0.816l-0.188-1.005
			l-0.126-1.005v-1.444l0.063-0.565l0.063-0.502l0.063-0.565l0.377-1.13l0.126-0.502l0.251-0.565l0.251-0.44l0.251-0.502
			l0.252-0.565l0.313-0.439l0.314-0.502l0.69-0.879l0.377-0.439l0.816-0.816l0.879-0.754l0.503-0.314l1.256-0.879l0.565-0.314
			l0.503-0.314l0.941-0.502l0.565-0.251l0.754-0.251l0.628-0.251l0.628-0.188l0.69-0.251l0.629-0.188l0.564-0.063l0.503-0.125
			l0.565-0.063l0.565-0.188l0.564-0.125l0.503-0.063l0.565-0.063l0.628-0.063l0.754-0.063h1.318l2.638,0.188l1.382,0.251
			l0.377,0.063l1.256,0.188l0.565,0.126l0.565,0.188l0.502,0.188l0.565,0.188l0.503,0.188l0.502,0.251l0.503,0.188l0.564,0.251
			l0.691,0.377l0.69,0.439l0.503,0.314l0.502,0.44l0.816,0.565l0.44,0.377l0.376,0.439l0.314,0.377l0.754,0.879l0.628,1.005
			l0.251,0.314l0.314,0.565l0.188,0.503l0.188,0.565l0.376,1.005l0.188,0.565l0.063,0.502l0.188,1.696v1.381l-0.063,0.816v0.628
			l-0.125,1.13l-0.126,0.565l-0.188,0.565l-0.125,0.502l-0.377,1.131l-0.126,0.502l-0.251,0.565l-0.251,0.439l-0.252,0.503
			l-0.251,0.565l-0.314,0.502l-0.313,0.439l-0.314,0.503l-0.439,0.502l-0.251,0.251L376.049-351l-0.377,0.439l-0.439,0.377
			l-0.377,0.377l-0.439,0.377l-1.005,0.628l-0.942,0.565l-0.439,0.251l-0.503,0.251l-0.628,0.251l-0.502,0.125l-1.131,0.377
			l-0.565,0.125l-0.502,0.125l-0.565,0.063l-1.131,0.063l-0.565,0.063h-2.889l-0.628-0.063l-0.754-0.126l-0.816-0.188l-0.628-0.126
			l-1.131-0.314l-0.69-0.125l-0.565,0.125l-0.251,0.44l-0.188,0.565l-0.188,0.628l-0.126,0.377l-0.125,0.691l-0.126,0.565
			l-0.126,1.13l-0.125,0.565l-0.377,1.13l-0.126,0.565l-0.063,0.565l-0.188,0.565l-0.126,0.565l-0.188,0.565l-0.063,0.628
			l-0.251,1.13l-0.188,0.565l-0.126,0.502l-0.251,0.565l-0.188,0.565l-0.251,0.502l-0.314,0.565l-0.502,0.565l-0.816,0.439
			l-1.005,0.125l-1.067-0.188l-0.817-0.439l-0.439-0.565l-0.063-0.565l0.188-0.502l0.251-0.565l0.314-0.691l0.251-0.753l0.188-0.628
			l0.188-0.754l0.251-0.816l0.377-1.13l0.126-0.628l0.188-0.816l0.125-0.691l0.188-0.565l0.126-0.565l0.063-0.565l0.126-0.565
			l0.125-0.502l0.126-0.565l0.188-0.565l0.188-0.754l0.188-0.816l0.251-1.13l0.126-0.502l0.125-0.691l0.126-0.314l0.125-0.691
			l0.126-0.502l0.126-0.565l0.188-0.565l0.125-0.565l0.188-0.565l0.126-0.816l0.188-0.753l0.377-1.13l0.377-1.005l0.188-0.565
			l0.126-0.565l0.439-1.319l0.252-0.879l0.188-0.376l0.314-0.879l0.439-0.942l0.314-0.753l0.313-0.565l0.565-0.942l0.314-0.502
			l0.251-0.502l0.314-0.439l0.376-0.44l0.816-0.816l0.44-0.377l1.005-0.502l0.564-0.188l1.131-0.251l0.628,0.063l0.565,0.125
			l0.565,0.314l0.377,0.439l0.125,0.565l-0.188,0.439l-0.502,0.314l-0.439,0.314l-0.503,0.314l-0.377,0.376l-0.753,0.879
			l-0.314,0.44l-1.005,2.01l-0.251,0.439l-0.251,0.502l-0.188,0.565l-0.126,0.565l-0.188,0.565l-0.188,0.753l-0.251,0.817
			l-0.251,0.565l-0.188,0.816l-0.188,0.754l-0.126,0.565l-0.188,0.628l-0.063,0.376l-0.188,0.628l-0.126,0.565l-0.188,0.565
			l-0.063,0.565l-0.063,0.69l0.125,0.565l0.44,0.314l0.753,0.251l0.88,0.125l0.377,0.063l0.879,0.125l0.816,0.125h0.628l1.131-0.063
			l0.753-0.063l0.817-0.125l0.564-0.188l0.503-0.188l0.565-0.251l0.753-0.314l0.629-0.377l1.005-0.628l0.439-0.314l0.377-0.377
			l1.13-1.319l0.439-0.691l0.503-0.879l0.377-0.69l0.313-0.628l0.252-0.753l0.188-0.754l0.063-0.628l0.125-0.753l0.188-0.817
			l0.063-0.628l0.063-0.565l-0.063-0.565l-0.063-0.628l-0.125-0.565l-0.251-0.816l-0.188-0.753l-0.252-0.565l-0.188-0.565
			l-0.313-0.502l-0.314-0.439l-0.313-0.502l-0.816-0.816l-0.377-0.44l-0.88-0.753l-0.502-0.314l-0.503-0.251l-0.564-0.251
			l-1.508-0.628l-0.565-0.251l-0.565-0.188l-1.067-0.251l-0.628-0.063l-0.565-0.063l-1.759-0.063h-0.564l-0.565,0.063l-1.131,0.063
			l-0.565,0.063l-0.502,0.125l-0.565,0.125l-0.565,0.188l-1.067,0.251l-1.131,0.376l-0.502,0.251l-1.319,0.691l-0.628,0.314
			l-0.565,0.314l-1.758,1.507l-0.816,0.816l-0.377,0.439l-0.314,0.44l-0.313,0.502l-0.252,0.502l-0.188,0.502l-0.188,0.565
			l-0.188,0.502l-0.188,0.565l-0.126,1.13l0.063,0.565v0.628l0.126,0.816l0.125,0.754l0.188,0.565l0.252,0.565l0.502,1.005
			l0.314,0.502l0.251,0.502l-0.063,0.502l-0.252,0.565l-0.376,0.439l-0.44,0.377l-0.564,0.251l-0.565,0.125l-0.565-0.125
			l-0.565-0.439l-0.439-0.44L345.902-355.271z"/>
		<path fill="#1C1C1C" d="M398.156-335.425l-0.879,0.753l-1.005,0.628l-0.503,0.251l-1.005,0.628l-0.502,0.251l-1.131,0.377
			l-0.628,0.188l-1.131,0.188l-0.377,0.125l-0.628,0.125l-0.502,0.063h-0.565l-0.69,0.063h-0.565l-1.131-0.125l-0.69-0.188
			l-0.565-0.188l-0.439-0.188l-0.565-0.188l-0.503-0.251l-1.005-0.628l-0.439-0.377l-0.754-0.879l-0.313-0.502l-0.251-0.502
			l-0.314-0.502l-0.377-1.13l-0.251-1.13l-0.126-1.131l-0.063-0.628l0.063-0.565v-1.759l0.126-0.565l0.126-0.503l0.125-0.565
			l0.188-1.13l0.126-0.628l0.125-0.565l0.188-0.502l0.188-0.565l0.252-0.565l0.251-0.503l0.188-0.565l0.313-0.754l0.377-0.753
			l0.314-0.502l0.377-0.502l0.313-0.439l0.377-0.44l0.628-1.005l0.377-0.439l0.816-0.816l0.879-0.754l0.44-0.314l0.502-0.377
			l0.565-0.377l0.69-0.439l0.691-0.377l0.502-0.251l0.628-0.251l0.377-0.125l0.691-0.251l0.377-0.126l0.628-0.188l0.565-0.125
			l0.628-0.063l0.565-0.063h1.444l1.005,0.125l0.816,0.125l0.565,0.126l0.564,0.188l0.503,0.251l1.131,0.691l0.69,0.377l0.439,0.376
			l0.314,0.377l0.377,0.44l0.376,0.502l0.754,1.381l0.188,0.565l0.063,0.565l0.063,0.502l0.251,1.13v2.198l-0.126,0.753
			l-0.063,0.691l-0.063,0.628l-0.377,1.884l-0.251,0.879l-0.188,0.628l-0.252,0.628l-0.251,0.691l-0.188,0.565l-0.377,0.691
			l-0.564,1.13l-0.314,0.691l0.063,0.439l0.503,0.063h0.377l0.69-0.063l0.439-0.063l0.565-0.126l0.628-0.251l0.439-0.251
			l1.005-0.628l0.44-0.377l0.816-0.816l0.753-0.879l0.314-0.44l0.314-0.502l0.313-0.439l0.503-1.005l0.564-1.068l0.188-0.377
			l0.377-0.565l0.565-0.314l0.754,0.125l0.502,0.565l0.063,0.69l-0.188,0.565l-0.754,1.507l-0.314,0.439l-0.628,1.005l-0.251,0.502
			l-0.314,0.44l-0.376,0.502l-0.314,0.439l-0.377,0.377l-0.816,0.879l-0.377,0.376l-0.439,0.377l-0.439,0.314l-0.503,0.377
			l-0.439,0.251l-1.005,0.502l-0.565,0.251l-0.502,0.125l-2.261,0.251l-0.691-0.063l-0.565-0.063l-0.502-0.126l-0.503-0.063
			l-0.439,0.188l-0.439,0.314L398.156-335.425z M385.721-342.271l-0.063,0.753l0.063,0.628l0.063,0.816l0.125,1.005l0.251,1.005
			l0.44,0.942l0.439,0.628l0.502,0.44l0.691,0.314l0.941,0.251h0.816l0.629-0.063l0.628-0.126l0.565-0.251l0.502-0.251l0.565-0.314
			l0.502-0.314l0.44-0.376l0.502-0.377l0.251-0.44v-0.376l-0.251-0.44l-0.314-0.502l-0.125-0.565l0.125-0.754l0.252-0.753
			l0.439-0.377l0.502-0.314l0.565-0.063l0.565,0.125l0.439,0.126l0.377-0.063l0.251-0.377l0.188-0.502l0.754-2.261l0.377-1.696
			l0.126-0.816l0.188-1.068l0.126-2.135l-0.063-1.005l-0.251-1.068l-0.377-0.942l-0.44-0.628l-0.502-0.377l-0.754-0.314
			l-0.941-0.188l-0.817-0.063h-0.628l-0.502,0.126l-0.565,0.188l-0.628,0.377l-0.503,0.314l-0.564,0.377l-0.629,0.502l-0.439,0.377
			l-0.439,0.439l-0.313,0.44l-0.377,0.439l-0.314,0.502l-0.628,0.879l-0.314,0.502l-1.256,2.512l-0.188,0.565l-0.125,0.502
			l-0.377,1.131l-0.126,0.502l-0.188,0.565l-0.063,0.565v0.565L385.721-342.271z"/>
		<path fill="#1C1C1C" d="M441.68-346.165v0.754l-0.188,0.565l-0.188,0.44l-0.251,0.502l-0.377,0.565l-0.188,0.314l-0.377,0.502
			l-0.314,0.565l-0.251,0.502l-0.628,0.879l-0.439,0.439l-0.377,0.439l-1.005,1.005l-0.503,0.377l-0.564,0.377l-0.565,0.439
			l-0.439,0.251l-0.503,0.314l-0.565,0.188l-0.69,0.251l-0.816,0.188l-0.628,0.188l-0.565,0.063h-0.628l-0.565-0.063l-0.565-0.125
			l-0.565-0.188h-0.502l-0.503,0.125l-0.439,0.314l-0.377,0.44l-0.439,0.439l-0.439,0.377l-0.439,0.314l-0.503,0.377l-0.565,0.376
			l-0.313,0.188l-0.565,0.314l-0.503,0.251l-0.564,0.251l-0.628,0.188l-0.377,0.126l-0.628,0.188l-1.131,0.251h-2.198l-0.69-0.063
			l-0.565-0.063l-0.565-0.125l-0.503-0.188l-0.564-0.251l-0.503-0.251l-0.565-0.251l-0.439-0.314l-0.439-0.377l-0.377-0.439
			l-0.377-0.188l-0.313,0.063l-0.188,0.376l-0.188,0.502l-0.252,1.131l-0.063,0.502l-0.125,0.565l-0.188,0.628l-0.377,1.508
			l-0.063,0.565l-0.125,0.565l-0.063,0.565l-0.188,0.565l-0.503,2.261l-0.063,0.565l-0.126,0.816l-0.126,0.754l-0.188,0.628
			l-0.126,0.816l-0.126,0.754l-0.125,0.628l-0.063,0.565l-0.188,0.502l-0.063,0.565l-0.126,0.628l-0.125,0.816l-0.126,0.754
			l-0.125,0.565l-0.188,0.502l-0.44,0.314l-0.439,0.188l-0.565,0.063l-0.69,0.063h-0.69l-0.377-0.063l-0.691-0.125l-0.565-0.251
			l-0.313-0.439l-0.063-0.502l0.063-0.565l0.126-0.565l0.063-0.502l0.502-2.261l0.063-0.565l0.125-0.565l0.188-0.753l0.126-0.816
			l0.125-0.628l0.126-0.816l0.126-0.753l0.628-2.826l0.063-0.565l0.063-0.502l0.126-0.565l0.188-0.628l0.377-1.507l0.126-0.628
			l0.125-0.754l0.188-0.816l0.188-0.565l0.126-0.565l0.125-0.502l0.377-1.696l0.188-0.502l0.188-0.565l0.251-1.067l0.188-0.565
			l0.126-0.816l0.188-0.754l0.125-0.565l0.377-1.13l0.377-1.507l0.188-0.628l0.251-1.13l0.188-0.816l0.188-0.753l0.126-0.565
			l0.188-0.565l0.188-0.502l0.188-0.565l0.125-0.502l0.188-0.565l0.126-0.565l0.188-0.502l0.188-0.565l0.125-0.565l0.063-0.502
			l0.251-1.005l0.188-0.628l0.188-0.565l0.188-0.502l0.125-0.565l0.503-1.507l0.439-0.377l0.754-0.251l1.005-0.063l1.005,0.063
			l0.941,0.377l0.565,0.691v0.942l-0.188,0.816l-0.125,0.377l0.125,0.063l0.314-0.251l0.565-0.502l0.628-0.439l0.502-0.439
			l0.628-0.377l0.691-0.44l0.565-0.251l0.753-0.314l0.88-0.314l0.816-0.251l0.628-0.063l0.754-0.063h0.816l0.628,0.063l0.565,0.125
			l0.502,0.188l0.503,0.125l0.502,0.188l0.628,0.251l0.503,0.251l0.439,0.314l0.377,0.439l0.754,0.754l0.377,0.565l0.251,0.503
			l0.188,0.502l0.188,0.565l0.125,0.565l0.126,0.502l0.251,1.13v1.696l0.063,0.565l-0.063,0.565v0.565l-0.063,0.565l-0.063,0.628
			l-0.063,0.565l-0.125,0.502l-0.126,0.565l-0.314,1.067l-0.188,0.565l-0.126,0.565l-0.126,0.502l-0.188,0.565l-0.251,0.565
			l-0.69,1.507l-0.691,1.382l0.126,0.251l0.439,0.125l0.565-0.063l0.628-0.063h0.439l0.565-0.125l0.628-0.251l0.503-0.251
			l1.067-0.565l0.879-0.753l0.377-0.439l0.439-0.377l0.314-0.44l0.377-0.502l0.313-0.502l0.565-0.942l0.377-0.565l0.251-0.502
			l0.252-0.565l0.502-1.005l0.565-0.314l0.816,0.125L441.68-346.165z M426.606-343.589l0.188-0.502l0.377-1.13l0.125-0.503
			l0.126-0.565l0.188-0.565l0.125-0.502l0.126-0.565l0.251-2.261l-0.063-0.628v-0.565l-0.063-0.565l-0.126-0.502l-0.126-0.565
			l-0.313-0.565l-0.503-0.565l-0.565-0.502l-0.564-0.251l-0.565-0.125l-0.503-0.063h-0.628l-0.565,0.063l-0.439,0.125l-0.628,0.125
			l-1.256,0.503l-0.377,0.125l-1.131,0.565l-0.564,0.314l-0.44,0.376l-0.502,0.314l-0.439,0.377l-0.88,0.879l-0.377,0.502
			l-0.313,0.691l-0.314,0.942l-0.251,0.816l-0.439,1.319l-0.188,0.754l-0.126,0.628l-0.188,0.816l-0.251,0.942l-0.188,0.816
			l-0.188,0.565l-0.125,0.816l-0.252,1.005l-0.313,1.005l-0.188,0.817l-0.063,0.565l0.125,0.502l0.314,0.377l0.439,0.439
			l0.439,0.377l0.439,0.314l0.565,0.251l0.816,0.251l0.754,0.188l1.131,0.125l0.628-0.063l0.564-0.063l0.565-0.125l0.503-0.125
			l0.565-0.126l0.502-0.251l0.942-0.628l0.502-0.314l0.439-0.377l0.252-0.44l-0.126-0.628l-0.313-0.628l-0.188-0.565l-0.063-0.502
			l0.126-0.565l0.251-0.44l0.439-0.439l0.754-0.251l0.879-0.188l0.629-0.251l0.376-0.565L426.606-343.589z"/>
		<path fill="#1C1C1C" d="M459.831-358.537l0.628-0.063l0.628,0.063l0.565,0.063l0.628,0.125l0.502,0.188l0.503,0.314l0.251,0.502
			l-0.188,0.753l-0.439,1.319l-0.503,1.005l-0.188,0.565l-0.125,0.502l-0.188,0.565l-0.251,0.502L461.4-351l-0.188,0.565
			l-0.188,0.502l-0.188,0.628l-0.188,0.565l-0.126,0.44l-0.188,0.565l-0.126,0.503l-0.125,0.565l-0.188,0.565l-0.377,1.696
			l-0.188,0.753l-0.188,0.816l-0.188,0.628l-0.125,0.753l-0.126,0.816l-0.063,0.628v0.565l-0.063,0.565v0.565l0.126,1.131
			l0.188,0.565l0.313,0.44l0.44,0.251l0.564,0.063l0.503-0.063l0.565-0.251l0.879-0.628l0.439-0.439l0.44-0.377l0.439-0.314
			l0.753-0.879l0.629-0.879l0.376-0.502l0.377-0.44l0.252-0.439l0.251-0.565l0.313-0.502l0.314-0.565l0.251-0.314l0.377-0.628
			l0.314-0.628l0.313-0.691l0.565-1.13l0.377-0.502l0.502-0.314l0.754,0.188l0.503,0.628l0.063,0.628l-0.188,0.565l-0.251,0.502
			l-0.314,0.439l-0.313,0.502l-0.503,1.005L469-341.894l-0.251,0.502l-0.628,1.005l-0.314,0.439l-0.628,1.005l-0.313,0.439
			l-0.754,0.879l-0.314,0.44l-0.377,0.502l-0.753,0.879l-0.816,0.754l-0.377,0.376l-0.88,0.754l-1.005,0.628l-1.507,0.754
			l-1.131,0.251l-0.565,0.063l-0.753-0.063l-0.754-0.188l-0.628-0.251l-0.565-0.502l-0.503-0.565l-0.376-0.565l-0.314-0.754
			l-0.251-1.005l-0.126-1.005l-0.063-0.816l0.063-0.628l0.126-0.628l-0.063-0.251l-0.188,0.314l-0.314,0.502l-0.628,0.879
			l-0.377,0.502l-1.131,1.319l-1.193,1.193l-0.376,0.439l-0.44,0.314l-0.502,0.314l-1.005,0.565l-1.005,0.502l-0.565,0.188
			l-2.261,0.502l-0.565,0.063l-0.565-0.063l-0.628-0.063l-0.565-0.063l-0.439-0.125l-0.565-0.188l-0.502-0.251l-0.88-0.628
			l-0.439-0.44l-0.628-0.879l-0.251-0.565l-0.188-0.502l-0.063-0.565l-0.063-0.628v-1.696l0.063-0.565l0.125-0.565l0.063-0.565
			l0.126-0.565l0.063-0.565l0.126-0.753l0.188-0.816l0.251-1.131l0.188-0.565l0.188-0.754l0.439-1.319l0.188-0.502l0.126-0.565
			l0.188-0.565l0.063-0.502l0.879-2.638l0.188-0.628l0.691-2.072l0.188-0.502l0.188-0.565l0.313-0.753l0.188-0.754l0.188-0.565
			l0.251-0.503l0.44-0.314l0.564-0.251l0.565-0.125l0.628-0.126l0.565,0.063l0.565,0.125l0.565,0.188l0.502,0.251l0.252,0.376v0.502
			l-0.126,0.565l-0.188,0.565l-0.126,0.502l-0.377,1.13l-0.251,0.628l-0.063,0.377l-0.251,0.753l-0.188,0.314l-0.188,0.69
			L446.014-351l-0.188,0.816l-0.251,0.816l-0.126,0.377l-0.251,0.691l-0.188,0.565l-0.126,0.565l-0.188,0.502l-0.251,1.13
			l-0.063,0.565l-0.126,0.565l-0.188,0.565l-0.251,1.13l-0.126,0.503l-0.188,0.565l-0.125,0.565l-0.188,0.816l-0.126,1.005v1.13
			l0.126,1.005l0.502,0.879l0.816,0.502l0.754,0.125l1.131-0.251l0.502-0.251l0.439-0.188l0.503-0.251l0.565-0.314l0.502-0.314
			l0.88-0.754l0.376-0.377l1.131-1.319l0.314-0.439l0.377-0.565l0.376-0.628l0.44-0.691l0.502-1.005l0.314-0.565l0.251-0.502
			l0.251-0.565l0.188-0.502l0.188-0.565l0.188-0.502l0.188-0.565l0.188-0.502l0.251-0.565l0.188-0.502l0.251-1.13l0.188-0.565
			l0.188-0.502l0.188-0.565l0.188-0.502l0.251-0.565l0.126-0.565l0.126-0.502l0.376-1.13l0.188-0.502l0.377-1.13l0.126-0.502
			l0.188-0.565l0.251-0.502l0.314-0.502l0.439-0.314L459.831-358.537z"/>
		<path fill="#1C1C1C" d="M488.282-362.682l-0.314,0.565l-0.502,1.005l-0.314,0.691l-0.439,0.691l-0.314,0.44l-0.313,0.502
			l-0.314,0.44l-0.313,0.565l-0.252,0.377l-0.313,0.502l-0.439,0.565l-0.565,0.628l-0.565,0.565l-0.251,0.314l-0.439,0.502
			l-0.817,0.816l-0.376,0.439l-0.691,0.754l-0.439,0.377l-0.503,0.502l-0.69,0.502l-0.942,0.816l-0.502,0.314l-1.382,0.879
			l-0.439,0.188l-0.503,0.314l-0.69,0.565l-0.439,0.565l-0.252,0.502l-0.125,0.691l-0.188,1.13v0.377l-0.126,0.628l-0.125,0.565
			l-0.063,0.628v1.319l-0.063,0.816v1.256l0.126,0.69l0.063,0.377l0.126,0.628l0.251,0.565l0.251,0.502l0.377,0.44l0.502,0.314
			l0.503,0.188l0.628,0.126h1.067l0.503-0.063l0.565-0.188l0.753-0.314l0.691-0.377l0.502-0.376l0.628-0.502l0.565-0.565
			l0.754-0.691l0.503-0.439l0.376-0.502l0.252-0.314l0.377-0.502l0.251-0.44l0.377-0.565l0.251-0.314l0.377-0.565l0.502-0.942
			l0.314-0.503l0.377-0.565l0.313-0.565l0.314-0.628l0.565-0.816l0.628-0.502l0.816,0.125l0.502,0.628v0.628l-0.188,0.565
			l-0.251,0.502l-0.313,0.502l-0.252,0.565l-0.251,0.502l-0.188,0.502l-0.313,0.502l-0.252,0.439l-0.313,0.502l-0.377,0.565
			l-0.126,0.314l-0.313,0.565l-0.377,0.502L485.079-338l-0.439,0.565l-0.252,0.251l-0.439,0.565l-0.377,0.44l-0.502,0.628
			l-0.565,0.502l-0.439,0.439l-0.377,0.314l-0.439,0.377l-0.565,0.314l-0.503,0.251l-0.564,0.251l-0.503,0.251l-0.502,0.188
			l-0.565,0.251l-0.754,0.251l-1.256,0.251l-0.754,0.063l-0.69-0.063h-0.377l-0.628-0.063l-0.565-0.125l-0.503-0.188l-0.565-0.188
			l-0.502-0.251l-0.503-0.314l-0.439-0.377l-0.377-0.377l-0.377-0.439l-0.251-0.502l-0.251-0.565l-0.188-0.502l-0.126-0.565
			l-0.188-0.565l-0.063-0.565l-0.125-0.628v-0.377l-0.126-0.69l-0.063-0.565v-0.565l0.063-0.565l0.063-0.628v-0.376l0.063-0.817
			l0.188-1.381l0.063-0.754v-0.565l0.125-0.565l0.126-0.628l0.439-2.073l0.188-0.753l0.188-1.131l0.126-0.314l0.188-0.753
			l0.125-0.377l0.252-0.942l0.188-0.817l0.126-0.565l0.188-0.754l0.251-0.879l0.063-0.44l0.251-0.879l0.251-0.817l0.188-0.439
			l0.251-0.816l0.252-0.754l0.251-0.565l0.628-1.633l0.126-0.377l0.376-0.879l0.44-1.005l0.313-0.753l0.251-0.565l0.188-0.377
			l0.314-0.565l0.439-1.067l0.314-0.628l0.313-0.565l0.377-0.565l0.503-0.816l0.816-1.13l0.377-0.502l0.816-0.816l0.251-0.314
			l0.439-0.44l0.439-0.314l1.005-0.691l0.691-0.439l0.69-0.314l0.565-0.188l0.565-0.125h1.13l0.628,0.125l0.377,0.063l0.628,0.188
			l0.503,0.251l0.879,0.754l0.314,0.502l0.439,0.628l0.314,0.753l0.251,0.565l0.251,0.753l0.126,0.817v1.13l-0.126,1.696
			l-0.251,1.13l-0.188,0.502l-0.126,0.628l-0.502,1.507l-0.251,0.502L488.282-362.682z M477.856-360.924l-0.88,2.638l-0.125,0.565
			l-0.188,0.565l-0.251,0.816l-0.44,1.319l-0.188,0.628l-0.063,0.377l-0.188,0.628l-0.188,0.565l-0.125,0.628l0.125,0.377
			l0.377-0.251l0.628-0.502l2.575-2.575l0.314-0.44l0.313-0.502l0.377-0.565l0.251-0.251l0.377-0.565l0.439-0.565l0.44-0.628
			l0.439-0.691l0.313-0.502l0.252-0.439l0.313-0.44l0.503-1.005l0.251-0.628l0.188-0.377l0.251-0.628l0.251-0.565l0.126-0.565
			l0.188-0.565l0.188-0.691l0.251-0.691l0.188-0.691l0.251-0.691l0.063-0.628l0.063-0.565v-1.193l-0.126-0.502l-0.188-0.502
			l-0.439-0.314l-0.502-0.126l-0.565,0.126l-0.565,0.439l-0.439,0.377l-0.314,0.377l-0.313,0.439l-0.314,0.502l-0.628,0.942
			l-0.314,0.565l-0.251,0.565l-0.251,0.502l-0.251,0.565l-0.252,0.502l-0.251,0.565l-0.188,0.502l-0.251,0.691l-0.377,0.942
			l-0.251,0.565L477.856-360.924z"/>
		<path fill="#1C1C1C" d="M518.053-344.343l-0.126,0.314l-0.313,0.628l-0.314,0.439l-0.251,0.502l-0.251,0.565l-0.252,0.502
			l-0.628,1.005l-0.313,0.439l-0.314,0.502l-0.251,0.502l-0.314,0.502L514.347-338l-0.376,0.502l-0.377,0.44l-0.691,0.879
			l-0.377,0.439l-0.377,0.377l-1.758,1.507l-0.503,0.314l-0.565,0.314l-0.69,0.314l-0.754,0.314l-0.565,0.188l-0.564,0.125h-0.629
			l-0.753-0.063l-0.754-0.188l-0.565-0.188l-0.439-0.314l-0.439-0.377l-0.439-0.628l-0.44-0.691l-0.188-0.565l-0.188-0.753
			l-0.063-0.816v-0.628l0.063-0.816l0.063-0.753l-0.188-0.125l-0.314,0.439l-0.628,1.005l-0.628,0.879l-0.377,0.439l-0.313,0.439
			l-0.377,0.44l-0.314,0.439l-0.439,0.377l-0.377,0.377l-0.439,0.376l-0.439,0.314l-0.503,0.314l-0.69,0.439l-0.942,0.439
			l-1.005,0.314l-0.816,0.188l-1.131,0.126l-0.628-0.063l-0.753-0.125l-0.754-0.188l-0.565-0.188l-0.502-0.188l-0.44-0.314
			l-0.879-0.754l-0.314-0.439l-0.313-0.502l-0.377-0.691l-0.377-0.942l-0.188-0.816l-0.063-0.628l-0.126-0.816l-0.063-1.005v-0.816
			l0.063-0.628l0.063-0.816l0.125-0.754l0.188-0.628l0.188-0.753l0.188-0.817l0.188-0.565l0.251-0.502l0.188-0.565l1.508-3.015
			l0.313-0.502l0.314-0.439l0.313-0.502l0.628-0.879l0.377-0.439l0.816-0.942l0.252-0.251l0.439-0.502l0.879-0.754l0.565-0.565
			l0.69-0.502l0.88-0.691l0.502-0.314l0.439-0.314l0.565-0.251l0.754-0.314l0.69-0.377l0.629-0.314l0.753-0.251l0.754-0.188
			l0.628-0.188l1.57-0.125l0.565-0.063h0.754l1.256,0.063l1.444,0.125l1.382,0.251l0.565,0.126l0.69,0.188l2.513,1.13l0.439,0.376
			l0.439,0.314l0.439,0.376l0.377,0.44l0.126,0.691l-0.252,0.879l-0.69,0.754l-0.69,0.439l-0.503,0.063l-0.502-0.188l-0.503-0.377
			l-0.565-0.314l-0.502-0.314l-0.439-0.188l-0.503-0.251l-0.565-0.251l-0.502-0.125l-1.068-0.251l-0.628-0.188l-0.628-0.126h-1.256
			l-0.439,0.063l-0.628,0.063l-0.816,0.188l-1.57,0.565l-0.628,0.314l-0.628,0.377l-0.44,0.314l-0.502,0.314l-0.439,0.314
			l-0.44,0.377l-0.502,0.439l-0.251,0.251l-0.439,0.502l-0.377,0.439l-0.314,0.44l-0.754,0.879l-0.313,0.44l-0.314,0.502
			l-0.754,1.507l-0.313,0.502l-0.377,1.13l-0.251,0.565l-0.251,0.502l-0.377,1.695l-0.188,0.628l-0.188,1.696v1.758l0.063,0.628
			l0.188,0.565l0.251,0.502l0.314,0.502l0.377,0.377l0.565,0.251l0.753,0.125l0.816-0.063l0.565-0.188l1.005-0.502l0.88-0.753
			l0.376-0.377l0.44-0.377l0.376-0.439l0.314-0.44l0.377-0.439l0.313-0.44l0.691-0.942l0.313-0.439l0.942-1.507l0.377-0.691
			l0.439-0.816l0.251-0.377l0.754-1.633l0.251-0.565l0.126-0.439l0.251-0.565l0.188-0.502l0.188-0.565l0.251-0.69l0.377-1.256
			l0.252-0.691l0.188-0.628l0.376-0.565l0.629-0.314l0.564-0.125l0.565,0.063l0.565,0.125l1.005,0.502l0.502,0.314l0.252,0.377
			l0.063,0.565l-0.188,0.502l-0.126,0.565l-0.188,0.565l-0.252,1.13l-0.188,0.565l-0.125,0.503l-0.377,1.13l-0.126,0.628
			l-0.063,0.377l-0.188,0.753l-0.126,0.565l-0.251,1.067l-0.188,0.754l-0.125,0.628l-0.126,0.691l-0.188,0.942l-0.188,1.068
			l-0.063,0.942l0.063,0.817l0.314,0.502l0.628,0.314l0.941,0.063l0.754-0.251l0.565-0.314l0.879-0.628l0.44-0.44l0.753-0.816
			l0.754-0.879l0.628-0.879l0.314-0.503l0.377-0.502l0.125-0.377l1.005-1.507l0.251-0.502l0.314-0.502l1.256-2.512l0.565-0.314
			l0.754,0.125l0.502,0.628l0.063,0.628l-0.252,0.565L518.053-344.343z"/>
		<path fill="#1C1C1C" d="M520.063-360.044l-0.565-1.696l-0.063-0.565v-0.565l0.126-0.565l0.251-0.565l0.314-0.44l0.376-0.439
			l0.44-0.377l0.502-0.251l0.565-0.126h0.565l0.565,0.126l0.502,0.314l0.377,0.376l0.251,0.503l0.188,0.565v1.696l-0.125,0.628
			v0.502l0.125,0.502l0.314,0.44l0.439,0.439l0.439,0.377l0.439,0.502l0.691,0.816l0.439,0.377l0.816,0.816l0.439,0.502l0.251,0.314
			l0.44,0.502l0.439,0.377l0.377,0.439l0.628,1.005l0.188,0.565l0.188,0.753l0.188,0.816l-0.063,0.565l-0.188,0.565l-0.251,0.502
			l-0.377,0.44l-0.628,1.005l-0.377,0.439l-0.313,0.502l-0.314,0.44l-0.377,0.502l-0.313,0.502l-0.377,0.502l-0.314,0.502
			l-1.067,2.135l-0.188,0.565l-0.188,0.502l-0.126,0.565l-0.125,0.628l-0.126,0.565l-0.063,0.565v0.628l0.251,1.256l0.314,0.502
			l0.313,0.565l0.439,0.377l0.503,0.314l0.628,0.125h1.193l0.565-0.125l0.565-0.188l0.564-0.251l0.44-0.314l0.941-0.628l0.503-0.377
			l0.439-0.376l0.377-0.377l0.377-0.502l1.13-1.319l0.942-1.507l0.314-0.44l0.313-0.565l0.314-0.502l0.251-0.502l0.314-0.565
			l0.188-0.377l0.377-0.69l0.252-0.503l0.188-0.502l0.251-0.503l0.565-0.314l0.816,0.188l0.564,0.628v0.69l-0.188,0.565
			l-0.503,1.068l-0.251,0.502l-0.314,0.502l-0.502,1.005l-0.628,1.005l-0.314,0.565l-0.251,0.314l-0.314,0.565l-0.628,1.005
			l-0.754,1.005l-0.502,0.691l-0.439,0.628l-0.754,0.879l-0.439,0.377l-0.754,0.753l-0.503,0.377l-0.564,0.377l-1.005,0.502
			l-0.565,0.251l-0.503,0.251l-0.564,0.188l-0.503,0.125l-0.628,0.125h-1.444l-0.816-0.063l-1.257-0.251l-0.502-0.188l-0.628-0.314
			l-0.942-0.628l-0.439-0.377l-0.377-0.377l-0.377-0.502l-0.313-0.439l-0.252-0.565l-0.251-0.502l-0.126-0.565l-0.125-0.628
			l-0.126-0.565l-0.063-0.565v-0.565l0.251-2.261l0.188-0.565l0.188-0.502l0.251-0.565l0.314-0.691l0.377-0.691l0.313-0.565
			l0.439-0.691l0.44-0.628l0.313-0.565l0.377-0.69l0.503-0.691l0.376-0.502l0.503-0.879l0.69-1.005l0.314-0.691l0.188-0.942
			l-0.126-0.754l-0.628-1.005l-0.377-0.502l-1.005-1.13l-0.377-0.439l-0.502-0.377l-0.503,0.125l-0.251,0.565l-0.125,0.565
			l-0.188,0.565l-0.126,0.565l-0.126,0.502l-0.188,0.565l-0.564,1.507l-0.188,0.565l-0.188,0.502l-0.188,0.565l-0.314,0.754
			l-0.313,0.691l-0.252,0.565l-0.313,0.754l-0.314,0.691l-0.313,0.628l-0.314,0.691l-0.377,0.691l-0.313,0.502l-0.377,0.314h-0.565
			l-0.502-0.314l-0.377-0.439l0.063-0.503l0.188-0.565l0.251-0.565l0.188-0.502l0.188-0.565l0.503-1.131l0.188-0.376l0.252-0.628
			l0.251-0.502l0.188-0.565l0.251-0.565l0.188-0.565l0.188-0.503l0.503-1.13l0.125-0.565l0.188-0.565l0.126-0.565l0.251-0.565
			l0.126-0.565l0.125-0.502l0.126-0.565l0.188-0.565l0.125-0.628v-0.565l-0.125-0.502L520.063-360.044z"/>
		<path fill="#1C1C1C" d="M574.076-345.851l-0.125-0.816l-0.377-0.942l-0.314-0.754l-0.941-1.507l-0.377-0.439l-0.377-0.377
			l-0.314-0.439l-0.377-0.44l-0.313-0.439l-0.377-0.439l-0.377-0.377l-0.439-0.377l-0.377-0.377l-0.754-0.879l-0.313-0.377
			l-0.44-0.502l-0.313-0.251l-0.439-0.439l-1.131-1.319l-0.439-0.565l-1.319-1.884l-0.377-0.69l-0.251-0.565l-0.188-0.502
			l-0.188-0.565l-0.377-1.005l-0.125-0.565l-0.063-0.502v-0.565l-0.063-0.628v-0.816l0.063-0.754l0.063-0.628l0.063-0.565
			l0.251-1.13l0.252-0.565l0.188-0.565l0.251-0.502l0.313-0.565l0.314-0.439l0.377-0.502l0.377-0.44l0.816-0.816l0.439-0.376
			l0.502-0.314l1.005-0.503l0.565-0.251l1.508-0.565l0.69-0.188l1.131-0.251h1.256l1.005-0.063h0.628l0.816,0.063l0.691,0.063
			l1.256,0.251l0.565,0.188l0.502,0.251l0.565,0.251l1.319,0.816l0.502,0.377l0.439,0.377l0.314,0.376l0.377,0.44l0.377,0.502
			l0.439,0.628l0.377,0.691l0.188,0.565l0.125,0.565l0.063,0.628l0.125,0.754v1.947l-0.063,0.565l-0.126,0.565l-0.251,0.502
			l-0.439,0.314l-0.503,0.251l-0.564,0.063l-0.503,0.063l-0.565-0.125l-0.502-0.314l-0.439-0.628l-0.188-0.691l-0.063-0.628v-1.193
			l-0.063-0.565l-0.188-0.502l-0.188-0.565l-0.251-0.503l-0.314-0.502l-0.377-0.44l-0.439-0.377l-0.439-0.314l-0.502-0.314
			l-0.503-0.188l-0.565-0.188l-0.502-0.063l-1.759-0.188h-0.565l-0.628,0.063l-1.131,0.376l-1.005,0.628l-0.439,0.376l-0.439,0.44
			l-0.314,0.439l-0.313,0.565l-0.188,0.502l-0.251,0.565l-0.188,0.565l-0.126,0.628l-0.063,0.565v1.193l0.063,0.565l0.126,0.565
			l0.125,0.502l0.252,0.565l0.188,0.502l0.313,0.565l0.377,0.754l0.377,0.69l0.628,1.005l1.508,1.759l0.313,0.439l1.256,1.256
			l1.508,1.758l0.816,0.816l0.313,0.44l0.691,0.879l0.377,0.439l0.377,0.502l0.313,0.439l0.251,0.502l0.314,0.502l0.503,1.005
			l0.251,0.565l0.251,0.502l0.188,0.565l0.188,0.502l0.126,0.565l0.063,0.565l0.125,0.565l0.063,0.565l-0.063,0.628l-0.125,1.131
			l-0.251,1.13l-0.063,0.565l-0.063,0.502l-0.126,0.565l-0.188,0.565l-0.251,0.502l-0.251,0.565l-0.754,1.382l-0.377,0.565
			l-0.377,0.439l-0.439,0.439l-0.313,0.251l-0.503,0.439l-0.313,0.314l-1.005,0.754l-1.005,0.502l-0.503,0.314l-0.628,0.251
			l-0.503,0.188l-0.439,0.126l-0.565,0.188l-0.628,0.125l-0.564,0.063l-0.44,0.125l-1.884,0.188h-1.57l-1.695-0.188h-0.439
			l-0.629-0.125l-0.879-0.188l-1.319-0.44l-0.502-0.251l-0.439-0.314l-0.628-0.377l-1.005-0.754l-1.005-1.005l-0.377-0.439
			l-0.628-0.879l-0.314-0.502l-0.313-0.439l-0.377-1.13l-0.126-0.565l-0.188-0.753l-0.188-0.817l-0.125-0.565l-0.063-0.565v-1.193
			l0.063-0.502v-1.13l0.063-0.565l0.377-1.695l0.188-0.754l0.188-0.816l0.188-0.565l0.502-0.565l0.879-0.377h0.942l0.816,0.188
			l0.503,0.376l0.313,0.565v0.754l-0.063,0.628l-0.126,0.565l-0.188,0.565l-0.063,0.565l-0.126,0.565v1.759l0.188,1.696l0.126,0.565
			l0.565,1.696l0.313,0.502l0.377,0.565l0.188,0.314l0.439,0.502l0.377,0.377l0.439,0.377l0.503,0.314l0.439,0.314l0.503,0.314
			l0.564,0.251l0.503,0.188l0.628,0.125l0.565,0.063h0.754l1.758-0.125l0.754-0.063l0.565-0.188l1.005-0.376l0.502-0.251
			l0.503-0.314l0.502-0.565l0.565-0.565l0.377-0.502l0.377-0.628l0.377-0.691l0.251-0.628l0.251-0.753l0.252-0.942l0.125-0.817
			l0.063-0.628l-0.063-0.816l-0.063-0.753L574.076-345.851z"/>
		<path fill="#1C1C1C" d="M602.341-335.425l-0.88,0.753l-1.005,0.628l-0.502,0.251l-1.005,0.628l-0.503,0.251l-1.13,0.377
			l-0.629,0.188l-1.13,0.188l-0.377,0.125l-0.628,0.125l-0.503,0.063h-0.564l-0.691,0.063h-0.565l-1.13-0.125l-0.691-0.188
			l-0.565-0.188l-0.439-0.188l-0.565-0.188l-0.502-0.251l-1.005-0.628l-0.439-0.377l-0.754-0.879l-0.314-0.502l-0.251-0.502
			l-0.313-0.502l-0.377-1.13l-0.252-1.13l-0.125-1.131l-0.063-0.628l0.063-0.565v-1.759l0.125-0.565l0.126-0.503l0.126-0.565
			l0.188-1.13l0.125-0.628l0.126-0.565l0.188-0.502l0.188-0.565l0.251-0.565l0.251-0.503l0.188-0.565l0.314-0.754l0.377-0.753
			l0.313-0.502l0.377-0.502l0.314-0.439l0.377-0.44l0.628-1.005l0.377-0.439l0.816-0.816l0.879-0.754l0.439-0.314l0.503-0.377
			l0.564-0.377l0.691-0.439l0.69-0.377l0.503-0.251l0.628-0.251l0.377-0.125l0.69-0.251l0.377-0.126l0.628-0.188l0.565-0.125
			l0.628-0.063l0.565-0.063h1.444l1.005,0.125l0.816,0.125l0.565,0.126l0.565,0.188l0.502,0.251l1.131,0.691l0.69,0.377l0.44,0.376
			l0.313,0.377l0.377,0.44l0.377,0.502l0.754,1.381l0.188,0.565l0.063,0.565l0.063,0.502l0.252,1.13v2.198l-0.126,0.753
			l-0.063,0.691l-0.063,0.628l-0.377,1.884l-0.251,0.879l-0.188,0.628l-0.251,0.628l-0.251,0.691l-0.188,0.565l-0.377,0.691
			l-0.565,1.13l-0.313,0.691l0.063,0.439l0.502,0.063h0.377l0.691-0.063l0.439-0.063l0.565-0.126l0.628-0.251l0.439-0.251
			l1.005-0.628l0.439-0.377l0.816-0.816l0.754-0.879l0.314-0.44l0.313-0.502l0.314-0.439l0.502-1.005l0.565-1.068l0.188-0.377
			l0.377-0.565l0.565-0.314l0.753,0.125l0.503,0.565l0.063,0.69l-0.188,0.565l-0.754,1.507l-0.313,0.439l-0.628,1.005l-0.251,0.502
			l-0.314,0.44l-0.377,0.502l-0.313,0.439l-0.377,0.377l-0.816,0.879l-0.377,0.376l-0.439,0.377l-0.44,0.314l-0.502,0.377
			l-0.439,0.251l-1.005,0.502l-0.565,0.251l-0.503,0.125l-2.261,0.251l-0.69-0.063l-0.565-0.063l-0.503-0.126l-0.502-0.063
			l-0.439,0.188l-0.44,0.314L602.341-335.425z M589.905-342.271l-0.063,0.753l0.063,0.628l0.063,0.816l0.126,1.005l0.251,1.005
			l0.439,0.942l0.439,0.628l0.503,0.44l0.69,0.314l0.942,0.251h0.816l0.628-0.063l0.628-0.126l0.565-0.251l0.503-0.251l0.564-0.314
			l0.503-0.314l0.439-0.376l0.503-0.377l0.251-0.44v-0.376l-0.251-0.44l-0.314-0.502l-0.126-0.565l0.126-0.754l0.251-0.753
			l0.439-0.377l0.503-0.314l0.565-0.063l0.565,0.125l0.439,0.126l0.377-0.063l0.251-0.377l0.188-0.502l0.754-2.261l0.376-1.696
			l0.126-0.816l0.188-1.068l0.126-2.135l-0.063-1.005l-0.251-1.068l-0.377-0.942l-0.439-0.628l-0.503-0.377l-0.753-0.314
			l-0.942-0.188l-0.816-0.063h-0.628l-0.503,0.126l-0.564,0.188l-0.629,0.377l-0.502,0.314l-0.565,0.377l-0.628,0.502l-0.439,0.377
			l-0.439,0.439l-0.314,0.44l-0.377,0.439l-0.313,0.502l-0.629,0.879l-0.313,0.502l-1.256,2.512l-0.188,0.565l-0.126,0.502
			l-0.377,1.131l-0.125,0.502l-0.188,0.565l-0.063,0.565v0.565L589.905-342.271z"/>
		<path fill="#1C1C1C" d="M621.747-332.033l-0.503-0.063l-0.565-0.125l-0.565-0.188l-0.753-0.314l-0.691-0.377l-0.565-0.314
			l-0.628-0.502l-0.564-0.565l-0.44-0.376l-0.377-0.44l-0.376-0.377l-0.252-0.502l-0.313-0.565l-0.314-0.754l-0.313-0.69
			l-0.188-0.565l-0.188-0.816l-0.126-0.754l-0.063-0.628l-0.063-0.565v-1.13l0.063-0.502l0.063-0.565l0.063-0.628l0.126-0.753
			l0.188-0.816l0.188-0.565l0.126-0.565l0.439-1.319l0.313-0.691l0.314-0.565l1.005-2.01l0.313-0.502l0.629-0.879l0.879-0.942
			l0.188-0.251l0.439-0.502l0.439-0.377l0.377-0.376l0.439-0.377l0.44-0.314l0.502-0.377l0.439-0.314l0.503-0.251l0.502-0.314
			l0.439-0.251l0.503-0.251l0.69-0.314l1.319-0.377l0.69-0.188l0.565-0.125l0.565-0.063l0.628-0.063h1.067l0.565,0.063l0.816,0.125
			l0.942,0.251l0.816,0.251l0.565,0.188l0.439,0.251l0.439,0.314l0.439,0.377l0.377,0.439l0.377,0.377l0.251,0.565l0.252,0.691
			l0.188,0.753l0.063,0.628l-0.063,0.754l-0.188,0.816l-0.188,0.565l-0.252,0.502l-0.313,0.502l-0.439,0.628l-0.439,0.565
			l-0.377,0.439l-0.44,0.377l-0.502,0.251l-0.816,0.126h-1.005l-1.005-0.251l-0.628-0.439v-0.628l0.313-0.565l0.44-0.691
			l0.376-0.565l0.252-0.565l0.125-0.502l0.126-0.565v-0.502l-0.126-0.565l-0.439-0.628l-0.628-0.439l-0.565-0.188l-0.565-0.063
			l-0.564,0.063l-0.754,0.125l-0.754,0.251l-0.565,0.251l-0.439,0.314l-0.502,0.377l-0.44,0.314l-0.502,0.377l-0.503,0.565
			l-0.439,0.44l-0.439,0.565l-0.565,0.691l-0.377,0.691l-0.251,0.565l-0.314,0.502l-0.251,0.439l-0.251,0.502l-0.188,0.565
			l-0.188,0.502l-0.188,0.565l-0.188,0.817l-0.188,0.753l-0.125,0.628l-0.126,0.754l-0.063,0.816l-0.063,0.628v0.816l0.063,1.005
			l0.188,0.879l0.188,0.628l0.628,1.256l0.377,0.502l0.376,0.377l0.44,0.376l0.69,0.314l0.754,0.314l0.565,0.125l0.816,0.125h1.382
			l1.444-0.125l0.565-0.125l0.69-0.188l0.565-0.251l0.69-0.377l0.691-0.314l1.507-0.942l0.628-0.502l0.565-0.502l0.88-0.754
			l0.753-0.879l0.377-0.377l0.754-0.879l0.628-0.879l0.377-0.565l0.188-0.377l0.439-0.691l0.377-0.628l0.251-0.565l0.439-0.816
			l0.628-0.439l0.817,0.125l0.502,0.565v0.691l-0.188,0.502l-0.251,0.502l-0.251,0.565l-0.314,0.628l-0.439,0.69l-0.503,0.691
			l-0.502,0.754l-0.942,1.381l-0.377,0.503l-0.313,0.439l-0.439,0.439l-1.131,1.319l-0.314,0.44l-0.377,0.377l-0.439,0.376
			l-0.879,0.628l-0.377,0.314l-0.439,0.314l-0.565,0.439l-0.502,0.314l-0.503,0.251l-0.502,0.314l-0.754,0.314l-0.754,0.251
			l-0.69,0.188l-0.754,0.126l-0.754,0.188l-1.131,0.188l-1.695,0.188l-1.131-0.125L621.747-332.033z"/>
		<path fill="#1C1C1C" d="M653.274-346.039v0.691l-0.188,0.565l-0.502,1.005l-0.565,0.942l-0.314,0.565l-0.251,0.502l-0.377,0.565
			l-0.188,0.376l-0.313,0.565l-0.314,0.502l-0.313,0.439l-0.377,0.502l-0.314,0.44l-0.628,1.005l-1.131,1.319l-0.753,0.816
			l-0.44,0.439l-0.377,0.44l-0.439,0.376l-1.382,1.068l-0.439,0.314l-0.565,0.251l-0.565,0.188l-0.502,0.125l-1.131,0.251h-1.067
			l-0.69-0.063l-0.503-0.188l-0.565-0.188l-0.502-0.314l-0.439-0.377l-0.314-0.439l-0.314-0.502l-0.251-0.565l-0.125-0.502
			l-0.126-0.565l-0.063-0.565v-0.565l0.125-1.13l0.126-0.565l0.188-0.565l0.251-1.131l0.188-0.502l0.126-0.565l0.188-0.565
			l0.188-0.502l0.564-1.696l0.063-0.502l0.125-0.565l0.188-0.565l0.126-0.565l0.125-0.502l0.377-1.13l0.188-0.753l0.188-0.816
			l0.377-1.131l0.126-0.565l0.125-0.44l0.126-0.565l0.251-0.628l0.188-0.502l0.377-1.696l0.188-0.565l0.188-0.754l0.251-0.816
			l0.188-0.565l0.251-0.502l0.377-0.314l0.565-0.251l0.503-0.063l0.628,0.063l1.13,0.125l1.005,0.377l0.314,0.439v0.565
			l-0.126,0.565l-0.188,0.753l-0.188,0.816l-0.377,1.13l-0.125,0.503l-0.126,0.565l-0.188,0.628l-0.188,0.754l-0.628,1.884
			l-0.125,0.565l-0.252,0.816l-0.439,1.319l-0.125,0.565l-0.126,0.502l-0.126,0.565l-0.439,1.067l-0.126,0.565l-0.439,1.57
			l-0.377,1.13l-0.125,0.565l-0.188,0.816l-0.188,1.005l-0.126,1.067l0.126,0.942l0.502,0.69l0.691,0.188l0.565-0.063l0.564-0.251
			l0.44-0.314l0.502-0.377l2.073-2.072l0.377-0.44l0.313-0.439l0.377-0.502l0.628-1.005l0.377-0.439l0.251-0.377l0.314-0.502
			l0.377-0.565l0.251-0.565l0.502-1.068l0.754-1.507l0.314-0.502l0.565-0.314l0.816,0.125L653.274-346.039z M643.163-365.32
			l0.313-0.503l0.503-0.439l0.502-0.314l0.628-0.188l0.565-0.125h0.628l0.565,0.125l0.503,0.314l0.439,0.377l0.439,0.439
			l0.314,0.502l0.188,0.565l0.063,0.565v0.628l-0.188,0.565l-0.314,0.503l-0.376,0.502l-0.44,0.377l-0.502,0.377l-0.565,0.251
			l-0.628,0.126l-0.565-0.063l-0.628-0.125l-1.005-0.628l-0.377-0.44l-0.314-0.502l-0.125-0.565l-0.063-0.565l0.063-0.565
			l0.125-0.628L643.163-365.32z"/>
		<path fill="#1C1C1C" d="M681.977-344.343l-0.126,0.314l-0.313,0.628l-0.314,0.439l-0.251,0.502l-0.251,0.565l-0.251,0.502
			l-0.629,1.005l-0.313,0.439l-0.314,0.502l-0.251,0.502l-0.313,0.502L678.271-338l-0.377,0.502l-0.377,0.44l-0.691,0.879
			l-0.376,0.439l-0.377,0.377l-1.759,1.507l-0.503,0.314l-0.564,0.314l-0.691,0.314l-0.754,0.314l-0.564,0.188l-0.565,0.125h-0.628
			l-0.754-0.063l-0.754-0.188l-0.565-0.188l-0.439-0.314l-0.439-0.377l-0.439-0.628l-0.439-0.691l-0.188-0.565l-0.188-0.753
			l-0.063-0.816v-0.628l0.063-0.816l0.063-0.753l-0.188-0.125l-0.313,0.439l-0.629,1.005l-0.628,0.879l-0.377,0.439l-0.313,0.439
			l-0.377,0.44l-0.314,0.439l-0.439,0.377l-0.377,0.377l-0.439,0.376l-0.439,0.314l-0.502,0.314l-0.691,0.439l-0.942,0.439
			l-1.005,0.314l-0.816,0.188l-1.13,0.126l-0.628-0.063l-0.754-0.125l-0.754-0.188l-0.565-0.188l-0.502-0.188l-0.439-0.314
			l-0.88-0.754l-0.313-0.439l-0.314-0.502l-0.377-0.691l-0.377-0.942l-0.188-0.816l-0.063-0.628l-0.126-0.816l-0.063-1.005v-0.816
			l0.063-0.628l0.063-0.816l0.125-0.754l0.188-0.628l0.188-0.753l0.188-0.817l0.188-0.565l0.251-0.502l0.188-0.565l1.508-3.015
			l0.313-0.502l0.314-0.439l0.313-0.502l0.629-0.879l0.377-0.439l0.816-0.942l0.251-0.251l0.439-0.502l0.879-0.754l0.565-0.565
			l0.691-0.502l0.879-0.691l0.502-0.314l0.44-0.314l0.565-0.251l0.753-0.314l0.691-0.377l0.628-0.314l0.754-0.251l0.753-0.188
			l0.628-0.188l1.57-0.125l0.565-0.063h0.754l1.256,0.063l1.444,0.125l1.382,0.251l0.565,0.126l0.69,0.188l2.513,1.13l0.439,0.376
			l0.439,0.314l0.439,0.376l0.377,0.44l0.126,0.691l-0.251,0.879l-0.691,0.754l-0.69,0.439l-0.503,0.063l-0.502-0.188l-0.503-0.377
			l-0.565-0.314l-0.502-0.314l-0.439-0.188l-0.503-0.251l-0.565-0.251l-0.502-0.125l-1.067-0.251l-0.628-0.188l-0.629-0.126h-1.256
			l-0.439,0.063l-0.628,0.063l-0.816,0.188l-1.57,0.565l-0.628,0.314l-0.628,0.377l-0.439,0.314l-0.503,0.314l-0.439,0.314
			L661-352.508l-0.503,0.439l-0.251,0.251l-0.439,0.502l-0.377,0.439l-0.314,0.44l-0.753,0.879l-0.314,0.44l-0.314,0.502
			l-0.753,1.507l-0.314,0.502l-0.377,1.13l-0.251,0.565l-0.251,0.502l-0.377,1.695l-0.188,0.628l-0.188,1.696v1.758l0.063,0.628
			l0.188,0.565l0.251,0.502l0.314,0.502l0.377,0.377l0.565,0.251l0.753,0.125l0.817-0.063l0.564-0.188l1.005-0.502l0.88-0.753
			l0.377-0.377l0.439-0.377l0.377-0.439l0.313-0.44l0.377-0.439l0.314-0.44l0.69-0.942l0.314-0.439l0.941-1.507l0.377-0.691
			l0.439-0.816l0.252-0.377l0.753-1.633l0.252-0.565l0.125-0.439l0.252-0.565l0.188-0.502l0.188-0.565l0.252-0.69l0.377-1.256
			l0.251-0.691l0.188-0.628l0.377-0.565l0.628-0.314l0.565-0.125l0.564,0.063l0.565,0.125l1.005,0.502l0.503,0.314l0.251,0.377
			l0.063,0.565l-0.188,0.502l-0.125,0.565l-0.188,0.565l-0.251,1.13l-0.188,0.565l-0.126,0.503l-0.377,1.13l-0.126,0.628
			l-0.063,0.377l-0.188,0.753l-0.125,0.565l-0.252,1.067l-0.188,0.754l-0.125,0.628l-0.126,0.691l-0.188,0.942l-0.188,1.068
			l-0.063,0.942l0.063,0.817l0.314,0.502l0.628,0.314l0.942,0.063l0.753-0.251l0.565-0.314l0.88-0.628l0.439-0.44l0.753-0.816
			l0.754-0.879l0.628-0.879l0.314-0.503l0.377-0.502l0.125-0.377l1.005-1.507l0.252-0.502l0.313-0.502l1.257-2.512l0.564-0.314
			l0.754,0.125l0.503,0.628l0.063,0.628l-0.251,0.565L681.977-344.343z"/>
		<path fill="#1C1C1C" d="M699.939-362.682l-0.313,0.565l-0.503,1.005l-0.313,0.691l-0.439,0.691l-0.314,0.44l-0.314,0.502
			l-0.313,0.44l-0.314,0.565l-0.251,0.377l-0.313,0.502l-0.44,0.565l-0.565,0.628l-0.564,0.565l-0.252,0.314l-0.439,0.502
			l-0.816,0.816l-0.377,0.439l-0.69,0.754l-0.439,0.377l-0.503,0.502l-0.69,0.502l-0.942,0.816l-0.502,0.314l-1.382,0.879
			l-0.44,0.188l-0.502,0.314l-0.69,0.565l-0.44,0.565l-0.251,0.502l-0.126,0.691l-0.188,1.13v0.377l-0.126,0.628l-0.126,0.565
			l-0.063,0.628v1.319l-0.063,0.816v1.256l0.125,0.69l0.063,0.377l0.125,0.628l0.251,0.565l0.252,0.502l0.377,0.44l0.502,0.314
			l0.503,0.188l0.628,0.126h1.067l0.503-0.063l0.564-0.188l0.754-0.314l0.691-0.377l0.502-0.376l0.628-0.502l0.565-0.565
			l0.754-0.691l0.502-0.439l0.377-0.502l0.251-0.314l0.377-0.502l0.251-0.44l0.377-0.565l0.252-0.314l0.377-0.565l0.502-0.942
			l0.314-0.503l0.376-0.565l0.314-0.565l0.314-0.628l0.564-0.816l0.628-0.502l0.817,0.125l0.502,0.628v0.628l-0.188,0.565
			l-0.251,0.502l-0.314,0.502l-0.251,0.565l-0.251,0.502l-0.188,0.502l-0.314,0.502l-0.251,0.439l-0.313,0.502l-0.377,0.565
			l-0.126,0.314l-0.314,0.565l-0.376,0.502L696.736-338l-0.439,0.565l-0.251,0.251l-0.439,0.565l-0.377,0.44l-0.503,0.628
			l-0.564,0.502l-0.44,0.439l-0.376,0.314l-0.44,0.377l-0.564,0.314l-0.503,0.251l-0.565,0.251l-0.502,0.251l-0.503,0.188
			l-0.565,0.251l-0.753,0.251l-1.257,0.251l-0.753,0.063l-0.691-0.063h-0.377l-0.628-0.063l-0.565-0.125l-0.502-0.188l-0.565-0.188
			l-0.502-0.251l-0.503-0.314l-0.439-0.377l-0.377-0.377l-0.377-0.439l-0.251-0.502l-0.251-0.565l-0.188-0.502l-0.126-0.565
			l-0.188-0.565l-0.063-0.565l-0.126-0.628v-0.377l-0.125-0.69l-0.063-0.565v-0.565l0.063-0.565l0.063-0.628v-0.376l0.063-0.817
			l0.188-1.381l0.063-0.754v-0.565l0.125-0.565l0.126-0.628l0.439-2.073l0.188-0.753l0.188-1.131l0.125-0.314l0.188-0.753
			l0.126-0.377l0.251-0.942l0.188-0.817l0.126-0.565l0.188-0.754l0.251-0.879l0.063-0.44l0.252-0.879l0.251-0.817l0.188-0.439
			l0.251-0.816l0.251-0.754l0.252-0.565l0.628-1.633l0.125-0.377l0.377-0.879l0.439-1.005l0.314-0.753l0.251-0.565l0.188-0.377
			l0.314-0.565l0.439-1.067l0.313-0.628l0.314-0.565l0.377-0.565l0.502-0.816l0.816-1.13l0.377-0.502l0.816-0.816l0.252-0.314
			l0.439-0.44l0.439-0.314l1.005-0.691l0.69-0.439l0.691-0.314l0.565-0.188l0.564-0.125h1.131l0.628,0.125l0.377,0.063l0.628,0.188
			l0.503,0.251l0.879,0.754l0.314,0.502l0.439,0.628l0.313,0.753l0.252,0.565l0.251,0.753l0.125,0.817v1.13l-0.125,1.696
			l-0.251,1.13l-0.188,0.502l-0.126,0.628l-0.502,1.507l-0.252,0.502L699.939-362.682z M689.514-360.924l-0.879,2.638l-0.125,0.565
			l-0.188,0.565l-0.252,0.816l-0.439,1.319l-0.188,0.628l-0.063,0.377l-0.188,0.628l-0.188,0.565l-0.126,0.628l0.126,0.377
			l0.377-0.251l0.628-0.502l2.575-2.575l0.313-0.44l0.314-0.502l0.377-0.565l0.251-0.251l0.377-0.565l0.439-0.565l0.439-0.628
			l0.439-0.691l0.314-0.502l0.251-0.439l0.314-0.44l0.502-1.005l0.252-0.628l0.188-0.377l0.251-0.628l0.251-0.565l0.126-0.565
			l0.188-0.565l0.188-0.691l0.251-0.691l0.188-0.691l0.251-0.691l0.063-0.628l0.063-0.565v-1.193l-0.126-0.502l-0.188-0.502
			l-0.439-0.314l-0.503-0.126l-0.564,0.126l-0.565,0.439l-0.439,0.377l-0.314,0.377l-0.314,0.439l-0.313,0.502l-0.628,0.942
			l-0.314,0.565l-0.251,0.565l-0.251,0.502l-0.252,0.565l-0.251,0.502l-0.251,0.565l-0.188,0.502l-0.251,0.691l-0.377,0.942
			l-0.251,0.565L689.514-360.924z"/>
		<path fill="#1C1C1C" d="M738.313-363.625l-0.125,0.377h0.125l0.314-0.251l0.377-0.628l0.376-0.502l0.377-0.565l0.754-1.193
			l0.314-0.44l0.313-0.502l1.131-1.319l0.628-0.816l0.377-0.502l0.377-0.439l0.439-0.44l1.131-1.067l0.502-0.502l0.439-0.377
			l0.439-0.314l0.88-0.754l0.502-0.314l0.565-0.376l0.377-0.126l0.628-0.376l0.377-0.188l0.628-0.251l0.565-0.188l2.198-0.502h0.565
			l0.565,0.063h0.628l0.628,0.125l0.816,0.188l0.754,0.188l0.564,0.188l0.503,0.251l0.439,0.314l0.439,0.377l0.377,0.377
			l0.377,0.439l0.314,0.502l0.251,0.565l0.251,0.816l0.188,0.754l0.063,0.628l0.126,1.13v1.759l-0.188,1.695l-0.126,0.565
			l-0.063,0.565l-0.126,0.565l-0.376,1.131l-0.126,0.565l-0.188,0.502l-0.377,1.696l-0.188,0.565l-0.251,1.13l-0.126,0.502
			l-0.125,0.565l-0.188,0.565l-0.188,0.502l-0.377,1.131l-0.251,1.13l-0.126,0.502l-0.188,0.565l-0.126,0.565l-0.188,0.502
			l-0.126,0.565l-0.188,0.565l-0.126,0.502l-0.376,1.131l-0.188,0.502l-0.252,1.131l-0.188,0.502l-0.377,1.696l-0.125,0.628
			l-0.063,0.565l-0.126,0.565l-0.188,0.754l-0.188,0.816l-0.126,0.565l-0.125,0.691l-0.063,0.565v0.502l-0.063,0.565v3.391
			l0.126,0.565l0.188,0.565l0.188,0.503l0.188,0.565l0.251,0.502l0.313,0.502l0.377,0.44l0.88,0.628l0.502,0.377l0.503,0.565
			l0.188,0.879l-0.252,0.942l-0.564,0.879l-0.816,0.565l-1.006,0.251l-0.753-0.125l-0.503-0.251l-0.565-0.376l-0.376-0.188
			l-0.565-0.314l-0.439-0.377l-0.754-0.754l-0.314-0.376l-0.313-0.44l-0.377-0.565l-0.314-0.502l-0.251-0.502l-0.188-0.565
			l-0.126-0.565l-0.125-0.502l-0.251-1.13l-0.063-0.565v-4.459l0.126-0.628l0.063-0.754l0.126-0.816l0.063-0.628l0.126-1.13
			l0.125-0.565l0.188-0.565l0.188-0.816l0.126-0.753l0.126-0.628l0.125-0.754l0.251-0.879l0.126-0.376l0.188-0.691l0.126-0.502
			l0.188-0.565l0.126-0.565l0.314-1.068l0.125-0.565l0.188-0.565l0.252-0.691l0.376-1.256l0.188-0.691l0.126-0.565l0.628-1.884
			l0.251-0.816l0.126-0.44l0.188-0.628l0.188-0.565l0.125-0.565l0.188-0.691l0.126-0.377l0.188-0.628l0.126-0.565l0.063-0.628
			l0.125-0.565l0.063-0.565l0.125-0.565l0.063-0.628v-2.324l-0.252-1.13l-0.251-0.565l-0.377-0.502l-0.376-0.377l-0.503-0.314
			l-0.503-0.188l-0.564-0.063h-0.628l-1.382,0.314l-0.816,0.377l-0.629,0.314l-2.01,1.444l-0.502,0.314l-0.439,0.377l-0.503,0.439
			l-1.569,1.57l-0.503,0.691l-0.879,0.942l-0.377,0.44l-0.377,0.376l-0.314,0.44l-0.377,0.439l-0.439,0.691l-0.439,0.628
			l-0.377,0.502l-0.313,0.44l-0.314,0.502l-0.879,1.256l-0.377,0.628l-0.754,1.382l-0.251,0.565l-0.816,1.633l-0.628,1.319
			l-0.252,0.502l-0.377,1.13l-0.188,0.502l-0.126,0.565l-0.126,0.628l-0.188,0.565l-0.125,0.502l-0.377,1.13l-0.126,0.565
			l-0.125,0.502l-0.754,2.261l-0.377,1.696l-0.188,0.565l-0.188,0.502l-0.188,0.565l-0.377,1.696l-0.251,0.565l-0.188,0.502
			l-0.188,0.565l-0.125,0.565l-0.44,1.507l-0.188,0.691l-0.188,0.565l-0.188,0.502l-0.188,0.565l-0.252,0.565l-0.251,0.502
			l-0.502,0.628l-0.816,0.44l-1.005,0.251h-1.068l-0.941-0.251l-0.629-0.565l-0.125-0.691l0.188-0.565l0.188-0.502l0.188-0.565
			l0.188-0.502l0.188-0.565l0.188-0.502l0.252-1.13l0.125-0.502l0.188-0.691l0.126-0.377l0.313-0.753l0.188-0.628l0.252-0.69
			l0.251-0.879l0.188-0.816l0.188-0.565l0.125-0.502l0.377-1.13l0.126-0.502l0.377-1.13l0.188-0.817l0.188-0.753l0.188-0.565
			l0.125-0.565l0.126-0.502l0.188-0.565l0.125-0.565l0.188-0.503l0.188-0.565l0.126-0.565l0.313-1.067l0.126-0.565l0.188-0.502
			l0.126-0.565l0.188-0.502l0.188-0.565l0.252-1.131l0.188-0.753l0.628-2.198l0.439-1.319l0.126-0.565l0.125-0.502l0.126-0.565
			l0.188-0.565l0.125-0.502l0.188-0.565l0.188-0.503l0.377-1.13l0.126-0.502l0.251-1.13l0.188-0.502l0.063-0.377l-0.125-0.063
			l-0.314,0.251l-0.377,0.377l-0.565,0.439l-0.251,0.188l-0.502,0.439l-0.88,0.754l-0.879,0.628l-0.503,0.251l-0.564,0.251
			l-0.503,0.314l-0.942,0.565l-1.005,0.502l-0.564,0.251l-0.503,0.251l-0.565,0.314l-0.69,0.314l-0.377,0.251l-0.816,0.376
			l-0.754,0.503l-0.69,0.439l-0.503,0.314l-0.879,0.753l-0.377,0.44l-0.314,0.439l-0.251,0.502l-0.188,0.565l-0.125,0.565
			l-0.063,0.565v1.256l0.126,0.565l0.314,0.565l0.376,0.439l0.503,0.314l0.565,0.251l0.628,0.251l0.565,0.44l0.313,0.753v0.816
			l-0.313,0.502l-0.565,0.377L721.607-351h-0.628l-0.565-0.063l-0.628-0.188l-0.377-0.063l-0.628-0.251l-0.502-0.188l-1.006-0.628
			l-0.439-0.314l-0.377-0.377l-0.753-0.879l-0.314-0.44l-0.251-0.502l-0.188-0.565l-0.126-0.502l-0.125-0.565l-0.063-0.565
			l0.063-0.691v-0.376l0.063-0.628l0.063-0.565l0.188-0.565l0.503-1.005l0.628-1.005l0.439-0.628l0.503-0.565l0.439-0.439
			l1.005-0.628l0.628-0.44l0.69-0.376l0.565-0.314l0.754-0.314l0.69-0.314l0.503-0.314l0.628-0.251l1.193-0.502l1.318-0.502
			l2.073-0.816l0.502-0.188l0.565-0.314l1.319-0.69l0.628-0.314l0.628-0.439l0.69-0.377l0.565-0.439l0.251-0.251l2.198-1.696
			l0.503-0.502l0.69-0.816l0.377-0.44l0.251-0.502l0.44-0.439l0.502-0.314l0.628-0.126h0.628l0.565,0.063l0.628,0.188l0.565,0.251
			l0.503,0.377l0.188,0.565l-0.063,0.565l-0.125,0.565l-0.126,0.502l-0.251,0.565l-0.126,0.502l-0.188,0.565l-0.188,0.816
			l-0.251,0.942l-0.188,0.816l-0.69,2.072l-0.126,0.628l-0.188,0.753l-0.377,1.131L738.313-363.625z"/>
		<path fill="#1C1C1C" d="M782.467-347.546l-0.314,0.44l-0.753,0.879l-0.88,0.753l-0.439,0.314l-0.565,0.314l-0.377,0.125
			l-0.628,0.377l-0.377,0.188l-0.564,0.251l-0.629,0.188l-0.564,0.188l-0.565,0.063l-0.628,0.125l-0.691,0.063l-0.754,0.125
			l-0.564,0.063h-0.565l-1.131-0.125l-1.13-0.063l-0.565-0.063l-1.696-0.377h-0.439l-0.313,0.251l-0.126,0.439v0.565l-0.063,0.628
			v1.068l0.063,0.628l0.126,0.502l0.376,1.13l0.629,1.005l0.377,0.44l0.376,0.376l1.005,0.628l0.629,0.188l0.564,0.188l0.439,0.063
			l0.565,0.125l0.565,0.063h0.628l0.565-0.063l1.633-0.314l0.565-0.125l0.565-0.188l0.502-0.188l1.068-0.439l1.005-0.502
			l0.879-0.691l0.439-0.314l0.439-0.377l0.88-0.816l0.754-0.879l0.313-0.439l0.377-0.502l0.628-0.879l0.314-0.502l0.251-0.502
			l0.313-0.502l0.252-0.502l0.313-0.439l0.251-0.502l0.252-0.565l0.251-0.502l0.314-0.502l0.439-0.314h0.565l0.564,0.377
			l0.314,0.565l-0.063,0.565l-0.252,0.565l-0.313,0.691l-0.377,0.69l-0.314,0.691l-0.376,0.691l-0.377,0.628l-0.629,1.005
			l-0.188,0.377l-0.377,0.565l-0.628,0.879l-0.377,0.44l-0.377,0.377l-0.377,0.439l-0.439,0.502l-0.188,0.251l-0.439,0.503
			l-0.377,0.439l-0.88,0.753l-0.628,0.502l-0.565,0.502l-1.005,0.628l-1.569,0.69l-0.503,0.188l-0.565,0.188l-0.816,0.126
			l-0.753,0.188l-1.319,0.126l-0.816,0.063l-0.691,0.063h-0.564l-2.262-0.251l-0.502-0.125l-0.565-0.188l-0.565-0.251l-0.502-0.251
			l-1.005-0.565l-0.503-0.251l-0.439-0.377l-0.439-0.439l-0.251-0.314l-0.44-0.502l-0.376-0.44l-0.314-0.502l-0.251-0.44
			l-0.251-0.565l-0.188-0.503l-0.188-0.565l-0.126-0.565l-0.126-0.502l-0.125-0.565l-0.188-1.696v-1.193l0.063-0.565v-0.565
			l0.377-1.696l0.188-0.502l0.126-0.565l0.188-0.565l0.125-0.565l0.188-0.565l0.251-0.691l0.314-0.753l0.313-0.565l0.377-0.691
			l0.44-0.628l0.251-0.565l0.313-0.44l0.377-0.439l0.942-1.005l0.942-0.942l0.502-0.439l0.565-0.439l0.628-0.44l0.565-0.439
			l0.628-0.377l0.628-0.314l0.565-0.251l0.816-0.376l1.318-0.44l1.131-0.251l0.816-0.125h1.382l0.816,0.125l1.005,0.188l0.816,0.188
			l0.565,0.188l0.565,0.251l0.502,0.251l0.377,0.251l0.88,0.753l0.376,0.44l0.377,0.628l0.314,0.754l0.188,0.565l0.125,0.565
			l0.063,0.565v0.753l-0.063,0.816l-0.063,0.628l-0.188,0.754l-0.251,0.753l-0.251,0.628l-0.188,0.314l-0.314,0.565L782.467-347.546
			z M774.805-355.083l-0.88,0.377l-0.753,0.377l-0.503,0.314l-0.879,0.754l-0.565,0.565l-0.502,0.565l-0.44,0.502l-0.439,0.691
			l-0.439,0.628l-0.314,0.565l-0.376,0.691l-0.252,0.754l-0.251,0.565l-0.188,0.503l-0.063,0.439l0.313,0.314l0.816,0.188
			l1.257,0.063l0.628,0.063h1.759l0.628-0.125l0.564-0.125l0.629-0.251l0.376-0.125l0.629-0.314l0.439-0.314l0.439-0.377
			l0.439-0.439l0.439-0.377l0.377-0.502l0.314-0.44l0.251-0.502l0.314-0.565l0.376-1.131l0.126-0.628l0.063-0.565l-0.063-0.628
			l-0.251-0.565l-0.377-0.44l-0.503-0.376l-0.564-0.251l-0.565-0.125l-0.565-0.063l-0.628,0.126L774.805-355.083z"/>
		<path fill="#1C1C1C" d="M806.27-346.165v0.691l-0.252,0.628l-0.753,1.382l-0.252,0.565l-0.251,0.502l-0.628,1.005l-0.251,0.439
			l-0.314,0.502l-0.502,0.942l-0.252,0.44l-0.376,0.565l-0.754,0.879l-0.314,0.502l-0.313,0.439l-0.377,0.44l-1.193,1.193
			l-0.879,0.691l-0.88,0.753l-0.502,0.377l-0.691,0.377l-0.753,0.314l-0.565,0.251l-0.565,0.188l-0.503,0.125l-0.564,0.063h-1.759
			l-0.565-0.063l-0.565-0.125l-0.754-0.251l-0.69-0.314l-0.503-0.314l-0.879-0.753l-0.313-0.439l-0.314-0.503l-0.503-1.005
			l-0.188-0.502l-0.188-0.565l-0.126-0.565l-0.126-0.502v-0.565l-0.063-0.565v-0.565l-0.063-0.628v-0.565l0.188-1.695v-0.565
			l0.313-2.826l0.126-0.565l0.063-0.565l0.251-1.131l0.188-0.816l0.188-0.753l0.126-0.565l0.188-0.565l0.126-0.565l0.188-0.565
			l0.126-0.565l0.126-0.754l0.251-0.816l0.377-1.13v-0.502l-0.188-0.314l-0.439-0.126l-0.503-0.063l-0.628-0.125l-0.628-0.251
			l-0.439-0.565l-0.126-0.565l-0.063-0.628l0.125-0.503l0.252-0.439l0.439-0.314l0.816-0.063l0.942,0.063h0.941l0.628-0.188
			l0.252-0.439l0.125-0.628l0.126-0.502l0.188-0.565l0.251-0.502l0.251-0.565l0.188-0.502l0.377-1.13l0.251-1.13l0.188-0.565
			l0.252-0.502l0.376-1.13l0.188-0.502l0.252-0.565l0.188-0.565l0.188-0.502l0.188-0.565l0.251-0.502l0.251-0.565l0.126-0.502
			l0.188-0.565l0.251-0.565l0.313-0.439l0.503-0.314l0.565-0.126l0.628,0.063l0.754,0.125l0.816,0.188l0.564,0.314l0.503,0.44
			l0.188,0.691l-0.126,0.565l-0.313,0.816l-0.377,0.879l-0.314,0.816l-0.188,0.628l-0.125,0.377l-0.188,0.628l-0.691,2.073
			l-0.188,0.502l-0.188,0.565l-0.251,0.816l-0.377,0.942l-0.439,1.319l-0.125,0.565l-0.252,0.502l-0.188,0.502v0.439l0.377,0.314
			l0.691,0.126h0.628l1.067-0.063l0.879-0.063h1.947l0.816,0.063l0.439,0.377l0.126,0.691v0.816l-0.188,0.565l-0.313,0.44
			l-0.44,0.314l-0.565,0.188l-0.564,0.125l-0.628,0.063l-1.696,0.063h-0.69l-0.565-0.063h-2.324l-0.377,0.251l-0.188,0.502
			l-0.252,0.754l-0.251,1.005l-0.251,1.067l-0.314,1.005l-0.251,1.068l-0.251,1.005l-0.188,0.879l-0.063,0.376l-0.188,0.879
			l-0.188,0.691l-0.188,0.628l-0.252,1.131l-0.063,0.753l-0.126,0.816l-0.125,1.13v1.759l0.125,0.816l0.126,0.754l0.188,0.565
			l0.251,0.565l0.314,0.439l0.69,0.44l0.88,0.376l0.69,0.125h0.628l0.691-0.125l1.507-0.753l1.759-1.507l0.439-0.44l0.314-0.376
			l0.628-0.817l0.816-1.005l0.313-0.439l0.252-0.502l0.313-0.502l0.377-0.502l0.314-0.439l0.313-0.502l0.251-0.502l0.188-0.565
			l0.314-0.628l0.314-0.502l0.376-0.628l0.754-0.502l0.816,0.125L806.27-346.165z"/>
		<path fill="#1C1C1C" d="M817.574-337.498l-0.439,0.565l-0.188,0.251l-0.439,0.503l-0.754,0.879l-0.439,0.314l-0.439,0.377
			l-0.439,0.314l-0.503,0.314l-0.439,0.314l-0.503,0.314l-0.439,0.314l-0.565,0.188l-0.502,0.188l-0.565,0.188l-1.067,0.314
			l-0.565,0.063l-0.503,0.125l-0.564,0.063h-0.565l-0.628-0.063l-0.565-0.063l-0.565-0.125l-0.502-0.188l-0.565-0.251l-0.439-0.377
			l-0.44-0.314l-0.753-0.879l-0.314-0.503l-0.251-0.565l-0.126-0.502l-0.125-0.565l-0.063-0.628v-0.565l0.063-0.565v-0.565
			l0.125-1.13l0.251-1.13l0.063-0.502l0.502-2.261l0.377-1.507l0.251-1.13l0.44-1.319l0.188-0.754l0.188-0.628l0.503-1.507
			l0.314-1.068l0.251-0.565l0.251-0.754l0.188-0.753l0.188-0.565l0.188-0.502l0.251-0.565l0.691-2.073l0.313-0.502l0.377-0.377
			l0.502-0.251l0.629-0.126h0.564l0.629,0.063l0.564,0.063l0.565,0.188l0.565,0.251l0.314,0.439l-0.063,0.502l-0.125,0.565
			l-0.188,0.502l-0.188,0.565l-0.188,0.502l-0.188,0.565l-0.126,0.502l-0.69,2.073l-0.188,0.628l-0.565,1.507l-0.126,0.565
			l-0.188,0.502l-0.126,0.565l-0.188,0.565l-0.126,0.502l-0.125,0.565l-0.377,1.067l-0.126,0.565l-0.377,1.507l-0.125,0.628
			l-0.126,0.565l-0.063,0.502l-0.251,1.13l-0.188,1.696v0.565l0.063,0.565l0.126,0.565l0.251,0.502l0.313,0.439l0.439,0.251
			l0.565,0.188l0.816-0.063l1.005-0.188l1.005-0.439l0.88-0.502l0.628-0.502l0.502-0.377l0.377-0.377l0.377-0.439l0.503-0.628
			l0.502-0.565l0.377-0.502l0.439-0.691l1.005-1.884l0.377-0.691l0.251-0.628l0.314-0.691l0.628-1.884l0.126-0.565l0.188-0.565
			l0.251-0.565l0.188-0.565l0.125-0.502l0.188-0.565l0.126-0.565l0.251-0.565l0.188-0.502l0.188-0.565l0.126-0.565l0.565-1.696
			l0.188-0.502l0.252-0.691l0.125-0.314l0.252-0.691l0.188-0.502l0.252-0.502l0.377-0.377l0.564-0.188l0.565-0.126l0.628-0.063
			l0.565-0.063l0.628,0.063l0.565,0.125l0.503,0.314l0.313,0.439v0.502l-0.188,0.565l-0.188,0.502l-0.439,1.319l-0.188,0.754
			l-0.251,0.565l-0.188,0.502l-0.251,0.565l-0.251,0.753l-0.188,0.754l-0.252,0.565l-0.188,0.816l-0.313,0.942l-0.314,0.816
			l-0.188,0.565l-0.251,0.816l-0.188,1.005l-0.188,0.816l-0.125,0.565l-0.188,0.565l-0.126,0.565l-0.377,1.507l-0.063,0.628
			l-0.188,1.696l-0.063,0.628v0.565l0.063,0.565l0.188,0.565l0.377,0.44l0.502,0.314l0.503,0.188h0.628l0.565-0.125l1.13-0.376
			l0.565-0.251l0.503-0.251l0.502-0.376l0.503-0.314l0.439-0.377l0.251-0.502l-0.063-0.628l-0.252-0.691l-0.125-0.628l0.188-0.754
			l0.377-0.628l0.502-0.377l0.691-0.188l0.753,0.063l0.565,0.063l0.377-0.063l0.314-0.377l0.628-1.005l0.313-0.691l0.377-0.691
			l0.251-0.565l0.252-0.502l0.251-0.565l0.188-0.816l0.439-1.319l0.188-0.754l0.251-0.816l0.126-0.565l0.188-0.565l0.125-0.565
			l0.126-0.753l0.188-0.816l0.126-0.628l0.125-0.816l0.063-0.753v-0.628l0.126-1.131l0.377-0.565l0.754-0.377l1.005-0.125
			l1.005,0.063l0.879,0.314l0.628,0.628l0.252,0.69v1.193l-0.126,1.131l-0.063,0.628l-0.126,1.13l-0.126,0.565l-0.125,0.628
			l-0.126,0.565l-0.188,0.502l-0.126,0.565l-0.376,1.13l-0.188,0.503l-0.126,0.565l-0.377,1.13l-0.251,0.502l-0.188,0.565
			l-0.565,1.13l-0.125,0.377l-0.314,0.691l-0.251,0.502l-0.251,0.439l-0.629,1.005l-0.313,0.44l-0.377,0.502l-0.314,0.439
			l-0.376,0.439l-0.188,0.377l0.313,0.314l0.628,0.125h0.565l0.565-0.063l1.067-0.314l0.565-0.125l1.131-0.628l0.502-0.376
			l0.565-0.503l0.502-0.439l0.503-0.565l0.439-0.628l0.377-0.439l0.377-0.502l0.313-0.502l0.377-0.628l0.377-0.691l0.251-0.565
			l0.252-0.502l0.377-0.439l0.502-0.314l0.816,0.063l0.439,0.628v0.69l-0.188,0.502l-0.753,1.507l-0.252,0.565l-0.439,0.628
			l-0.377,0.691l-0.377,0.502l-0.313,0.439l-0.754,0.879l-0.313,0.377l-0.754,0.879l-0.439,0.314l-0.503,0.377l-0.628,0.439
			l-0.69,0.377l-1.57,0.691l-0.565,0.125l-0.565,0.063l-0.754,0.063h-2.01l-0.502-0.125l-0.565-0.188l-0.502-0.063l-0.503,0.063
			l-0.439,0.377l-0.816,0.816l-0.439,0.314l-0.503,0.377l-0.502,0.251l-0.503,0.314l-0.439,0.251l-0.503,0.251l-0.564,0.314
			l-0.565,0.188l-0.503,0.251l-0.565,0.188l-0.628,0.251l-0.753,0.188l-0.754,0.125l-0.628,0.126h-0.628l-0.816-0.063l-0.942-0.188
			l-0.816-0.251l-0.565-0.251l-0.565-0.502l-0.439-0.565l-0.314-0.565l-0.251-0.816l-0.251-0.942l-0.188-1.005v-0.816l-0.063-0.439
			h-0.063l-0.313,0.314L817.574-337.498z"/>
		<path fill="#1C1C1C" d="M862.292-335.425l-0.879,0.753l-1.005,0.628l-0.503,0.251l-1.005,0.628l-0.502,0.251l-1.131,0.377
			l-0.628,0.188l-1.13,0.188l-0.377,0.125l-0.628,0.125l-0.503,0.063h-0.565l-0.69,0.063h-0.565l-1.131-0.125l-0.69-0.188
			l-0.565-0.188l-0.439-0.188l-0.565-0.188l-0.502-0.251l-1.005-0.628l-0.44-0.377l-0.753-0.879l-0.314-0.502l-0.251-0.502
			l-0.314-0.502l-0.377-1.13l-0.251-1.13l-0.125-1.131l-0.063-0.628l0.063-0.565v-1.759l0.125-0.565l0.126-0.503l0.125-0.565
			l0.188-1.13l0.126-0.628l0.126-0.565l0.188-0.502l0.188-0.565l0.252-0.565l0.251-0.503l0.188-0.565l0.314-0.754l0.376-0.753
			l0.314-0.502l0.377-0.502l0.313-0.439l0.377-0.44l0.628-1.005l0.377-0.439l0.816-0.816l0.88-0.754l0.439-0.314l0.502-0.377
			l0.565-0.377l0.691-0.439l0.69-0.377l0.503-0.251l0.628-0.251l0.377-0.125l0.69-0.251l0.377-0.126l0.628-0.188l0.565-0.125
			l0.628-0.063l0.565-0.063h1.444l1.005,0.125l0.816,0.125l0.565,0.126l0.565,0.188l0.502,0.251l1.131,0.691l0.69,0.377l0.439,0.376
			l0.314,0.377l0.377,0.44l0.377,0.502l0.753,1.381l0.188,0.565l0.063,0.565l0.063,0.502l0.251,1.13v2.198l-0.125,0.753
			l-0.063,0.691l-0.063,0.628l-0.377,1.884l-0.251,0.879l-0.188,0.628l-0.251,0.628l-0.252,0.691l-0.188,0.565l-0.377,0.691
			l-0.565,1.13l-0.314,0.691l0.063,0.439l0.502,0.063h0.377l0.69-0.063l0.44-0.063l0.564-0.126l0.629-0.251l0.439-0.251l1.005-0.628
			l0.439-0.377l0.816-0.816l0.754-0.879l0.313-0.44l0.314-0.502l0.313-0.439l0.503-1.005l0.565-1.068l0.188-0.377l0.377-0.565
			l0.564-0.314l0.754,0.125l0.503,0.565l0.063,0.69l-0.188,0.565l-0.754,1.507l-0.313,0.439l-0.628,1.005l-0.252,0.502l-0.313,0.44
			l-0.377,0.502l-0.314,0.439l-0.377,0.377l-0.816,0.879l-0.377,0.376l-0.439,0.377l-0.439,0.314l-0.502,0.377l-0.44,0.251
			l-1.005,0.502l-0.564,0.251l-0.503,0.125l-2.261,0.251l-0.691-0.063l-0.564-0.063l-0.503-0.126l-0.502-0.063l-0.44,0.188
			l-0.439,0.314L862.292-335.425z M849.856-342.271l-0.063,0.753l0.063,0.628l0.063,0.816l0.125,1.005l0.252,1.005l0.439,0.942
			l0.439,0.628l0.502,0.44l0.691,0.314l0.942,0.251h0.816l0.628-0.063l0.628-0.126l0.565-0.251l0.502-0.251l0.565-0.314l0.503-0.314
			l0.439-0.376l0.502-0.377l0.252-0.44v-0.376l-0.252-0.44l-0.313-0.502l-0.126-0.565l0.126-0.754l0.251-0.753l0.439-0.377
			l0.503-0.314l0.564-0.063l0.565,0.125l0.439,0.126l0.377-0.063l0.252-0.377l0.188-0.502l0.754-2.261l0.377-1.696l0.126-0.816
			l0.188-1.068l0.125-2.135l-0.063-1.005l-0.251-1.068l-0.377-0.942l-0.439-0.628l-0.503-0.377l-0.754-0.314l-0.941-0.188
			l-0.816-0.063h-0.628l-0.503,0.126l-0.565,0.188l-0.628,0.377l-0.502,0.314l-0.565,0.377l-0.628,0.502l-0.439,0.377l-0.44,0.439
			l-0.313,0.44l-0.377,0.439l-0.314,0.502l-0.628,0.879l-0.313,0.502l-1.257,2.512l-0.188,0.565l-0.125,0.502l-0.377,1.131
			l-0.126,0.502l-0.188,0.565l-0.063,0.565v0.565L849.856-342.271z"/>
		<path fill="#1C1C1C" d="M878.119-360.044l-0.565-1.696l-0.063-0.565v-0.565l0.126-0.565l0.251-0.565l0.313-0.44l0.377-0.439
			l0.439-0.377l0.503-0.251l0.565-0.126h0.564l0.565,0.126l0.503,0.314l0.377,0.376l0.251,0.503l0.188,0.565v1.696l-0.126,0.628
			v0.502l0.126,0.502l0.313,0.44l0.44,0.439l0.439,0.377l0.439,0.502l0.69,0.816l0.44,0.377l0.816,0.816l0.439,0.502l0.251,0.314
			l0.439,0.502l0.44,0.377l0.376,0.439l0.628,1.005l0.188,0.565l0.188,0.753l0.188,0.816l-0.063,0.565l-0.188,0.565l-0.251,0.502
			l-0.377,0.44l-0.628,1.005l-0.377,0.439l-0.314,0.502l-0.313,0.44l-0.377,0.502l-0.314,0.502l-0.376,0.502l-0.314,0.502
			l-1.067,2.135l-0.188,0.565l-0.188,0.502l-0.126,0.565l-0.125,0.628l-0.126,0.565l-0.063,0.565v0.628l0.251,1.256l0.313,0.502
			l0.314,0.565l0.439,0.377l0.503,0.314l0.628,0.125h1.193l0.565-0.125l0.564-0.188l0.565-0.251l0.439-0.314l0.942-0.628
			l0.502-0.377l0.44-0.376l0.377-0.377l0.376-0.502l1.131-1.319l0.942-1.507l0.313-0.44l0.314-0.565l0.313-0.502l0.252-0.502
			l0.313-0.565l0.188-0.377l0.377-0.69l0.251-0.503l0.188-0.502l0.251-0.503l0.565-0.314l0.816,0.188l0.565,0.628v0.69l-0.188,0.565
			l-0.502,1.068l-0.251,0.502l-0.314,0.502l-0.503,1.005l-0.628,1.005l-0.313,0.565l-0.251,0.314l-0.314,0.565l-0.628,1.005
			l-0.754,1.005l-0.502,0.691l-0.44,0.628l-0.753,0.879l-0.44,0.377l-0.753,0.753l-0.503,0.377l-0.565,0.377l-1.005,0.502
			l-0.564,0.251l-0.503,0.251l-0.565,0.188l-0.502,0.125l-0.628,0.125h-1.445l-0.816-0.063l-1.256-0.251l-0.502-0.188l-0.628-0.314
			l-0.942-0.628l-0.439-0.377l-0.377-0.377l-0.377-0.502l-0.314-0.439l-0.251-0.565l-0.251-0.502l-0.126-0.565l-0.125-0.628
			l-0.126-0.565l-0.063-0.565v-0.565l0.251-2.261l0.188-0.565l0.188-0.502l0.251-0.565l0.314-0.691l0.376-0.691l0.314-0.565
			l0.439-0.691l0.439-0.628l0.314-0.565l0.377-0.69l0.502-0.691l0.377-0.502l0.503-0.879l0.69-1.005l0.314-0.691l0.188-0.942
			l-0.126-0.754l-0.628-1.005l-0.377-0.502l-1.005-1.13l-0.377-0.439l-0.502-0.377l-0.503,0.125l-0.251,0.565l-0.126,0.565
			l-0.188,0.565l-0.125,0.565l-0.126,0.502l-0.188,0.565l-0.565,1.507l-0.188,0.565l-0.188,0.502l-0.188,0.565l-0.313,0.754
			l-0.314,0.691l-0.251,0.565l-0.313,0.754l-0.314,0.691l-0.314,0.628l-0.313,0.691l-0.377,0.691l-0.314,0.502l-0.376,0.314h-0.565
			l-0.503-0.314l-0.377-0.439l0.063-0.503l0.188-0.565l0.251-0.565l0.188-0.502l0.188-0.565l0.502-1.131l0.188-0.376l0.251-0.628
			l0.252-0.502l0.188-0.565l0.251-0.565l0.188-0.565l0.188-0.503l0.502-1.13l0.126-0.565l0.188-0.565l0.125-0.565l0.252-0.565
			l0.125-0.565l0.126-0.502l0.126-0.565l0.188-0.565l0.126-0.628v-0.565l-0.126-0.502L878.119-360.044z"/>
		<path fill="#1C1C1C" d="M924.594-344.406l-0.628,1.256l-0.313,0.691l-0.252,0.565l-0.628,1.005l-0.439,0.691l-0.439,0.628
			l-0.942,1.507l-0.313,0.439l-0.377,0.44l-1.382,1.57l-0.503,0.502l-0.439,0.377l-0.816,0.816l-0.879,0.628l-1.005,0.628
			l-0.503,0.188l-1.067,0.314l-0.565,0.188l-0.565,0.063h-1.067l-0.69-0.063l-0.565-0.063l-0.503-0.188l-0.564-0.188l-0.503-0.251
			l-0.503-0.314l-0.439-0.314l-0.439-0.377l-0.313-0.439l-0.629-1.005l-0.502-1.067l-0.188-0.503l-0.188-0.565l-0.251-1.13
			l-0.063-0.565l-0.063-0.628l-0.125-1.131v-1.758l-0.063-0.565v-0.565l0.188-0.565l0.439-0.439l0.628-0.377l0.565-0.251
			l0.503-0.314l1.57-0.753l0.628-0.44l0.69-0.439l2.261-1.696l0.754-0.753l0.377-0.44l0.314-0.439l0.313-0.502l0.251-0.502
			l0.188-0.502l0.188-0.565l-0.063-0.753l-0.188-0.754l-0.377-0.439l-0.502-0.314l-0.503-0.188l-0.565-0.125l-0.628,0.063
			l-1.13,0.251l-0.503,0.188l-0.565,0.251l-0.502,0.251l-0.439,0.314l-0.503,0.314l-0.879,0.628l-0.816,0.691l-0.565,0.502
			l-0.439,0.44l-0.314,0.439l-0.377,0.439l-0.377,0.502l-0.251,0.314l-0.377,0.565l-0.377,0.502l-0.251,0.502l-0.313,0.502
			l-0.188,0.565l-0.503,1.005l-0.251,0.565l-0.188,0.565l-0.188,0.753l-0.188,0.817l-0.126,0.565l-0.188,0.565l-0.126,0.565
			l-0.188,0.565l-0.126,0.502l-0.125,0.565l-0.063,0.565l-0.188,0.691l-0.125,0.314l-0.126,0.691l-0.377,1.696l-0.063,0.565
			l-0.126,0.565l-0.063,0.565l-0.251,0.565l-0.439,0.565l-0.816,0.502l-1.068,0.251l-1.005,0.063l-0.753-0.125l-0.565-0.251
			l-0.314-0.565l-0.063-0.754l0.251-1.13l0.063-0.565l0.188-0.565l0.126-0.565l0.188-0.565l0.126-0.502l0.063-0.565l0.188-0.565
			l0.125-0.565l0.188-0.565l0.063-0.565l0.125-0.502l0.063-0.565l0.251-1.13l0.188-0.565l0.251-1.068l0.188-0.565l0.251-1.13
			l0.126-0.503l0.125-0.565l0.188-0.565l0.126-0.565l0.126-0.502l0.376-1.131l0.126-0.565l0.188-0.502l0.126-0.565l0.188-0.565
			l0.125-0.565l0.126-0.502l0.126-0.565l0.188-0.565l0.377-1.696l0.126-0.502l0.377-1.131l0.188-0.502l0.188-0.565l0.502-1.57
			l0.377-1.13l0.126-0.502l0.125-0.565l0.188-0.565l0.126-0.565l0.188-0.502l0.188-0.565l0.125-0.565l0.188-0.502l0.188-0.565
			l0.252-0.628l0.251-0.502l0.125-0.439l0.252-0.628l0.125-0.376l0.188-0.628l0.188-0.502l0.251-0.565l0.188-0.502l0.252-0.502
			l0.188-0.502l0.251-0.565l0.251-0.502l0.251-0.565l0.314-0.753l0.439-0.628l0.439-0.377l0.565-0.063h0.565l0.565,0.063l0.69,0.188
			l0.377,0.125l0.628,0.251l0.439,0.376l0.188,0.44l-0.125,0.565l-0.252,0.565l-0.125,0.377l-0.314,0.565l-0.188,0.502l-0.377,1.131
			l-0.188,0.502l-0.125,0.565l-0.251,0.628l-0.126,0.377l-0.188,0.628l-0.188,0.565l-0.188,0.502l-0.377,1.13l-0.377,1.068
			l-0.377,1.13l-0.188,0.502l-0.188,0.565l-0.188,0.502l-0.188,0.565l-0.188,0.502l-0.377,1.131l-0.126,0.502l-0.125,0.565
			l-0.188,0.565l-0.126,0.565l-0.251,0.502l-0.188,0.565l-0.377,1.696l-0.188,0.502l-0.188,0.565l-0.126,0.565l-0.125,0.377h0.125
			l0.565-0.753l0.754-0.879l0.314-0.44l0.816-0.816l0.377-0.314l0.439-0.314l0.565-0.439l1.005-0.628l1.507-0.817l0.503-0.314
			l0.564-0.188l0.44-0.125l0.564-0.125l0.629-0.125l1.758-0.063h0.565l1.131,0.251l0.565,0.188l0.439,0.314l0.439,0.376l0.377,0.314
			l0.377,0.44l0.313,0.502l0.251,0.565l0.126,0.502l0.126,0.565l0.063,0.565v0.565l-0.126,0.754l-0.125,0.816l-0.188,0.565
			l-0.188,0.503l-0.251,0.565l-0.377,0.691L918-349.368l-0.314,0.502l-0.377,0.502l-0.377,0.44l-0.377,0.376l-0.439,0.377
			l-0.377,0.251l-0.439,0.376l-0.942,0.754l-0.439,0.314l-0.502,0.314l-0.942,0.565l-0.439,0.251l-0.503,0.251l-0.564,0.251
			l-0.629,0.251l-0.376,0.063l-0.565,0.314l-0.251,0.376l-0.063,0.502l0.063,0.816l0.063,1.005l0.063,0.816l0.126,0.565l0.188,0.754
			l0.439,0.942l0.628,0.816l0.816,0.691l0.879,0.377l0.817,0.063h0.628l0.628-0.125l0.565-0.188l0.502-0.251l1.005-0.628
			l0.879-0.753l0.816-0.816l0.314-0.44l1.382-1.884l0.942-1.507l0.377-0.44l0.313-0.502l0.314-0.628l0.125-0.314l0.816-1.633
			l0.252-0.565l0.313-0.439l0.565-0.314l0.754,0.125l0.439,0.628v0.691l-0.188,0.565L924.594-344.406z"/>
		<path fill="#1C1C1C" d="M952.982-344.469l-0.251,0.565l-0.251,0.502l-0.314,0.502l-0.251,0.502l-0.314,0.565l-0.313,0.502
			l-0.314,0.44l-1.507,1.758l-0.44,0.439l-0.439,0.377L948.146-338l-0.502,0.377l-0.44,0.314l-0.564,0.251l-0.503,0.251
			l-0.565,0.188l-0.439,0.125l-0.565,0.126l-0.754,0.125l-0.628,0.063l-0.439,0.063h-0.628l-0.565-0.063h-0.502l-0.377,0.188
			l-0.314,0.377l-0.313,0.44l-0.439,0.439l-0.565,0.502l-0.628,0.502l-0.565,0.377l-0.691,0.376l-0.628,0.377l-0.565,0.251
			l-0.816,0.188l-1.005,0.188l-1.067,0.063l-0.816,0.063h-0.628l-0.628-0.063l-0.565-0.188l-0.439-0.188l-0.565-0.251l-0.565-0.314
			l-0.942-0.691l-0.439-0.377l-0.439-0.439l-0.942-1.507l-0.188-0.565l-0.376-1.696l-0.063-0.628v-1.13l0.126-0.628l0.377-0.69
			l0.754-0.628l0.941-0.251l0.754,0.063l0.377,0.377l0.063,0.502v0.565l-0.063,0.565l0.063,0.565l0.251,1.13l0.252,0.502
			l0.313,0.502l0.314,0.44l0.377,0.439l0.439,0.314l0.502,0.251l0.503,0.188l0.565,0.126h0.628l0.502-0.063l0.565-0.188l0.439-0.251
			l0.503-0.377l0.439-0.377l0.313-0.628v-0.628l-0.313-0.44l-0.377-0.502l-0.251-0.502l-0.063-0.628l0.063-0.565l0.313-0.565
			l0.377-0.377l0.942-0.628l0.251-0.314v-0.44l-0.125-0.565l-0.188-0.565l-0.188-0.502l-0.188-0.565l-0.126-0.503l-0.188-0.565
			l-0.188-0.502l-0.188-0.565l-0.188-0.502l-0.251-0.502l-0.188-0.502l-0.188-0.565l-0.188-0.502l-0.188-0.565L933.952-351
			l-0.188-0.565l-0.188-0.502l-0.188-0.628l-0.252-0.753l-0.188-0.754l-0.188-0.565l-0.126-0.565l-0.063-0.502l-0.063-0.565
			l-0.125-0.377l-0.377,0.126l-0.88,0.879l-0.376,0.44l-0.629,0.879l-0.313,0.502l-0.314,0.439l-0.69,1.256l-0.377,0.69L928.175-351
			l-0.314,0.439l-0.251,0.502l-0.251,0.44l-0.252,0.502l-0.376,0.816l-0.377,0.691l-0.252,0.565l-0.564,1.005l-0.252,0.502
			l-0.251,0.565l-0.377,0.691l-0.502,0.565l-0.565,0.126l-0.628-0.314l-0.314-0.502l0.063-0.565l0.125-0.565l0.503-1.005
			l0.313-0.565l0.188-0.377l0.314-0.565l0.251-0.565l0.188-0.502l0.754-1.507l0.313-0.502l0.251-0.565l0.377-0.691l0.44-0.691
			l0.313-0.565l0.314-0.502l0.251-0.502l0.313-0.565l0.252-0.314l0.313-0.565l0.314-0.439l1.507-1.758l0.754-0.817l0.377-0.439
			l0.439-0.439l0.439-0.377l1.005-0.628l0.565-0.251l0.628-0.188l0.565-0.125l0.503-0.063l0.564,0.063l0.565,0.125l0.503,0.314
			l0.377,0.44l0.188,0.502v0.565l-0.125,0.565l-0.251,0.502l-0.314,0.502l-0.126,0.502l-0.063,0.565l0.126,0.753l0.188,0.754
			l0.125,0.628l0.314,0.816l0.313,1.005l0.377,1.005l0.691,1.759l0.251,0.565l0.251,0.754l0.377,0.691l0.251,0.565l0.188,0.502
			l0.188,0.565l0.565,1.507l0.188,0.565l0.126,0.816l0.125,1.005l0.126,0.817l0.063,0.628v1.57l0.063,0.503l0.188,0.314l0.503,0.125
			h0.565l1.13-0.125l1.131-0.377l0.502-0.188l1.006-0.628l0.439-0.377l0.879-0.816l0.816-0.816l0.314-0.44l1.256-2.01l0.251-0.502
			l0.251-0.565l0.188-0.502l0.314-0.502l0.565-0.377l0.754,0.188l0.564,0.628v0.628l-0.188,0.565L952.982-344.469z"/>
	</g>
	<g>
		<path fill-rule="evenodd" clip-rule="evenodd" fill="#CEAA46" d="M524.75,76.455h91.73c19.814,0,36.081,16.268,36.081,36.083
			v91.729c0,19.898-16.267,36.164-36.081,36.164h-91.73c-19.898,0-36.083-16.266-36.083-36.164v-91.729
			C488.667,92.723,504.852,76.455,524.75,76.455L524.75,76.455z"/>
		<path fill-rule="evenodd" clip-rule="evenodd" fill="#FEFEFE" d="M578.5,139.866v-7.927c0-3.797,2.559-4.706,4.377-4.706
			c1.732,0,11.063,0,11.063,0v-16.926h-15.273c-16.928,0-20.727,12.55-20.727,20.642v8.917h-9.824v11.89v7.843h9.908
			c0,22.377,0,49.292,0,49.292h19.732c0,0,0-27.247,0-49.292h14.615l0.66-7.761l1.155-11.972H578.5z"/>
	</g>
</g>
<g id="Layer_1">
</g>
</svg>
