<?xml version="1.0" encoding="utf-8"?>
<!-- Generator: Adobe Illustrator 16.0.0, SVG Export Plug-In . SVG Version: 6.00 Build 0)  -->
<!DOCTYPE svg PUBLIC "-//W3C//DTD SVG 1.1//EN" "http://www.w3.org/Graphics/SVG/1.1/DTD/svg11.dtd">
<svg version="1.1" id="Layer_1" xmlns="http://www.w3.org/2000/svg" xmlns:xlink="http://www.w3.org/1999/xlink" x="0px" y="0px"
	 width="100px" height="100px" viewBox="0 0 100 100" enable-background="new 0 0 100 100" xml:space="preserve">
<g>
	<path fill="#FFFFFF" d="M1.383,33.362c5.187,0,10.373,0,15.56,0c0,10.776,0,21.552,0,32.327c-5.187,0-10.373,0-15.56,0
		C1.383,54.914,1.383,44.139,1.383,33.362z"/>
	<path fill="#FFFFFF" d="M34.099,33.824c2.108-0.879,4.684-0.495,6.431,0.979c0.866,0.719,1.597,1.585,2.257,2.492
		c-0.655,0.499-1.312,0.995-1.97,1.491c-0.341-0.445-0.694-0.885-1.074-1.298c-0.427-0.447-0.876-0.89-1.43-1.176
		c-0.858-0.462-1.887-0.572-2.831-0.352c-0.957,0.228-1.794,0.936-2.143,1.858c-0.263,0.702-0.233,1.492-0.004,2.2
		c0.27,0.841,0.866,1.528,1.5,2.121c1.988,1.662,4.241,3.01,6.036,4.897c0.893,0.916,1.634,2.004,2.027,3.229
		c0.385,1.166,0.382,2.451,0.028,3.624c-0.381,1.261-1.212,2.35-2.227,3.173c-0.894,0.725-1.98,1.207-3.118,1.378
		c-1.158,0.175-2.362,0.103-3.479-0.261c-1.019-0.334-1.96-0.903-2.724-1.656c-0.913-0.887-1.625-1.957-2.237-3.067
		c0.684-0.412,1.37-0.823,2.057-1.232c0.575,1.062,1.269,2.079,2.189,2.87c0.667,0.563,1.48,0.984,2.359,1.07
		c1.182,0.119,2.402-0.244,3.339-0.973c0.991-0.763,1.565-2.03,1.491-3.276c-0.048-0.837-0.413-1.625-0.912-2.288
		c-0.585-0.779-1.293-1.455-2.02-2.1c-1.524-1.346-3.239-2.457-4.735-3.837c-0.378-0.362-0.767-0.72-1.064-1.153
		c-0.653-0.896-1.083-1.965-1.164-3.073c-0.102-1.208,0.168-2.454,0.818-3.482C32.102,35.004,33.042,34.259,34.099,33.824z"/>
	<path fill="#FFFFFF" d="M70.189,33.966c0.131,0,0.263,0,0.395-0.003c1.157,7.988,2.303,15.979,3.452,23.967
		c-0.787-0.01-1.573-0.002-2.36-0.002c-0.799-5.7-1.578-11.401-2.367-17.102c-2.82,5.699-5.641,11.397-8.455,17.099
		c-0.213,0-0.426,0-0.638,0c-2.851-5.745-5.708-11.487-8.559-17.232c-0.777,5.745-1.565,11.489-2.346,17.235
		c-0.777-0.004-1.554-0.003-2.331-0.001c1.142-7.988,2.285-15.974,3.432-23.961c0.135,0,0.27,0,0.405,0
		c3.241,6.546,6.492,13.085,9.727,19.633C63.768,47.059,66.967,40.508,70.189,33.966z"/>
	<g>
		<path fill="#FFFFFF" d="M78.421,33.966c1.545,0,3.089,0,4.635,0c1.615-0.012,3.232,0.031,4.84,0.196
			c1.179,0.128,2.364,0.308,3.481,0.72c1.058,0.388,2.064,0.927,2.952,1.621c1.7,1.327,2.947,3.194,3.618,5.238
			c0.411,1.228,0.603,2.518,0.67,3.807v1.369c-0.09,2.05-0.599,4.104-1.662,5.87c-1.018,1.742-2.523,3.233-4.379,4.06
			c-1.395,0.617-2.919,0.878-4.431,1.005c-1.292,0.112-2.587,0.063-3.881,0.073c-1.948,0-3.895,0-5.843,0
			C78.42,49.938,78.42,41.953,78.421,33.966z M80.739,36.316c0,6.446,0,12.893,0,19.339c2.136-0.005,4.273,0.028,6.405-0.115
			c1.373-0.108,2.781-0.238,4.05-0.813c2.043-0.859,3.647-2.631,4.382-4.713c0.515-1.421,0.663-2.953,0.586-4.454
			c-0.067-1.221-0.307-2.438-0.78-3.567c-0.548-1.312-1.405-2.502-2.511-3.399c-0.762-0.622-1.64-1.096-2.563-1.427
			c-1.217-0.44-2.514-0.59-3.797-0.701C84.591,36.311,82.665,36.317,80.739,36.316z"/>
	</g>
	<path fill="#FFFFFF" d="M23.945,33.966c0.804,0,1.608,0,2.414,0c0.001,7.986-0.002,15.972,0.001,23.957
		c-0.806,0.007-1.61,0-2.415,0.002C23.945,49.938,23.945,41.953,23.945,33.966z"/>
	<path fill="#FFFFFF" d="M32.138,61.703c0.204-0.117,0.492,0.066,0.446,0.305c0.005,0.271-0.406,0.375-0.543,0.149
		C31.92,62.013,31.987,61.794,32.138,61.703z"/>
	<path fill="#FFFFFF" d="M59.254,61.699c0.162-0.084,0.384,0.006,0.43,0.185c0.086,0.217-0.151,0.457-0.372,0.388
		C59.048,62.216,59.013,61.809,59.254,61.699z"/>
	<path fill="#FFFFFF" d="M87.08,61.718c0.201-0.144,0.517,0.042,0.471,0.291c-0.008,0.221-0.29,0.348-0.469,0.228
		C86.899,62.129,86.897,61.825,87.08,61.718z"/>
	<path fill="#FFFFFF" d="M91.53,61.719c0.195-0.146,0.517,0.037,0.473,0.285c-0.001,0.242-0.337,0.37-0.503,0.2
		C91.346,62.081,91.367,61.824,91.53,61.719z"/>
	<path fill="#FFFFFF" d="M33.52,61.783c0.125,0,0.252,0,0.379,0c0.002,0.345,0,0.688,0.002,1.033c0.184-0.001,0.369-0.001,0.555,0
		c0,0.109,0,0.222,0,0.333c-0.186-0.001-0.371,0-0.556,0c0,0.825,0,1.651,0,2.477c-0.127-0.001-0.254-0.001-0.38,0
		c0-0.825,0-1.651,0-2.477c-0.165,0-0.329-0.001-0.493,0c0-0.111,0-0.224,0-0.333c0.164-0.001,0.328-0.001,0.491,0
		C33.52,62.472,33.518,62.128,33.52,61.783z"/>
	<path fill="#FFFFFF" d="M45.331,61.809c0.528-0.225,1.092,0.108,1.369,0.562c-0.106,0.083-0.215,0.165-0.323,0.247
		c-0.148-0.182-0.301-0.392-0.541-0.45c-0.261-0.078-0.596,0.069-0.649,0.353c-0.058,0.227,0.078,0.449,0.245,0.594
		c0.4,0.355,0.913,0.61,1.19,1.088c0.204,0.339,0.181,0.8-0.073,1.107c-0.315,0.421-0.943,0.534-1.401,0.288
		c-0.282-0.144-0.474-0.408-0.623-0.681c0.11-0.07,0.222-0.138,0.337-0.204c0.163,0.276,0.377,0.589,0.726,0.626
		c0.432,0.058,0.882-0.388,0.711-0.822c-0.282-0.587-0.953-0.825-1.345-1.317C44.6,62.754,44.772,61.993,45.331,61.809z"/>
	<g>
		<path fill="#FFFFFF" d="M69.228,61.736c0.121-0.001,0.243-0.001,0.366,0c0,1.297,0,2.593,0,3.89
			c-0.123-0.001-0.245-0.001-0.366-0.001c0-0.151-0.001-0.304,0.002-0.456c-0.311,0.373-0.807,0.593-1.292,0.522
			c-0.427-0.041-0.817-0.303-1.042-0.664c-0.236-0.364-0.281-0.834-0.167-1.248c0.18-0.595,0.77-1.059,1.401-1.029
			c0.435-0.02,0.848,0.218,1.099,0.565C69.226,62.789,69.229,62.263,69.228,61.736z M67.831,63.158
			c-0.639,0.181-0.983,0.994-0.655,1.575c0.253,0.564,1.017,0.8,1.54,0.463c0.517-0.283,0.671-0.995,0.405-1.502
			C68.885,63.236,68.32,63.003,67.831,63.158z"/>
	</g>
	<g>
		<path fill="#FFFFFF" d="M85.947,61.736c0.12-0.001,0.243-0.001,0.365,0c0,1.297,0,2.593,0,3.89
			c-0.123-0.001-0.245-0.001-0.366-0.001c0-0.15-0.001-0.3,0.001-0.451c-0.29,0.339-0.724,0.556-1.174,0.529
			c-0.413-0.013-0.811-0.221-1.063-0.546c-0.28-0.34-0.374-0.811-0.292-1.237c0.119-0.658,0.746-1.194,1.421-1.17
			c0.436-0.021,0.855,0.21,1.108,0.56C85.946,62.786,85.946,62.261,85.947,61.736z M84.479,63.187
			c-0.4,0.143-0.668,0.546-0.706,0.961c-0.038,0.509,0.307,1.025,0.803,1.163c0.515,0.162,1.123-0.139,1.314-0.643
			c0.127-0.346,0.102-0.762-0.109-1.071C85.513,63.173,84.94,62.998,84.479,63.187z"/>
	</g>
	<path fill="#FFFFFF" d="M23.945,61.832c0.127-0.001,0.255,0,0.382,0.002c-0.002,1.264,0,2.528,0,3.792
		c-0.127-0.001-0.255-0.001-0.381-0.001C23.945,64.361,23.945,63.096,23.945,61.832z"/>
	<path fill="#FFFFFF" d="M30.677,62.815c0-0.345-0.001-0.688,0-1.032c0.126,0,0.253,0,0.381,0.001c0,0.344,0,0.688,0,1.032
		c0.19-0.001,0.379-0.001,0.571,0c-0.001,0.109-0.001,0.222,0,0.333c-0.191-0.001-0.381-0.001-0.571,0.001c0,0.824,0,1.65,0,2.476
		c-0.128-0.001-0.255-0.001-0.381-0.001c0-0.824,0-1.65,0-2.476c-0.16-0.001-0.318-0.001-0.477,0c-0.001-0.111-0.001-0.224,0-0.333
		C30.36,62.816,30.518,62.815,30.677,62.815z"/>
	<path fill="#FFFFFF" d="M38.489,62.816c0-0.346,0-0.688,0-1.033c0.126,0,0.253,0,0.381,0.001c0,0.345,0,0.688,0,1.032
		c0.19-0.001,0.38-0.001,0.571,0c-0.001,0.109-0.001,0.222,0,0.333c-0.191-0.001-0.381-0.001-0.571,0.001c0,0.824,0,1.65,0,2.476
		c-0.128-0.001-0.255-0.001-0.381-0.001c0-0.824,0-1.65,0-2.476c-0.159-0.001-0.318-0.001-0.477,0c0-0.111,0-0.224,0-0.333
		C38.171,62.815,38.33,62.815,38.489,62.816z"/>
	<path fill="#FFFFFF" d="M75.712,61.802c0.117,0.076,0.139,0.227,0.206,0.342c0.465,0.921,0.915,1.851,1.377,2.772
		c0.463-0.924,0.908-1.858,1.371-2.784c0.062-0.113,0.089-0.255,0.205-0.33c0.205,1.27,0.367,2.547,0.561,3.818
		c-0.13,0.004-0.26,0.006-0.387,0.006c-0.13-0.885-0.241-1.773-0.374-2.659c-0.451,0.882-0.87,1.78-1.326,2.657
		c-0.026,0-0.079,0-0.105,0c-0.462-0.889-0.885-1.799-1.345-2.689c-0.113,0.896-0.245,1.791-0.36,2.688
		c-0.13,0.003-0.261,0.004-0.389,0.004C75.343,64.354,75.497,63.073,75.712,61.802z"/>
	<path fill="#FFFFFF" d="M25.499,63.292c0.256-0.311,0.62-0.566,1.04-0.542c0.484-0.026,0.932,0.36,0.994,0.838
		c0.092,0.675,0.03,1.359,0.049,2.037c-0.128,0-0.255,0-0.382,0c-0.006-0.588,0.014-1.177-0.011-1.765
		c-0.007-0.31-0.164-0.662-0.493-0.737c-0.544-0.153-1.113,0.298-1.167,0.842c-0.057,0.551-0.016,1.107-0.028,1.66
		c-0.127,0-0.254,0-0.381,0.001c0-0.937,0-1.874,0-2.81c0.126-0.001,0.253-0.001,0.381,0C25.501,62.974,25.501,63.132,25.499,63.292
		z"/>
	<path fill="#FFFFFF" d="M28.395,62.976c0.218-0.237,0.585-0.279,0.876-0.171c0.189,0.066,0.341,0.201,0.492,0.328
		c-0.083,0.083-0.167,0.167-0.251,0.251c-0.143-0.127-0.304-0.251-0.498-0.279c-0.241-0.043-0.519,0.165-0.479,0.424
		c0.039,0.235,0.275,0.353,0.463,0.461c0.275,0.148,0.6,0.303,0.711,0.619c0.141,0.375-0.044,0.828-0.403,1.003
		c-0.421,0.204-0.976,0.056-1.248-0.323c0.079-0.084,0.157-0.169,0.231-0.255c0.168,0.146,0.353,0.32,0.593,0.31
		c0.279,0.013,0.565-0.252,0.504-0.542c-0.038-0.186-0.209-0.295-0.363-0.381c-0.241-0.136-0.512-0.247-0.688-0.47
		C28.124,63.667,28.137,63.225,28.395,62.976z"/>
	<g>
		<path fill="#FFFFFF" d="M40.849,62.809c0.51-0.146,1.107-0.034,1.479,0.36c0.535,0.52,0.579,1.45,0.091,2.015
			c-0.417,0.54-1.232,0.661-1.824,0.357c-0.547-0.288-0.86-0.947-0.751-1.553C39.922,63.449,40.324,62.965,40.849,62.809z
			 M40.91,63.188c-0.39,0.159-0.678,0.549-0.701,0.972c-0.062,0.62,0.486,1.233,1.123,1.184c0.65,0.003,1.164-0.677,1.027-1.303
			C42.269,63.395,41.526,62.921,40.91,63.188z"/>
	</g>
	<g>
		<path fill="#FFFFFF" d="M51.06,63.294c0.259-0.322,0.644-0.557,1.066-0.544c0.658-0.038,1.278,0.457,1.435,1.088
			c0.099,0.415,0.04,0.879-0.209,1.232c-0.231,0.346-0.616,0.588-1.033,0.623c-0.475,0.063-0.953-0.152-1.26-0.513
			c0.01,0.487,0.002,0.975,0.005,1.462h-0.381c0-1.276,0-2.552,0-3.826c0.126-0.001,0.254-0.001,0.381,0
			C51.064,62.975,51.063,63.134,51.06,63.294z M51.714,63.189c-0.475,0.19-0.764,0.728-0.67,1.23
			c0.064,0.623,0.752,1.068,1.347,0.899c0.524-0.128,0.888-0.681,0.828-1.211c-0.04-0.335-0.229-0.656-0.52-0.832
			C52.412,63.089,52.031,63.065,51.714,63.189z"/>
	</g>
	<g>
		<path fill="#FFFFFF" d="M54.553,63.16c0.388-0.426,1.047-0.505,1.572-0.316c0.566,0.213,0.93,0.82,0.895,1.417
			c-0.84,0.002-1.68-0.004-2.519,0.003c0.026,0.34,0.162,0.686,0.445,0.891c0.354,0.271,0.871,0.253,1.24,0.017
			c0.194-0.111,0.315-0.308,0.435-0.491c0.106,0.058,0.212,0.114,0.32,0.172c-0.175,0.343-0.454,0.645-0.826,0.768
			c-0.567,0.187-1.285,0.076-1.655-0.428C53.979,64.616,54.021,63.689,54.553,63.16z M55.202,63.174
			c-0.335,0.112-0.559,0.421-0.65,0.753c0.686,0.001,1.372,0.001,2.059,0C56.497,63.308,55.773,62.95,55.202,63.174z"/>
	</g>
	<path fill="#FFFFFF" d="M57.923,63.204c0.152-0.206,0.352-0.411,0.618-0.449c0.152-0.026,0.299,0.027,0.438,0.086
		c-0.063,0.105-0.127,0.211-0.191,0.319c-0.163-0.063-0.351-0.058-0.489,0.056c-0.269,0.205-0.349,0.563-0.358,0.883
		c-0.035,0.509-0.012,1.019-0.018,1.527c-0.127-0.001-0.254-0.001-0.381-0.001c0-0.936,0-1.873,0-2.809
		c0.127-0.001,0.253-0.001,0.38,0C57.922,62.945,57.922,63.074,57.923,63.204z"/>
	<g>
		<path fill="#FFFFFF" d="M61.182,62.814c0.464-0.136,1.01-0.07,1.384,0.255c0.341,0.28,0.554,0.716,0.535,1.158
			c0.023,0.509-0.265,1-0.688,1.27c-0.346,0.216-0.782,0.249-1.173,0.157c-0.627-0.153-1.081-0.786-1.065-1.426
			C60.159,63.605,60.586,63,61.182,62.814z M61.347,63.159c-0.373,0.109-0.674,0.435-0.76,0.813
			c-0.151,0.569,0.221,1.231,0.812,1.346c0.637,0.169,1.318-0.361,1.32-1.017C62.795,63.589,62.043,62.924,61.347,63.159z"/>
	</g>
	<path fill="#FFFFFF" d="M64.002,63.198c0.218-0.341,0.667-0.593,1.054-0.357c-0.066,0.106-0.132,0.213-0.196,0.321
		c-0.25-0.124-0.536,0.028-0.666,0.25c-0.175,0.282-0.178,0.626-0.19,0.946c-0.002,0.423,0,0.845,0,1.268
		c-0.128-0.001-0.255-0.001-0.381,0c0-0.937,0-1.874,0-2.81c0.126-0.001,0.253-0.001,0.381,0
		C64.003,62.943,64.002,63.071,64.002,63.198z"/>
	<g>
		<path fill="#FFFFFF" d="M70.747,63.098c0.382-0.363,0.972-0.425,1.46-0.271c0.591,0.196,0.981,0.819,0.944,1.435
			c-0.84,0.002-1.68-0.004-2.519,0.003c0.027,0.324,0.148,0.657,0.412,0.864c0.376,0.317,0.961,0.284,1.344-0.006
			c0.157-0.114,0.257-0.283,0.364-0.442c0.106,0.058,0.213,0.114,0.321,0.172c-0.178,0.34-0.453,0.645-0.825,0.768
			c-0.566,0.187-1.284,0.077-1.655-0.426C70.088,64.596,70.159,63.616,70.747,63.098z M71.34,63.172
			c-0.342,0.108-0.565,0.422-0.657,0.755c0.686,0.001,1.372,0.001,2.059,0C72.627,63.312,71.912,62.952,71.34,63.172z"/>
	</g>
	<g>
		<path fill="#FFFFFF" d="M80.561,63.005c0.402-0.292,0.955-0.325,1.413-0.155c0.556,0.219,0.916,0.818,0.878,1.411
			c-0.838,0-1.677-0.001-2.516,0.001c0.023,0.33,0.152,0.667,0.42,0.875c0.355,0.29,0.89,0.275,1.267,0.032
			c0.195-0.111,0.308-0.311,0.433-0.488c0.104,0.056,0.21,0.113,0.317,0.17c-0.177,0.366-0.492,0.679-0.891,0.789
			c-0.438,0.12-0.942,0.077-1.322-0.186c-0.392-0.299-0.63-0.797-0.599-1.291C79.971,63.712,80.203,63.277,80.561,63.005z
			 M80.383,63.927c0.688,0,1.376,0.002,2.063-0.001c-0.113-0.572-0.741-0.933-1.295-0.787
			C80.762,63.219,80.484,63.556,80.383,63.927z"/>
	</g>
	<path fill="#FFFFFF" d="M88.447,63.213c0.646-0.678,1.952-0.623,2.455,0.197c-0.101,0.063-0.202,0.125-0.302,0.188
		c-0.429-0.613-1.436-0.673-1.917-0.096c-0.384,0.42-0.339,1.124,0.063,1.517c0.502,0.506,1.438,0.423,1.848-0.159
		c0.104,0.063,0.208,0.129,0.311,0.196c-0.563,0.84-1.969,0.869-2.576,0.065C87.889,64.573,87.956,63.708,88.447,63.213z"/>
	<path fill="#FFFFFF" d="M93.544,62.846c0.399-0.174,0.926-0.127,1.228,0.212c0.273,0.271,0.286,0.683,0.303,1.044
		c0.003,0.508,0,1.017,0.001,1.524c-0.128-0.001-0.255-0.001-0.381-0.001c0-0.509-0.001-1.018,0-1.526
		c-0.004-0.277-0.02-0.582-0.208-0.803c-0.191-0.202-0.499-0.232-0.755-0.169c-0.401,0.112-0.702,0.501-0.716,0.918
		c-0.041,0.525-0.011,1.054-0.019,1.58c-0.129,0-0.256,0-0.382,0c0.001-0.937-0.001-1.873,0.001-2.809
		c0.125-0.001,0.252-0.001,0.381,0c0,0.159,0,0.318-0.005,0.479C93.152,63.12,93.319,62.939,93.544,62.846z"/>
	<g>
		<path fill="#FFFFFF" d="M96.02,63.292c0.282-0.362,0.741-0.574,1.201-0.542c0.409,0.001,0.785,0.232,1.032,0.55
			c-0.002-0.161-0.002-0.322,0-0.483c0.119-0.001,0.242-0.001,0.365,0v2.81c-0.124-0.001-0.245-0.001-0.365-0.001
			c-0.001-0.149-0.002-0.3,0-0.449c-0.298,0.354-0.759,0.57-1.226,0.521c-0.546-0.029-1.034-0.422-1.23-0.924
			C95.613,64.285,95.682,63.696,96.02,63.292z M96.799,63.181c-0.349,0.129-0.613,0.443-0.689,0.806
			c-0.136,0.54,0.21,1.145,0.739,1.313c0.497,0.174,1.102-0.084,1.321-0.563c0.213-0.451,0.107-1.039-0.278-1.363
			C97.601,63.11,97.161,63.047,96.799,63.181z"/>
	</g>
	<path fill="#FFFFFF" d="M32.088,65.623c0.004-0.936,0-1.872,0.002-2.807c0.126-0.001,0.253-0.001,0.381,0
		c0,0.936-0.001,1.873,0,2.81C32.344,65.626,32.215,65.625,32.088,65.623z"/>
	<path fill="#FFFFFF" d="M34.932,62.816c0.126-0.001,0.253-0.001,0.381,0c0.001,0.493-0.002,0.987,0.001,1.481
		c0.014,0.24,0.008,0.502,0.157,0.705c0.31,0.438,1.055,0.449,1.378,0.021c0.149-0.189,0.159-0.439,0.163-0.668
		c-0.001-0.514,0-1.028,0-1.54c0.126-0.001,0.253-0.001,0.381,0c-0.002,0.561,0.005,1.122-0.003,1.683
		c-0.01,0.412-0.18,0.858-0.566,1.054c-0.605,0.319-1.555,0.15-1.784-0.566C34.856,64.28,34.96,63.538,34.932,62.816z"/>
	<path fill="#FFFFFF" d="M47.428,62.816c0.125-0.001,0.253-0.001,0.38,0c0.001,0.512-0.002,1.026,0.001,1.54
		c0.006,0.268,0.035,0.572,0.255,0.759c0.425,0.414,1.302,0.232,1.41-0.389c0.07-0.634,0.015-1.274,0.033-1.91
		c0.125-0.001,0.253-0.001,0.38,0c-0.005,0.57,0.009,1.143-0.007,1.715c-0.017,0.416-0.203,0.858-0.599,1.042
		c-0.491,0.219-1.147,0.183-1.533-0.221c-0.279-0.302-0.306-0.732-0.32-1.122C47.425,63.759,47.429,63.286,47.428,62.816z"/>
	<path fill="#FFFFFF" d="M59.208,65.625c0.001-0.937,0-1.873,0.001-2.809c0.12-0.001,0.242-0.001,0.365,0c0,0.936,0,1.873,0,2.81
		C59.452,65.625,59.33,65.625,59.208,65.625z"/>
	<path fill="#FFFFFF" d="M87.058,62.816c0.126-0.001,0.252-0.001,0.381,0c0,0.936,0,1.873,0,2.81c-0.129-0.001-0.255-0.001-0.381,0
		C87.058,64.689,87.058,63.752,87.058,62.816z"/>
	<path fill="#FFFFFF" d="M91.52,62.816c0.121-0.001,0.242-0.001,0.365,0c0,0.936,0,1.873,0,2.81
		c-0.123-0.001-0.244-0.001-0.365-0.001C91.52,64.689,91.52,63.752,91.52,62.816z"/>
</g>
</svg>
