<?xml version="1.0" encoding="UTF-8" standalone="yes"?>
<!-- Created with sK1/UniConvertor (http://sk1project.org/) -->
<svg xmlns="http://www.w3.org/2000/svg" xmlns:xlink="http://www.w3.org/1999/xlink"
  width="595.276pt" height="841.89pt" viewBox="0 0 595.276 841.89"
  fill-rule="evenodd">
<g>
<g>
<path style="stroke:none; fill:#ffffff" d="M 167 317.89C 248.67 317.89 330.33 317.89 412 317.89C 412 487.56 412 657.22 412 826.89C 330.33 826.89 248.67 826.89 167 826.89C 167 657.22 167 487.56 167 317.89z"/>
<path style="stroke:none; fill:#ffffff" d="M 682.13 325.14C 715.32 311.3 755.87 317.36 783.39 340.56C 797.03 351.87 808.53 365.52 818.93 379.8C 808.62 387.66 798.27 395.48 787.92 403.29C 782.54 396.26 777 389.35 771.01 382.84C 764.29 375.8 757.21 368.84 748.49 364.33C 734.99 357.05 718.79 355.33 703.92 358.8C 688.85 362.37 675.67 373.52 670.18 388.07C 666.04 399.13 666.51 411.55 670.12 422.69C 674.36 435.94 683.74 446.76 693.74 456.1C 725.04 482.26 760.51 503.49 788.77 533.21C 802.83 547.63 814.5 564.76 820.69 584.04C 826.75 602.41 826.71 622.63 821.13 641.1C 815.12 660.96 802.04 678.1 786.06 691.07C 771.99 702.47 754.88 710.07 736.97 712.77C 718.73 715.52 699.78 714.37 682.19 708.66C 666.15 703.4 651.33 694.43 639.3 682.58C 624.93 668.62 613.71 651.77 604.08 634.28C 614.85 627.78 625.64 621.31 636.46 614.88C 645.51 631.58 656.44 647.61 670.94 660.06C 681.44 668.93 694.25 675.57 708.08 676.92C 726.69 678.8 745.91 673.07 760.66 661.61C 776.26 649.61 785.3 629.64 784.14 610.02C 783.38 596.83 777.64 584.43 769.78 573.99C 760.57 561.73 749.42 551.08 737.98 540.94C 713.98 519.75 686.97 502.25 663.42 480.52C 657.47 474.82 651.35 469.18 646.66 462.36C 636.38 448.25 629.61 431.43 628.33 413.96C 626.73 394.95 630.98 375.32 641.21 359.13C 650.69 343.73 665.49 332 682.13 325.14z"/>
<path style="stroke:none; fill:#ffffff" d="M 1250.38 327.39C 1252.44 327.39 1254.52 327.38 1256.61 327.34C 1274.81 453.12 1292.87 578.92 1310.96 704.71C 1298.57 704.55 1286.19 704.67 1273.8 704.66C 1261.22 614.93 1248.95 525.16 1236.53 435.41C 1192.13 525.14 1147.71 614.85 1103.41 704.63C 1100.05 704.64 1096.7 704.64 1093.35 704.63C 1048.48 614.16 1003.48 523.75 958.6 433.28C 946.36 523.75 933.94 614.19 921.66 704.66C 909.43 704.62 897.19 704.64 884.96 704.65C 902.93 578.89 920.94 453.14 938.99 327.39C 941.11 327.39 943.23 327.39 945.37 327.39C 996.4 430.44 1047.6 533.4 1098.52 636.51C 1149.29 533.54 1199.65 430.38 1250.38 327.39z"/>
<path style="stroke:none; fill:#ffffff" d="M 1380.01 327.38C 1404.33 327.39 1428.65 327.38 1452.98 327.39C 1478.41 327.19 1503.88 327.86 1529.19 330.46C 1547.75 332.49 1566.41 335.32 1584 341.81C 1600.66 347.91 1616.5 356.4 1630.49 367.33C 1657.26 388.23 1676.89 417.64 1687.45 449.81C 1693.92 469.13 1696.94 489.44 1698 509.74L 1698 531.31C 1696.58 563.57 1688.57 595.92 1671.83 623.73C 1655.8 651.16 1632.1 674.64 1602.87 687.64C 1580.9 697.37 1556.92 701.48 1533.11 703.47C 1512.78 705.25 1492.37 704.47 1472 704.64C 1441.33 704.64 1410.67 704.64 1380 704.64C 1380 578.89 1379.99 453.14 1380.01 327.38zM 1416.5 364.39C 1416.5 465.89 1416.5 567.39 1416.5 668.89C 1450.13 668.82 1483.78 669.33 1517.35 667.07C 1538.97 665.38 1561.13 663.32 1581.12 654.25C 1613.29 640.74 1638.55 612.85 1650.12 580.07C 1658.23 557.7 1660.56 533.57 1659.35 509.92C 1658.3 490.71 1654.53 471.54 1647.07 453.77C 1638.44 433.11 1624.95 414.37 1607.54 400.23C 1595.54 390.44 1581.73 382.98 1567.18 377.77C 1548.01 370.83 1527.59 368.49 1507.4 366.73C 1477.16 364.3 1446.82 364.4 1416.5 364.39z"/>
<path style="stroke:none; fill:#ffffff" d="M 522.25 327.39C 534.91 327.38 547.58 327.39 560.25 327.39C 560.27 453.13 560.22 578.86 560.27 704.6C 547.6 704.69 534.92 704.61 522.25 704.64C 522.25 578.89 522.26 453.14 522.25 327.39z"/>
<path style="stroke:none; fill:#ffffff" d="M 651.25 764.11C 654.46 762.26 659 765.16 658.28 768.92C 658.36 773.18 651.88 774.83 649.71 771.26C 647.82 769 648.87 765.55 651.25 764.11z"/>
<path style="stroke:none; fill:#ffffff" d="M 1078.21 764.05C 1080.76 762.73 1084.25 764.14 1084.97 766.97C 1086.32 770.38 1082.59 774.17 1079.12 773.07C 1074.97 772.19 1074.41 765.79 1078.21 764.05z"/>
<path style="stroke:none; fill:#ffffff" d="M 1516.34 764.34C 1519.5 762.09 1524.47 765.01 1523.75 768.93C 1523.62 772.41 1519.18 774.4 1516.37 772.51C 1513.49 770.81 1513.46 766.03 1516.34 764.34z"/>
<path style="stroke:none; fill:#ffffff" d="M 1586.42 764.37C 1589.49 762.05 1594.55 764.95 1593.86 768.85C 1593.84 772.68 1588.56 774.68 1585.94 772C 1583.51 770.07 1583.84 766.02 1586.42 764.37z"/>
<path style="stroke:none; fill:#ffffff" d="M 673.01 765.38C 674.99 765.38 676.98 765.38 678.98 765.38C 679.02 770.8 678.98 776.22 679.01 781.64C 681.91 781.63 684.83 781.63 687.75 781.64C 687.74 783.38 687.74 785.13 687.75 786.89C 684.83 786.88 681.91 786.89 679 786.89C 679 799.89 679 812.89 679 825.89C 676.99 825.88 674.99 825.88 673 825.89C 673 812.89 673 799.89 673 786.89C 670.41 786.89 667.83 786.88 665.25 786.89C 665.24 785.13 665.24 783.38 665.25 781.64C 667.83 781.63 670.41 781.63 672.99 781.64C 673.01 776.22 672.98 770.8 673.01 765.38z"/>
<path style="stroke:none; fill:#ffffff" d="M 858.97 765.79C 867.29 762.23 876.17 767.49 880.53 774.63C 878.85 775.94 877.14 777.22 875.44 778.51C 873.1 775.65 870.7 772.34 866.92 771.43C 862.81 770.19 857.54 772.52 856.7 776.97C 855.78 780.53 857.91 784.05 860.54 786.32C 866.85 791.92 874.92 795.93 879.29 803.44C 882.5 808.78 882.13 816.04 878.14 820.88C 873.17 827.51 863.29 829.31 856.08 825.43C 851.64 823.16 848.62 818.99 846.28 814.72C 848.01 813.6 849.78 812.53 851.57 811.5C 854.14 815.84 857.52 820.77 863 821.35C 869.81 822.26 876.89 815.24 874.2 808.4C 869.75 799.16 859.2 795.41 853.02 787.66C 847.48 780.67 850.19 768.69 858.97 765.79z"/>
<path style="stroke:none; fill:#ffffff" d="M 1235.25 764.64C 1237.15 764.63 1239.07 764.63 1241 764.64C 1241 785.06 1241 805.47 1241 825.89C 1239.07 825.88 1237.15 825.88 1235.25 825.88C 1235.24 823.49 1235.23 821.09 1235.29 818.7C 1230.39 824.57 1222.59 828.03 1214.94 826.91C 1208.21 826.27 1202.08 822.15 1198.53 816.46C 1194.81 810.71 1194.1 803.33 1195.91 796.8C 1198.74 787.45 1208.03 780.15 1217.96 780.6C 1224.81 780.3 1231.31 784.04 1235.27 789.5C 1235.22 781.21 1235.26 772.93 1235.25 764.64zM 1213.25 787.02C 1203.2 789.88 1197.78 802.68 1202.94 811.83C 1206.92 820.73 1218.94 824.44 1227.17 819.12C 1235.31 814.66 1237.74 803.44 1233.55 795.47C 1229.86 788.26 1220.96 784.58 1213.25 787.02z"/>
<path style="stroke:none; fill:#ffffff" d="M 1498.5 764.64C 1500.39 764.63 1502.32 764.63 1504.25 764.64C 1504.25 785.06 1504.25 805.47 1504.25 825.89C 1502.31 825.88 1500.4 825.88 1498.49 825.88C 1498.49 823.51 1498.47 821.14 1498.52 818.78C 1493.95 824.1 1487.12 827.51 1480.03 827.09C 1473.52 826.9 1467.26 823.62 1463.27 818.5C 1458.87 813.15 1457.4 805.75 1458.69 799.02C 1460.57 788.67 1470.43 780.22 1481.06 780.6C 1487.93 780.28 1494.53 783.91 1498.51 789.42C 1498.49 781.16 1498.49 772.9 1498.5 764.64zM 1475.39 787.47C 1469.09 789.73 1464.87 796.07 1464.28 802.61C 1463.69 810.61 1469.11 818.75 1476.91 820.92C 1485.03 823.47 1494.59 818.74 1497.61 810.81C 1499.62 805.35 1499.22 798.8 1495.88 793.93C 1491.67 787.27 1482.65 784.51 1475.39 787.47z"/>
<path style="stroke:none; fill:#ffffff" d="M 522.25 766.14C 524.25 766.13 526.25 766.14 528.26 766.17C 528.23 786.08 528.26 805.98 528.25 825.89C 526.24 825.88 524.24 825.88 522.25 825.88C 522.26 805.97 522.25 786.05 522.25 766.14z"/>
<path style="stroke:none; fill:#ffffff" d="M 628.25 781.63C 628.25 776.21 628.23 770.8 628.26 765.38C 630.25 765.38 632.25 765.38 634.25 765.39C 634.25 770.8 634.25 776.22 634.25 781.64C 637.25 781.63 640.24 781.63 643.25 781.64C 643.24 783.38 643.24 785.13 643.25 786.89C 640.24 786.88 637.24 786.88 634.25 786.9C 634.25 799.89 634.25 812.89 634.25 825.89C 632.24 825.88 630.24 825.88 628.25 825.88C 628.26 812.89 628.25 799.89 628.25 786.89C 625.74 786.88 623.24 786.88 620.75 786.89C 620.74 785.13 620.74 783.38 620.75 781.64C 623.25 781.64 625.74 781.63 628.25 781.63z"/>
<path style="stroke:none; fill:#ffffff" d="M 751.25 781.64C 751.25 776.21 751.24 770.8 751.26 765.38C 753.25 765.38 755.25 765.38 757.25 765.39C 757.25 770.81 757.25 776.22 757.25 781.64C 760.25 781.63 763.24 781.63 766.25 781.64C 766.24 783.38 766.24 785.13 766.25 786.89C 763.24 786.88 760.24 786.88 757.25 786.9C 757.25 799.89 757.25 812.89 757.25 825.89C 755.24 825.88 753.24 825.88 751.25 825.88C 751.25 812.89 751.25 799.89 751.25 786.89C 748.74 786.88 746.24 786.88 743.75 786.89C 743.74 785.13 743.74 783.38 743.75 781.64C 746.25 781.63 748.74 781.63 751.25 781.64z"/>
<path style="stroke:none; fill:#ffffff" d="M 1337.35 765.67C 1339.19 766.88 1339.54 769.24 1340.59 771.05C 1347.92 785.55 1355 800.18 1362.28 814.71C 1369.57 800.15 1376.59 785.45 1383.87 770.88C 1384.83 769.08 1385.27 766.86 1387.09 765.67C 1390.32 785.66 1392.87 805.77 1395.91 825.79C 1393.87 825.87 1391.83 825.89 1389.82 825.9C 1387.78 811.95 1386.03 797.96 1383.94 784.02C 1376.84 797.9 1370.24 812.04 1363.06 825.87C 1362.65 825.87 1361.82 825.87 1361.41 825.87C 1354.13 811.86 1347.48 797.53 1340.23 783.51C 1338.46 797.63 1336.37 811.71 1334.56 825.82C 1332.51 825.88 1330.46 825.89 1328.44 825.9C 1331.54 805.85 1333.96 785.68 1337.35 765.67z"/>
<path style="stroke:none; fill:#ffffff" d="M 546.72 789.12C 550.74 784.24 556.48 780.22 563.09 780.6C 570.72 780.19 577.76 786.28 578.74 793.8C 580.18 804.43 579.22 815.19 579.51 825.88C 577.5 825.88 575.49 825.88 573.49 825.88C 573.4 816.62 573.72 807.34 573.32 798.09C 573.21 793.21 570.74 787.66 565.56 786.49C 556.99 784.06 548.03 791.18 547.19 799.73C 546.3 808.41 546.94 817.17 546.75 825.88C 544.75 825.88 542.74 825.88 540.75 825.89C 540.75 811.14 540.75 796.39 540.75 781.64C 542.74 781.63 544.74 781.63 546.75 781.64C 546.75 784.13 546.75 786.62 546.72 789.12z"/>
<path style="stroke:none; fill:#ffffff" d="M 592.32 784.15C 595.75 780.42 601.53 779.76 606.12 781.46C 609.1 782.5 611.49 784.64 613.87 786.63C 612.55 787.95 611.23 789.27 609.91 790.59C 607.67 788.58 605.12 786.64 602.07 786.19C 598.27 785.5 593.9 788.78 594.52 792.85C 595.13 796.57 598.85 798.42 601.81 800.11C 606.14 802.45 611.27 804.87 613.01 809.86C 615.22 815.76 612.32 822.9 606.66 825.65C 600.03 828.87 591.3 826.54 587.02 820.56C 588.26 819.25 589.48 817.92 590.66 816.55C 593.31 818.85 596.21 821.6 600 821.42C 604.4 821.63 608.91 817.47 607.93 812.9C 607.34 809.96 604.64 808.26 602.22 806.9C 598.42 804.76 594.16 803.01 591.38 799.5C 588.05 795.05 588.25 788.07 592.32 784.15z"/>
<path style="stroke:none; fill:#ffffff" d="M 788.42 781.53C 796.44 779.23 805.86 780.99 811.71 787.19C 820.12 795.38 820.81 810.03 813.14 818.92C 806.58 827.43 793.75 829.33 784.42 824.55C 775.8 820.02 770.88 809.64 772.59 800.1C 773.82 791.61 780.15 783.98 788.42 781.53zM 789.37 787.49C 783.24 790 778.7 796.13 778.33 802.78C 777.36 812.55 785.98 822.22 796.01 821.41C 806.25 821.47 814.33 810.77 812.18 800.92C 810.76 790.75 799.07 783.28 789.37 787.49z"/>
<path style="stroke:none; fill:#ffffff" d="M 949.2 789.16C 953.27 784.09 959.33 780.4 965.99 780.6C 976.34 780.01 986.1 787.81 988.57 797.73C 990.13 804.26 989.19 811.58 985.27 817.14C 981.63 822.58 975.57 826.39 969.01 826.95C 961.53 827.93 954 824.55 949.18 818.88C 949.33 826.55 949.21 834.22 949.25 841.89L 943.25 841.89C 943.25 821.81 943.25 801.72 943.25 781.64C 945.24 781.63 947.24 781.63 949.25 781.64C 949.25 784.14 949.24 786.65 949.2 789.16zM 959.49 787.52C 952.01 790.52 947.46 798.98 948.93 806.9C 949.94 816.69 960.77 823.72 970.14 821.05C 978.39 819.04 984.11 810.34 983.18 801.99C 982.55 796.72 979.57 791.66 975 788.89C 970.47 785.93 964.47 785.57 959.49 787.52z"/>
<path style="stroke:none; fill:#ffffff" d="M 1004.18 787.06C 1010.3 780.35 1020.67 779.1 1028.93 782.09C 1037.84 785.44 1043.58 794.99 1043.02 804.4C 1029.8 804.42 1016.58 804.33 1003.36 804.44C 1003.77 809.79 1005.92 815.22 1010.38 818.45C 1015.96 822.73 1024.09 822.44 1029.89 818.73C 1032.95 816.97 1034.85 813.87 1036.74 810.99C 1038.41 811.89 1040.09 812.8 1041.79 813.7C 1039.04 819.08 1034.65 823.83 1028.79 825.77C 1019.86 828.72 1008.56 826.97 1002.72 819.04C 995.15 809.99 995.82 795.39 1004.18 787.06zM 1014.4 787.28C 1009.11 789.04 1005.6 793.91 1004.16 799.13C 1014.96 799.15 1025.77 799.15 1036.58 799.13C 1034.8 789.39 1023.4 783.75 1014.4 787.28z"/>
<path style="stroke:none; fill:#ffffff" d="M 1057.26 787.76C 1059.66 784.5 1062.79 781.28 1066.99 780.68C 1069.38 780.26 1071.7 781.11 1073.88 782.02C 1072.88 783.69 1071.87 785.36 1070.88 787.05C 1068.31 786.06 1065.35 786.15 1063.17 787.94C 1058.95 791.18 1057.69 796.79 1057.54 801.84C 1056.99 809.84 1057.35 817.87 1057.25 825.89C 1055.24 825.88 1053.24 825.88 1051.25 825.88C 1051.26 811.14 1051.25 796.39 1051.25 781.64C 1053.24 781.63 1055.23 781.63 1057.24 781.64C 1057.24 783.67 1057.24 785.71 1057.26 787.76z"/>
<path style="stroke:none; fill:#ffffff" d="M 1108.57 781.61C 1115.88 779.48 1124.48 780.51 1130.36 785.63C 1135.72 790.04 1139.07 796.89 1138.78 803.87C 1139.15 811.87 1134.62 819.61 1127.95 823.85C 1122.49 827.24 1115.63 827.79 1109.48 826.33C 1099.59 823.93 1092.45 813.95 1092.71 803.89C 1092.45 794.07 1099.18 784.54 1108.57 781.61zM 1111.17 787.04C 1105.3 788.76 1100.56 793.89 1099.2 799.84C 1096.82 808.81 1102.69 819.24 1111.99 821.02C 1122.01 823.68 1132.74 815.34 1132.77 805.02C 1133.97 793.82 1122.13 783.35 1111.17 787.04z"/>
<path style="stroke:none; fill:#ffffff" d="M 1152.98 787.66C 1156.41 782.29 1163.49 778.33 1169.57 782.04C 1168.52 783.71 1167.49 785.39 1166.48 787.09C 1162.54 785.13 1158.05 787.53 1156.01 791.04C 1153.24 795.47 1153.2 800.87 1153 805.92C 1152.98 812.58 1153 819.23 1153 825.89C 1150.99 825.88 1148.99 825.88 1147 825.89C 1147 811.14 1147 796.39 1147 781.64C 1148.99 781.63 1150.99 781.63 1153 781.64C 1152.99 783.64 1152.98 785.65 1152.98 787.66z"/>
<path style="stroke:none; fill:#ffffff" d="M 1259.17 786.08C 1265.18 780.35 1274.47 779.39 1282.15 781.8C 1291.46 784.89 1297.6 794.7 1297.02 804.4C 1283.8 804.42 1270.58 804.33 1257.36 804.44C 1257.79 809.55 1259.68 814.79 1263.85 818.04C 1269.78 823.03 1278.98 822.51 1285.01 817.96C 1287.48 816.16 1289.06 813.48 1290.74 810.99C 1292.41 811.89 1294.1 812.8 1295.8 813.7C 1293 819.04 1288.67 823.83 1282.81 825.77C 1273.89 828.71 1262.59 827 1256.75 819.07C 1248.8 809.66 1249.92 794.23 1259.17 786.08zM 1268.5 787.25C 1263.12 788.94 1259.61 793.89 1258.16 799.13C 1268.96 799.15 1279.77 799.15 1290.58 799.13C 1288.77 789.44 1277.51 783.78 1268.5 787.25z"/>
<path style="stroke:none; fill:#ffffff" d="M 1413.7 784.61C 1420.03 780.02 1428.73 779.49 1435.94 782.17C 1444.7 785.61 1450.36 795.06 1449.77 804.39C 1436.57 804.4 1423.37 804.37 1410.17 804.41C 1410.52 809.61 1412.56 814.91 1416.78 818.18C 1422.38 822.76 1430.79 822.51 1436.73 818.69C 1439.79 816.94 1441.56 813.79 1443.53 811C 1445.17 811.88 1446.85 812.79 1448.53 813.68C 1445.74 819.45 1440.78 824.36 1434.5 826.1C 1427.6 827.99 1419.67 827.32 1413.69 823.18C 1407.51 818.47 1403.77 810.65 1404.24 802.86C 1404.42 795.75 1408.06 788.9 1413.7 784.61zM 1410.9 799.13C 1421.73 799.14 1432.56 799.16 1443.39 799.12C 1441.61 790.1 1431.73 784.43 1422.99 786.73C 1416.87 787.99 1412.49 793.29 1410.9 799.13z"/>
<path style="stroke:none; fill:#ffffff" d="M 1537.86 787.88C 1548.03 777.23 1568.6 778.08 1576.52 790.99C 1574.93 791.99 1573.34 792.98 1571.77 793.97C 1565.02 784.3 1549.17 783.38 1541.58 792.47C 1535.52 799.06 1536.24 810.16 1542.56 816.33C 1550.47 824.3 1565.2 823 1571.66 813.82C 1573.3 814.82 1574.93 815.85 1576.56 816.93C 1567.69 830.14 1545.56 830.61 1536 817.96C 1529.09 809.31 1530.13 795.68 1537.86 787.88z"/>
<path style="stroke:none; fill:#ffffff" d="M 1618.13 782.12C 1624.42 779.38 1632.71 780.11 1637.46 785.45C 1641.77 789.73 1641.97 796.19 1642.23 801.89C 1642.29 809.88 1642.23 817.89 1642.25 825.89C 1640.23 825.88 1638.23 825.88 1636.25 825.88C 1636.25 817.86 1636.24 809.85 1636.26 801.83C 1636.19 797.47 1635.94 792.68 1632.98 789.21C 1629.98 786.01 1625.13 785.54 1621.08 786.53C 1614.77 788.31 1610.03 794.44 1609.81 800.98C 1609.16 809.26 1609.64 817.58 1609.51 825.88C 1607.48 825.88 1605.48 825.88 1603.49 825.88C 1603.51 811.13 1603.48 796.38 1603.51 781.64C 1605.48 781.63 1607.48 781.63 1609.5 781.64C 1609.5 784.15 1609.5 786.67 1609.42 789.2C 1611.94 786.42 1614.59 783.59 1618.13 782.12z"/>
<path style="stroke:none; fill:#ffffff" d="M 1657.11 789.12C 1661.55 783.44 1668.77 780.08 1676.01 780.61C 1682.46 780.63 1688.38 784.26 1692.26 789.27C 1692.23 786.72 1692.23 784.18 1692.26 781.64C 1694.14 781.63 1696.07 781.63 1698 781.64L 1698 825.89C 1696.06 825.88 1694.15 825.88 1692.25 825.88C 1692.24 823.52 1692.22 821.15 1692.26 818.8C 1687.56 824.38 1680.31 827.79 1672.96 827.02C 1664.35 826.56 1656.68 820.36 1653.6 812.46C 1650.7 804.77 1651.79 795.5 1657.11 789.12zM 1669.37 787.39C 1663.88 789.41 1659.73 794.36 1658.51 800.06C 1656.37 808.57 1661.82 818.09 1670.15 820.74C 1677.98 823.47 1687.51 819.41 1690.96 811.87C 1694.31 804.77 1692.65 795.51 1686.58 790.4C 1681.99 786.28 1675.07 785.26 1669.37 787.39z"/>
<path style="stroke:none; fill:#ffffff" d="M 650.47 825.84C 650.54 811.11 650.47 796.37 650.5 781.64C 652.49 781.63 654.49 781.63 656.5 781.64C 656.51 796.39 656.49 811.14 656.51 825.89C 654.49 825.89 652.47 825.88 650.47 825.84z"/>
<path style="stroke:none; fill:#ffffff" d="M 695.25 781.64C 697.24 781.63 699.24 781.63 701.25 781.64C 701.27 789.42 701.21 797.2 701.27 804.98C 701.49 808.75 701.4 812.88 703.75 816.07C 708.63 822.96 720.35 823.15 725.45 816.41C 727.79 813.44 727.94 809.5 728.01 805.9C 727.99 797.81 728 789.72 728 781.64C 729.99 781.63 731.99 781.63 734 781.64C 733.96 790.47 734.08 799.31 733.94 808.14C 733.78 814.62 731.12 821.65 725.04 824.73C 715.51 829.77 700.56 827.09 696.95 815.81C 694.06 804.69 695.69 793.01 695.25 781.64z"/>
<path style="stroke:none; fill:#ffffff" d="M 892 781.64C 893.99 781.63 895.99 781.63 898 781.64C 898.02 789.72 897.96 797.81 898.02 805.89C 898.11 810.12 898.57 814.91 902.04 817.84C 908.73 824.36 922.53 821.51 924.23 811.73C 925.34 801.75 924.47 791.66 924.75 781.64C 926.74 781.63 928.74 781.63 930.75 781.64C 930.67 790.64 930.89 799.65 930.64 808.65C 930.37 815.19 927.44 822.17 921.2 825.06C 913.48 828.5 903.14 827.93 897.06 821.58C 892.67 816.83 892.24 810.05 892.03 803.92C 891.95 796.49 892.02 789.06 892 781.64z"/>
<path style="stroke:none; fill:#ffffff" d="M 1077.49 825.88C 1077.51 811.13 1077.48 796.38 1077.51 781.64C 1079.4 781.63 1081.32 781.63 1083.25 781.64C 1083.25 796.39 1083.25 811.14 1083.25 825.89C 1081.32 825.88 1079.4 825.88 1077.49 825.88z"/>
<path style="stroke:none; fill:#ffffff" d="M 1516 781.64C 1517.98 781.63 1519.98 781.63 1522 781.64C 1522 796.39 1522 811.14 1522 825.89C 1519.98 825.88 1517.98 825.88 1516 825.89C 1516 811.14 1515.99 796.39 1516 781.64z"/>
<path style="stroke:none; fill:#ffffff" d="M 1586.25 781.64C 1588.15 781.63 1590.06 781.63 1592 781.64C 1592 796.39 1592 811.14 1592 825.89C 1590.06 825.88 1588.15 825.88 1586.25 825.88C 1586.25 811.14 1586.25 796.39 1586.25 781.64z"/>
</g>
</g>
</svg>