<?xml version="1.0" encoding="utf-8"?>
<!-- Generator: Adobe Illustrator 16.0.0, SVG Export Plug-In . SVG Version: 6.00 Build 0)  -->
<!DOCTYPE svg PUBLIC "-//W3C//DTD SVG 1.1//EN" "http://www.w3.org/Graphics/SVG/1.1/DTD/svg11.dtd">
<svg version="1.1" id="Layer_1" xmlns="http://www.w3.org/2000/svg" xmlns:xlink="http://www.w3.org/1999/xlink" x="0px" y="0px"
	 width="100px" height="100px" viewBox="0 0 100 100" enable-background="new 0 0 100 100" xml:space="preserve">
<g>
	<g>
		<path fill="#FFFFFF" d="M27.392,10.718c6.03-0.001,12.06-0.001,18.09,0c0.001,5.859,0.001,11.716,0,17.574
			c-6.03,0.001-12.06,0.001-18.09,0C27.391,22.435,27.391,16.576,27.392,10.718z"/>
	</g>
	<g>
		<path fill="#FFFFFF" d="M50.446,10.718c5.97-0.001,11.94-0.001,17.911,0c0,5.917,0,11.835,0,17.753
			c-5.971,0.002-11.941,0.002-17.912,0C50.446,22.554,50.445,16.637,50.446,10.718z"/>
	</g>
	<g>
		<path fill="#FFFFFF" d="M50.489,31.406c4.195-0.045,8.39-0.049,12.586-0.1c2.156-0.021,4.312-0.031,6.469-0.043
			c4.392,4.335,8.772,8.679,13.157,13.019c2.459,2.445,4.939,4.87,7.391,7.322c-9.176-0.032-18.352-0.105-27.528-0.142
			c-0.183-0.017-0.386,0.041-0.556-0.03C58.165,44.759,54.33,38.081,50.489,31.406z"/>
	</g>
	<g>
		<path fill="#FFFFFF" d="M25.682,32.287c0.317-0.286,0.599-0.623,0.943-0.871c6.257,0.002,12.514,0.034,18.771,0.041
			c-3.817,6.751-7.642,13.498-11.458,20.249c-9.454,0.001-18.908,0.005-28.362-0.002C12.267,45.22,18.983,38.763,25.682,32.287z"/>
	</g>
	<g>
		<path fill="#FFFFFF" d="M2.489,54.406c1.716-0.001,3.432-0.001,5.148,0c0,7.454-0.001,14.905,0,22.358
			c-1.717,0.002-3.433,0.001-5.149,0C2.489,69.312,2.488,61.86,2.489,54.406z"/>
		<path fill="#FFFFFF" d="M10.209,54.365c6.132-0.001,12.264,0.001,18.395-0.001c0.005,1.453,0,2.906,0.002,4.358
			c-2.206,0.004-4.412,0-6.618,0.002c-0.001,5.999,0,11.999-0.001,17.998c-1.714,0.001-3.43-0.001-5.145,0.001
			c-0.004-6,0-11.999-0.002-17.999c-2.211-0.001-4.421,0-6.632-0.001C10.208,57.271,10.208,55.818,10.209,54.365z"/>
		<g>
			<path fill="#FFFFFF" d="M34.177,54.409c2.043-0.003,4.086,0.004,6.13-0.003c2.476,7.45,4.932,14.906,7.399,22.359
				c-1.724,0.001-3.448,0.001-5.172,0c-0.418-1.35-0.843-2.698-1.252-4.05c-2.685-0.013-5.37-0.003-8.055-0.004
				c-0.415,1.349-0.854,2.689-1.256,4.043c-1.729,0.03-3.458,0.005-5.188,0.012C29.247,69.313,31.712,61.861,34.177,54.409z
				 M37.25,59.658c-0.912,2.967-1.828,5.934-2.738,8.903c1.821-0.002,3.644,0.001,5.466-0.002
				C39.068,65.592,38.161,62.624,37.25,59.658z"/>
		</g>
		<path fill="#FFFFFF" d="M50.311,54.406c1.716-0.001,3.433-0.001,5.148,0c0,7.454,0,14.905,0,22.358
			c-1.716,0.002-3.433,0.001-5.149,0C50.311,69.312,50.311,61.86,50.311,54.406z"/>
		<g>
			<path fill="#FFFFFF" d="M60.497,54.409c2.701-0.001,5.402,0,8.104,0c1.511-0.023,3.059,0.119,4.461,0.72
				c1.244,0.524,2.325,1.454,2.974,2.643c0.71,1.284,0.925,2.783,0.888,4.233c-0.034,1.377-0.331,2.785-1.082,3.959
				c-0.692,1.093-1.761,1.921-2.961,2.39c-1.274,0.505-2.659,0.654-4.021,0.644c-1.07,0-2.142,0-3.212,0.001
				c0,2.589,0,5.178,0,7.767c-1.716,0.002-3.433,0.001-5.149,0C60.497,69.313,60.497,61.861,60.497,54.409z M65.646,58.589
				c0,2.076,0,4.153,0,6.229c0.987,0.001,1.975,0.004,2.962-0.002c0.825-0.008,1.695-0.256,2.264-0.884
				c0.627-0.673,0.792-1.644,0.739-2.533c-0.037-0.755-0.293-1.535-0.863-2.056c-0.569-0.537-1.372-0.741-2.136-0.753
				C67.623,58.584,66.634,58.586,65.646,58.589z"/>
		</g>
		<path fill="#FFFFFF" d="M80.61,54.409c1.716,0,3.433-0.001,5.149,0c-0.001,4.516-0.002,9.032,0,13.547
			c0.018,1.114,0.091,2.261,0.528,3.301c0.294,0.721,0.913,1.304,1.665,1.524c0.8,0.237,1.672,0.235,2.476,0.012
			c0.758-0.208,1.392-0.781,1.696-1.503c0.45-1.046,0.523-2.204,0.543-3.328c0.003-4.518,0-9.036,0.002-13.553
			c1.716-0.001,3.431,0,5.146,0c0,4.459,0.001,8.919,0,13.378c-0.006,1.82-0.214,3.687-0.984,5.355
			c-0.542,1.185-1.427,2.221-2.557,2.881c-1.511,0.896-3.306,1.168-5.041,1.173c-1.739,0.001-3.54-0.265-5.06-1.159
			c-1.13-0.656-2.02-1.684-2.567-2.866c-0.768-1.648-0.985-3.492-0.996-5.292C80.609,63.39,80.61,58.898,80.61,54.409z"/>
		<path fill="#FFFFFF" d="M41.047,80.027c1.116-0.887,2.597-1.156,3.992-1.092c0.942,0.046,1.872,0.299,2.709,0.735
			c-0.001,0.687,0,1.375-0.001,2.063c-0.801-0.546-1.739-0.92-2.718-0.935c-0.813-0.04-1.677,0.19-2.25,0.795
			c-0.67,0.677-0.887,1.669-0.867,2.595c0.002,0.912,0.266,1.882,0.959,2.516c0.614,0.586,1.507,0.765,2.332,0.697
			c0.918-0.048,1.789-0.415,2.543-0.927c0.001,0.688,0,1.375,0.001,2.063c-1.497,0.791-3.29,0.933-4.919,0.519
			c-1.261-0.326-2.401-1.167-3.002-2.333c-0.578-1.114-0.678-2.421-0.506-3.648C39.484,81.889,40.087,80.756,41.047,80.027z"/>
		<g>
			<path fill="#FFFFFF" d="M58.63,78.987c1.534-0.186,3.231,0.028,4.445,1.062c1.064,0.878,1.577,2.266,1.631,3.617
				c0.087,1.471-0.228,3.063-1.278,4.158c-0.979,1.067-2.477,1.481-3.888,1.456c-1.406,0.013-2.889-0.426-3.851-1.5
				c-1.039-1.114-1.333-2.716-1.233-4.191c0.067-1.229,0.503-2.479,1.411-3.339C56.606,79.521,57.611,79.113,58.63,78.987z
				 M58.971,80.861c-0.563,0.122-1.051,0.498-1.345,0.989c-0.44,0.723-0.535,1.596-0.52,2.425c0.02,0.799,0.169,1.639,0.663,2.29
				c0.846,1.157,2.845,1.136,3.66-0.045c0.551-0.768,0.655-1.754,0.628-2.673c-0.031-0.867-0.231-1.797-0.863-2.434
				C60.627,80.831,59.739,80.692,58.971,80.861z"/>
		</g>
		<g>
			<path fill="#FFFFFF" d="M2.184,79.098c1.423,0.003,2.843-0.011,4.264,0.007c0.921,0.041,1.906,0.132,2.686,0.671
				c0.801,0.572,0.998,1.682,0.795,2.594c-0.138,0.644-0.64,1.149-1.24,1.387c0.501,0.16,0.973,0.455,1.271,0.898
				c0.478,0.687,0.539,1.587,0.363,2.386c-0.139,0.641-0.565,1.207-1.142,1.518c-0.803,0.444-1.744,0.536-2.647,0.55
				c-1.449,0.002-2.899,0-4.349,0C2.183,85.772,2.183,82.435,2.184,79.098z M4.761,80.852c0,0.709,0.001,1.417,0,2.126
				c0.672-0.031,1.364,0.086,2.022-0.088c0.868-0.25,0.857-1.714-0.015-1.953C6.115,80.771,5.429,80.884,4.761,80.852z
				 M4.761,84.737c0,0.872,0,1.745,0,2.618c0.583-0.004,1.168,0.011,1.751-0.008c0.472-0.024,1.003-0.215,1.202-0.681
				c0.264-0.617,0.129-1.526-0.57-1.784C6.38,84.617,5.554,84.781,4.761,84.737z"/>
		</g>
		<path fill="#FFFFFF" d="M12.63,79.108c0.858,0,1.717,0,2.576,0c0.001,3.334,0,6.668,0,10.001c-0.86,0-1.719,0-2.578,0
			C12.629,85.776,12.628,82.442,12.63,79.108z"/>
		<path fill="#FFFFFF" d="M17.723,79.108c0.958,0,1.917,0,2.876,0c1.215,2.282,2.418,4.569,3.635,6.851
			c0.005-2.283,0-4.567,0.002-6.851c0.814,0,1.629,0,2.443,0c0.002,3.334,0.001,6.668,0.001,10.001c-0.96,0-1.92,0-2.88,0
			c-1.213-2.283-2.418-4.57-3.634-6.852c-0.003,2.284,0,4.567-0.001,6.852c-0.814,0-1.629,0-2.443,0
			C17.723,85.776,17.72,82.442,17.723,79.108z"/>
		<g>
			<path fill="#FFFFFF" d="M28.013,89.109c1.235-3.338,2.464-6.68,3.706-10.016c1.022,0.006,2.045,0.001,3.066,0.003
				c1.236,3.337,2.47,6.674,3.703,10.013c-0.863,0.001-1.727,0-2.59,0c-0.212-0.603-0.419-1.209-0.631-1.813
				c-1.342,0-2.685,0-4.029,0c-0.213,0.604-0.424,1.208-0.635,1.813C29.739,89.111,28.876,89.11,28.013,89.109z M31.882,85.44
				c0.912,0.001,1.824,0.001,2.736,0c-0.453-1.331-0.911-2.659-1.364-3.989C32.793,82.78,32.339,84.11,31.882,85.44z"/>
		</g>
		<path fill="#FFFFFF" d="M49.921,79.108c0.858,0,1.717,0,2.575,0c0.002,3.334,0,6.667,0.002,10.001c-0.86,0-1.719,0-2.578,0
			C49.92,85.776,49.92,82.442,49.921,79.108z"/>
		<path fill="#FFFFFF" d="M66.667,79.108c0.958,0,1.918,0,2.877,0c1.215,2.281,2.417,4.57,3.634,6.85
			c0.007-2.283,0-4.566,0.003-6.849c0.814,0,1.629,0,2.443,0c0.001,3.334,0,6.667,0,10.001c-0.96,0.001-1.919,0-2.879,0
			c-1.214-2.283-2.419-4.571-3.634-6.852c-0.004,2.283-0.001,4.567-0.002,6.852c-0.814,0.001-1.629,0-2.444,0
			C66.667,85.776,66.665,82.442,66.667,79.108z"/>
		<g>
			<path fill="#FFFFFF" d="M80.647,79.106c1.026-0.025,2.052,0,3.079-0.013c1.243,3.336,2.471,6.677,3.707,10.016
				c-0.863,0.001-1.726,0-2.589,0c-0.212-0.604-0.419-1.209-0.631-1.813c-1.343,0-2.686,0-4.029,0
				c-0.214,0.604-0.424,1.208-0.636,1.813c-0.863,0.001-1.726,0-2.59,0C78.184,85.773,79.43,82.445,80.647,79.106z M80.827,85.44
				c0.912,0.001,1.824,0.001,2.736-0.001c-0.453-1.33-0.912-2.658-1.363-3.989C81.738,82.779,81.284,84.11,80.827,85.44z"/>
		</g>
		<path fill="#FFFFFF" d="M88.765,79.097c0.859-0.001,1.718-0.001,2.577,0.001c0.002,2.687-0.002,5.375,0.002,8.063
			c1.507,0,3.015,0,4.523,0c0.002,0.649,0.001,1.298,0.002,1.949c-2.368,0.001-4.737,0-7.104,0
			C88.764,85.772,88.764,82.435,88.765,79.097z"/>
	</g>
</g>
</svg>
