<?xml version="1.0" encoding="UTF-8" standalone="yes"?>
<!-- Created with sK1/UniConvertor (http://sk1project.org/) -->
<svg xmlns="http://www.w3.org/2000/svg" xmlns:xlink="http://www.w3.org/1999/xlink"
  width="595.276pt" height="841.89pt" viewBox="0 0 595.276 841.89"
  fill-rule="evenodd">
<g>
<path style="stroke:none; fill:#da231d" d="M 310.6 -154.24C 380.46 -154.25 450.31 -154.25 520.17 -154.24C 520.18 -86.3702 520.18 -18.5103 520.17 49.3498C 450.31 49.3597 380.46 49.3597 310.6 49.3498C 310.59 -18.5103 310.59 -86.3802 310.6 -154.24z"/>
<path style="stroke:none; fill:#fff500" d="M 577.67 -154.24C 646.83 -154.25 715.99 -154.25 785.15 -154.24C 785.16 -85.6902 785.15 -17.1302 785.16 51.4198C 715.99 51.4498 646.83 51.4498 577.66 51.4198C 577.67 -17.1302 577.66 -85.6802 577.67 -154.24z"/>
<path style="stroke:none; fill:#00923d" d="M 578.17 85.4198C 626.77 84.8898 675.37 84.8398 723.97 84.2598C 748.95 84.0098 773.93 83.8998 798.91 83.7498C 849.78 133.97 900.53 184.29 951.33 234.57C 979.83 262.9 1008.55 290.99 1036.95 319.4C 930.65 319.03 824.35 318.18 718.05 317.75C 715.93 317.56 713.58 318.22 711.62 317.4C 667.09 240.11 622.66 162.74 578.17 85.4198z"/>
<path style="stroke:none; fill:#007ac3" d="M 290.79 95.6198C 294.46 92.3098 297.73 88.4098 301.72 85.5298C 374.2 85.5598 446.68 85.9297 519.16 86.0098C 474.95 164.22 430.64 242.37 386.43 320.58C 276.91 320.6 167.39 320.64 57.87 320.56C 135.38 245.45 213.19 170.64 290.79 95.6198z"/>
<g>
<path style="stroke:none; fill:#131314" d="M 22.11 351.87C 41.99 351.85 61.87 351.85 81.75 351.87C 81.76 438.21 81.74 524.54 81.76 610.88C 61.87 610.9 41.99 610.89 22.11 610.88C 22.11 524.54 22.1 438.21 22.11 351.87z"/>
<path style="stroke:none; fill:#131314" d="M 111.55 351.39C 182.58 351.38 253.61 351.4 324.64 351.38C 324.69 368.21 324.64 385.04 324.66 401.87C 299.11 401.91 273.56 401.87 248 401.89C 247.99 471.39 248.01 540.89 247.99 610.39C 228.13 610.4 208.26 610.38 188.39 610.4C 188.34 540.9 188.39 471.4 188.37 401.9C 162.76 401.88 137.16 401.9 111.55 401.88C 111.54 385.05 111.54 368.22 111.55 351.39z"/>
<path style="stroke:none; fill:#131314" d="M 389.2 351.9C 412.87 351.85 436.54 351.94 460.21 351.85C 488.89 438.16 517.34 524.54 545.93 610.88C 525.96 610.89 505.98 610.89 486.01 610.88C 481.17 595.24 476.25 579.62 471.5 563.95C 440.4 563.81 409.29 563.92 378.19 563.9C 373.39 579.53 368.29 595.06 363.64 610.74C 343.62 611.09 323.58 610.8 303.55 610.88C 332.09 524.55 360.65 438.23 389.2 351.9zM 424.8 412.7C 414.23 447.08 403.62 481.45 393.08 515.84C 414.18 515.81 435.29 515.85 456.4 515.82C 445.87 481.45 435.36 447.06 424.8 412.7z"/>
<path style="stroke:none; fill:#131314" d="M 576.11 351.87C 595.99 351.85 615.87 351.85 635.75 351.87C 635.76 438.21 635.75 524.54 635.76 610.88C 615.87 610.9 595.99 610.89 576.11 610.88C 576.11 524.54 576.1 438.21 576.11 351.87z"/>
<path style="stroke:none; fill:#131314" d="M 694.11 351.9C 725.4 351.88 756.69 351.9 787.98 351.89C 805.48 351.62 823.42 353.26 839.66 360.23C 854.07 366.3 866.59 377.06 874.11 390.84C 882.34 405.71 884.82 423.08 884.39 439.88C 884 455.84 880.56 472.15 871.85 485.74C 863.84 498.41 851.46 508 837.56 513.43C 822.8 519.28 806.75 521.01 790.97 520.89C 778.57 520.89 766.16 520.88 753.76 520.9C 753.75 550.89 753.75 580.88 753.76 610.88C 733.87 610.9 713.99 610.89 694.11 610.88C 694.11 524.55 694.11 438.23 694.11 351.9zM 753.75 400.32C 753.76 424.37 753.75 448.43 753.75 472.48C 765.19 472.5 776.62 472.53 788.06 472.46C 797.61 472.37 807.7 469.49 814.29 462.22C 821.56 454.42 823.46 443.17 822.85 432.87C 822.42 424.12 819.46 415.09 812.85 409.06C 806.25 402.84 796.96 400.47 788.1 400.34C 776.65 400.26 765.2 400.29 753.75 400.32z"/>
<path style="stroke:none; fill:#131314" d="M 927.11 351.9C 946.99 351.89 966.87 351.88 986.76 351.9C 986.75 404.21 986.74 456.52 986.76 508.83C 986.97 521.73 987.82 535.03 992.88 547.07C 996.29 555.43 1003.46 562.18 1012.17 564.73C 1021.44 567.47 1031.54 567.46 1040.85 564.87C 1049.63 562.45 1056.97 555.81 1060.5 547.45C 1065.71 535.34 1066.57 521.92 1066.8 508.9C 1066.84 456.57 1066.8 404.23 1066.82 351.9C 1086.69 351.88 1106.56 351.89 1126.43 351.9C 1126.44 403.56 1126.45 455.22 1126.43 506.88C 1126.36 527.96 1123.96 549.58 1115.03 568.91C 1108.76 582.64 1098.5 594.64 1085.41 602.28C 1067.9 612.67 1047.11 615.82 1027.02 615.88C 1006.87 615.89 986.01 612.8 968.4 602.45C 955.3 594.86 944.99 582.94 938.66 569.25C 929.76 550.16 927.25 528.8 927.12 507.95C 927.09 455.93 927.11 403.91 927.11 351.9z"/>
<path style="stroke:none; fill:#131314" d="M 468.79 648.67C 481.72 638.39 498.87 635.28 515.03 636.02C 525.94 636.55 536.72 639.48 546.41 644.53C 546.39 652.49 546.42 660.46 546.4 668.43C 537.12 662.1 526.25 657.77 514.91 657.6C 505.5 657.13 495.49 659.8 488.86 666.81C 481.1 674.65 478.58 686.15 478.81 696.86C 478.83 707.43 481.89 718.67 489.92 726.01C 497.04 732.8 507.39 734.86 516.94 734.08C 527.57 733.53 537.66 729.28 546.4 723.35C 546.42 731.32 546.39 739.28 546.41 747.25C 529.07 756.41 508.3 758.06 489.42 753.26C 474.81 749.49 461.6 739.74 454.64 726.23C 447.95 713.32 446.8 698.18 448.78 683.97C 450.68 670.24 457.67 657.11 468.79 648.67z"/>
<path style="stroke:none; fill:#131314" d="M 672.48 636.62C 690.24 634.47 709.91 636.95 723.97 648.92C 736.3 659.1 742.24 675.17 742.87 690.82C 743.88 707.86 740.23 726.31 728.07 738.98C 716.72 751.34 699.38 756.14 683.03 755.85C 666.74 756 649.56 750.91 638.42 738.46C 626.38 725.56 622.97 707 624.13 689.91C 624.91 675.68 629.97 661.19 640.48 651.23C 649.03 642.8 660.67 638.08 672.48 636.62zM 676.43 658.33C 669.91 659.74 664.25 664.09 660.84 669.78C 655.74 678.16 654.64 688.27 654.82 697.88C 655.05 707.14 656.78 716.86 662.5 724.4C 672.3 737.8 695.46 737.56 704.9 723.88C 711.29 714.98 712.49 703.55 712.17 692.91C 711.82 682.86 709.49 672.09 702.17 664.71C 695.61 657.98 685.32 656.37 676.43 658.33z"/>
<path style="stroke:none; fill:#131314" d="M 18.58 637.9C 35.05 637.94 51.51 637.78 67.97 637.98C 78.64 638.46 90.05 639.51 99.08 645.76C 108.37 652.39 110.64 665.24 108.3 675.81C 106.71 683.26 100.88 689.12 93.93 691.88C 99.74 693.73 105.2 697.15 108.65 702.28C 114.19 710.24 114.89 720.67 112.85 729.93C 111.24 737.35 106.31 743.91 99.63 747.52C 90.32 752.66 79.42 753.72 68.96 753.88C 52.17 753.91 35.38 753.89 18.58 753.88C 18.57 715.22 18.57 676.56 18.58 637.9zM 48.44 658.23C 48.43 666.44 48.45 674.65 48.43 682.86C 56.21 682.5 64.24 683.86 71.86 681.84C 81.92 678.94 81.79 661.99 71.69 659.22C 64.12 657.28 56.17 658.6 48.44 658.23zM 48.44 703.23C 48.43 713.33 48.44 723.44 48.44 733.55C 55.2 733.51 61.97 733.68 68.73 733.46C 74.19 733.18 80.35 730.97 82.65 725.57C 85.7 718.43 84.14 707.9 76.04 704.91C 67.19 701.84 57.61 703.74 48.44 703.23z"/>
<path style="stroke:none; fill:#131314" d="M 139.59 638.03C 149.53 638.02 159.48 638.02 169.43 638.03C 169.45 676.65 169.44 715.27 169.44 753.88C 159.48 753.89 149.53 753.89 139.58 753.88C 139.58 715.27 139.56 676.65 139.59 638.03z"/>
<path style="stroke:none; fill:#131314" d="M 198.59 638.03C 209.7 638.02 220.8 638.03 231.91 638.03C 245.99 664.46 259.93 690.96 274.02 717.39C 274.08 690.94 274.02 664.48 274.05 638.03C 283.48 638.02 292.92 638.02 302.35 638.03C 302.37 676.65 302.36 715.27 302.36 753.88C 291.24 753.89 280.12 753.89 269 753.89C 254.95 727.44 240.98 700.95 226.91 674.51C 226.87 700.97 226.9 727.42 226.89 753.88C 217.46 753.89 208.02 753.89 198.58 753.88C 198.58 715.27 198.56 676.65 198.59 638.03z"/>
<path style="stroke:none; fill:#131314" d="M 317.79 753.88C 332.1 715.21 346.33 676.5 360.73 637.86C 372.57 637.93 384.41 637.87 396.25 637.89C 410.56 676.55 424.86 715.21 439.14 753.88C 429.14 753.9 419.15 753.88 409.15 753.89C 406.69 746.9 404.29 739.88 401.83 732.89C 386.28 732.89 370.72 732.89 355.16 732.89C 352.69 739.88 350.25 746.88 347.8 753.88C 337.8 753.9 327.8 753.89 317.79 753.88zM 362.62 711.38C 373.18 711.39 383.75 711.39 394.31 711.38C 389.07 695.96 383.76 680.58 378.51 665.17C 373.17 680.56 367.91 695.97 362.62 711.38z"/>
<path style="stroke:none; fill:#131314" d="M 571.59 638.03C 581.53 638.02 591.48 638.03 601.42 638.03C 601.45 676.65 601.43 715.26 601.44 753.88C 591.48 753.89 581.53 753.89 571.58 753.89C 571.58 715.27 571.57 676.65 571.59 638.03z"/>
<path style="stroke:none; fill:#131314" d="M 765.59 638.03C 776.69 638.02 787.8 638.03 798.91 638.02C 812.99 664.45 826.92 690.96 841.01 717.37C 841.09 690.92 841.01 664.48 841.05 638.03C 850.48 638.02 859.92 638.02 869.35 638.03C 869.37 676.65 869.36 715.26 869.36 753.88C 858.24 753.9 847.12 753.89 836.01 753.89C 821.95 727.44 807.98 700.94 793.91 674.51C 793.87 700.96 793.9 727.42 793.89 753.88C 784.45 753.9 775.02 753.89 765.58 753.89C 765.58 715.27 765.56 676.65 765.59 638.03z"/>
<path style="stroke:none; fill:#131314" d="M 927.54 638.01C 939.42 637.71 951.32 638 963.2 637.86C 977.6 676.5 991.83 715.21 1006.14 753.88C 996.14 753.9 986.15 753.89 976.15 753.89C 973.69 746.89 971.29 739.88 968.84 732.89C 953.28 732.89 937.72 732.89 922.16 732.89C 919.69 739.88 917.25 746.88 914.8 753.88C 904.8 753.9 894.8 753.89 884.79 753.88C 899 715.24 913.44 676.69 927.54 638.01zM 929.62 711.38C 940.18 711.39 950.75 711.4 961.31 711.37C 956.07 695.96 950.75 680.58 945.52 665.16C 940.17 680.55 934.91 695.97 929.62 711.38z"/>
<path style="stroke:none; fill:#131314" d="M 1021.58 637.89C 1031.53 637.88 1041.48 637.88 1051.43 637.9C 1051.46 669.03 1051.41 700.17 1051.46 731.31C 1068.92 731.31 1086.39 731.31 1103.86 731.31C 1103.89 738.83 1103.87 746.35 1103.88 753.88C 1076.45 753.9 1049.01 753.89 1021.58 753.89C 1021.57 715.22 1021.57 676.56 1021.58 637.89z"/>
</g>
</g>
</svg>