<?xml version="1.0" encoding="utf-8"?>
<!-- Generator: Adobe Illustrator 16.0.0, SVG Export Plug-In . SVG Version: 6.00 Build 0)  -->
<!DOCTYPE svg PUBLIC "-//W3C//DTD SVG 1.1//EN" "http://www.w3.org/Graphics/SVG/1.1/DTD/svg11.dtd">
<svg version="1.1" id="Layer_1" xmlns="http://www.w3.org/2000/svg" xmlns:xlink="http://www.w3.org/1999/xlink" x="0px" y="0px"
	 width="100px" height="100px" viewBox="0 0 100 100" enable-background="new 0 0 100 100" xml:space="preserve">
<g>
	<g>
		<path fill="#FFFFFF" d="M30.912,21.885H68.71c0.015,3.111,0.011,6.222,0.001,9.333c-12.599-0.005-25.197,0-37.797-0.002
			c-0.107-0.657-0.058-1.322-0.064-1.983c0-1.695,0-3.391,0-5.087C30.854,23.392,30.816,22.634,30.912,21.885z"/>
	</g>
	<g>
		<path fill="#FFFFFF" d="M30.901,35.822c2.555,0.016,5.111-0.021,7.667,0.021c-1.157,4.013-2.347,8.017-3.517,12.025
			c-0.192,0.678-0.42,1.346-0.569,2.034c2.382,0.018,4.765,0.009,7.147,0.002c1.682-0.096,3.435-0.289,4.911-1.17
			c1.322-0.773,2.21-2.255,2.222-3.791c0.026-0.629-0.228-1.268-0.698-1.689c-0.49-0.492-1.175-0.709-1.834-0.862
			c0.724-0.294,1.497-0.503,2.117-1.004c1.065-0.766,1.693-2.13,1.508-3.438c-0.098-0.492-0.356-0.963-0.759-1.269
			c-0.59-0.475-1.347-0.647-2.056-0.861c2.3,0.014,4.602-0.007,6.902,0.008c-0.009,0.466-0.194,0.897-0.311,1.342
			c-0.794,2.786-1.55,5.584-2.359,8.368c-0.372,1.46-0.851,2.894-1.188,4.361c1.348,0.022,2.699,0.03,4.047-0.015
			c0.551-1.815,1.021-3.655,1.554-5.477c0.638-0.087,1.309-0.065,1.921,0.146c0.542,0.178,0.795,0.76,0.842,1.288
			c0.064,1.349,0.224,2.69,0.286,4.04c1.443,0.056,2.893,0.033,4.339,0.013c-0.09-1.117-0.263-2.224-0.373-3.339
			c-0.157-0.94-0.118-1.939-0.544-2.815c-0.166-0.373-0.499-0.626-0.771-0.917c1.426-0.289,2.798-1.135,3.457-2.469
			c0.458-0.923,0.776-2.095,0.254-3.056c-0.598-0.99-1.819-1.292-2.883-1.468c2.174-0.015,4.348-0.004,6.521-0.009
			c0.015,7.935,0,15.871,0.009,23.807c-12.621,0.011-25.24,0.014-37.86-0.001c-0.033-5.724-0.004-11.447-0.014-17.171
			C30.891,40.247,30.83,38.032,30.901,35.822z"/>
		<path fill="#FFFFFF" d="M42.003,38.182c0.965,0.014,1.978-0.145,2.899,0.213c0.412,0.132,0.708,0.565,0.645,0.999
			c-0.094,0.546-0.387,1.081-0.894,1.343c-1.044,0.593-2.295,0.452-3.447,0.456C41.44,40.182,41.76,39.19,42.003,38.182z"/>
		<path fill="#FFFFFF" d="M57.394,38.309l0.07-0.067c0.854-0.029,1.725-0.026,2.561,0.178c0.349,0.085,0.697,0.269,0.896,0.579
			c0.281,0.56,0.059,1.211-0.243,1.711c-0.433,0.665-1.236,0.951-1.986,1.059c-0.753,0.052-1.51,0.058-2.263,0.011
			C56.74,40.62,57.055,39.46,57.394,38.309z"/>
		<path fill="#FFFFFF" d="M40.51,43.735c0.967,0.008,1.943-0.049,2.9,0.121c0.479,0.102,1.027,0.429,1.036,0.977
			c0.057,0.92-0.634,1.736-1.479,2.021c-1.084,0.366-2.25,0.261-3.375,0.251C39.857,45.972,40.189,44.854,40.51,43.735z"/>
		<g>
			<path fill="#FFFFFF" d="M5.031,68.589c1.685-0.01,3.372,0.001,5.059-0.004c1.003,0.002,2.065,0.473,2.543,1.394
				c0.612,1.165,0.28,2.656-0.603,3.592c-0.474,0.608-1.219,0.873-1.916,1.132c-0.569,0.193-1.175,0.188-1.765,0.252
				c-0.617,0.05-1.236-0.11-1.853-0.036c-0.183,0.174-0.164,0.459-0.248,0.686c-0.246,0.767-0.406,1.557-0.604,2.336
				c-1.049,0.012-2.098,0.022-3.146-0.001C3.318,74.816,4.204,71.71,5.031,68.589z M7.717,70.911
				c-0.19,0.678-0.411,1.348-0.543,2.04c0.798,0.194,1.702,0.012,2.271-0.604c0.265-0.219,0.27-0.61,0.172-0.912
				C9.167,70.867,8.371,70.896,7.717,70.911z"/>
		</g>
		<path fill="#FFFFFF" d="M15.548,68.591c2.557-0.002,5.112-0.012,7.667,0.001c-0.219,0.788-0.486,1.561-0.737,2.338
			c-1.444,0.054-2.892-0.024-4.336,0.032c-0.112,0.413-0.305,0.803-0.392,1.224c1.214,0.057,2.432,0.002,3.646,0.028
			c-0.233,0.771-0.406,1.568-0.723,2.309c-1.229,0.011-2.457-0.044-3.684,0.014c-0.158,0.411-0.223,0.852-0.355,1.271
			c1.533,0.036,3.069,0.013,4.604,0.007c-0.161,0.717-0.426,1.406-0.57,2.128c-2.585,0.029-5.172,0.002-7.758,0.006
			C13.778,74.825,14.661,71.709,15.548,68.591z"/>
		<path fill="#FFFFFF" d="M25.007,68.912c0.042-0.12,0.057-0.355,0.24-0.323c2.781-0.008,5.563,0.003,8.342-0.005
			c-0.178,0.778-0.395,1.551-0.483,2.346c-0.923,0.057-1.846-0.01-2.768,0.024c-0.679,2.325-1.361,4.649-1.974,6.99
			c-1.05,0.007-2.1,0.019-3.149-0.006c0.612-2.268,1.264-4.529,1.896-6.794c0.077-0.182-0.179-0.195-0.29-0.198
			c-0.76-0.027-1.521,0.038-2.28-0.019C24.65,70.246,24.838,69.58,25.007,68.912z"/>
		<g>
			<path fill="#FFFFFF" d="M35.554,68.59c1.8-0.01,3.599,0,5.398-0.001c0.83,0.007,1.737,0.327,2.187,1.067
				c0.274,0.445,0.478,0.977,0.396,1.508c-0.118,0.662-0.438,1.309-0.971,1.733c-0.479,0.391-1.063,0.606-1.611,0.878
				c0.488,0.166,1.148,0.242,1.31,0.83c0.172,1.15-0.346,2.234-0.556,3.341c-1.051-0.009-2.104,0.032-3.153-0.007
				c0.143-0.77,0.417-1.509,0.547-2.281c0.045-0.402-0.254-0.799-0.656-0.861c-0.549-0.074-1.105-0.07-1.655-0.016
				c-0.296,1.044-0.544,2.101-0.844,3.143c-1.008,0.012-2.017,0.032-3.025,0.025c0.474-1.579,0.875-3.18,1.342-4.761
				C34.687,71.654,35.147,70.13,35.554,68.59z M38.144,70.983c-0.226,0.583-0.417,1.184-0.532,1.8
				c0.465,0.11,0.94,0.016,1.407-0.025c0.477-0.057,0.984-0.282,1.184-0.75c0.196-0.343,0.058-0.869-0.341-0.992
				c-0.382-0.11-0.784-0.14-1.177-0.191C38.506,70.832,38.213,70.754,38.144,70.983z"/>
		</g>
		<g>
			<path fill="#FFFFFF" d="M50.036,68.626c0.989-0.155,2.012,0.052,2.891,0.517c1.023,0.584,1.681,1.708,1.758,2.876
				c0.117,2.287-1.462,4.405-3.488,5.336c-1.149,0.536-2.503,0.823-3.739,0.425c-1.04-0.267-1.997-0.985-2.416-1.993
				c-0.543-1.15-0.397-2.52,0.165-3.634c0.396-0.734,0.839-1.474,1.508-1.992C47.638,69.331,48.807,68.794,50.036,68.626z
				 M49.908,70.979c-0.775,0.215-1.405,0.779-1.848,1.435c-0.419,0.729-0.674,1.694-0.196,2.46c0.265,0.519,0.887,0.771,1.446,0.709
				c1.445-0.227,2.585-1.604,2.613-3.053c0.027-0.398-0.161-0.771-0.376-1.094C51.177,70.948,50.474,70.857,49.908,70.979z"/>
		</g>
		<g>
			<path fill="#FFFFFF" d="M57.905,68.911c0.04-0.122,0.055-0.352,0.24-0.321c1.2-0.011,2.4,0.001,3.602-0.003
				c0.911,0.016,1.846-0.083,2.728,0.204c0.558,0.146,1.08,0.521,1.301,1.066c0.103,0.735,0.032,1.565-0.496,2.134
				c-0.432,0.525-1.054,0.868-1.716,0.996c-0.196,0.055-0.438,0.065-0.57,0.243c0.688,0.161,1.583,0.286,1.876,1.037
				c0.239,0.455,0.061,0.96-0.09,1.412c-0.255,0.69-0.756,1.267-1.329,1.715c-0.716,0.418-1.57,0.458-2.373,0.558
				c-1.837,0.005-3.673-0.005-5.51-0.002C56.347,74.938,57.141,71.929,57.905,68.911z M60.515,70.833
				c-0.166,0.531-0.291,1.075-0.4,1.621c0.623,0.04,1.249-0.026,1.86-0.154c0.397-0.089,0.663-0.433,0.823-0.786
				c-0.111-0.231-0.251-0.477-0.519-0.541C61.706,70.817,61.104,70.785,60.515,70.833z M59.635,74.171
				c-0.198,0.532-0.311,1.09-0.422,1.645c0.542,0.041,1.084-0.024,1.619-0.116c0.364-0.05,0.74-0.226,0.917-0.566
				c0.164-0.244,0.064-0.59-0.199-0.718C60.962,74.113,60.274,74.183,59.635,74.171z"/>
		</g>
		<g>
			<path fill="#FFFFFF" d="M68.895,68.587c1.841-0.008,3.68,0.004,5.519-0.003c0.647-0.003,1.333,0.2,1.778,0.692
				c0.52,0.475,0.748,1.236,0.624,1.921c-0.071,0.914-0.736,1.709-1.559,2.071c-0.309,0.194-0.678,0.267-0.974,0.479
				c0.5,0.163,1.173,0.24,1.345,0.836c0.116,0.985-0.254,1.934-0.486,2.874c-0.043,0.156-0.03,0.318-0.021,0.478
				c-1.069-0.015-2.14,0.015-3.21-0.004c0.082-0.783,0.4-1.516,0.516-2.292c0.063-0.336-0.159-0.652-0.438-0.817
				c-0.599-0.209-1.241-0.172-1.862-0.136c-0.309,1.04-0.499,2.111-0.832,3.145c-1.015-0.066-2.016,0.123-3.027,0.096
				c0.527-2.037,1.146-4.053,1.697-6.084C68.271,70.756,68.541,69.658,68.895,68.587z M71.498,70.857
				c-0.207,0.623-0.406,1.249-0.568,1.886c0.645,0.065,1.324,0.077,1.939-0.16c0.431-0.168,0.773-0.591,0.759-1.064
				c0.014-0.31-0.313-0.496-0.574-0.568C72.543,70.843,72.016,70.765,71.498,70.857z"/>
		</g>
		<g>
			<path fill="#FFFFFF" d="M82.349,68.589c1.038-0.001,2.076-0.006,3.114-0.001c0.01,0.377,0.044,0.752,0.097,1.127
				c0.084,0.651-0.019,1.313,0.093,1.961c0.076,0.494,0.014,0.998,0.095,1.492c0.136,0.8,0.015,1.616,0.162,2.415
				c-0.024,0.792,0.106,1.572,0.139,2.362c-0.919-0.011-1.84,0.056-2.756-0.025c0.043-0.368,0.055-0.738,0.045-1.106
				c-0.979-0.011-1.958-0.022-2.938-0.012c-0.207-0.039-0.324,0.144-0.408,0.299c-0.141,0.28-0.293,0.553-0.428,0.836
				c-0.971,0.023-1.941,0.022-2.911-0.001c1.751-2.949,3.552-5.873,5.314-8.815C82.058,68.919,82.2,68.749,82.349,68.589z
				 M82.661,72.646c-0.391,0.697-0.835,1.364-1.211,2.071c0.552,0.139,1.129,0.075,1.692,0.07c0.033-0.301,0.061-0.603,0.06-0.905
				c-0.04-0.616,0.087-1.231,0.007-1.847C82.906,72.094,82.813,72.42,82.661,72.646z"/>
		</g>
		<path fill="#FFFFFF" d="M90.725,69.629c1.042-0.849,2.463-1.13,3.775-1.006c0.875,0.134,1.832,0.35,2.437,1.05
			c0.451,0.432,0.633,1.099,0.542,1.708c-0.889,0.013-1.777,0.028-2.665-0.01c-0.235-0.493-0.765-0.759-1.303-0.682
			c-0.527-0.069-1.067,0.489-0.883,1.013c0.347,0.606,1.127,0.544,1.718,0.681c0.837,0.245,1.664,0.729,2.099,1.511
			c0.341,0.576,0.319,1.33,0.005,1.912c-0.484,1.011-1.466,1.705-2.534,1.981c-1.06,0.275-2.188,0.459-3.272,0.213
			c-0.856-0.136-1.777-0.483-2.236-1.268c-0.276-0.444-0.185-0.982-0.191-1.478c0.993-0.003,1.986-0.027,2.979,0.008
			c0.063,0.289,0.112,0.619,0.367,0.808c0.454,0.305,1.055,0.218,1.524-0.004c0.365-0.204,0.819-0.533,0.638-1.015
			c-0.383-0.503-1.071-0.503-1.631-0.649c-0.857-0.126-1.702-0.6-2.154-1.352c-0.35-0.51-0.315-1.16-0.233-1.742
			C89.904,70.68,90.27,70.104,90.725,69.629z"/>
	</g>
</g>
</svg>
