<?xml version="1.0" encoding="UTF-8" standalone="yes"?>
<!-- Created with sK1/UniConvertor (http://sk1project.org/) -->
<svg xmlns="http://www.w3.org/2000/svg" xmlns:xlink="http://www.w3.org/1999/xlink"
  width="595.276pt" height="841.89pt" viewBox="0 0 595.276 841.89"
  fill-rule="evenodd">
<g>
<path style="stroke:none; fill:#f8c400" d="M 252.24 343.89L 586.6 343.89C 586.73 371.41 586.69 398.93 586.61 426.45C 475.16 426.41 363.71 426.45 252.26 426.43C 251.31 420.62 251.75 414.74 251.69 408.89C 251.69 393.89 251.69 378.89 251.69 363.89C 251.72 357.22 251.4 350.52 252.24 343.89z"/>
<g>
<path style="stroke:none; fill:#019241" d="M 252.15 467.18C 274.75 467.32 297.36 466.99 319.97 467.37C 309.73 502.87 299.21 538.29 288.86 573.75C 287.16 579.74 285.15 585.65 283.82 591.74C 304.89 591.9 325.97 591.82 347.05 591.76C 361.92 590.91 377.43 589.2 390.49 581.41C 402.19 574.57 410.04 561.46 410.14 547.87C 410.38 542.31 408.13 536.66 403.97 532.93C 399.63 528.58 393.58 526.66 387.74 525.3C 394.14 522.7 400.99 520.85 406.47 516.42C 415.9 509.65 421.45 497.58 419.82 486.01C 418.95 481.66 416.66 477.5 413.1 474.79C 407.88 470.59 401.19 469.06 394.91 467.17C 415.26 467.29 435.62 467.11 455.97 467.24C 455.9 471.36 454.25 475.18 453.22 479.11C 446.2 503.76 439.51 528.51 432.36 553.13C 429.06 566.05 424.83 578.73 421.85 591.72C 433.77 591.91 445.73 591.98 457.65 591.59C 462.52 575.53 466.68 559.25 471.39 543.14C 477.03 542.37 482.97 542.56 488.39 544.43C 493.18 546 495.42 551.15 495.83 555.82C 496.4 567.75 497.81 579.62 498.36 591.56C 511.13 592.05 523.95 591.85 536.74 591.67C 535.95 581.79 534.42 572 533.45 562.14C 532.05 553.82 532.4 544.98 528.63 537.23C 527.16 533.93 524.22 531.69 521.81 529.12C 534.43 526.56 546.57 519.08 552.4 507.28C 556.45 499.12 559.27 488.75 554.64 480.25C 549.36 471.49 538.55 468.82 529.14 467.27C 548.37 467.14 567.6 467.23 586.82 467.19C 586.95 537.38 586.82 607.58 586.9 677.78C 475.26 677.88 363.63 677.9 251.99 677.77C 251.7 627.14 251.95 576.51 251.87 525.88C 252.05 506.32 251.51 486.73 252.15 467.18z"/>
<path style="stroke:none; fill:#019241" d="M 350.35 488.05C 358.89 488.17 367.84 486.77 376 489.94C 379.64 491.1 382.26 494.94 381.7 498.77C 380.87 503.6 378.27 508.33 373.79 510.65C 364.56 515.9 353.49 514.65 343.3 514.69C 345.37 505.74 348.2 496.98 350.35 488.05z"/>
<path style="stroke:none; fill:#019241" d="M 486.49 489.18L 487.11 488.58C 494.67 488.32 502.37 488.35 509.76 490.15C 512.85 490.9 515.93 492.53 517.68 495.27C 520.18 500.22 518.21 505.99 515.53 510.41C 511.71 516.29 504.6 518.82 497.96 519.77C 491.31 520.23 484.61 520.28 477.95 519.87C 480.71 509.62 483.49 499.36 486.49 489.18z"/>
<path style="stroke:none; fill:#019241" d="M 337.14 537.18C 345.69 537.25 354.33 536.75 362.8 538.25C 367.03 539.15 371.89 542.04 371.96 546.89C 372.46 555.03 366.35 562.25 358.89 564.77C 349.3 568.01 338.98 567.08 329.03 566.99C 331.37 556.96 334.31 547.08 337.14 537.18z"/>
<path style="stroke:none; fill:#019241" d="M 23.3 757.03C 38.21 756.94 53.13 757.04 68.05 757C 76.92 757.01 86.32 761.18 90.54 769.33C 95.96 779.63 93.03 792.82 85.22 801.1C 81.02 806.48 74.43 808.82 68.26 811.11C 63.23 812.82 57.87 812.77 52.65 813.34C 47.19 813.78 41.72 812.36 36.27 813.02C 34.65 814.56 34.81 817.08 34.08 819.08C 31.89 825.86 30.48 832.85 28.73 839.75C 19.45 839.85 10.17 839.94 0.9 839.74C 8.15 812.12 15.98 784.64 23.3 757.03zM 47.06 777.57C 45.38 783.57 43.42 789.5 42.25 795.62C 49.31 797.34 57.31 795.72 62.35 790.28C 64.69 788.35 64.73 784.88 63.87 782.21C 59.89 777.18 52.85 777.44 47.06 777.57z"/>
<path style="stroke:none; fill:#019241" d="M 116.33 757.05C 138.94 757.03 161.55 756.94 184.15 757.06C 182.22 764.03 179.85 770.86 177.63 777.74C 164.85 778.21 152.05 777.52 139.27 778.02C 138.28 781.68 136.58 785.12 135.81 788.85C 146.55 789.35 157.32 788.86 168.07 789.1C 166.01 795.92 164.48 802.97 161.67 809.52C 150.81 809.61 139.94 809.13 129.09 809.64C 127.69 813.28 127.12 817.17 125.94 820.88C 139.51 821.2 153.1 820.99 166.68 820.94C 165.25 827.28 162.91 833.38 161.63 839.76C 138.76 840.02 115.88 839.78 93.01 839.82C 100.68 812.2 108.49 784.63 116.33 757.05z"/>
<path style="stroke:none; fill:#019241" d="M 200 759.89C 200.38 758.83 200.5 756.75 202.13 757.03C 226.73 756.96 251.33 757.06 275.92 756.99C 274.35 763.87 272.43 770.71 271.64 777.74C 263.48 778.24 255.31 777.65 247.16 777.96C 241.16 798.52 235.12 819.08 229.71 839.79C 220.42 839.85 211.13 839.95 201.84 839.74C 207.26 819.68 213.02 799.67 218.61 779.64C 219.29 778.03 217.03 777.91 216.04 777.89C 209.32 777.64 202.59 778.22 195.87 777.72C 196.85 771.69 198.51 765.8 200 759.89z"/>
<path style="stroke:none; fill:#019241" d="M 293.3 757.04C 309.22 756.95 325.14 757.04 341.06 757.03C 348.4 757.09 356.42 759.92 360.39 766.47C 362.82 770.41 364.62 775.11 363.89 779.81C 362.85 785.67 360.02 791.39 355.31 795.15C 351.07 798.6 345.9 800.51 341.06 802.91C 345.37 804.38 351.21 805.05 352.64 810.25C 354.16 820.43 349.58 830.02 347.72 839.81C 338.43 839.73 329.12 840.09 319.83 839.75C 321.09 832.94 323.52 826.4 324.66 819.57C 325.06 816.01 322.42 812.5 318.86 811.95C 314.01 811.29 309.08 811.33 304.22 811.81C 301.6 821.04 299.41 830.39 296.76 839.61C 287.84 839.71 278.92 839.89 269.99 839.83C 274.18 825.86 277.73 811.71 281.86 797.72C 285.63 784.15 289.71 770.66 293.3 757.04zM 316.21 778.21C 314.21 783.37 312.52 788.68 311.5 794.13C 315.61 795.11 319.82 794.27 323.95 793.91C 328.16 793.41 332.66 791.41 334.42 787.28C 336.16 784.24 334.93 779.59 331.41 778.5C 328.02 777.52 324.47 777.26 320.99 776.8C 319.41 776.87 316.82 776.18 316.21 778.21z"/>
<path style="stroke:none; fill:#019241" d="M 421.41 757.36C 430.16 755.99 439.2 757.82 446.98 761.93C 456.04 767.09 461.85 777.04 462.53 787.37C 463.57 807.6 449.6 826.34 431.67 834.57C 421.51 839.31 409.53 841.85 398.6 838.33C 389.39 835.97 380.93 829.61 377.23 820.7C 372.42 810.52 373.71 798.41 378.68 788.55C 382.18 782.06 386.11 775.52 392.03 770.93C 400.19 763.6 410.54 758.84 421.41 757.36zM 420.28 778.18C 413.42 780.08 407.85 785.07 403.94 790.87C 400.23 797.32 397.98 805.86 402.2 812.63C 404.54 817.22 410.04 819.45 414.99 818.9C 427.78 816.9 437.86 804.72 438.11 791.9C 438.35 788.37 436.68 785.08 434.79 782.22C 431.5 777.9 425.28 777.1 420.28 778.18z"/>
<path style="stroke:none; fill:#019241" d="M 491.02 759.88C 491.37 758.8 491.5 756.77 493.15 757.04C 503.76 756.94 514.38 757.05 525 757.01C 533.06 757.15 541.33 756.28 549.13 758.82C 554.07 760.11 558.69 763.43 560.64 768.25C 561.55 774.76 560.93 782.1 556.25 787.13C 552.43 791.77 546.93 794.81 541.07 795.94C 539.33 796.42 537.2 796.52 536.03 798.09C 542.11 799.52 550.03 800.62 552.62 807.26C 554.74 811.29 553.16 815.76 551.83 819.76C 549.57 825.86 545.14 830.96 540.07 834.93C 533.73 838.62 526.18 838.98 519.07 839.86C 502.83 839.9 486.59 839.82 470.34 839.84C 477.24 813.19 484.26 786.57 491.02 759.88zM 514.1 776.88C 512.63 781.58 511.53 786.39 510.56 791.22C 516.07 791.58 521.61 790.99 527.02 789.86C 530.54 789.07 532.88 786.03 534.3 782.9C 533.32 780.86 532.08 778.69 529.71 778.12C 524.64 776.75 519.32 776.46 514.1 776.88zM 506.32 806.41C 504.56 811.12 503.57 816.05 502.58 820.96C 507.38 821.32 512.17 820.74 516.91 819.93C 520.13 819.49 523.46 817.93 525.02 814.92C 526.47 812.76 525.59 809.7 523.26 808.57C 518.06 805.9 511.98 806.51 506.32 806.41z"/>
<path style="stroke:none; fill:#019241" d="M 588.23 757.01C 604.51 756.94 620.78 757.05 637.05 756.99C 642.78 756.96 648.84 758.76 652.78 763.11C 657.37 767.31 659.39 774.05 658.3 780.11C 657.67 788.19 651.79 795.22 644.51 798.43C 641.78 800.15 638.52 800.79 635.89 802.67C 640.32 804.11 646.27 804.79 647.79 810.06C 648.82 818.78 645.55 827.17 643.49 835.49C 643.11 836.87 643.22 838.3 643.31 839.71C 633.85 839.58 624.38 839.84 614.91 839.68C 615.64 832.75 618.45 826.27 619.48 819.4C 620.04 816.43 618.07 813.63 615.61 812.17C 610.31 810.32 604.63 810.65 599.13 810.97C 596.4 820.17 594.72 829.65 591.77 838.79C 582.8 838.2 573.94 839.88 564.99 839.63C 569.66 821.61 575.12 803.78 580.01 785.81C 582.72 776.2 585.1 766.49 588.23 757.01zM 611.26 777.1C 609.43 782.61 607.67 788.15 606.23 793.78C 611.94 794.36 617.95 794.46 623.39 792.36C 627.2 790.88 630.23 787.14 630.1 782.95C 630.22 780.21 627.33 778.56 625.02 777.92C 620.51 776.97 615.84 776.28 611.26 777.1z"/>
<path style="stroke:none; fill:#019241" d="M 707.25 757.03C 716.43 757.02 725.61 756.98 734.79 757.02C 734.88 760.36 735.18 763.68 735.65 766.99C 736.39 772.75 735.49 778.6 736.47 784.34C 737.14 788.71 736.59 793.17 737.31 797.54C 738.5 804.61 737.43 811.83 738.74 818.9C 738.52 825.91 739.68 832.81 739.97 839.8C 731.84 839.7 723.69 840.29 715.59 839.57C 715.97 836.32 716.07 833.04 715.99 829.78C 707.33 829.69 698.66 829.59 690 829.68C 688.17 829.34 687.13 830.95 686.39 832.33C 685.15 834.8 683.8 837.22 682.6 839.72C 674.02 839.93 665.43 839.92 656.86 839.71C 672.34 813.62 688.27 787.76 703.87 761.73C 704.67 759.95 705.93 758.45 707.25 757.03zM 710.01 792.91C 706.55 799.08 702.62 804.98 699.3 811.24C 704.18 812.47 709.28 811.9 714.27 811.86C 714.56 809.2 714.8 806.53 714.79 803.85C 714.44 798.4 715.56 792.96 714.85 787.52C 712.18 788.03 711.34 790.92 710.01 792.91z"/>
<path style="stroke:none; fill:#019241" d="M 781.34 766.23C 790.55 758.73 803.12 756.24 814.74 757.33C 822.47 758.52 830.94 760.43 836.29 766.62C 840.28 770.44 841.88 776.34 841.08 781.73C 833.22 781.84 825.36 781.98 817.51 781.64C 815.42 777.28 810.74 774.93 805.98 775.61C 801.32 775 796.54 779.94 798.17 784.57C 801.24 789.93 808.14 789.38 813.37 790.59C 820.77 792.76 828.09 797.05 831.93 803.96C 834.95 809.05 834.76 815.72 831.97 820.87C 827.69 829.81 819.01 835.95 809.56 838.4C 800.18 840.83 790.21 842.46 780.61 840.28C 773.03 839.08 764.89 836.01 760.83 829.07C 758.39 825.14 759.2 820.38 759.13 816C 767.92 815.97 776.71 815.76 785.49 816.07C 786.05 818.62 786.49 821.54 788.74 823.21C 792.76 825.91 798.07 825.14 802.23 823.18C 805.46 821.37 809.47 818.46 807.87 814.2C 804.48 809.75 798.39 809.75 793.44 808.46C 785.85 807.34 778.38 803.15 774.38 796.5C 771.29 791.99 771.59 786.24 772.32 781.09C 774.08 775.53 777.31 770.43 781.34 766.23z"/>
</g>
</g>
</svg>