<?xml version="1.0" encoding="UTF-8" standalone="yes"?>
<!-- Created with sK1/UniConvertor (http://sk1project.org/) -->
<svg xmlns="http://www.w3.org/2000/svg" xmlns:xlink="http://www.w3.org/1999/xlink"
  width="595.276pt" height="841.89pt" viewBox="0 0 595.276 841.89"
  fill-rule="evenodd">
<g>
<path style="stroke:none; fill:#dc5047" d="M 0 728.89L 445 728.89L 445 745.16C 444.8 745.2 444.4 745.28 444.2 745.31C 443.88 740.18 444.13 735.03 444.02 729.89C 296.35 729.81 148.67 729.8 1 729.88C 0.6 735.04 1.92 740.45 0 745.39L 0 728.89z"/>
<g>
<path style="stroke:none; fill:#da231c" d="M 1 729.88C 148.67 729.8 296.35 729.81 444.02 729.89C 444.13 735.03 443.88 740.18 444.2 745.31C 444.4 745.28 444.8 745.2 445 745.16L 445 745.54C 436.98 745.22 428.93 745.47 420.9 745.41C 420.94 746.19 421.02 747.75 421.06 748.53L 421.16 749.7C 429.02 750.18 436.91 749.72 444.78 749.95C 444.82 754.25 444.81 758.55 444.79 762.85C 436.93 763.13 429.04 762.46 421.2 763.21L 420.99 764.29C 420.98 765.35 420.99 766.42 421.04 767.48L 421.3 768.58C 426.51 769.32 431.78 768.69 437.02 768.92C 439.63 768.87 442.45 769.31 444.78 767.82L 445 767.68L 445 783.46C 437.01 784.25 428.94 783.58 420.92 783.81C 420.94 784.57 420.99 786.08 421.01 786.84L 421.06 787.75C 428.95 788.18 436.87 787.69 444.77 788C 444.86 793.16 444.75 798.32 444.85 803.48C 436.91 803.41 428.97 803.52 421.04 803.41C 421 804.48 420.99 805.54 420.99 806.61L 421.12 807.69C 428.99 808.2 436.89 807.75 444.78 807.91C 444.83 812.76 444.77 817.6 444.85 822.45C 436.91 822.38 428.98 822.49 421.05 822.38C 421 823.45 420.97 824.51 420.97 825.58L 421.02 826.7C 426.32 827.19 431.64 826.8 436.95 826.93C 439.49 826.87 442.33 827.35 444.49 825.64L 445 825.34L 445 841.89L 0 841.89L 0 825.6L 0.42 825.73C 1.88 826.35 3.35 827.06 5 826.91C 11.28 826.83 17.58 827.15 23.85 826.68L 23.95 825.58C 24.01 824.82 24.12 823.3 24.17 822.54C 16.17 822.28 8.16 822.48 0.15 822.45C 0.25 817.62 0.17 812.78 0.23 807.95C 8.1 807.71 15.99 808.14 23.85 807.68L 23.98 806.6C 23.97 805.53 23.97 804.47 23.96 803.41C 16.02 803.52 8.09 803.42 0.16 803.47C 0.25 798.32 0.15 793.16 0.24 788.01C 8.14 787.67 16.05 788.19 23.94 787.74L 23.98 786.82C 23.99 786.07 24.02 784.56 24.03 783.81C 16.02 783.73 8.01 783.95 0 783.68L 0 767.48L 0.47 767.59C 2.9 769.52 6.09 768.87 8.95 768.93C 13.89 768.76 18.85 769.19 23.78 768.63L 23.97 767.47C 24.01 766.41 24.02 765.35 23.97 764.29L 23.8 763.15C 15.96 762.56 8.07 763.07 0.21 762.88C 0.2 758.54 0.19 754.2 0.22 749.86C 8.08 749.79 15.96 750.14 23.82 749.71L 23.92 748.54C 23.96 747.76 24.05 746.2 24.09 745.43C 16.06 745.36 8.03 745.42 0 745.39L 0 745.39C 1.92 740.45 0.6 735.04 1 729.88zM 52.44 751.27C 45.12 756.65 40.31 765.8 41.08 774.98C 41.38 779.75 44.11 784.36 48.35 786.65C 56.32 791.06 65.49 792.21 74.05 794.97C 76.8 795.99 80.3 797.69 80.4 801.06C 80.81 804.31 78.86 807.41 76.06 808.95C 71.06 811.92 64.36 812.49 59.14 809.77C 55.65 807.79 55 803.5 55.68 799.87C 48.22 800.04 40.75 799.92 33.28 799.93C 32.1 805.95 32.05 812.81 35.82 817.97C 39.8 823.34 46.56 825.59 52.92 826.51C 65.61 828.19 79.24 827.01 90.45 820.39C 97.6 816.26 103.1 809.15 104.47 800.91C 106.72 801.22 105.75 798.17 106.13 796.89C 105.76 795.36 106.8 791.93 104.5 791.96C 103.46 787.76 100.55 784.21 96.81 782.1C 88.22 777.15 77.82 777.25 68.96 772.99C 65.84 771.76 64.31 767.9 65.93 764.92C 69.23 759.04 77.62 757.58 83.35 760.55C 86.16 762.12 86.9 765.65 86.06 768.57C 93.55 768.93 101.08 768.66 108.59 768.71C 110.02 763.25 110.41 756.83 106.68 752.17C 101.56 745.68 92.78 744.02 84.98 743.52C 73.78 743.08 61.74 744.48 52.44 751.27zM 128.94 744.01L 128.9 745.04C 123.05 771.89 117.47 798.79 111.57 825.63C 112.1 827.61 114.56 826.6 116.01 826.93C 134.93 826.64 153.89 827.22 172.79 826.67L 173.04 825.5L 173.47 825.5C 174.33 820.26 175.62 815.11 176.72 809.92L 176.21 809.92L 175.68 809.03C 164.47 808.62 153.21 809.09 141.98 808.88C 140.57 808.84 139.25 808.32 137.91 807.95C 138.88 802.91 140.11 797.92 141.07 792.88C 153.1 792.87 165.13 792.84 177.17 792.9C 178.35 787.65 179.41 782.37 180.58 777.13C 179.8 775.3 177.53 776.13 176.02 775.89C 167.36 776.04 158.69 775.76 150.03 775.95C 148.26 776.1 146.56 775.59 144.98 774.86C 145.75 771.13 146.56 767.41 147.35 763.69C 151.05 761.06 155.76 762.44 159.96 762.12C 169.24 761.86 178.58 762.62 187.82 761.69C 188.32 760.32 188.36 758.95 187.94 757.58C 188.77 753.36 189.67 749.15 190.61 744.96C 189.63 743.37 187.48 744.14 185.96 743.89C 166.96 743.98 147.95 743.71 128.94 744.01zM 202.91 744.02L 203.34 744.97C 197.25 771.77 191.79 798.73 185.95 825.59L 185.99 826.74C 192.58 826.95 199.21 827.14 205.78 826.67L 206.19 825.62C 210.18 806.69 214.27 787.77 218.31 768.85C 218.67 767.23 218.78 765.5 219.63 764.04C 224.16 784.6 229.22 805.05 233.77 825.61L 234.21 826.61C 237.76 827.26 241.38 826.78 244.96 826.87C 251.65 826.79 258.36 827.21 265.05 826.68L 264.73 825.65C 270.87 798.86 276.15 771.87 282.24 745.07L 281.71 744.13C 275.24 743.65 268.67 743.81 262.19 744.05L 261.84 745.04C 258.07 763.33 254.01 781.56 250.19 799.84C 249.81 801.52 249.62 803.29 248.84 804.85C 244.08 784.88 239.4 764.89 234.48 744.96L 235.05 744.2C 224.37 743.53 213.61 743.92 202.91 744.02zM 321.86 744.09L 322.49 744.96C 306.13 771.25 290.24 797.85 273.89 824.15C 271.79 824.46 273.08 827.66 274.89 827.1C 281.92 826.84 289.05 827.68 296.02 826.61L 295.45 825.64C 298.1 821.11 300.54 816.45 303.11 811.87C 307.27 810.44 311.71 811.1 316.02 810.95C 322.58 811.07 329.15 810.76 335.71 811.08C 335.92 812.43 336.54 813.51 337.57 814.3C 338.14 818.07 338.48 821.87 339.16 825.62L 339.06 826.78C 347.32 826.9 355.62 827.14 363.86 826.68L 364.39 825.68C 359.66 798.77 354.54 771.93 349.69 745.05L 349.8 744.05C 340.49 743.76 331.16 743.72 321.86 744.09zM 389.96 744.01L 390.3 744.96C 384.14 771.76 378.74 798.75 372.85 825.61L 373.27 826.71C 380.42 827.07 387.63 826.96 394.78 826.69L 395.01 825.53L 395.4 825.53C 401.06 798.66 406.83 771.81 412.63 744.97C 412.21 744.72 411.38 744.22 410.96 743.97C 403.97 743.78 396.95 743.85 389.96 744.01z"/>
<path style="stroke:none; fill:#da231c" d="M 313.3 794.17C 319.57 783.02 325.24 771.51 331.83 760.56C 332.64 771.77 333.7 782.97 334.97 794.14C 327.74 794.15 320.52 794.11 313.3 794.17z"/>
</g>
<g>
<path style="stroke:none; fill:#ffffff" d="M 52.44 751.27C 61.74 744.48 73.78 743.08 84.98 743.52C 92.78 744.02 101.56 745.68 106.68 752.17C 110.41 756.83 110.02 763.25 108.59 768.71C 101.08 768.66 93.55 768.93 86.06 768.57C 86.9 765.65 86.16 762.12 83.35 760.55C 77.62 757.58 69.23 759.04 65.93 764.92C 64.31 767.9 65.84 771.76 68.96 772.99C 77.82 777.25 88.22 777.15 96.81 782.1C 100.55 784.21 103.46 787.76 104.5 791.96C 105.02 794.92 104.95 797.95 104.47 800.91C 103.1 809.15 97.6 816.26 90.45 820.39C 79.24 827.01 65.61 828.19 52.92 826.51C 46.56 825.59 39.8 823.34 35.82 817.97C 32.05 812.81 32.1 805.95 33.28 799.93C 40.75 799.92 48.22 800.04 55.68 799.87C 55 803.5 55.65 807.79 59.14 809.77C 64.36 812.49 71.06 811.92 76.06 808.95C 78.86 807.41 80.81 804.31 80.4 801.06C 80.3 797.69 76.8 795.99 74.05 794.97C 65.49 792.21 56.32 791.06 48.35 786.65C 44.11 784.36 41.38 779.75 41.08 774.98C 40.31 765.8 45.12 756.65 52.44 751.27z"/>
<path style="stroke:none; fill:#ffffff" d="M 128.9 745.04C 149.47 745.01 170.04 745.18 190.61 744.96C 189.67 749.15 188.77 753.36 187.94 757.58C 187.73 758.63 187.51 759.68 187.28 760.73C 174.2 760.76 161.11 760.73 148.02 760.75C 147.86 761.48 147.52 762.95 147.35 763.69C 146.56 767.41 145.75 771.13 144.98 774.86C 144.86 775.45 144.62 776.62 144.51 777.21C 156.53 777.14 168.56 777.3 180.58 777.13C 179.41 782.37 178.35 787.65 177.17 792.9C 165.13 792.84 153.1 792.87 141.07 792.88C 140.11 797.92 138.88 802.91 137.91 807.95C 137.81 808.44 137.61 809.42 137.51 809.9C 150.41 809.92 163.31 809.89 176.21 809.92L 176.72 809.92C 175.62 815.11 174.33 820.26 173.47 825.5L 173.04 825.5C 152.55 825.72 132.06 825.47 111.57 825.63C 117.47 798.79 123.05 771.89 128.9 745.04z"/>
<path style="stroke:none; fill:#ffffff" d="M 203.34 744.97C 213.72 745.11 224.11 745.14 234.48 744.96C 239.4 764.89 244.08 784.88 248.84 804.85C 249.62 803.29 249.81 801.52 250.19 799.84C 254.01 781.56 258.07 763.33 261.84 745.04C 268.64 745.07 275.44 745.05 282.24 745.07C 276.15 771.87 270.87 798.86 264.73 825.65C 254.41 825.51 244.09 825.6 233.77 825.61C 229.22 805.05 224.16 784.6 219.63 764.04C 218.78 765.5 218.67 767.23 218.31 768.85C 214.27 787.77 210.18 806.69 206.19 825.62C 199.44 825.55 192.69 825.6 185.95 825.59C 191.79 798.73 197.25 771.77 203.34 744.97z"/>
<path style="stroke:none; fill:#ffffff" d="M 322.49 744.96C 331.55 745.2 340.62 745 349.69 745.05C 354.54 771.93 359.66 798.77 364.39 825.68C 355.98 825.49 347.57 825.6 339.16 825.62C 338.48 821.87 338.14 818.07 337.57 814.3C 337.37 812.81 337.18 811.31 336.99 809.82C 326.08 809.81 315.17 809.82 304.26 809.81C 303.98 810.33 303.4 811.36 303.11 811.87C 300.54 816.45 298.1 821.11 295.45 825.64C 287.97 825.45 280.49 825.66 273.02 825.55L 273.89 824.15C 290.24 797.85 306.13 771.25 322.49 744.96zM 313.3 794.17C 320.52 794.11 327.74 794.15 334.97 794.14C 333.7 782.97 332.64 771.77 331.83 760.56C 325.24 771.51 319.57 783.02 313.3 794.17z"/>
<path style="stroke:none; fill:#ffffff" d="M 390.3 744.96C 397.74 745.14 405.19 745.1 412.63 744.97C 406.83 771.81 401.06 798.66 395.4 825.53L 395.01 825.53C 387.62 825.67 380.24 825.52 372.85 825.61C 378.74 798.75 384.14 771.76 390.3 744.96z"/>
<path style="stroke:none; fill:#ffffff" d="M 0 745.39C 8.03 745.42 16.06 745.36 24.09 745.43C 24.05 746.2 23.96 747.76 23.92 748.54C 16.02 748.5 8.12 748.58 0.22 748.48L 0.22 749.86C 0.19 754.2 0.2 758.54 0.21 762.88L 0.21 764.34C 8.13 764.24 16.05 764.33 23.97 764.29C 24.02 765.35 24.01 766.41 23.97 767.47C 16.14 767.51 8.3 767.33 0.47 767.59L 0 767.48L 0 745.39z"/>
<path style="stroke:none; fill:#ffffff" d="M 420.9 745.41C 428.93 745.47 436.98 745.22 445 745.54L 445 767.68L 444.78 767.82C 436.9 767.04 428.95 767.65 421.04 767.48C 420.99 766.42 420.98 765.35 420.99 764.29C 428.92 764.33 436.85 764.24 444.79 764.34L 444.79 762.85C 444.81 758.55 444.82 754.25 444.78 749.95L 444.77 748.48C 436.87 748.59 428.97 748.5 421.06 748.53C 421.02 747.75 420.94 746.19 420.9 745.41z"/>
<path style="stroke:none; fill:#ffffff" d="M 0 783.68C 8.01 783.95 16.02 783.73 24.03 783.81C 24.02 784.56 23.99 786.07 23.98 786.82C 16.07 786.84 8.16 786.86 0.26 786.81L 0.24 788.01C 0.15 793.16 0.25 798.32 0.16 803.47C 8.09 803.42 16.02 803.52 23.96 803.41C 23.97 804.47 23.97 805.53 23.98 806.6C 16.06 806.59 8.15 806.64 0.24 806.57L 0.23 807.95C 0.17 812.78 0.25 817.62 0.15 822.45C 8.16 822.48 16.17 822.28 24.17 822.54C 24.12 823.3 24.01 824.82 23.95 825.58C 16.11 825.64 8.26 825.4 0.42 825.73L 0 825.6L 0 783.68z"/>
<path style="stroke:none; fill:#ffffff" d="M 420.92 783.81C 428.94 783.58 437.01 784.25 445 783.46L 445 825.34L 444.49 825.64C 436.65 825.52 428.81 825.59 420.97 825.58C 420.97 824.51 421 823.45 421.05 822.38C 428.98 822.49 436.91 822.38 444.85 822.45C 444.77 817.6 444.83 812.76 444.78 807.91L 444.77 806.55C 436.84 806.66 428.91 806.58 420.99 806.61C 420.99 805.54 421 804.48 421.04 803.41C 428.97 803.52 436.91 803.41 444.85 803.48C 444.75 798.32 444.86 793.16 444.77 788L 444.75 786.78C 436.84 786.9 428.92 786.81 421.01 786.84C 420.99 786.08 420.94 784.57 420.92 783.81z"/>
</g>
<g>
<path style="stroke:none; fill:#d10400" d="M 128.94 744.01C 147.95 743.71 166.96 743.98 185.96 743.89C 187.48 744.14 189.63 743.37 190.61 744.96C 170.04 745.18 149.47 745.01 128.9 745.04L 128.94 744.01z"/>
<path style="stroke:none; fill:#d10400" d="M 262.19 744.05C 268.67 743.81 275.24 743.65 281.71 744.13L 282.24 745.07C 275.44 745.05 268.64 745.07 261.84 745.04L 262.19 744.05z"/>
<path style="stroke:none; fill:#d10400" d="M 389.96 744.01C 396.95 743.85 403.97 743.78 410.96 743.97C 411.38 744.22 412.21 744.72 412.63 744.97C 405.19 745.1 397.74 745.14 390.3 744.96L 389.96 744.01z"/>
<path style="stroke:none; fill:#d10400" d="M 0.26 786.81C 8.16 786.86 16.07 786.84 23.98 786.82L 23.94 787.74C 16.05 788.19 8.14 787.67 0.24 788.01L 0.26 786.81z"/>
<path style="stroke:none; fill:#d10400" d="M 421.01 786.84C 428.92 786.81 436.84 786.9 444.75 786.78L 444.77 788C 436.87 787.69 428.95 788.18 421.06 787.75L 421.01 786.84z"/>
</g>
<g>
<path style="stroke:none; fill:#d10500" d="M 202.91 744.02C 213.61 743.92 224.37 743.53 235.05 744.2L 234.48 744.96C 224.11 745.14 213.72 745.11 203.34 744.97L 202.91 744.02z"/>
<path style="stroke:none; fill:#d10500" d="M 321.86 744.09C 331.16 743.72 340.49 743.76 349.8 744.05L 349.69 745.05C 340.62 745 331.55 745.2 322.49 744.96L 321.86 744.09z"/>
</g>
<g>
<path style="stroke:none; fill:#d90900" d="M 0.22 748.48C 8.12 748.58 16.02 748.5 23.92 748.54L 23.82 749.71C 15.96 750.14 8.08 749.79 0.22 749.86L 0.22 748.48z"/>
<path style="stroke:none; fill:#d90900" d="M 421.06 748.53C 428.97 748.5 436.87 748.59 444.77 748.48L 444.78 749.95C 436.91 749.72 429.02 750.18 421.16 749.7L 421.06 748.53z"/>
<path style="stroke:none; fill:#d90900" d="M 0.24 806.57C 8.15 806.64 16.06 806.59 23.98 806.6L 23.85 807.68C 15.99 808.14 8.1 807.71 0.23 807.95L 0.24 806.57z"/>
<path style="stroke:none; fill:#d90900" d="M 420.99 806.61C 428.91 806.58 436.84 806.66 444.77 806.55L 444.78 807.91C 436.89 807.75 428.99 808.2 421.12 807.69L 420.99 806.61z"/>
<path style="stroke:none; fill:#d90900" d="M 0.42 825.73C 8.26 825.4 16.11 825.64 23.95 825.58L 23.85 826.68C 17.58 827.15 11.28 826.83 5 826.91C 3.35 827.06 1.88 826.35 0.42 825.73z"/>
<path style="stroke:none; fill:#d90900" d="M 111.57 825.63C 132.06 825.47 152.55 825.72 173.04 825.5L 172.79 826.67C 153.89 827.22 134.93 826.64 116.01 826.93C 114.56 826.6 112.1 827.61 111.57 825.63z"/>
<path style="stroke:none; fill:#d90900" d="M 185.95 825.59C 192.69 825.6 199.44 825.55 206.19 825.62L 205.78 826.67C 199.21 827.14 192.58 826.95 185.99 826.74L 185.95 825.59z"/>
<path style="stroke:none; fill:#d90900" d="M 233.77 825.61C 244.09 825.6 254.41 825.51 264.73 825.65L 265.05 826.68C 258.36 827.21 251.65 826.79 244.96 826.87C 241.38 826.78 237.76 827.26 234.21 826.61L 233.77 825.61z"/>
<path style="stroke:none; fill:#d90900" d="M 339.16 825.62C 347.57 825.6 355.98 825.49 364.39 825.68L 363.86 826.68C 355.62 827.14 347.32 826.9 339.06 826.78L 339.16 825.62z"/>
<path style="stroke:none; fill:#d90900" d="M 372.85 825.61C 380.24 825.52 387.62 825.67 395.01 825.53L 394.78 826.69C 387.63 826.96 380.42 827.07 373.27 826.71L 372.85 825.61z"/>
<path style="stroke:none; fill:#d90900" d="M 420.97 825.58C 428.81 825.59 436.65 825.52 444.49 825.64C 442.33 827.35 439.49 826.87 436.95 826.93C 431.64 826.8 426.32 827.19 421.02 826.7L 420.97 825.58z"/>
</g>
<path style="stroke:none; fill:#d20f08" d="M 187.28 760.73C 187.51 759.68 187.73 758.63 187.94 757.58C 188.36 758.95 188.32 760.32 187.82 761.69C 178.58 762.62 169.24 761.86 159.96 762.12C 155.76 762.44 151.05 761.06 147.35 763.69C 147.52 762.95 147.86 761.48 148.02 760.75C 161.11 760.73 174.2 760.76 187.28 760.73z"/>
<g>
<path style="stroke:none; fill:#d41300" d="M 0.21 762.88C 8.07 763.07 15.96 762.56 23.8 763.15L 23.97 764.29C 16.05 764.33 8.13 764.24 0.21 764.34L 0.21 762.88z"/>
<path style="stroke:none; fill:#d41300" d="M 421.2 763.21C 429.04 762.46 436.93 763.13 444.79 762.85L 444.79 764.34C 436.85 764.24 428.92 764.33 420.99 764.29L 421.2 763.21z"/>
<path style="stroke:none; fill:#d41300" d="M 0.47 767.59C 8.3 767.33 16.14 767.51 23.97 767.47L 23.78 768.63C 18.85 769.19 13.89 768.76 8.95 768.93C 6.09 768.87 2.9 769.52 0.47 767.59z"/>
<path style="stroke:none; fill:#d41300" d="M 421.04 767.48C 428.95 767.65 436.9 767.04 444.78 767.82C 442.45 769.31 439.63 768.87 437.02 768.92C 431.78 768.69 426.51 769.32 421.3 768.58L 421.04 767.48z"/>
</g>
<path style="stroke:none; fill:#d31200" d="M 144.98 774.86C 146.56 775.59 148.26 776.1 150.03 775.95C 158.69 775.76 167.36 776.04 176.02 775.89C 177.53 776.13 179.8 775.3 180.58 777.13C 168.56 777.3 156.53 777.14 144.51 777.21C 144.62 776.62 144.86 775.45 144.98 774.86z"/>
<path style="stroke:none; fill:#d20800" d="M 104.5 791.96C 106.8 791.93 105.76 795.36 106.13 796.89C 105.75 798.17 106.72 801.22 104.47 800.91C 104.95 797.95 105.02 794.92 104.5 791.96z"/>
<path style="stroke:none; fill:#c41300" d="M 137.91 807.95C 139.25 808.32 140.57 808.84 141.98 808.88C 153.21 809.09 164.47 808.62 175.68 809.03L 176.21 809.92C 163.31 809.89 150.41 809.92 137.51 809.9C 137.61 809.42 137.81 808.44 137.91 807.95z"/>
<path style="stroke:none; fill:#c70503" d="M 304.26 809.81C 315.17 809.82 326.08 809.81 336.99 809.82C 337.18 811.31 337.37 812.81 337.57 814.3C 336.54 813.51 335.92 812.43 335.71 811.08C 329.15 810.76 322.58 811.07 316.02 810.95C 311.71 811.1 307.27 810.44 303.11 811.87C 303.4 811.36 303.98 810.33 304.26 809.81z"/>
<path style="stroke:none; fill:#d91307" d="M 274.89 827.1C 273.08 827.66 271.79 824.46 273.89 824.15L 273.02 825.55C 280.49 825.66 287.97 825.45 295.45 825.64L 296.02 826.61C 289.05 827.68 281.92 826.84 274.89 827.1z"/>
</g>
</svg>