<?xml version="1.0" encoding="utf-8"?>
<!-- Generator: Adobe Illustrator 16.0.0, SVG Export Plug-In . SVG Version: 6.00 Build 0)  -->
<!DOCTYPE svg PUBLIC "-//W3C//DTD SVG 1.1//EN" "http://www.w3.org/Graphics/SVG/1.1/DTD/svg11.dtd">
<svg version="1.1" id="Layer_1" xmlns="http://www.w3.org/2000/svg" xmlns:xlink="http://www.w3.org/1999/xlink" x="0px" y="0px"
	 width="100px" height="100px" viewBox="0 0 100 100" enable-background="new 0 0 100 100" xml:space="preserve">
<g>
	<path fill="#FFFFFF" d="M11.784,42.333c2.091-1.527,4.795-1.841,7.313-1.743c1.752,0.113,3.725,0.486,4.876,1.945
		c0.837,1.047,0.75,2.49,0.428,3.717c-1.688-0.011-3.379,0.049-5.063-0.032c0.189-0.656,0.023-1.449-0.609-1.801
		c-1.287-0.669-3.172-0.34-3.915,0.981c-0.364,0.669-0.02,1.537,0.68,1.813c1.991,0.956,4.33,0.936,6.259,2.047
		c0.841,0.474,1.495,1.271,1.729,2.216c0.117,0.666,0.101,1.346-0.006,2.011c-0.309,1.853-1.545,3.45-3.151,4.378
		c-2.52,1.487-5.583,1.752-8.434,1.375c-1.43-0.206-2.949-0.712-3.843-1.918c-0.847-1.16-0.836-2.702-0.571-4.055
		c1.679-0.002,3.358,0.025,5.034-0.014c-0.153,0.815-0.008,1.779,0.777,2.225c1.173,0.611,2.679,0.482,3.803-0.184
		c0.629-0.346,1.067-1.042,0.976-1.772c-0.022-0.759-0.81-1.141-1.427-1.37c-1.924-0.62-3.985-0.878-5.775-1.869
		c-0.954-0.514-1.566-1.551-1.633-2.623C9.058,45.599,10.14,43.543,11.784,42.333z"/>
	<path fill="#FFFFFF" d="M28.966,40.933c4.622-0.006,9.245,0.032,13.867-0.019c-0.211,0.941-0.413,1.888-0.6,2.836
		c-0.047,0.237-0.097,0.473-0.148,0.708c-2.938,0.008-5.88,0-8.823,0.005c-0.034,0.164-0.112,0.494-0.149,0.66
		c-0.178,0.838-0.36,1.673-0.534,2.51c-0.026,0.133-0.08,0.397-0.105,0.528c2.702-0.015,5.405,0.021,8.106-0.017
		c-0.262,1.177-0.5,2.363-0.766,3.543c-2.707-0.014-5.41-0.007-8.112-0.004c-0.216,1.133-0.492,2.253-0.711,3.387
		c-0.022,0.109-0.068,0.33-0.089,0.437c2.899,0.005,5.796-0.001,8.696,0.005h0.114c-0.248,1.168-0.537,2.324-0.73,3.501h-0.096
		c-4.605,0.05-9.209-0.006-13.814,0.03C26.397,53.011,27.653,46.967,28.966,40.933z"/>
	<path fill="#FFFFFF" d="M45.695,40.918c2.332,0.03,4.667,0.037,6.998-0.004c1.106,4.479,2.157,8.972,3.227,13.459
		c0.175-0.35,0.218-0.748,0.303-1.126c0.859-4.107,1.771-8.204,2.619-12.314c1.528,0.006,3.056,0.002,4.583,0.006
		c-1.368,6.023-2.555,12.089-3.936,18.109c-2.318-0.032-4.638-0.012-6.957-0.01c-1.023-4.62-2.16-9.216-3.177-13.837
		c-0.191,0.329-0.217,0.719-0.297,1.082c-0.908,4.252-1.826,8.503-2.724,12.757c-1.516-0.016-3.033-0.004-4.548-0.006
		C43.099,52.997,44.325,46.939,45.695,40.918z"/>
	<g>
		<path fill="#FFFFFF" d="M72.47,40.914c2.036,0.055,4.074,0.01,6.112,0.021c1.091,6.041,2.241,12.071,3.304,18.119
			c-1.89-0.043-3.78-0.018-5.67-0.014c-0.152-0.842-0.228-1.695-0.355-2.543c-0.045-0.335-0.088-0.672-0.131-1.007
			c-2.451-0.002-4.903,0-7.355-0.002c-0.062,0.117-0.193,0.348-0.258,0.462c-0.578,1.029-1.125,2.077-1.721,3.095
			c-1.682-0.043-3.362,0.004-5.041-0.021l0.196-0.314C65.223,52.8,68.794,46.823,72.47,40.914z M70.405,51.973
			c1.623-0.014,3.244-0.005,4.869-0.006c-0.285-2.51-0.523-5.027-0.706-7.547C73.088,46.881,71.813,49.468,70.405,51.973z"/>
	</g>
	<path fill="#FFFFFF" d="M87.708,40.914c1.672,0.041,3.346,0.032,5.018,0.004c-1.303,6.03-2.6,12.064-3.872,18.103h-0.087
		c-1.661,0.031-3.32-0.003-4.979,0.018C85.11,53.002,86.325,46.938,87.708,40.914z"/>
	<path fill="#FFFFFF" d="M0,41.011c1.804,0.008,3.609-0.006,5.414,0.01c-0.009,0.174-0.028,0.523-0.038,0.698
		c-1.775-0.009-3.551,0.009-5.326-0.014v0.311c-0.007,0.977-0.004,1.95-0.003,2.927v0.327c1.78-0.022,3.561-0.002,5.34-0.011
		c0.01,0.238,0.009,0.477,0,0.714c-1.76,0.009-3.522-0.03-5.281,0.027L0,45.976V41.011z"/>
	<path fill="#FFFFFF" d="M94.584,41.016c1.805,0.014,3.613-0.042,5.416,0.029v4.976l-0.05,0.032
		c-1.771-0.177-3.557-0.039-5.333-0.077c-0.013-0.238-0.014-0.479-0.013-0.717c1.782,0.009,3.564-0.012,5.349,0.011v-0.335
		c0.004-0.965,0.006-1.933-0.003-2.899l-0.001-0.33c-1.775,0.026-3.551,0.005-5.328,0.013C94.612,41.542,94.594,41.19,94.584,41.016
		z"/>
	<path fill="#FFFFFF" d="M0,49.615c1.799,0.062,3.601,0.013,5.4,0.03c-0.003,0.167-0.009,0.507-0.012,0.676
		c-1.777,0.005-3.554,0.009-5.329-0.002l-0.005,0.269c-0.021,1.159,0.002,2.317-0.018,3.476c1.782-0.012,3.564,0.011,5.349-0.013
		c0.001,0.237,0.001,0.475,0.003,0.716c-1.779-0.003-3.557,0.009-5.334-0.008L0.051,55.07c-0.014,1.086,0.005,2.173-0.019,3.258
		c1.801,0.008,3.602-0.038,5.399,0.021c-0.013,0.17-0.037,0.511-0.05,0.682c-1.761,0.014-3.526-0.039-5.287,0.034L0,59.036V49.615z"
		/>
	<path fill="#FFFFFF" d="M94.589,49.646c1.802-0.053,3.616,0.098,5.411-0.078v9.411l-0.115,0.066
		c-1.762-0.027-3.523-0.011-5.285-0.014c0-0.24,0.007-0.479,0.018-0.719c1.783,0.024,3.564,0,5.349,0.016
		c-0.018-1.089-0.004-2.177-0.017-3.268l-0.001-0.306c-1.783,0.025-3.564,0.008-5.345,0.013c0-0.239,0.003-0.478,0.013-0.717
		c1.781,0.023,3.565,0,5.35,0.014c-0.022-1.159,0.001-2.317-0.018-3.478l-0.004-0.274c-1.779,0.027-3.559,0.007-5.335,0.014
		C94.604,50.155,94.594,49.816,94.589,49.646z"/>
</g>
</svg>
