<?xml version="1.0" encoding="UTF-8" standalone="yes"?>
<!-- Created with sK1/UniConvertor (http://sk1project.org/) -->
<svg xmlns="http://www.w3.org/2000/svg" xmlns:xlink="http://www.w3.org/1999/xlink"
  width="595.276pt" height="841.89pt" viewBox="0 0 595.276 841.89"
  fill-rule="evenodd">
<g>
<path style="stroke:none; fill:#559657" d="M 0 703.89L 24.25 703.89C 24.29 713.59 24.17 723.28 24.29 732.98C 24.32 740.58 27.75 748.3 34.1 752.67C 46.14 760.84 65.15 759.04 73.79 746.74C 76.79 742.42 77.88 737.08 77.82 731.89C 77.83 722.56 77.8 713.22 77.81 703.89L 116.5 703.89C 124.15 704.33 133.06 705.23 138.2 711.67C 142.87 717.73 141.58 725.78 141.75 732.9C 141.49 740.1 142.57 747.52 140.46 754.52C 138.93 759.65 134.92 763.86 129.94 765.77C 124.58 767.95 118.69 768.31 112.96 768.4C 87.3 768.58 61.63 768.33 35.97 768.4C 27.25 768.34 17.99 768.91 9.95 764.91C 3.87 762.02 0.74 755.44 0 749.02L 0 703.89z"/>
<g>
<path style="stroke:none; fill:#000103" d="M 174.28 705.4C 177.75 704.99 181.26 705.24 184.75 705.21C 184.78 712.75 184.71 720.29 184.76 727.83C 184.7 730.41 185.31 733.64 188.1 734.61C 192.8 735.93 197.78 735.11 202.6 735.33C 202.67 726.87 202.58 718.41 202.63 709.96C 202.78 708.42 202.42 705.96 204.44 705.53C 208.3 704.88 212.26 705.3 216.17 705.2C 216.21 717.57 216.18 729.95 216.18 742.32C 206.12 742.31 196.07 742.36 186.01 742.31C 182.12 742.18 177.67 742.01 174.81 739C 171.82 735.76 171.89 731.04 171.85 726.91C 172 720.53 171.64 714.14 172.02 707.77C 171.89 706.47 173.07 705.48 174.28 705.4z"/>
<path style="stroke:none; fill:#000103" d="M 222.68 705.28C 232.47 705.28 242.26 705.2 252.04 705.31C 256.37 705.45 261.29 706.14 264.15 709.77C 267.2 713.79 266.69 719.12 266.78 723.87C 266.66 728.65 267.3 734.07 264.18 738.11C 261.26 741.7 256.23 742.09 251.94 742.22C 242.19 742.33 232.44 742.24 222.69 742.26C 222.68 729.93 222.69 717.61 222.68 705.28zM 235.5 711.33C 235.5 719.41 235.5 727.49 235.5 735.57C 241.15 735.09 247.32 736.72 252.64 734.46C 254.76 730.03 253.28 724.72 253.77 719.94C 253.51 717.22 254.55 712.82 251.15 711.74C 246 710.85 240.71 711.53 235.5 711.33z"/>
<path style="stroke:none; fill:#000103" d="M 271.49 705.28C 284.49 705.3 297.5 705.16 310.5 705.35C 309.93 707.28 310.84 710.79 308.06 711.17C 300.6 711.58 293.1 711.2 285.62 711.33C 285.63 714.46 285.63 717.59 285.6 720.72C 292.65 720.82 299.7 720.73 306.76 720.78C 306.75 722.44 306.75 724.1 306.75 725.76C 299.71 725.77 292.67 725.76 285.62 725.77C 285.6 728.91 285.63 732.04 285.79 735.17C 293.9 736.06 302.1 735.35 310.25 735.58C 310.25 737.81 310.25 740.03 310.25 742.26C 301.49 742.27 292.74 742.26 283.98 742.28C 280.16 742.29 275.8 741.82 273.18 738.69C 271.5 736.86 271.49 734.25 271.47 731.91C 271.51 723.03 271.5 714.16 271.49 705.28z"/>
<path style="stroke:none; fill:#000103" d="M 318.99 706.91C 322.45 705.38 326.32 705.31 330.04 705.26C 337.61 705.26 345.17 705.26 352.73 705.27C 352.59 706.85 352.72 708.49 352.24 710.02C 351.54 711.64 349.34 711.13 347.94 711.34C 342 711.44 336.06 711.16 330.13 711.4C 325.83 711.16 325.29 718.71 329.38 719.33C 334.2 719.85 339.07 719.24 343.9 719.62C 347.53 719.72 351.84 721.1 353.08 724.91C 354.38 729.13 354.49 734.13 352.22 738.03C 349.55 742 344.26 742.19 339.96 742.26C 332.64 742.16 325.3 742.51 318 742.1C 314.71 741.9 314.47 738.08 314.02 735.6C 321.67 735.43 329.33 735.81 336.98 735.43C 341.08 735.38 342.39 728.88 338.88 727.07C 332.81 726.08 326.58 727.37 320.53 726.19C 311.6 724.73 311.06 710.13 318.99 706.91z"/>
<path style="stroke:none; fill:#000103" d="M 359.88 709.86C 362.34 706.36 366.86 705.28 370.92 705.29C 379.88 705.22 388.85 705.27 397.82 705.28C 397.56 707.08 397.87 709.1 396.84 710.69C 389.65 711.83 382.23 710.37 375.01 711.42C 371.72 712.14 371.51 716.09 371.5 718.82C 371.63 723.48 371.01 728.27 372.14 732.84C 372.93 735.24 375.76 735.57 377.92 735.57C 384.65 735.63 391.39 735.54 398.12 735.58C 397.65 737.65 398.76 741.31 395.96 741.99C 389.35 742.65 382.68 742.07 376.05 742.28C 371.11 742.19 365.43 742.86 361.4 739.4C 357.58 736.08 357.16 730.62 357.11 725.9C 357.18 720.52 356.61 714.52 359.88 709.86z"/>
<path style="stroke:none; fill:#000103" d="M 170.24 756.34C 170.73 756.12 171.72 755.68 172.22 755.46C 172.77 759.98 171.97 764.59 172.81 769.07C 174.44 774.6 183.52 774.64 185.22 769.13C 186.12 764.61 185.3 759.94 185.83 755.37C 186.31 755.6 187.28 756.04 187.77 756.26C 188.03 760.77 188.3 765.4 187.47 769.86C 185.25 777.23 173.19 777.41 170.67 770.16C 169.61 765.66 170 760.91 170.24 756.34z"/>
<path style="stroke:none; fill:#000103" d="M 194.35 755.87C 195.64 755.73 196.79 756.23 197.47 757.37C 201.11 762.17 204.65 767.04 208.27 771.86C 208.1 766.68 207.81 761.47 208.21 756.29C 208.71 756.09 209.72 755.68 210.22 755.48C 210.42 761.97 210.54 768.49 210.23 774.98C 208.74 776.61 207.4 774.38 206.53 773.37C 203.18 768.84 199.82 764.3 196.45 759.78C 196.61 764.85 196.83 769.94 196.51 775C 195.98 775.18 194.92 775.52 194.38 775.7C 194.25 769.09 194.3 762.48 194.35 755.87z"/>
<path style="stroke:none; fill:#000103" d="M 216.82 755.17C 217.35 755.34 218.4 755.66 218.92 755.82C 219.19 761.85 219.13 767.9 218.97 773.93C 218.7 774.54 218.15 775.78 217.87 776.39C 217 775 216.62 773.5 216.72 771.88C 216.76 766.31 216.7 760.74 216.82 755.17z"/>
<path style="stroke:none; fill:#000103" d="M 223 756.05C 223.46 755.99 224.37 755.86 224.82 755.8C 227.75 760.6 229.73 765.92 232.58 770.78C 232.78 770.78 233.2 770.8 233.41 770.81C 236.2 766.01 238.03 760.7 240.99 756C 241.5 756.02 242.53 756.06 243.04 756.08C 241.24 760.75 238.74 765.1 236.64 769.63C 235.5 771.87 234.65 774.41 232.59 776.01C 229.43 769.36 225.31 763.04 223 756.05z"/>
<path style="stroke:none; fill:#000103" d="M 247.03 759.89C 247.3 758.73 246.5 756.63 248.03 756.17C 252.55 755.88 257.12 755.86 261.63 756.19C 261.85 756.62 262.27 757.49 262.48 757.92C 258.09 758.07 253.7 758.01 249.31 758.02C 249.31 760.27 249.31 762.51 249.31 764.76C 253.38 765 257.63 764.18 261.59 765.24C 261.58 765.55 261.55 766.16 261.54 766.47C 257.5 767.13 253.39 766.63 249.32 766.76C 249.31 768.93 249.31 771.1 249.32 773.27C 253.85 773.45 258.49 772.7 262.93 773.89C 262.16 774.84 261.19 775.32 260.02 775.32C 255.72 775.4 251.4 775.43 247.1 775.1C 247.05 770.03 247.05 764.96 247.03 759.89z"/>
<path style="stroke:none; fill:#000103" d="M 267.33 756.17C 271.29 756.06 275.39 755.54 279.27 756.62C 282.92 757.7 284.59 762.32 282.79 765.59C 281.9 767.3 279.89 767.83 278.33 768.7C 280.01 770.78 282.81 772.42 283.37 775.14L 282.13 775.7C 279.64 773.51 277.56 770.91 275.25 768.54C 273.36 768.56 271.48 768.58 269.6 768.6C 269.07 770.76 270.88 775.21 267.92 775.63C 266.49 769.36 267.69 762.62 267.33 756.17zM 269.56 758.08C 269.56 760.93 269.56 763.78 269.56 766.64C 272.9 766.45 276.6 767.29 279.66 765.59C 282.11 764.01 281.43 760.06 278.93 758.9C 276.02 757.56 272.66 758.22 269.56 758.08z"/>
<path style="stroke:none; fill:#000103" d="M 288.98 757.92C 291.7 755.5 295.71 755.21 299.14 755.93C 301.61 756.39 304.29 758.17 304.24 760.97C 302.03 761.38 301 758.67 298.99 758.25C 296.26 757.65 292.98 757.64 290.73 759.54C 289.38 760.6 289.68 762.94 291.26 763.6C 295.01 765.03 299.32 764.16 302.97 765.93C 306.39 767.88 305.14 773.45 301.65 774.63C 296.68 776.87 288.38 776.26 286.88 769.96C 290.01 769.3 290.92 773.69 294.08 773.41C 297.2 773.88 303.22 773.34 302.46 768.86C 299.5 765.45 294.07 767.42 290.24 765.58C 287.07 764.58 286.56 759.97 288.98 757.92z"/>
<path style="stroke:none; fill:#000103" d="M 310.07 755.71C 310.59 755.68 311.64 755.64 312.16 755.62C 312.43 762.16 312.44 768.74 312.15 775.29C 311.63 775.28 310.59 775.24 310.07 775.23C 309.84 768.73 309.82 762.2 310.07 755.71z"/>
<path style="stroke:none; fill:#000103" d="M 317.9 756.43C 321.66 755.89 325.61 755.58 329.32 756.62C 336.67 759.35 336.87 771.48 329.74 774.59C 325.98 775.88 321.91 775.28 318.03 775.12C 317.83 768.89 318.01 762.66 317.9 756.43zM 320.19 758C 320.19 763.11 320.19 768.22 320.18 773.34C 323.06 773.25 326.08 773.68 328.84 772.66C 334.12 770.01 333.96 760.93 328.53 758.54C 325.83 757.74 322.96 758.07 320.19 758z"/>
<path style="stroke:none; fill:#000103" d="M 336.85 775.21C 340.11 768.39 343.49 761.62 347.12 754.99C 349.71 757.59 350.86 761.15 352.58 764.32C 354.17 767.69 356.21 770.86 357.51 774.37C 358.07 775.5 356.44 775.87 355.81 775.26C 354.63 773.7 353.83 771.9 352.89 770.19C 349.18 770.28 345.48 770.27 341.77 770.29C 340.39 772.18 340.03 776.48 336.85 775.21zM 342.74 768.25C 345.85 768.26 348.96 768.26 352.07 768.26C 350.53 765.15 348.98 762.04 347.45 758.93C 345.83 762.01 344.27 765.12 342.74 768.25z"/>
<path style="stroke:none; fill:#000103" d="M 361.37 758.84C 361.41 757.72 361.23 755.82 362.98 756.08C 366.37 755.95 369.96 755.62 373.21 756.81C 380.19 759.93 380.1 771.77 372.97 774.67C 369.31 775.83 365.4 775.2 361.63 775.31C 361.16 769.83 361.4 764.33 361.37 758.84zM 363.63 758C 363.62 763.11 363.62 768.23 363.63 773.35C 366.63 773.21 369.87 773.78 372.68 772.45C 377.54 769.46 377.23 760.83 371.89 758.51C 369.2 757.76 366.38 758.05 363.63 758z"/>
<path style="stroke:none; fill:#000103" d="M 384.19 756.25C 388.9 755.82 393.68 755.88 398.41 756.18C 398.61 756.61 399 757.47 399.2 757.9C 394.82 758.08 390.44 758.01 386.06 758.01C 386.06 760.26 386.06 762.52 386.07 764.77C 390.11 764.75 394.16 764.75 398.21 764.81C 398.19 765.29 398.16 766.26 398.15 766.74C 394.12 766.77 390.09 766.77 386.06 766.77C 386.06 768.93 386.06 771.1 386.06 773.26C 390.14 773.38 394.24 772.98 398.3 773.44C 398.6 773.85 399.18 774.65 399.48 775.05C 394.28 775.52 389.06 775.4 383.86 775.15C 384.02 768.86 383.31 762.48 384.19 756.25z"/>
<path style="stroke:none; fill:#000103" d="M 253.41 789.46C 257.15 788.79 263.58 789.62 263.65 794.5C 261.32 794.78 260.27 791.75 257.94 791.7C 254.96 791.1 249.25 791.65 249.95 795.9C 253.48 799.61 260.01 796.52 263.65 800.25C 265.35 802.63 264.27 806.28 261.65 807.49C 257.76 809.46 252.66 809.38 249.04 806.87C 247.84 805.87 245.73 803.07 248.68 803.08C 251.23 807.01 256.69 807.63 260.62 805.52C 262.34 804.67 262.79 801.84 260.86 800.97C 256.85 799.21 251.56 800.91 248.26 797.57C 245.69 793.85 249.59 789.71 253.41 789.46z"/>
<path style="stroke:none; fill:#000103" d="M 290.49 788.77C 293.55 791.54 294.59 795.76 296.64 799.24C 297.94 802.31 300.31 805.07 300.68 808.45C 297.98 809.16 297.57 805.15 296.29 803.51C 292.62 803.5 288.95 803.5 285.28 803.59C 284.43 805.34 283.56 807.07 282.69 808.8C 282.19 808.59 281.19 808.17 280.69 807.96C 283.93 801.55 287.08 795.09 290.49 788.77zM 286.32 801.56C 289.34 801.58 292.35 801.58 295.37 801.57C 293.89 798.54 292.38 795.51 290.88 792.48C 289.35 795.5 287.83 798.53 286.32 801.56z"/>
<path style="stroke:none; fill:#000103" d="M 170.39 790.23C 173.72 789.14 177.57 789.6 181 790.19C 188.52 792.7 188.59 805.27 181.12 807.88C 177.74 808.74 174.14 808.57 170.71 808.16C 169.85 806.96 170.32 805.31 170.16 803.93C 170.3 799.37 169.9 794.77 170.39 790.23zM 172.38 806.47C 175.19 806.34 178.18 806.86 180.85 805.76C 185.76 803.18 185.69 794.8 180.76 792.27C 178.11 791.34 175.22 791.71 172.46 791.53C 172.3 796.51 172.39 801.49 172.38 806.47z"/>
<path style="stroke:none; fill:#000103" d="M 195.24 790.17C 199.17 788.39 204.26 789.55 206.85 793.05C 209.84 796.96 209.23 803.11 205.57 806.39C 201.89 809.74 195.47 809.44 192.22 805.64C 188.21 801.06 189.38 792.63 195.24 790.17zM 196.18 792C 189.92 794.67 191.19 805.7 198.12 806.52C 202.66 807.52 206.86 803.35 206.51 798.85C 206.86 793.62 200.84 789.71 196.18 792z"/>
<path style="stroke:none; fill:#000103" d="M 230.27 789.94C 235.25 789.54 240.25 789.63 245.24 789.86C 245.01 790.27 244.56 791.08 244.33 791.48C 240.36 791.89 236.36 791.54 232.38 791.64C 232.38 793.83 232.38 796.02 232.38 798.2C 236.13 798.28 239.9 797.97 243.65 798.34C 243.89 798.76 244.37 799.59 244.61 800.01C 240.53 800.2 236.45 800.14 232.37 800.14C 232.37 802.23 232.38 804.31 232.38 806.4C 236.75 806.42 241.14 806.15 245.49 806.77C 245.19 807.13 244.6 807.84 244.3 808.2C 239.85 808.56 235.32 808.54 230.86 808.22L 230.4 807.72C 230.01 801.8 230.35 795.86 230.27 789.94z"/>
<path style="stroke:none; fill:#000103" d="M 265.44 789.79C 271.38 789.66 277.32 789.61 283.25 789.83C 282.57 793.4 277.88 791.14 275.38 791.79C 275.04 797.44 276.14 803.25 274.96 808.81C 274.57 808.74 273.77 808.59 273.38 808.52C 272.91 802.96 273.31 797.36 273.18 791.79C 270.68 791.2 266.03 793.33 265.44 789.79z"/>
<path style="stroke:none; fill:#000103" d="M 303.62 790.38C 306.58 788.98 310.67 789.7 313.99 790.12C 321.78 792.43 321.89 805.44 314.18 807.93C 310.79 808.64 307.18 808.7 303.78 808.07C 303.07 802.25 303.39 796.24 303.62 790.38zM 305.63 791.62C 305.62 796.57 305.62 801.52 305.63 806.47C 308.38 806.38 311.26 806.78 313.91 805.84C 319.05 803.35 318.98 794.57 313.78 792.19C 311.16 791.33 308.34 791.7 305.63 791.62z"/>
<path style="stroke:none; fill:#000103" d="M 328.28 790.25C 332.14 788.41 337.21 789.44 339.89 792.81C 343.13 796.77 342.5 803.23 338.63 806.54C 334.87 809.78 328.47 809.36 325.31 805.48C 321.5 800.93 322.63 792.78 328.28 790.25zM 329.2 792.1C 323.23 794.89 324.46 805.5 331.15 806.49C 336.12 807.73 340.53 802.79 339.69 797.98C 339.45 793.01 333.54 789.82 329.2 792.1z"/>
<path style="stroke:none; fill:#000103" d="M 362.56 790.35C 365.29 788.98 369 789.79 372.07 789.94C 380.22 791.33 381.2 804.31 373.95 807.61C 370.42 808.83 366.47 808.63 362.84 808.09C 361.84 802.41 362.41 796.2 362.56 790.35zM 364.51 791.62C 364.5 796.57 364.5 801.52 364.5 806.47C 367.3 806.36 370.25 806.81 372.93 805.8C 377.95 803.25 377.87 794.67 372.8 792.22C 370.14 791.31 367.26 791.72 364.51 791.62z"/>
<path style="stroke:none; fill:#000103" d="M 383.19 789.9C 388.23 789.64 393.31 789.43 398.33 790.09C 398.06 790.41 397.5 791.07 397.23 791.4C 393.3 791.98 389.28 791.51 385.32 791.64C 385.31 793.83 385.31 796.01 385.32 798.2C 389.06 798.29 392.82 797.97 396.55 798.33C 396.8 798.75 397.31 799.57 397.56 799.98C 393.48 800.21 389.39 800.14 385.31 800.14C 385.31 802.22 385.31 804.31 385.32 806.4C 389.68 806.42 394.07 806.14 398.4 806.78C 398.1 807.13 397.51 807.84 397.21 808.2C 392.54 808.62 387.79 808.49 383.11 808.12C 383.17 802.05 383.04 795.97 383.19 789.9z"/>
<path style="stroke:none; fill:#000103" d="M 246.18 827.13C 247.19 825.37 247.79 823.06 249.75 822.1C 253.51 828.46 256.69 835.16 259.72 841.89L 257.79 841.89C 256.71 840.17 255.75 838.38 254.79 836.59C 251.18 836.57 247.58 836.57 243.98 836.59C 243.03 838.37 242.08 840.16 241.04 841.89L 239.36 841.89C 240.91 836.66 243.92 832.06 246.18 827.13zM 244.87 834.64C 247.88 834.64 250.89 834.64 253.91 834.63C 252.42 831.62 250.93 828.62 249.44 825.61C 247.85 828.59 246.34 831.6 244.87 834.64z"/>
<path style="stroke:none; fill:#000103" d="M 285.39 841.89C 288.04 834.79 291.49 827.9 295.67 821.57C 299.1 828.29 302.91 834.85 305.65 841.89L 303.83 841.89C 302.77 840.16 301.81 838.38 300.86 836.6C 297.25 836.57 293.65 836.57 290.04 836.59C 289.08 838.37 288.13 840.16 287.08 841.89L 285.39 841.89zM 290.92 834.64C 293.93 834.64 296.94 834.64 299.96 834.64C 298.45 831.63 296.97 828.61 295.5 825.59C 293.92 828.58 292.41 831.6 290.92 834.64z"/>
<path style="stroke:none; fill:#000103" d="M 171.05 824.04C 174.55 821.78 179.44 821.76 183.04 823.82C 184.67 824.69 185.1 826.57 184.65 828.26C 181.78 824.84 176.78 823.34 172.75 825.64C 170.92 826.46 170.63 829.52 172.75 830.16C 176.28 831.38 180.21 830.8 183.68 832.26C 186.17 833.33 186.43 836.83 185.03 838.86C 183.73 840.66 181.44 841.22 179.46 841.89L 175.4 841.89C 172.45 841.41 167.27 839.32 169.51 835.51C 171.52 838.24 174.5 840.39 178.09 839.7C 180.88 839.95 185.33 837.3 182.77 834.26C 179.02 832.64 174.69 833.42 170.97 831.74C 168.03 830.25 168.34 825.63 171.05 824.04z"/>
<path style="stroke:none; fill:#000103" d="M 186.24 841.89C 188.6 834.72 192.56 828.2 196.11 821.58C 200.01 828.04 203.72 834.75 206.23 841.89L 204.66 841.89C 203.56 840.18 202.59 838.4 201.62 836.62C 198.02 836.57 194.42 836.57 190.82 836.58C 189.87 838.37 188.92 840.17 187.85 841.89L 186.24 841.89zM 191.67 834.63C 194.69 834.64 197.71 834.64 200.74 834.63C 199.24 831.65 197.77 828.67 196.32 825.67C 194.67 828.6 193.15 831.61 191.67 834.63z"/>
<path style="stroke:none; fill:#000103" d="M 208.26 822.67C 210.3 822.15 211.2 824.3 212.31 825.54C 215.38 829.76 218.51 833.93 221.61 838.12C 221.43 832.9 221.03 827.65 221.65 822.45C 222.12 822.56 223.05 822.79 223.51 822.91C 223.89 829.22 223.81 835.58 223.4 841.89L 222.21 841.89C 217.6 837.25 214.24 831.56 210.18 826.45C 210.42 831.59 210.44 836.74 210.27 841.89L 208.37 841.89C 207.86 835.51 207.89 829.06 208.26 822.67z"/>
<path style="stroke:none; fill:#000103" d="M 224.33 823.9C 227.33 822.43 230.71 822.75 233.94 822.7C 237.22 822.75 240.66 822.42 243.72 823.89C 240.93 824.89 237.97 824.92 235.05 824.91C 235.09 830.57 235.16 836.23 235.09 841.89L 233.18 841.89C 232.6 836.25 232.95 830.58 232.88 824.92C 230 824.91 227.08 824.88 224.33 823.9z"/>
<path style="stroke:none; fill:#000103" d="M 273.26 823.21C 277.27 821.45 283.75 822.33 284.84 827.32C 281.39 825.6 277.38 823.19 273.54 825.34C 267.99 828.07 269 837.26 274.7 839.22C 278.66 841.01 281.93 837.35 285.55 836.42C 284.26 839.72 281.05 841.41 277.71 841.89L 276.47 841.89C 273.71 841.29 270.88 840.09 269.35 837.58C 266.03 832.9 267.78 825.38 273.26 823.21z"/>
<path style="stroke:none; fill:#000103" d="M 302.33 822.8C 308.03 822.74 313.73 822.75 319.43 822.8C 319.4 823.3 319.33 824.31 319.3 824.81C 316.84 824.82 314.39 824.83 311.94 824.84C 311.92 830.53 312.03 836.21 311.86 841.89L 309.84 841.89C 309.69 836.21 309.75 830.53 309.75 824.84C 307.32 824.83 304.9 824.83 302.47 824.82C 302.44 824.31 302.37 823.3 302.33 822.8z"/>
<path style="stroke:none; fill:#000103" d="M 316.27 841.89C 318.59 834.72 322.62 828.22 326.13 821.58C 330.05 828.03 333.77 834.74 336.24 841.89L 334.68 841.89C 333.6 840.18 332.64 838.4 331.68 836.62C 328.07 836.57 324.45 836.57 320.84 836.59C 319.9 838.37 318.97 840.17 317.91 841.89L 316.27 841.89zM 321.75 834.64C 324.75 834.64 327.76 834.64 330.77 834.63C 329.27 831.65 327.8 828.66 326.35 825.66C 324.7 828.59 323.2 831.6 321.75 834.64z"/>
<path style="stroke:none; fill:#000103" d="M 338.21 822.86C 342.04 822.82 345.97 822.33 349.72 823.33C 352.8 824.24 354.54 827.76 353.67 830.8C 353.22 833.12 350.75 833.96 349.03 835.16C 351.06 837.11 352.97 839.25 354.05 841.89L 352.64 841.89C 350.25 839.74 348.12 837.33 345.96 834.95C 344.11 834.95 342.27 834.95 340.43 834.95C 340.37 837.26 340.31 839.58 340.24 841.89L 338.5 841.89C 337.85 835.56 338.29 829.2 338.21 822.86zM 340.38 824.75C 340.37 827.5 340.37 830.26 340.38 833.02C 343.54 832.84 347 833.59 349.94 832.16C 352.57 830.75 351.93 826.64 349.39 825.51C 346.55 824.33 343.36 824.89 340.38 824.75z"/>
<path style="stroke:none; fill:#000103" d="M 356.9 822.44L 358.03 821.85L 358.69 822.74C 359.25 829.09 358.99 835.52 358.71 841.89L 356.79 841.89C 356.75 835.41 356.39 828.91 356.9 822.44z"/>
<path style="stroke:none; fill:#000103" d="M 362.89 822.08C 364.33 822.9 365.77 823.82 366.73 825.22C 369.91 829.5 373.04 833.81 376.27 838.05C 376.14 833.66 375.86 829.26 376.09 824.87C 376.02 823.44 376.72 822.5 378.19 822.06C 378.51 828.66 378.43 835.28 378.23 841.89L 376.81 841.89C 372.31 837.19 368.92 831.58 364.88 826.5C 364.99 831.63 365.21 836.77 364.75 841.89L 362.85 841.89C 362.71 835.29 362.65 828.68 362.89 822.08z"/>
<path style="stroke:none; fill:#000103" d="M 382.62 835.56C 385.1 830.89 387.27 826.06 390.05 821.56C 393.9 827.3 396.15 833.93 400 839.66L 400 841.31C 397.22 841.48 396.56 838.31 395.29 836.48C 391.77 836.57 388.25 836.6 384.73 836.58C 383.77 838.38 382.8 840.19 381.66 841.89L 380.7 841.89C 380.45 839.59 381.65 837.54 382.62 835.56zM 385.58 834.64C 388.59 834.64 391.6 834.64 394.61 834.61C 393.11 831.6 391.62 828.58 390.11 825.57C 388.58 828.59 387.07 831.61 385.58 834.64z"/>
</g>
<path style="stroke:none; fill:#c74439" d="M 44.38 709.35C 55.04 705.76 67.64 711.69 71.72 722.14C 74.9 729.68 73.55 738.92 68.23 745.15C 63.43 751.01 55.52 754.1 48.02 752.99C 38.67 751.88 30.64 744.19 29.05 734.92C 26.77 724.1 33.78 712.44 44.38 709.35z"/>
<path style="stroke:none; fill:#2c4e2c" d="M 11.23 779.13C 18.08 776.18 25.71 776.28 33.02 776.22C 57.34 776.26 81.65 776.32 105.96 776.26C 114.91 776.33 124.53 775.73 132.62 780.23C 138.86 783.65 141.65 790.98 141.7 797.8C 141.83 812.14 141.71 826.48 141.75 840.83C 133.65 840.83 125.54 840.84 117.43 840.82C 117.41 831.17 117.49 821.52 117.42 811.87C 117.41 805 114.74 798.01 109.47 793.47C 102.81 787.64 93.29 786.12 84.76 787.59C 77.25 788.89 69.99 793.32 66.53 800.29C 64.32 804.44 63.85 809.23 63.86 813.86C 63.88 822.85 63.88 831.84 63.88 840.83C 51.56 840.79 39.23 840.92 26.92 840.75C 19.83 840.55 12.14 840.07 6.23 835.69C 2.51 832.98 0.77 828.49 0 824.1L 0 795.85C 0.64 788.85 4.41 781.76 11.23 779.13z"/>
<path style="stroke:none; fill:#a72b2c" d="M 84.36 792.36C 91.66 790.19 100.02 792.04 105.63 797.21C 111.4 802.31 114.13 810.51 112.66 818.06C 111.13 826.86 103.81 834.29 95.02 835.89C 87.42 837.48 79.13 834.72 74 828.88C 68.71 823.09 66.91 814.44 69.36 807C 71.54 800.04 77.35 794.37 84.36 792.36z"/>
</g>
</svg>