<?xml version="1.0" encoding="utf-8"?>
<!-- Generator: Adobe Illustrator 16.0.0, SVG Export Plug-In . SVG Version: 6.00 Build 0)  -->
<!DOCTYPE svg PUBLIC "-//W3C//DTD SVG 1.1//EN" "http://www.w3.org/Graphics/SVG/1.1/DTD/svg11.dtd">
<svg version="1.1" id="Layer_1" xmlns="http://www.w3.org/2000/svg" xmlns:xlink="http://www.w3.org/1999/xlink" x="0px" y="0px"
	 width="100px" height="100px" viewBox="0 0 100 100" enable-background="new 0 0 100 100" xml:space="preserve">
<g>
	<g>
		<path fill="#FFFFFF" d="M1.093,33.127h5.93c0.01,2.372-0.02,4.742,0.01,7.114c0.007,1.858,0.846,3.746,2.399,4.815
			c2.944,1.998,7.593,1.558,9.706-1.45c0.733-1.057,1-2.362,0.985-3.631c0.002-2.282-0.005-4.565-0.002-6.847h9.461
			c1.871,0.107,4.049,0.328,5.306,1.902c1.142,1.482,0.827,3.451,0.868,5.191c-0.063,1.761,0.2,3.576-0.315,5.287
			c-0.374,1.254-1.355,2.284-2.572,2.751c-1.311,0.533-2.751,0.622-4.152,0.644c-6.275,0.044-12.552-0.018-18.827,0
			c-2.132-0.015-4.396,0.125-6.362-0.854c-1.487-0.707-2.252-2.316-2.434-3.886V33.127z"/>
	</g>
	<g>
		<path fill="#FFFFFF" d="M43.71,33.496c0.849-0.1,1.707-0.039,2.561-0.046c0.007,1.844-0.01,3.688,0.002,5.532
			c-0.015,0.631,0.134,1.421,0.817,1.658c1.149,0.323,2.367,0.123,3.545,0.176c0.017-2.069-0.005-4.138,0.007-6.204
			c0.037-0.376-0.051-0.978,0.443-1.083c0.943-0.159,1.912-0.057,2.868-0.081c0.01,3.025,0.002,6.052,0.002,9.077
			c-2.46-0.002-4.917,0.01-7.377-0.002c-0.951-0.032-2.04-0.074-2.739-0.81c-0.731-0.792-0.714-1.947-0.724-2.957
			c0.037-1.56-0.051-3.123,0.042-4.681C43.126,33.758,43.415,33.516,43.71,33.496z"/>
		<g>
			<path fill="#FFFFFF" d="M55.546,33.467c2.394,0,4.788-0.02,7.179,0.007c1.059,0.035,2.262,0.203,2.961,1.091
				c0.746,0.983,0.621,2.286,0.643,3.448c-0.029,1.168,0.127,2.494-0.636,3.482c-0.714,0.878-1.944,0.973-2.993,1.005
				c-2.384,0.027-4.769,0.005-7.152,0.01C55.546,39.495,55.549,36.482,55.546,33.467z M58.681,34.946c0,1.976,0,3.952,0,5.928
				c1.381-0.117,2.89,0.281,4.191-0.271c0.518-1.083,0.156-2.382,0.276-3.551c-0.063-0.665,0.191-1.741-0.64-2.005
				C61.249,34.829,59.955,34.996,58.681,34.946z"/>
		</g>
		<path fill="#FFFFFF" d="M67.482,33.467c3.179,0.005,6.36-0.029,9.54,0.018c-0.14,0.472,0.083,1.33-0.597,1.423
			c-1.824,0.1-3.658,0.007-5.487,0.039c0.002,0.766,0.002,1.531-0.005,2.296c1.724,0.024,3.448,0.002,5.174,0.015
			c-0.002,0.406-0.002,0.812-0.002,1.218c-1.722,0.002-3.443,0-5.167,0.002c-0.005,0.768,0.002,1.533,0.042,2.299
			c1.983,0.217,3.988,0.044,5.981,0.1c0,0.545,0,1.088,0,1.633c-2.142,0.002-4.282,0-6.424,0.005c-0.934,0.002-2-0.113-2.641-0.878
			c-0.411-0.447-0.413-1.085-0.418-1.658C67.487,37.808,67.484,35.638,67.482,33.467z"/>
		<path fill="#FFFFFF" d="M79.098,33.866c0.846-0.374,1.792-0.392,2.702-0.403c1.851,0,3.7,0,5.549,0.002
			c-0.035,0.387-0.002,0.788-0.12,1.162c-0.171,0.396-0.709,0.271-1.051,0.323c-1.453,0.024-2.905-0.044-4.355,0.015
			c-1.051-0.059-1.183,1.788-0.183,1.939c1.179,0.127,2.37-0.022,3.55,0.071c0.888,0.024,1.942,0.362,2.245,1.293
			c0.318,1.032,0.345,2.255-0.21,3.208c-0.653,0.971-1.946,1.017-2.998,1.034c-1.79-0.024-3.585,0.062-5.37-0.039
			c-0.805-0.049-0.863-0.983-0.974-1.589c1.871-0.042,3.744,0.051,5.615-0.042c1.002-0.012,1.323-1.602,0.464-2.044
			c-1.484-0.242-3.007,0.073-4.487-0.215C77.291,38.223,77.158,34.653,79.098,33.866z"/>
		<path fill="#FFFFFF" d="M89.097,34.587c0.602-0.855,1.707-1.12,2.699-1.118c2.191-0.017,4.385-0.005,6.578-0.002
			c-0.063,0.44,0.012,0.934-0.24,1.323c-1.758,0.279-3.573-0.078-5.338,0.178c-0.804,0.176-0.855,1.142-0.858,1.81
			c0.032,1.139-0.12,2.311,0.157,3.428c0.193,0.587,0.885,0.667,1.413,0.667c1.646,0.015,3.294-0.007,4.939,0.002
			c-0.115,0.506,0.157,1.401-0.528,1.567c-1.616,0.162-3.247,0.02-4.868,0.071c-1.208-0.022-2.597,0.142-3.583-0.705
			c-0.934-0.812-1.037-2.147-1.049-3.301C88.436,37.194,88.297,35.727,89.097,34.587z"/>
		<path fill="#FFFFFF" d="M42.723,45.953c0.12-0.054,0.362-0.162,0.484-0.215c0.134,1.105-0.062,2.232,0.144,3.328
			c0.398,1.352,2.619,1.362,3.035,0.015c0.22-1.105,0.02-2.248,0.149-3.365c0.117,0.056,0.354,0.164,0.474,0.218
			c0.064,1.103,0.129,2.235-0.073,3.326c-0.543,1.802-3.492,1.846-4.108,0.073C42.568,48.232,42.664,47.07,42.723,45.953z"/>
		<path fill="#FFFFFF" d="M48.619,45.838c0.315-0.034,0.596,0.088,0.763,0.367c0.89,1.173,1.756,2.364,2.641,3.543
			c-0.042-1.267-0.112-2.541-0.015-3.808c0.122-0.049,0.369-0.149,0.491-0.198c0.049,1.587,0.078,3.182,0.003,4.769
			c-0.365,0.398-0.692-0.146-0.905-0.394c-0.819-1.108-1.641-2.218-2.465-3.323c0.039,1.24,0.093,2.484,0.015,3.722
			c-0.129,0.044-0.389,0.127-0.521,0.171C48.594,49.071,48.606,47.454,48.619,45.838z"/>
		<path fill="#FFFFFF" d="M54.113,45.667c0.129,0.042,0.386,0.12,0.513,0.159c0.066,1.475,0.051,2.954,0.013,4.429
			c-0.066,0.149-0.201,0.453-0.269,0.602c-0.213-0.34-0.306-0.707-0.281-1.103C54.099,48.391,54.084,47.029,54.113,45.667z"/>
		<path fill="#FFFFFF" d="M55.624,45.882c0.113-0.015,0.335-0.046,0.445-0.061c0.717,1.174,1.201,2.475,1.897,3.663
			c0.049,0,0.152,0.005,0.203,0.007c0.683-1.173,1.13-2.472,1.854-3.621c0.125,0.004,0.376,0.015,0.501,0.019
			c-0.44,1.142-1.051,2.206-1.565,3.314c-0.279,0.547-0.487,1.168-0.99,1.56C57.197,49.137,56.189,47.591,55.624,45.882z"/>
		<path fill="#FFFFFF" d="M61.5,46.821c0.066-0.284-0.129-0.797,0.245-0.91c1.105-0.07,2.223-0.076,3.326,0.005
			c0.054,0.105,0.157,0.318,0.208,0.423c-1.074,0.037-2.147,0.022-3.221,0.024c0,0.55,0,1.098,0,1.648
			c0.995,0.059,2.035-0.142,3.003,0.117c-0.002,0.076-0.01,0.225-0.012,0.301c-0.988,0.162-1.993,0.039-2.988,0.071
			c-0.002,0.531-0.002,1.062,0,1.592c1.108,0.044,2.242-0.14,3.328,0.151c-0.188,0.232-0.426,0.35-0.712,0.35
			c-1.051,0.02-2.107,0.027-3.159-0.054C61.505,49.301,61.505,48.061,61.5,46.821z"/>
		<g>
			<path fill="#FFFFFF" d="M66.465,45.911c0.968-0.026,1.971-0.154,2.919,0.11c0.893,0.264,1.301,1.394,0.861,2.193
				c-0.218,0.418-0.709,0.548-1.091,0.761c0.411,0.508,1.096,0.91,1.233,1.575l-0.303,0.137c-0.609-0.535-1.118-1.171-1.683-1.751
				c-0.462,0.005-0.922,0.01-1.382,0.015c-0.129,0.528,0.313,1.616-0.411,1.719C66.259,49.137,66.553,47.489,66.465,45.911z
				 M67.01,46.378c0,0.697,0,1.394,0,2.093c0.817-0.046,1.722,0.159,2.47-0.257c0.599-0.386,0.433-1.352-0.179-1.636
				C68.59,46.251,67.768,46.413,67.01,46.378z"/>
		</g>
		<path fill="#FFFFFF" d="M71.759,46.339c0.665-0.592,1.646-0.663,2.484-0.487c0.604,0.113,1.26,0.548,1.247,1.233
			c-0.541,0.1-0.792-0.563-1.284-0.666c-0.667-0.146-1.469-0.149-2.02,0.315c-0.33,0.259-0.256,0.832,0.13,0.993
			c0.917,0.35,1.971,0.137,2.864,0.57c0.836,0.477,0.53,1.839-0.323,2.127c-1.215,0.547-3.245,0.398-3.612-1.142
			c0.766-0.162,0.988,0.912,1.761,0.843c0.763,0.115,2.235-0.017,2.049-1.112c-0.724-0.834-2.052-0.352-2.988-0.802
			C71.292,47.968,71.167,46.841,71.759,46.339z"/>
		<path fill="#FFFFFF" d="M76.916,45.799c0.127-0.007,0.384-0.017,0.511-0.022c0.066,1.6,0.068,3.208-0.002,4.81
			c-0.127-0.002-0.381-0.012-0.509-0.015C76.86,48.982,76.855,47.386,76.916,45.799z"/>
		<g>
			<path fill="#FFFFFF" d="M78.831,45.975c0.919-0.132,1.885-0.208,2.792,0.046c1.798,0.667,1.847,3.634,0.103,4.395
				c-0.919,0.315-1.915,0.168-2.863,0.129C78.813,49.022,78.857,47.499,78.831,45.975z M79.391,46.359c0,1.25,0,2.5-0.002,3.751
				c0.704-0.022,1.442,0.083,2.117-0.167c1.292-0.648,1.252-2.868-0.076-3.453C80.77,46.295,80.068,46.376,79.391,46.359z"/>
		</g>
		<g>
			<path fill="#FFFFFF" d="M83.465,50.567c0.797-1.668,1.624-3.323,2.511-4.944c0.633,0.636,0.915,1.506,1.335,2.281
				c0.389,0.824,0.888,1.6,1.206,2.458c0.137,0.276-0.262,0.367-0.416,0.217c-0.289-0.381-0.484-0.822-0.714-1.24
				c-0.907,0.022-1.812,0.02-2.719,0.024C84.331,49.827,84.242,50.878,83.465,50.567z M84.905,48.865
				c0.76,0.002,1.521,0.002,2.281,0.002c-0.376-0.76-0.756-1.521-1.13-2.281C85.661,47.339,85.279,48.1,84.905,48.865z"/>
		</g>
		<g>
			<path fill="#FFFFFF" d="M89.461,46.564c0.01-0.274-0.034-0.739,0.394-0.675c0.829-0.032,1.707-0.112,2.501,0.179
				c1.707,0.763,1.685,3.658-0.059,4.367c-0.895,0.284-1.851,0.13-2.773,0.157C89.41,49.251,89.468,47.907,89.461,46.564z
				 M90.014,46.359c-0.003,1.25-0.003,2.501,0,3.753c0.733-0.034,1.525,0.105,2.213-0.22c1.188-0.731,1.113-2.842-0.193-3.409
				C91.375,46.3,90.686,46.371,90.014,46.359z"/>
		</g>
		<path fill="#FFFFFF" d="M95.041,45.931c1.152-0.105,2.321-0.09,3.478-0.017c0.049,0.105,0.144,0.315,0.193,0.42
			c-1.071,0.044-2.143,0.027-3.213,0.027c0,0.55,0,1.103,0.002,1.653c0.988-0.004,1.978-0.004,2.968,0.01
			c-0.004,0.118-0.012,0.355-0.015,0.472c-0.985,0.007-1.971,0.007-2.956,0.007c0,0.528,0,1.059,0,1.587
			c0.998,0.03,2-0.068,2.993,0.044c0.073,0.101,0.215,0.296,0.289,0.394c-1.272,0.115-2.548,0.085-3.82,0.024
			C95,49.015,94.826,47.454,95.041,45.931z"/>
		<path fill="#FFFFFF" d="M63.061,54.052c0.915-0.164,2.487,0.04,2.504,1.233c-0.57,0.068-0.827-0.673-1.396-0.685
			c-0.729-0.147-2.125-0.013-1.954,1.027c0.863,0.907,2.46,0.151,3.35,1.063c0.416,0.582,0.151,1.475-0.489,1.771
			c-0.952,0.482-2.198,0.462-3.083-0.151c-0.293-0.245-0.81-0.929-0.088-0.927c0.623,0.961,1.958,1.113,2.919,0.597
			c0.42-0.208,0.531-0.9,0.059-1.113c-0.98-0.431-2.274-0.015-3.081-0.832C61.173,55.125,62.126,54.113,63.061,54.052z"/>
		<g>
			<path fill="#FFFFFF" d="M72.128,53.883c0.749,0.677,1.003,1.709,1.504,2.561c0.318,0.75,0.897,1.425,0.988,2.252
				c-0.661,0.174-0.761-0.807-1.074-1.208c-0.897-0.002-1.795-0.002-2.692,0.02c-0.208,0.428-0.42,0.851-0.633,1.274
				c-0.122-0.051-0.367-0.154-0.489-0.205C70.524,57.008,71.294,55.429,72.128,53.883z M71.108,57.011
				c0.738,0.005,1.475,0.005,2.213,0.003c-0.362-0.741-0.731-1.482-1.098-2.223C71.849,55.529,71.478,56.27,71.108,57.011z"/>
		</g>
		<g>
			<path fill="#FFFFFF" d="M42.759,54.24c0.814-0.267,1.756-0.154,2.595-0.01c1.839,0.614,1.856,3.688,0.029,4.326
				c-0.827,0.21-1.707,0.168-2.546,0.068c-0.21-0.293-0.095-0.697-0.134-1.035C42.737,56.476,42.64,55.351,42.759,54.24z
				 M43.246,58.211c0.687-0.031,1.418,0.096,2.071-0.173c1.2-0.631,1.183-2.68-0.022-3.299c-0.647-0.228-1.354-0.137-2.029-0.181
				C43.227,55.776,43.249,56.994,43.246,58.211z"/>
		</g>
		<g>
			<path fill="#FFFFFF" d="M48.836,54.226c0.961-0.436,2.206-0.151,2.839,0.705c0.731,0.956,0.582,2.46-0.313,3.262
				c-0.9,0.819-2.47,0.746-3.265-0.183C47.117,56.889,47.403,54.827,48.836,54.226z M49.066,54.673
				c-1.531,0.653-1.22,3.351,0.475,3.551c1.11,0.245,2.137-0.775,2.051-1.875C51.678,55.069,50.206,54.113,49.066,54.673z"/>
		</g>
		<path fill="#FFFFFF" d="M57.402,54.169c1.218-0.098,2.44-0.076,3.661-0.02c-0.057,0.1-0.167,0.298-0.223,0.396
			c-0.971,0.101-1.949,0.015-2.922,0.04c0,0.535,0,1.071,0,1.604c0.917,0.02,1.839-0.057,2.756,0.034
			c0.059,0.103,0.176,0.306,0.235,0.408c-0.998,0.046-1.995,0.032-2.993,0.032c0,0.511,0.002,1.02,0.002,1.531
			c1.069,0.005,2.143-0.061,3.206,0.091c-0.073,0.088-0.218,0.262-0.291,0.35c-1.088,0.088-2.196,0.083-3.287,0.005l-0.112-0.122
			C57.339,57.069,57.422,55.617,57.402,54.169z"/>
		<path fill="#FFFFFF" d="M66.002,54.133c1.453-0.032,2.905-0.044,4.355,0.01c-0.166,0.873-1.313,0.32-1.924,0.479
			c-0.083,1.382,0.186,2.803-0.103,4.162c-0.095-0.017-0.291-0.054-0.386-0.071c-0.115-1.36-0.018-2.729-0.049-4.091
			C67.284,54.478,66.146,54.999,66.002,54.133z"/>
		<g>
			<path fill="#FFFFFF" d="M75.339,54.277c0.724-0.342,1.724-0.166,2.536-0.063c1.904,0.565,1.932,3.746,0.046,4.355
				c-0.829,0.173-1.712,0.188-2.543,0.034C75.204,57.18,75.283,55.71,75.339,54.277z M75.831,54.58
				c-0.002,1.211-0.002,2.421,0,3.631c0.672-0.022,1.376,0.076,2.024-0.154c1.257-0.609,1.24-2.756-0.032-3.338
				C77.183,54.509,76.493,54.6,75.831,54.58z"/>
		</g>
		<g>
			<path fill="#FFFFFF" d="M81.369,54.245c0.944-0.45,2.184-0.198,2.839,0.626c0.792,0.968,0.639,2.548-0.308,3.357
				c-0.92,0.792-2.485,0.69-3.258-0.259C79.711,56.857,79.987,54.864,81.369,54.245z M81.594,54.698
				c-1.46,0.682-1.159,3.276,0.477,3.519c1.215,0.303,2.293-0.905,2.088-2.081C84.101,54.92,82.655,54.14,81.594,54.698z"/>
		</g>
		<g>
			<path fill="#FFFFFF" d="M89.752,54.27c0.667-0.335,1.575-0.137,2.325-0.1c1.993,0.34,2.233,3.514,0.46,4.321
				c-0.863,0.298-1.829,0.25-2.717,0.118C89.576,57.219,89.715,55.7,89.752,54.27z M90.229,54.58
				c-0.002,1.211-0.002,2.421-0.002,3.631c0.685-0.027,1.406,0.083,2.062-0.164c1.228-0.624,1.208-2.722-0.032-3.321
				C91.605,54.504,90.901,54.604,90.229,54.58z"/>
		</g>
		<path fill="#FFFFFF" d="M94.797,54.16c1.232-0.063,2.475-0.115,3.702,0.046c-0.066,0.078-0.203,0.24-0.269,0.32
			c-0.961,0.142-1.944,0.027-2.913,0.059c-0.002,0.535-0.002,1.068,0,1.604c0.915,0.022,1.834-0.057,2.746,0.032
			c0.061,0.103,0.186,0.303,0.247,0.403c-0.998,0.056-1.998,0.039-2.996,0.039c0,0.509,0,1.02,0.002,1.531
			c1.066,0.005,2.14-0.063,3.199,0.093c-0.074,0.085-0.218,0.259-0.291,0.347c-1.142,0.103-2.304,0.071-3.448-0.02
			C94.792,57.131,94.76,55.644,94.797,54.16z"/>
		<g>
			<path fill="#FFFFFF" d="M61.293,63.264c0.247-0.43,0.394-0.995,0.873-1.23c0.919,1.555,1.697,3.194,2.438,4.839h-0.472
				c-0.264-0.421-0.499-0.858-0.733-1.296c-0.883-0.005-1.763-0.005-2.644,0c-0.232,0.435-0.465,0.873-0.719,1.296h-0.411
				C60.004,65.594,60.74,64.469,61.293,63.264z M60.973,65.1c0.736,0,1.472,0,2.21-0.002c-0.365-0.736-0.729-1.47-1.093-2.206
				C61.701,63.621,61.332,64.357,60.973,65.1z"/>
		</g>
		<g>
			<path fill="#FFFFFF" d="M70.881,66.873c0.648-1.736,1.492-3.421,2.514-4.969c0.839,1.643,1.771,3.247,2.44,4.969H75.39
				c-0.259-0.423-0.494-0.858-0.726-1.293c-0.883-0.007-1.763-0.007-2.646-0.002c-0.235,0.435-0.467,0.873-0.724,1.296H70.881z
				 M72.233,65.1c0.736,0,1.472,0,2.21,0c-0.369-0.736-0.731-1.475-1.091-2.213C72.967,63.618,72.598,64.357,72.233,65.1z"/>
		</g>
		<path fill="#FFFFFF" d="M42.921,62.508c0.855-0.553,2.051-0.558,2.932-0.054c0.399,0.213,0.504,0.673,0.394,1.086
			c-0.702-0.836-1.925-1.203-2.91-0.641c-0.447,0.201-0.518,0.949,0,1.105c0.863,0.298,1.824,0.157,2.673,0.514
			c0.609,0.262,0.672,1.118,0.33,1.614c-0.318,0.44-0.878,0.577-1.362,0.741h-0.993c-0.721-0.117-1.988-0.628-1.44-1.56
			c0.492,0.667,1.221,1.193,2.098,1.024c0.682,0.061,1.771-0.586,1.145-1.33c-0.917-0.396-1.976-0.206-2.885-0.616
			C42.182,64.026,42.258,62.897,42.921,62.508z"/>
		<g>
			<path fill="#FFFFFF" d="M46.635,66.873c0.577-1.753,1.545-3.348,2.414-4.967c0.954,1.58,1.861,3.221,2.475,4.967H51.14
				c-0.269-0.418-0.506-0.854-0.743-1.289c-0.88-0.012-1.761-0.012-2.641-0.01c-0.232,0.438-0.465,0.877-0.727,1.298H46.635z
				 M47.963,65.098c0.739,0.002,1.477,0.002,2.218,0c-0.366-0.729-0.726-1.458-1.081-2.191
				C48.697,63.623,48.325,64.359,47.963,65.098z"/>
		</g>
		<path fill="#FFFFFF" d="M52.02,62.173c0.499-0.127,0.719,0.399,0.99,0.702c0.751,1.032,1.516,2.052,2.274,3.076
			c-0.044-1.276-0.142-2.561,0.01-3.832c0.115,0.027,0.343,0.083,0.455,0.113c0.093,1.543,0.073,3.098-0.027,4.641h-0.291
			c-1.127-1.135-1.949-2.526-2.941-3.776c0.059,1.257,0.063,2.517,0.022,3.776h-0.465C51.922,65.313,51.93,63.736,52.02,62.173z"/>
		<path fill="#FFFFFF" d="M55.95,62.474c0.733-0.359,1.56-0.281,2.35-0.293c0.802,0.012,1.643-0.069,2.392,0.291
			c-0.683,0.244-1.406,0.251-2.121,0.249c0.01,1.384,0.027,2.768,0.01,4.152h-0.467c-0.142-1.379-0.056-2.766-0.073-4.15
			C57.336,62.721,56.622,62.713,55.95,62.474z"/>
		<path fill="#FFFFFF" d="M67.915,62.305c0.981-0.431,2.565-0.215,2.832,1.005c-0.844-0.42-1.824-1.01-2.763-0.484
			c-1.357,0.667-1.11,2.915,0.284,3.394c0.968,0.438,1.768-0.458,2.653-0.685c-0.315,0.807-1.1,1.22-1.917,1.337H68.7
			c-0.675-0.146-1.367-0.44-1.741-1.054C66.146,64.675,66.575,62.836,67.915,62.305z"/>
		<path fill="#FFFFFF" d="M75.023,62.205c1.394-0.015,2.788-0.013,4.182,0c-0.008,0.122-0.024,0.369-0.032,0.491
			c-0.601,0.002-1.2,0.005-1.799,0.007c-0.005,1.392,0.022,2.78-0.02,4.169H76.86c-0.037-1.389-0.022-2.778-0.022-4.169
			c-0.594-0.002-1.186-0.002-1.78-0.005C75.05,62.574,75.033,62.327,75.023,62.205z"/>
		<g>
			<path fill="#FFFFFF" d="M78.432,66.873c0.567-1.753,1.553-3.343,2.411-4.967c0.958,1.578,1.869,3.218,2.472,4.967h-0.381
				c-0.265-0.418-0.499-0.854-0.734-1.289c-0.883-0.012-1.768-0.012-2.651-0.007c-0.23,0.435-0.457,0.875-0.716,1.296H78.432z
				 M79.772,65.1c0.733,0,1.47,0,2.206-0.002c-0.367-0.729-0.726-1.46-1.081-2.193C80.494,63.621,80.127,64.357,79.772,65.1z"/>
		</g>
		<g>
			<path fill="#FFFFFF" d="M83.797,62.22c0.937-0.01,1.897-0.13,2.815,0.115c0.753,0.223,1.178,1.083,0.966,1.827
				c-0.11,0.567-0.714,0.773-1.135,1.066c0.496,0.477,0.963,1,1.228,1.646h-0.345c-0.584-0.526-1.105-1.115-1.634-1.697
				c-0.452,0-0.902,0-1.352,0c-0.015,0.565-0.029,1.132-0.046,1.697h-0.426C83.709,65.325,83.817,63.77,83.797,62.22z
				 M84.328,62.682c-0.002,0.672-0.002,1.348,0,2.022c0.772-0.044,1.619,0.139,2.338-0.21c0.643-0.345,0.486-1.35-0.135-1.626
				C85.837,62.579,85.057,62.716,84.328,62.682z"/>
		</g>
		<path fill="#FFFFFF" d="M88.368,62.117l0.276-0.144l0.162,0.217c0.137,1.553,0.073,3.125,0.004,4.683h-0.469
			C88.331,65.289,88.243,63.699,88.368,62.117z"/>
		<path fill="#FFFFFF" d="M89.833,62.029c0.352,0.2,0.704,0.425,0.939,0.768c0.778,1.047,1.543,2.101,2.333,3.138
			c-0.032-1.074-0.101-2.149-0.044-3.223c-0.018-0.35,0.154-0.58,0.513-0.687c0.079,1.614,0.059,3.233,0.01,4.849h-0.348
			c-1.101-1.149-1.93-2.521-2.917-3.763c0.027,1.254,0.081,2.511-0.032,3.763h-0.464C89.789,65.259,89.774,63.643,89.833,62.029z"/>
		<g>
			<path fill="#FFFFFF" d="M94.657,65.325c0.606-1.142,1.137-2.323,1.817-3.423c0.941,1.403,1.492,3.025,2.433,4.426v0.404
				c-0.68,0.042-0.841-0.734-1.152-1.181c-0.861,0.022-1.721,0.029-2.582,0.024c-0.235,0.44-0.472,0.883-0.751,1.298h-0.235
				C94.126,66.311,94.42,65.809,94.657,65.325z M95.381,65.1c0.736,0,1.472,0,2.208-0.007c-0.366-0.736-0.731-1.475-1.1-2.21
				C96.114,63.621,95.745,64.359,95.381,65.1z"/>
		</g>
	</g>
	<g>
		<path fill="#FFFFFF" d="M11.945,34.462c2.607-0.878,5.688,0.572,6.686,3.127c0.778,1.844,0.448,4.104-0.854,5.626
			c-1.173,1.434-3.108,2.189-4.942,1.917c-2.287-0.271-4.25-2.152-4.639-4.419C7.639,38.069,9.354,35.218,11.945,34.462z"/>
	</g>
	<g>
		<path fill="#FFFFFF" d="M3.839,51.526c1.675-0.721,3.541-0.697,5.329-0.711c5.947,0.01,11.892,0.024,17.836,0.01
			c2.188,0.017,4.541-0.13,6.52,0.971c1.526,0.836,2.208,2.629,2.22,4.297c0.032,3.506,0.002,7.013,0.012,10.522
			c-1.981,0-3.964,0.002-5.947-0.002c-0.005-2.36,0.015-4.72-0.002-7.079c-0.002-1.68-0.655-3.389-1.944-4.5
			c-1.628-1.426-3.957-1.797-6.042-1.438c-1.836,0.318-3.612,1.401-4.458,3.105c-0.541,1.015-0.655,2.186-0.653,3.318
			c0.005,2.199,0.005,4.397,0.005,6.595c-3.013-0.01-6.028,0.022-9.038-0.02c-1.734-0.049-3.614-0.166-5.06-1.237
			c-0.91-0.663-1.335-1.761-1.523-2.834v-6.908C1.25,53.903,2.171,52.169,3.839,51.526z"/>
	</g>
	<g>
		<path fill="#FFFFFF" d="M21.722,54.761c1.785-0.531,3.83-0.078,5.202,1.186c1.411,1.247,2.079,3.252,1.719,5.099
			c-0.375,2.152-2.164,3.969-4.314,4.36c-1.858,0.389-3.886-0.286-5.14-1.714c-1.293-1.416-1.733-3.531-1.135-5.351
			C18.587,56.639,20.008,55.253,21.722,54.761z"/>
	</g>
</g>
</svg>
